<svg width="17" height="18" viewBox="0 0 17 18" fill="none" xmlns="http://www.w3.org/2000/svg">
<g id="&#240;&#159;&#166;&#134; emoji &#34;locked&#34;">
<path id="Vector" d="M13.3801 12.3372C12.8375 12.3372 12.3975 11.8911 12.3975 11.3409V5.53904C12.3975 3.58362 10.8286 1.99271 8.90012 1.99271C6.97168 1.99271 5.40272 3.58358 5.40272 5.53904V8.91351C5.40272 9.46379 4.96279 9.90987 4.42011 9.90987C3.87743 9.90987 3.4375 9.46379 3.4375 8.91351V5.53904C3.4375 2.48479 5.88801 0 8.90012 0C11.9122 0 14.3627 2.48479 14.3627 5.53904V11.3409C14.3627 11.8911 13.9228 12.3372 13.3801 12.3372Z" fill="#B3B3B4"/>
<path id="Vector_2" d="M14.8771 18.0002H2.9198C1.80344 18.0002 0.898438 17.1132 0.898438 16.0189V9.24299C0.898438 8.14877 1.80344 7.26172 2.9198 7.26172H14.8771C15.9934 7.26172 16.8984 8.14877 16.8984 9.24299V16.0189C16.8984 17.1132 15.9934 18.0002 14.8771 18.0002Z" fill="#FF9D1B"/>
<path id="Vector_3" d="M2.64755 16.719H2.54628C2.22732 16.719 1.96875 16.4568 1.96875 16.1334V9.49919C1.96875 9.17576 2.22732 8.91357 2.54628 8.91357H2.64755C2.96652 8.91357 3.22509 9.17576 3.22509 9.49919V16.1334C3.22509 16.4568 2.96652 16.719 2.64755 16.719Z" fill="#FFBF69"/>
</g>
</svg>
