<svg width="24" height="24" viewBox="0 0 24 24" fill="none" xmlns="http://www.w3.org/2000/svg">
<path d="M16.4817 14.173C15.939 14.173 15.4991 13.769 15.4991 13.2707V8.01635C15.4991 6.24542 13.9302 4.80467 12.0017 4.80467C10.0732 4.80467 8.50428 6.24542 8.50428 8.01635C8.50428 8.51469 8.06435 8.91868 7.52167 8.91868C6.97899 8.91868 6.53906 8.51469 6.53906 8.01635C6.53906 5.25031 8.98957 3 12.0017 3C15.0138 3 17.4643 5.25034 17.4643 8.01635V13.2707C17.4643 13.769 17.0244 14.173 16.4817 14.173Z" fill="#B3B3B4"/>
<path d="M17.9786 21.0002H6.02137C4.905 21.0002 4 20.1691 4 19.144V12.7957C4 11.7705 4.905 10.9395 6.02137 10.9395H17.9786C19.095 10.9395 20 11.7705 20 12.7957V19.1439C20 20.1691 19.095 21.0002 17.9786 21.0002Z" fill="#FF9D1B"/>
<path d="M5.74911 19.5044H5.64785C5.32888 19.5044 5.07031 19.2669 5.07031 18.974V12.9659C5.07031 12.673 5.32888 12.4355 5.64785 12.4355H5.74911C6.06808 12.4355 6.32665 12.673 6.32665 12.9659V18.974C6.32665 19.2669 6.06808 19.5044 5.74911 19.5044Z" fill="#FFBF69"/>
</svg>
