<svg width="24" height="24" viewBox="0 0 24 24" fill="none" xmlns="http://www.w3.org/2000/svg">
<path fill-rule="evenodd" clip-rule="evenodd" d="M13.7157 19.7503C13.1934 20.0599 12.6408 20.3085 12.0574 20.4987C12.0367 20.4994 12.0109 20.4999 11.9795 20.5C11.9789 20.5 11.9783 20.5 11.9776 20.4999C11.9706 20.4997 11.9598 20.4993 11.946 20.4986C11.9233 20.4975 11.8979 20.496 11.8735 20.4941C10.0792 19.9051 8.57555 18.7632 7.35273 16.989C6.11271 15.1898 5.5 13.2236 5.5 11.0518V6.27307C5.5 6.15907 5.5259 6.08604 5.58173 6.00799C5.65561 5.90471 5.73489 5.84297 5.84232 5.79888L11.7943 3.53366C11.8693 3.5074 11.9267 3.5 11.9724 3.5C12.0181 3.5 12.0754 3.5074 12.1504 3.53366L18.103 5.79909C18.2113 5.84339 18.2905 5.90521 18.364 6.00799C18.4194 6.08537 18.4449 6.1575 18.4447 6.27071V6.27307V7.7053C18.9878 7.98124 19.4934 8.33421 19.9447 8.75718V6.27307C19.9454 5.85166 19.8252 5.4724 19.584 5.13527C19.3428 4.79815 19.0312 4.55373 18.6492 4.40202L12.67 2.12642C12.4374 2.04214 12.2049 2 11.9724 2C11.7398 2 11.5073 2.04214 11.2748 2.12642L5.29551 4.40202C4.91417 4.55373 4.60291 4.79815 4.36175 5.13527C4.12058 5.4724 4 5.85166 4 6.27307V11.0518C4 13.529 4.70589 15.7918 6.11766 17.8402C7.52944 19.8886 9.32322 21.2583 11.499 21.9494C11.5654 21.9831 11.8893 22 11.9724 22C12.2049 22 12.3627 21.9831 12.4457 21.9494C13.7454 21.537 14.9088 20.8823 15.9358 19.9854C15.791 19.9951 15.6456 20 15.5 20C14.8953 20 14.2949 19.9156 13.7157 19.7503ZM11.9795 20.5C11.9771 20.5 11.9748 20.5 11.9724 20.5C11.9752 20.5 11.9775 20.5 11.9792 20.5C11.9838 20.5001 11.9842 20.5001 11.9795 20.5Z" fill="#B3B3B4"/>
<path d="M11.3425 15.2221C11.1164 14.6761 11 14.0909 11 13.5C11 12.3065 11.4741 11.1619 12.318 10.318C13.1619 9.47411 14.3065 9 15.5 9C16.6935 9 17.8381 9.47411 18.682 10.318C19.5259 11.1619 20 12.3065 20 13.5C20 14.0909 19.8836 14.6761 19.6575 15.2221C19.4313 15.768 19.0998 16.2641 18.682 16.682C18.2641 17.0998 17.768 17.4313 17.2221 17.6575C16.6761 17.8836 16.0909 18 15.5 18C14.9091 18 14.3239 17.8836 13.7779 17.6575C13.232 17.4313 12.7359 17.0998 12.318 16.682C11.9002 16.2641 11.5687 15.768 11.3425 15.2221Z" fill="" stroke="#B3B3B4" stroke-width="1.3" stroke-linecap="round" stroke-linejoin="round"/>
<path d="M15.4872 11L15.5134 16M18 13.5H13" stroke="#B3B3B4" stroke-width="1.1" stroke-linecap="round"/>
</svg>
