<svg width="12" height="12" viewBox="0 0 12 12" fill="none" xmlns="http://www.w3.org/2000/svg">
<g id="Assigned worker">
<g id="Group 427318774">
<g id="Vector">
<mask id="path-1-inside-1_8319_115563" fill="white">
<path fill-rule="evenodd" clip-rule="evenodd" d="M5.36758 1.92188C4.85394 1.92188 4.36133 2.13342 3.99812 2.50997C3.63492 2.88652 3.43087 3.39723 3.43087 3.92975C3.43087 4.46227 3.63492 4.97298 3.99812 5.34953C4.36133 5.72608 4.85394 5.93762 5.36758 5.93762C5.88123 5.93762 6.37384 5.72608 6.73704 5.34953C7.10025 4.97298 7.30429 4.46227 7.30429 3.92975C7.30429 3.39723 7.10025 2.88652 6.73704 2.50997C6.37384 2.13342 5.88123 1.92188 5.36758 1.92188ZM4.11442 3.92975C4.11442 3.58518 4.24645 3.25472 4.48146 3.01107C4.71648 2.76742 5.03522 2.63054 5.36758 2.63054C5.69994 2.63054 6.01869 2.76742 6.2537 3.01107C6.48872 3.25472 6.62075 3.58518 6.62075 3.92975C6.62075 4.27432 6.48872 4.60478 6.2537 4.84843C6.01869 5.09208 5.69994 5.22896 5.36758 5.22896C5.03522 5.22896 4.71648 5.09208 4.48146 4.84843C4.24645 4.60478 4.11442 4.27432 4.11442 3.92975Z"/>
<path d="M2.51948 8.41794C2.51948 8.13601 2.62751 7.86564 2.81979 7.66629C3.01207 7.46694 3.27287 7.35495 3.5448 7.35495H3.69974C3.71204 7.35495 3.72389 7.35684 3.73528 7.36062L4.12991 7.49432C4.43979 7.5992 4.75877 7.66345 5.07958 7.68802C5.11238 7.68988 5.14474 7.67953 5.17081 7.65882C5.19689 7.63811 5.21496 7.60842 5.22176 7.5751C5.25639 7.42061 5.30105 7.27038 5.35573 7.12534C5.36125 7.11033 5.36323 7.09418 5.36152 7.07821C5.35982 7.06225 5.35446 7.04694 5.34591 7.03355C5.33736 7.02016 5.32585 7.00907 5.31235 7.00121C5.29884 6.99335 5.28372 6.98893 5.26824 6.98833C4.95345 6.97846 4.64164 6.92198 4.34227 6.82061L3.94763 6.68691C3.86773 6.65996 3.78422 6.64624 3.70019 6.64628H3.5448C3.09158 6.64628 2.65692 6.83294 2.33645 7.16519C2.01598 7.49744 1.83594 7.94807 1.83594 8.41794V8.9792C1.83594 9.33542 2.08475 9.63872 2.42379 9.69589C3.40672 9.86266 4.40014 9.94487 5.39356 9.94345C5.46282 9.94345 5.50611 9.8655 5.47558 9.80172C5.40805 9.66222 5.35018 9.51792 5.30242 9.36991C5.29032 9.33086 5.26679 9.29669 5.23511 9.27214C5.20342 9.24759 5.16515 9.23387 5.12561 9.2329C4.25717 9.2206 3.3908 9.14165 2.53361 8.99668C2.52963 8.996 2.52601 8.99386 2.52342 8.99065C2.52082 8.98745 2.51943 8.98338 2.51948 8.9792V8.41794Z"/>
<path fill-rule="evenodd" clip-rule="evenodd" d="M8.32961 10.9219C8.99433 10.9219 9.63182 10.6481 10.1019 10.1608C10.5719 9.67351 10.8359 9.01259 10.8359 8.32345C10.8359 7.6343 10.5719 6.97339 10.1019 6.48609C9.63182 5.99879 8.99433 5.72502 8.32961 5.72502C7.66489 5.72502 7.02739 5.99879 6.55737 6.48609C6.08734 6.97339 5.82328 7.6343 5.82328 8.32345C5.82328 9.01259 6.08734 9.67351 6.55737 10.1608C7.02739 10.6481 7.66489 10.9219 8.32961 10.9219ZM8.32961 10.2132C8.81304 10.2132 9.27667 10.0141 9.61851 9.65972C9.96035 9.30532 10.1524 8.82465 10.1524 8.32345C10.1524 7.82225 9.96035 7.34158 9.61851 6.98719C9.27667 6.63279 8.81304 6.43369 8.32961 6.43369C7.84618 6.43369 7.38254 6.63279 7.04071 6.98719C6.69887 7.34158 6.50682 7.82225 6.50682 8.32345C6.50682 8.82465 6.69887 9.30532 7.04071 9.65972C7.38254 10.0141 7.84618 10.2132 8.32961 10.2132Z"/>
</mask>
<path fill-rule="evenodd" clip-rule="evenodd" d="M5.36758 1.92188C4.85394 1.92188 4.36133 2.13342 3.99812 2.50997C3.63492 2.88652 3.43087 3.39723 3.43087 3.92975C3.43087 4.46227 3.63492 4.97298 3.99812 5.34953C4.36133 5.72608 4.85394 5.93762 5.36758 5.93762C5.88123 5.93762 6.37384 5.72608 6.73704 5.34953C7.10025 4.97298 7.30429 4.46227 7.30429 3.92975C7.30429 3.39723 7.10025 2.88652 6.73704 2.50997C6.37384 2.13342 5.88123 1.92188 5.36758 1.92188ZM4.11442 3.92975C4.11442 3.58518 4.24645 3.25472 4.48146 3.01107C4.71648 2.76742 5.03522 2.63054 5.36758 2.63054C5.69994 2.63054 6.01869 2.76742 6.2537 3.01107C6.48872 3.25472 6.62075 3.58518 6.62075 3.92975C6.62075 4.27432 6.48872 4.60478 6.2537 4.84843C6.01869 5.09208 5.69994 5.22896 5.36758 5.22896C5.03522 5.22896 4.71648 5.09208 4.48146 4.84843C4.24645 4.60478 4.11442 4.27432 4.11442 3.92975Z" fill="#B3B3B4"/>
<path d="M2.51948 8.41794C2.51948 8.13601 2.62751 7.86564 2.81979 7.66629C3.01207 7.46694 3.27287 7.35495 3.5448 7.35495H3.69974C3.71204 7.35495 3.72389 7.35684 3.73528 7.36062L4.12991 7.49432C4.43979 7.5992 4.75877 7.66345 5.07958 7.68802C5.11238 7.68988 5.14474 7.67953 5.17081 7.65882C5.19689 7.63811 5.21496 7.60842 5.22176 7.5751C5.25639 7.42061 5.30105 7.27038 5.35573 7.12534C5.36125 7.11033 5.36323 7.09418 5.36152 7.07821C5.35982 7.06225 5.35446 7.04694 5.34591 7.03355C5.33736 7.02016 5.32585 7.00907 5.31235 7.00121C5.29884 6.99335 5.28372 6.98893 5.26824 6.98833C4.95345 6.97846 4.64164 6.92198 4.34227 6.82061L3.94763 6.68691C3.86773 6.65996 3.78422 6.64624 3.70019 6.64628H3.5448C3.09158 6.64628 2.65692 6.83294 2.33645 7.16519C2.01598 7.49744 1.83594 7.94807 1.83594 8.41794V8.9792C1.83594 9.33542 2.08475 9.63872 2.42379 9.69589C3.40672 9.86266 4.40014 9.94487 5.39356 9.94345C5.46282 9.94345 5.50611 9.8655 5.47558 9.80172C5.40805 9.66222 5.35018 9.51792 5.30242 9.36991C5.29032 9.33086 5.26679 9.29669 5.23511 9.27214C5.20342 9.24759 5.16515 9.23387 5.12561 9.2329C4.25717 9.2206 3.3908 9.14165 2.53361 8.99668C2.52963 8.996 2.52601 8.99386 2.52342 8.99065C2.52082 8.98745 2.51943 8.98338 2.51948 8.9792V8.41794Z" fill="#B3B3B4"/>
<path fill-rule="evenodd" clip-rule="evenodd" d="M8.32961 10.9219C8.99433 10.9219 9.63182 10.6481 10.1019 10.1608C10.5719 9.67351 10.8359 9.01259 10.8359 8.32345C10.8359 7.6343 10.5719 6.97339 10.1019 6.48609C9.63182 5.99879 8.99433 5.72502 8.32961 5.72502C7.66489 5.72502 7.02739 5.99879 6.55737 6.48609C6.08734 6.97339 5.82328 7.6343 5.82328 8.32345C5.82328 9.01259 6.08734 9.67351 6.55737 10.1608C7.02739 10.6481 7.66489 10.9219 8.32961 10.9219ZM8.32961 10.2132C8.81304 10.2132 9.27667 10.0141 9.61851 9.65972C9.96035 9.30532 10.1524 8.82465 10.1524 8.32345C10.1524 7.82225 9.96035 7.34158 9.61851 6.98719C9.27667 6.63279 8.81304 6.43369 8.32961 6.43369C7.84618 6.43369 7.38254 6.63279 7.04071 6.98719C6.69887 7.34158 6.50682 7.82225 6.50682 8.32345C6.50682 8.82465 6.69887 9.30532 7.04071 9.65972C7.38254 10.0141 7.84618 10.2132 8.32961 10.2132Z" fill="#B3B3B4"/>
<path fill-rule="evenodd" clip-rule="evenodd" d="M5.36758 1.92188C4.85394 1.92188 4.36133 2.13342 3.99812 2.50997C3.63492 2.88652 3.43087 3.39723 3.43087 3.92975C3.43087 4.46227 3.63492 4.97298 3.99812 5.34953C4.36133 5.72608 4.85394 5.93762 5.36758 5.93762C5.88123 5.93762 6.37384 5.72608 6.73704 5.34953C7.10025 4.97298 7.30429 4.46227 7.30429 3.92975C7.30429 3.39723 7.10025 2.88652 6.73704 2.50997C6.37384 2.13342 5.88123 1.92188 5.36758 1.92188ZM4.11442 3.92975C4.11442 3.58518 4.24645 3.25472 4.48146 3.01107C4.71648 2.76742 5.03522 2.63054 5.36758 2.63054C5.69994 2.63054 6.01869 2.76742 6.2537 3.01107C6.48872 3.25472 6.62075 3.58518 6.62075 3.92975C6.62075 4.27432 6.48872 4.60478 6.2537 4.84843C6.01869 5.09208 5.69994 5.22896 5.36758 5.22896C5.03522 5.22896 4.71648 5.09208 4.48146 4.84843C4.24645 4.60478 4.11442 4.27432 4.11442 3.92975Z" stroke="#B3B3B4" stroke-width="3" mask="url(#path-1-inside-1_8319_115563)"/>
<path d="M2.51948 8.41794C2.51948 8.13601 2.62751 7.86564 2.81979 7.66629C3.01207 7.46694 3.27287 7.35495 3.5448 7.35495H3.69974C3.71204 7.35495 3.72389 7.35684 3.73528 7.36062L4.12991 7.49432C4.43979 7.5992 4.75877 7.66345 5.07958 7.68802C5.11238 7.68988 5.14474 7.67953 5.17081 7.65882C5.19689 7.63811 5.21496 7.60842 5.22176 7.5751C5.25639 7.42061 5.30105 7.27038 5.35573 7.12534C5.36125 7.11033 5.36323 7.09418 5.36152 7.07821C5.35982 7.06225 5.35446 7.04694 5.34591 7.03355C5.33736 7.02016 5.32585 7.00907 5.31235 7.00121C5.29884 6.99335 5.28372 6.98893 5.26824 6.98833C4.95345 6.97846 4.64164 6.92198 4.34227 6.82061L3.94763 6.68691C3.86773 6.65996 3.78422 6.64624 3.70019 6.64628H3.5448C3.09158 6.64628 2.65692 6.83294 2.33645 7.16519C2.01598 7.49744 1.83594 7.94807 1.83594 8.41794V8.9792C1.83594 9.33542 2.08475 9.63872 2.42379 9.69589C3.40672 9.86266 4.40014 9.94487 5.39356 9.94345C5.46282 9.94345 5.50611 9.8655 5.47558 9.80172C5.40805 9.66222 5.35018 9.51792 5.30242 9.36991C5.29032 9.33086 5.26679 9.29669 5.23511 9.27214C5.20342 9.24759 5.16515 9.23387 5.12561 9.2329C4.25717 9.2206 3.3908 9.14165 2.53361 8.99668C2.52963 8.996 2.52601 8.99386 2.52342 8.99065C2.52082 8.98745 2.51943 8.98338 2.51948 8.9792V8.41794Z" stroke="#B3B3B4" stroke-width="3" mask="url(#path-1-inside-1_8319_115563)"/>
<path fill-rule="evenodd" clip-rule="evenodd" d="M8.32961 10.9219C8.99433 10.9219 9.63182 10.6481 10.1019 10.1608C10.5719 9.67351 10.8359 9.01259 10.8359 8.32345C10.8359 7.6343 10.5719 6.97339 10.1019 6.48609C9.63182 5.99879 8.99433 5.72502 8.32961 5.72502C7.66489 5.72502 7.02739 5.99879 6.55737 6.48609C6.08734 6.97339 5.82328 7.6343 5.82328 8.32345C5.82328 9.01259 6.08734 9.67351 6.55737 10.1608C7.02739 10.6481 7.66489 10.9219 8.32961 10.9219ZM8.32961 10.2132C8.81304 10.2132 9.27667 10.0141 9.61851 9.65972C9.96035 9.30532 10.1524 8.82465 10.1524 8.32345C10.1524 7.82225 9.96035 7.34158 9.61851 6.98719C9.27667 6.63279 8.81304 6.43369 8.32961 6.43369C7.84618 6.43369 7.38254 6.63279 7.04071 6.98719C6.69887 7.34158 6.50682 7.82225 6.50682 8.32345C6.50682 8.82465 6.69887 9.30532 7.04071 9.65972C7.38254 10.0141 7.84618 10.2132 8.32961 10.2132Z" stroke="#B3B3B4" stroke-width="3" mask="url(#path-1-inside-1_8319_115563)"/>
</g>
<path id="Vector 10" d="M7.28125 8.34597L7.90048 9.07825C7.93862 9.12335 8.00732 9.12575 8.04851 9.08342L9.3613 7.73438" stroke="#B3B3B4" stroke-width="0.6" stroke-linecap="round"/>
</g>
</g>
</svg>
