<svg width="24" height="24" viewBox="0 0 24 24" fill="none" xmlns="http://www.w3.org/2000/svg">
<g id="Assigned worker">
<g id="Group 427318774">
<g id="Vector">
<mask id="path-1-inside-1_8319_20829" fill="white">
<path fill-rule="evenodd" clip-rule="evenodd" d="M10.743 3.84375C9.71568 3.84375 8.73047 4.26684 8.00406 5.01994C7.27765 5.77303 6.86956 6.79446 6.86956 7.8595C6.86956 8.92454 7.27765 9.94596 8.00406 10.6991C8.73047 11.4522 9.71568 11.8752 10.743 11.8752C11.7703 11.8752 12.7555 11.4522 13.4819 10.6991C14.2083 9.94596 14.6164 8.92454 14.6164 7.8595C14.6164 6.79446 14.2083 5.77303 13.4819 5.01994C12.7555 4.26684 11.7703 3.84375 10.743 3.84375ZM8.23665 7.8595C8.23665 7.17035 8.50071 6.50943 8.97074 6.02213C9.44076 5.53483 10.0783 5.26107 10.743 5.26107C11.4077 5.26107 12.0452 5.53483 12.5152 6.02213C12.9852 6.50943 13.2493 7.17035 13.2493 7.8595C13.2493 8.54864 12.9852 9.20956 12.5152 9.69686C12.0452 10.1842 11.4077 10.4579 10.743 10.4579C10.0783 10.4579 9.44076 10.1842 8.97074 9.69686C8.50071 9.20956 8.23665 8.54864 8.23665 7.8595Z"/>
<path d="M5.04678 16.8359C5.04678 16.272 5.26282 15.7313 5.64739 15.3326C6.03196 14.9339 6.55355 14.7099 7.09741 14.7099H7.40728C7.43189 14.7099 7.45559 14.7137 7.47837 14.7212L8.26764 14.9886C8.88738 15.1984 9.52536 15.3269 10.167 15.376C10.2326 15.3798 10.2973 15.3591 10.3494 15.3176C10.4016 15.2762 10.4377 15.2168 10.4513 15.1502C10.5206 14.8412 10.6099 14.5408 10.7193 14.2507C10.7303 14.2207 10.7343 14.1884 10.7309 14.1564C10.7274 14.1245 10.7167 14.0939 10.6996 14.0671C10.6825 14.0403 10.6595 14.0181 10.6325 14.0024C10.6055 13.9867 10.5753 13.9779 10.5443 13.9767C9.91471 13.9569 9.29109 13.844 8.69235 13.6412L7.90308 13.3738C7.74327 13.3199 7.57625 13.2925 7.40819 13.2926H7.09741C6.19097 13.2926 5.32166 13.6659 4.68071 14.3304C4.03977 14.9949 3.67969 15.8961 3.67969 16.8359V17.9584C3.67969 18.6708 4.17731 19.2774 4.85538 19.3918C6.82126 19.7253 8.80809 19.8897 10.7949 19.8869C10.9335 19.8869 11.02 19.731 10.959 19.6034C10.8239 19.3244 10.7082 19.0358 10.6126 18.7398C10.5884 18.6617 10.5414 18.5934 10.478 18.5443C10.4147 18.4952 10.3381 18.4677 10.259 18.4658C8.52215 18.4412 6.78941 18.2833 5.07503 17.9934C5.06706 17.992 5.05983 17.9877 5.05465 17.9813C5.04946 17.9749 5.04667 17.9668 5.04678 17.9584V16.8359Z"/>
<path fill-rule="evenodd" clip-rule="evenodd" d="M16.667 21.8438C17.9965 21.8438 19.2715 21.2962 20.2115 20.3216C21.1516 19.347 21.6797 18.0252 21.6797 16.6469C21.6797 15.2686 21.1516 13.9468 20.2115 12.9722C19.2715 11.9976 17.9965 11.45 16.667 11.45C15.3376 11.45 14.0626 11.9976 13.1225 12.9722C12.1825 13.9468 11.6544 15.2686 11.6544 16.6469C11.6544 18.0252 12.1825 19.347 13.1225 20.3216C14.0626 21.2962 15.3376 21.8438 16.667 21.8438ZM16.667 20.4264C17.6339 20.4264 18.5612 20.0282 19.2448 19.3194C19.9285 18.6106 20.3126 17.6493 20.3126 16.6469C20.3126 15.6445 19.9285 14.6832 19.2448 13.9744C18.5612 13.2656 17.6339 12.8674 16.667 12.8674C15.7002 12.8674 14.7729 13.2656 14.0892 13.9744C13.4055 14.6832 13.0215 15.6445 13.0215 16.6469C13.0215 17.6493 13.4055 18.6106 14.0892 19.3194C14.7729 20.0282 15.7002 20.4264 16.667 20.4264Z"/>
</mask>
<path fill-rule="evenodd" clip-rule="evenodd" d="M10.743 3.84375C9.71568 3.84375 8.73047 4.26684 8.00406 5.01994C7.27765 5.77303 6.86956 6.79446 6.86956 7.8595C6.86956 8.92454 7.27765 9.94596 8.00406 10.6991C8.73047 11.4522 9.71568 11.8752 10.743 11.8752C11.7703 11.8752 12.7555 11.4522 13.4819 10.6991C14.2083 9.94596 14.6164 8.92454 14.6164 7.8595C14.6164 6.79446 14.2083 5.77303 13.4819 5.01994C12.7555 4.26684 11.7703 3.84375 10.743 3.84375ZM8.23665 7.8595C8.23665 7.17035 8.50071 6.50943 8.97074 6.02213C9.44076 5.53483 10.0783 5.26107 10.743 5.26107C11.4077 5.26107 12.0452 5.53483 12.5152 6.02213C12.9852 6.50943 13.2493 7.17035 13.2493 7.8595C13.2493 8.54864 12.9852 9.20956 12.5152 9.69686C12.0452 10.1842 11.4077 10.4579 10.743 10.4579C10.0783 10.4579 9.44076 10.1842 8.97074 9.69686C8.50071 9.20956 8.23665 8.54864 8.23665 7.8595Z" fill="#F8F8F8"/>
<path d="M5.04678 16.8359C5.04678 16.272 5.26282 15.7313 5.64739 15.3326C6.03196 14.9339 6.55355 14.7099 7.09741 14.7099H7.40728C7.43189 14.7099 7.45559 14.7137 7.47837 14.7212L8.26764 14.9886C8.88738 15.1984 9.52536 15.3269 10.167 15.376C10.2326 15.3798 10.2973 15.3591 10.3494 15.3176C10.4016 15.2762 10.4377 15.2168 10.4513 15.1502C10.5206 14.8412 10.6099 14.5408 10.7193 14.2507C10.7303 14.2207 10.7343 14.1884 10.7309 14.1564C10.7274 14.1245 10.7167 14.0939 10.6996 14.0671C10.6825 14.0403 10.6595 14.0181 10.6325 14.0024C10.6055 13.9867 10.5753 13.9779 10.5443 13.9767C9.91471 13.9569 9.29109 13.844 8.69235 13.6412L7.90308 13.3738C7.74327 13.3199 7.57625 13.2925 7.40819 13.2926H7.09741C6.19097 13.2926 5.32166 13.6659 4.68071 14.3304C4.03977 14.9949 3.67969 15.8961 3.67969 16.8359V17.9584C3.67969 18.6708 4.17731 19.2774 4.85538 19.3918C6.82126 19.7253 8.80809 19.8897 10.7949 19.8869C10.9335 19.8869 11.02 19.731 10.959 19.6034C10.8239 19.3244 10.7082 19.0358 10.6126 18.7398C10.5884 18.6617 10.5414 18.5934 10.478 18.5443C10.4147 18.4952 10.3381 18.4677 10.259 18.4658C8.52215 18.4412 6.78941 18.2833 5.07503 17.9934C5.06706 17.992 5.05983 17.9877 5.05465 17.9813C5.04946 17.9749 5.04667 17.9668 5.04678 17.9584V16.8359Z" fill="#F8F8F8"/>
<path fill-rule="evenodd" clip-rule="evenodd" d="M16.667 21.8438C17.9965 21.8438 19.2715 21.2962 20.2115 20.3216C21.1516 19.347 21.6797 18.0252 21.6797 16.6469C21.6797 15.2686 21.1516 13.9468 20.2115 12.9722C19.2715 11.9976 17.9965 11.45 16.667 11.45C15.3376 11.45 14.0626 11.9976 13.1225 12.9722C12.1825 13.9468 11.6544 15.2686 11.6544 16.6469C11.6544 18.0252 12.1825 19.347 13.1225 20.3216C14.0626 21.2962 15.3376 21.8438 16.667 21.8438ZM16.667 20.4264C17.6339 20.4264 18.5612 20.0282 19.2448 19.3194C19.9285 18.6106 20.3126 17.6493 20.3126 16.6469C20.3126 15.6445 19.9285 14.6832 19.2448 13.9744C18.5612 13.2656 17.6339 12.8674 16.667 12.8674C15.7002 12.8674 14.7729 13.2656 14.0892 13.9744C13.4055 14.6832 13.0215 15.6445 13.0215 16.6469C13.0215 17.6493 13.4055 18.6106 14.0892 19.3194C14.7729 20.0282 15.7002 20.4264 16.667 20.4264Z" fill="#F8F8F8"/>
<path fill-rule="evenodd" clip-rule="evenodd" d="M10.743 3.84375C9.71568 3.84375 8.73047 4.26684 8.00406 5.01994C7.27765 5.77303 6.86956 6.79446 6.86956 7.8595C6.86956 8.92454 7.27765 9.94596 8.00406 10.6991C8.73047 11.4522 9.71568 11.8752 10.743 11.8752C11.7703 11.8752 12.7555 11.4522 13.4819 10.6991C14.2083 9.94596 14.6164 8.92454 14.6164 7.8595C14.6164 6.79446 14.2083 5.77303 13.4819 5.01994C12.7555 4.26684 11.7703 3.84375 10.743 3.84375ZM8.23665 7.8595C8.23665 7.17035 8.50071 6.50943 8.97074 6.02213C9.44076 5.53483 10.0783 5.26107 10.743 5.26107C11.4077 5.26107 12.0452 5.53483 12.5152 6.02213C12.9852 6.50943 13.2493 7.17035 13.2493 7.8595C13.2493 8.54864 12.9852 9.20956 12.5152 9.69686C12.0452 10.1842 11.4077 10.4579 10.743 10.4579C10.0783 10.4579 9.44076 10.1842 8.97074 9.69686C8.50071 9.20956 8.23665 8.54864 8.23665 7.8595Z" stroke="#F8F8F8" stroke-width="3" mask="url(#path-1-inside-1_8319_20829)"/>
<path d="M5.04678 16.8359C5.04678 16.272 5.26282 15.7313 5.64739 15.3326C6.03196 14.9339 6.55355 14.7099 7.09741 14.7099H7.40728C7.43189 14.7099 7.45559 14.7137 7.47837 14.7212L8.26764 14.9886C8.88738 15.1984 9.52536 15.3269 10.167 15.376C10.2326 15.3798 10.2973 15.3591 10.3494 15.3176C10.4016 15.2762 10.4377 15.2168 10.4513 15.1502C10.5206 14.8412 10.6099 14.5408 10.7193 14.2507C10.7303 14.2207 10.7343 14.1884 10.7309 14.1564C10.7274 14.1245 10.7167 14.0939 10.6996 14.0671C10.6825 14.0403 10.6595 14.0181 10.6325 14.0024C10.6055 13.9867 10.5753 13.9779 10.5443 13.9767C9.91471 13.9569 9.29109 13.844 8.69235 13.6412L7.90308 13.3738C7.74327 13.3199 7.57625 13.2925 7.40819 13.2926H7.09741C6.19097 13.2926 5.32166 13.6659 4.68071 14.3304C4.03977 14.9949 3.67969 15.8961 3.67969 16.8359V17.9584C3.67969 18.6708 4.17731 19.2774 4.85538 19.3918C6.82126 19.7253 8.80809 19.8897 10.7949 19.8869C10.9335 19.8869 11.02 19.731 10.959 19.6034C10.8239 19.3244 10.7082 19.0358 10.6126 18.7398C10.5884 18.6617 10.5414 18.5934 10.478 18.5443C10.4147 18.4952 10.3381 18.4677 10.259 18.4658C8.52215 18.4412 6.78941 18.2833 5.07503 17.9934C5.06706 17.992 5.05983 17.9877 5.05465 17.9813C5.04946 17.9749 5.04667 17.9668 5.04678 17.9584V16.8359Z" stroke="#F8F8F8" stroke-width="3" mask="url(#path-1-inside-1_8319_20829)"/>
<path fill-rule="evenodd" clip-rule="evenodd" d="M16.667 21.8438C17.9965 21.8438 19.2715 21.2962 20.2115 20.3216C21.1516 19.347 21.6797 18.0252 21.6797 16.6469C21.6797 15.2686 21.1516 13.9468 20.2115 12.9722C19.2715 11.9976 17.9965 11.45 16.667 11.45C15.3376 11.45 14.0626 11.9976 13.1225 12.9722C12.1825 13.9468 11.6544 15.2686 11.6544 16.6469C11.6544 18.0252 12.1825 19.347 13.1225 20.3216C14.0626 21.2962 15.3376 21.8438 16.667 21.8438ZM16.667 20.4264C17.6339 20.4264 18.5612 20.0282 19.2448 19.3194C19.9285 18.6106 20.3126 17.6493 20.3126 16.6469C20.3126 15.6445 19.9285 14.6832 19.2448 13.9744C18.5612 13.2656 17.6339 12.8674 16.667 12.8674C15.7002 12.8674 14.7729 13.2656 14.0892 13.9744C13.4055 14.6832 13.0215 15.6445 13.0215 16.6469C13.0215 17.6493 13.4055 18.6106 14.0892 19.3194C14.7729 20.0282 15.7002 20.4264 16.667 20.4264Z" stroke="#F8F8F8" stroke-width="3" mask="url(#path-1-inside-1_8319_20829)"/>
</g>
<path id="Vector 10" d="M14.5781 16.6958L15.8878 18.2446C15.9259 18.2897 15.9946 18.2921 16.0358 18.2497L18.7382 15.4727" stroke="#F8F8F8" stroke-linecap="round"/>
</g>
</g>
</svg>
