<svg width="24" height="24" viewBox="0 0 24 24" fill="none" xmlns="http://www.w3.org/2000/svg" id="attach-file">
<g clip-path="url(#clip0_7466_88913)">
<path fill-rule="evenodd" clip-rule="evenodd" d="M6.96649 18.0708C7.69507 18.7901 8.68317 19.1942 9.71347 19.1942C10.7438 19.1942 11.7319 18.7901 12.4605 18.0708L18.4389 12.1674C18.6103 11.9981 18.8429 11.9029 19.0854 11.9028C19.3278 11.9027 19.5604 11.9977 19.732 12.167C19.9035 12.3362 19.9999 12.5658 20 12.8053C20.0001 13.0447 19.9038 13.2744 19.7324 13.4438L13.754 19.3471C12.6826 20.4053 11.2294 20.9998 9.71412 21C8.19881 21.0002 6.7455 20.4059 5.6739 19.348C4.60229 18.2901 4.00017 16.8552 4 15.3589C3.99983 13.8627 4.60162 12.4276 5.67298 11.3695L12.945 4.18978C13.7167 3.42789 14.7633 2.99992 15.8545 3C16.9458 3.00008 17.9923 3.42822 18.7639 4.19023C19.5355 4.95223 19.9689 5.98569 19.9688 7.06324C19.9687 8.1408 19.5351 9.17418 18.7634 9.93607L11.4933 17.1149C11.0192 17.5694 10.383 17.8215 9.72214 17.8167C9.06132 17.8118 8.42897 17.5504 7.96174 17.0889C7.49452 16.6275 7.22995 16.003 7.2252 15.3505C7.22046 14.698 7.47592 14.0698 7.93639 13.6017L14.5611 7.06112C14.7326 6.89174 14.9651 6.79654 15.2076 6.79646C15.4501 6.79637 15.6827 6.89141 15.8542 7.06067C16.0257 7.22992 16.1221 7.45953 16.1222 7.69898C16.1223 7.93842 16.0261 8.1681 15.8547 8.33747L9.22989 14.879C9.10103 15.0061 9.02859 15.1786 9.02851 15.3584C9.02842 15.5383 9.1007 15.7108 9.22944 15.8381C9.35817 15.9653 9.53283 16.0368 9.71498 16.0369C9.89713 16.037 10.0718 15.9656 10.2007 15.8385L17.4709 8.65972C17.6832 8.45014 17.8517 8.20132 17.9667 7.92745C18.0816 7.65358 18.1409 7.36003 18.1409 7.06356C18.141 6.76709 18.082 6.47351 17.9672 6.19958C17.8523 5.92565 17.684 5.67673 17.4718 5.46703C17.0431 5.04354 16.4617 4.80552 15.8553 4.80535C15.2489 4.80518 14.6673 5.04287 14.2385 5.46613L6.9674 12.6458C6.23892 13.3653 5.82967 14.341 5.82967 15.3583C5.82967 16.3757 6.23892 17.3514 6.9674 18.0708H6.96649Z" fill="#F8F8F8"/>
</g>
<defs>
<clipPath id="clip0_7466_88913">
<rect width="24" height="24" fill="white"/>
</clipPath>
</defs>
</svg>
