<svg width="26" height="12" viewBox="0 0 26 12" fill="none" xmlns="http://www.w3.org/2000/svg">
<path fill-rule="evenodd" clip-rule="evenodd" d="M2.5 0H21.5C22.8807 0 24 1.16795 24 2.6087V9.3913C24 10.832 22.8807 12 21.5 12H2.5C1.11929 12 0 10.832 0 9.3913V2.6087C0 1.16795 1.11929 0 2.5 0ZM2.5 1C1.67157 1 1 1.70692 1 2.57895V9.42105C1 10.2931 1.67157 11 2.5 11H21.5C22.3284 11 23 10.2931 23 9.42105V2.57895C23 1.70692 22.3284 1 21.5 1H2.5Z" fill="#77797A"/>
<path fill-rule="evenodd" clip-rule="evenodd" d="M25 3C25.5936 3.55733 26 4.6915 26 6C26 7.3085 25.5936 8.44267 25 9V3Z" fill="#77797A"/>
<path fill-rule="evenodd" clip-rule="evenodd" d="M2.5 2H11.5C11.7761 2 12 2.47756 12 3.06667V8.93333C12 9.52244 11.7761 10 11.5 10H2.5C2.22386 10 2 9.52244 2 8.93333V3.06667C2 2.47756 2.22386 2 2.5 2Z" fill="#F8F8F8"/>
</svg>
