<svg width="25" height="24" viewBox="0 0 25 24" fill="none" xmlns="http://www.w3.org/2000/svg">
<g filter="url(#filter0_b_6871_79238)">
<g filter="url(#filter1_b_6871_79238)">
<rect x="2.5" y="2" width="20" height="20" rx="10" fill="#303438" fill-opacity="0.5"/>
<rect x="3" y="2.5" width="19" height="19" rx="9.5" stroke="#F8F8F8"/>
</g>
<path d="M13.7667 6C13.9999 6.00007 14.2271 6.07937 14.4163 6.22668C14.6054 6.374 14.7469 6.58185 14.8206 6.8208L15.1222 7.8H16.9444C17.0918 7.8 17.2331 7.86321 17.3373 7.97574C17.4415 8.08826 17.5 8.24087 17.5 8.4C17.5 8.55913 17.4415 8.71174 17.3373 8.82426C17.2331 8.93679 17.0918 9 16.9444 9L16.9428 9.0426L16.4611 16.3284C16.4311 16.7824 16.2429 17.2072 15.9345 17.5173C15.6261 17.8275 15.2203 17.9999 14.7989 18H10.2011C9.7797 17.9999 9.37395 17.8275 9.06554 17.5173C8.75713 17.2072 8.56895 16.7824 8.53889 16.3284L8.05722 9.042C8.05622 9.02803 8.05566 9.01402 8.05556 9C7.90821 9 7.76691 8.93679 7.66272 8.82426C7.55853 8.71174 7.5 8.55913 7.5 8.4C7.5 8.24087 7.55853 8.08826 7.66272 7.97574C7.76691 7.86321 7.90821 7.8 8.05556 7.8H9.87778L10.1794 6.8208C10.2532 6.58175 10.3947 6.37383 10.5839 6.22651C10.7732 6.07919 11.0006 5.99994 11.2339 6H13.7667ZM15.8317 9H9.16833L9.64722 16.2426C9.6572 16.3939 9.71988 16.5356 9.82264 16.639C9.92541 16.7424 10.0606 16.7999 10.2011 16.8H14.7989C14.9394 16.7999 15.0746 16.7424 15.1774 16.639C15.2801 16.5356 15.3428 16.3939 15.3528 16.2426L15.8317 9ZM11.3889 10.8C11.525 10.8 11.6563 10.854 11.758 10.9516C11.8597 11.0493 11.9246 11.1838 11.9406 11.3298L11.9444 11.4V14.4C11.9443 14.5529 11.8901 14.7 11.7929 14.8112C11.6957 14.9224 11.5628 14.9893 11.4214 14.9983C11.2801 15.0073 11.1409 14.9576 11.0323 14.8594C10.9237 14.7613 10.8539 14.6221 10.8372 14.4702L10.8333 14.4V11.4C10.8333 11.2409 10.8919 11.0883 10.9961 10.9757C11.1002 10.8632 11.2415 10.8 11.3889 10.8ZM13.6111 10.8C13.7585 10.8 13.8998 10.8632 14.0039 10.9757C14.1081 11.0883 14.1667 11.2409 14.1667 11.4V14.4C14.1667 14.5591 14.1081 14.7117 14.0039 14.8243C13.8998 14.9368 13.7585 15 13.6111 15C13.4638 15 13.3225 14.9368 13.2183 14.8243C13.1141 14.7117 13.0556 14.5591 13.0556 14.4V11.4C13.0556 11.2409 13.1141 11.0883 13.2183 10.9757C13.3225 10.8632 13.4638 10.8 13.6111 10.8ZM13.7667 7.2H11.2333L11.0483 7.8H13.9517L13.7667 7.2Z" fill="#F8F8F8"/>
</g>
<defs>
<filter id="filter0_b_6871_79238" x="-5.5" y="-6" width="36" height="36" filterUnits="userSpaceOnUse" color-interpolation-filters="sRGB">
<feFlood flood-opacity="0" result="BackgroundImageFix"/>
<feGaussianBlur in="BackgroundImageFix" stdDeviation="4"/>
<feComposite in2="SourceAlpha" operator="in" result="effect1_backgroundBlur_6871_79238"/>
<feBlend mode="normal" in="SourceGraphic" in2="effect1_backgroundBlur_6871_79238" result="shape"/>
</filter>
<filter id="filter1_b_6871_79238" x="-13.5" y="-14" width="52" height="52" filterUnits="userSpaceOnUse" color-interpolation-filters="sRGB">
<feFlood flood-opacity="0" result="BackgroundImageFix"/>
<feGaussianBlur in="BackgroundImageFix" stdDeviation="8"/>
<feComposite in2="SourceAlpha" operator="in" result="effect1_backgroundBlur_6871_79238"/>
<feBlend mode="normal" in="SourceGraphic" in2="effect1_backgroundBlur_6871_79238" result="shape"/>
</filter>
</defs>
</svg>
