<svg width="12" height="12" viewBox="0 0 12 12" fill="none" xmlns="http://www.w3.org/2000/svg" id="burger_little">
    <circle cx="6" cy="6" r="6" fill="#4E6C98"/>
    <path d="M8.864 8.455H3.136A.136.136 0 0 0 3 8.59v.273A.136.136 0 0 0 3.136 9h5.728A.136.136 0 0 0 9 8.864V8.59a.136.136 0 0 0-.136-.136zm0-5.455H3.136A.136.136 0 0 0 3 3.136v.273a.136.136 0 0 0 .136.136h5.728A.136.136 0 0 0 9 3.41v-.273A.136.136 0 0 0 8.864 3zm0 2.727H3.136A.136.136 0 0 0 3 5.864v.272a.136.136 0 0 0 .136.137h5.728A.136.136 0 0 0 9 6.136v-.272a.136.136 0 0 0-.136-.137z" fill="#fff" stroke="#fff" stroke-width=".5"/>
</svg>
