<svg width="24" height="24" viewBox="0 0 24 24" fill="none" xmlns="http://www.w3.org/2000/svg">
<path fill-rule="evenodd" clip-rule="evenodd" d="M3.16667 7.33333C2.52233 7.33333 2 6.811 2 6.16667C2 5.52233 2.52233 5 3.16667 5H20.8333C21.4777 5 22 5.52233 22 6.16667C22 6.811 21.4777 7.33333 20.8333 7.33333H3.16667ZM2 12C2 12.6443 2.52233 13.1667 3.16667 13.1667H20.8333C21.4777 13.1667 22 12.6443 22 12C22 11.3557 21.4777 10.8333 20.8333 10.8333H3.16667C2.52233 10.8333 2 11.3557 2 12ZM2 17.8333C2 18.4777 2.52233 19 3.16667 19H20.8333C21.4777 19 22 18.4777 22 17.8333C22 17.189 21.4777 16.6667 20.8333 16.6667H3.16667C2.52233 16.6667 2 17.189 2 17.8333Z" fill="#F8F8F8"/>
</svg>
