<svg width="20" height="21" viewBox="0 0 20 21" fill="none" xmlns="http://www.w3.org/2000/svg" id="cwarning">
<path d="M5.10417 3.78672H5.12917V3.76172V3.23672C5.12917 3.0739 5.18998 2.93812 5.31256 2.8278C5.43528 2.71735 5.58746 2.66172 5.77083 2.66172C5.96032 2.66172 6.11755 2.71749 6.24425 2.82806C6.37075 2.93846 6.43333 3.07417 6.43333 3.23672V3.76172V3.78672H6.45833H13.5417H13.5667V3.76172V3.23672C13.5667 3.0739 13.6275 2.93812 13.7501 2.8278C13.8728 2.71735 14.025 2.66172 14.2083 2.66172C14.3978 2.66172 14.5551 2.71749 14.6817 2.82806C14.8083 2.93846 14.8708 3.07417 14.8708 3.23672V3.76172V3.78672H14.8958H16.25C16.5771 3.78672 16.8628 3.89689 17.1083 4.1178C17.3537 4.3387 17.475 4.59471 17.475 4.88672V16.5117C17.475 16.8037 17.3537 17.0597 17.1083 17.2806C16.8628 17.5015 16.5771 17.6117 16.25 17.6117H3.75C3.4229 17.6117 3.13718 17.5015 2.89172 17.2806C2.64628 17.0597 2.525 16.8037 2.525 16.5117V4.88672C2.525 4.59471 2.64628 4.3387 2.89172 4.1178C3.13718 3.89689 3.4229 3.78672 3.75 3.78672H5.10417ZM3.725 16.5117V16.5367H3.75H16.25H16.275V16.5117V7.19922V7.17422H16.25H3.75H3.725V7.19922V16.5117ZM3.725 6.07422V6.09922H3.75H16.25H16.275V6.07422V4.88672V4.86172H16.25H3.75H3.725V4.88672V6.07422Z" fill="#F8F8F8" stroke="#F8F8F8" stroke-width="0.05"/>
<path d="M13.1941 13.2567L10.6664 8.61139C10.5024 8.30705 10.2571 8.13672 9.99372 8.13672C9.73038 8.13672 9.48871 8.31039 9.32171 8.61472L6.80035 13.2571C6.63701 13.5574 6.61901 13.8654 6.75435 14.1004C6.88935 14.3361 7.15969 14.4701 7.49402 14.4701H12.5007C12.8351 14.4701 13.1054 14.3361 13.2408 14.1007C13.3758 13.8654 13.3578 13.5611 13.1941 13.2571V13.2567ZM9.99738 9.58905C10.1291 9.58905 10.2357 9.69772 10.2357 9.83172V12.0261C10.2357 12.1601 10.1291 12.2687 9.99738 12.2687C9.96579 12.2685 9.93456 12.262 9.90548 12.2496C9.8764 12.2373 9.85004 12.2193 9.8279 12.1968C9.80577 12.1743 9.78829 12.1476 9.77648 12.1183C9.76466 12.089 9.75874 12.0576 9.75905 12.0261V9.83139C9.75905 9.70105 9.86571 9.58905 9.99738 9.58905ZM9.99738 13.4637C9.79105 13.4637 9.62738 13.2937 9.62738 13.0837C9.62738 12.8737 9.79471 12.7034 9.99738 12.7034C10.2037 12.7034 10.3674 12.8734 10.3674 13.0834C10.3674 13.2934 10.2001 13.4637 9.99738 13.4637Z" fill="#FFC31B"/>
<path d="M9.99738 9.58905C10.1291 9.58905 10.2357 9.69772 10.2357 9.83172V12.0261C10.2357 12.1601 10.1291 12.2687 9.99738 12.2687C9.96579 12.2685 9.93456 12.262 9.90548 12.2496C9.8764 12.2373 9.85004 12.2193 9.8279 12.1968C9.80577 12.1743 9.78829 12.1476 9.77648 12.1183C9.76466 12.089 9.75874 12.0576 9.75905 12.0261V9.83139C9.75905 9.70105 9.86571 9.58905 9.99738 9.58905Z" fill="#0F1011"/>
<path d="M9.99738 13.4637C9.79105 13.4637 9.62738 13.2937 9.62738 13.0837C9.62738 12.8737 9.79471 12.7034 9.99738 12.7034C10.2037 12.7034 10.3674 12.8734 10.3674 13.0834C10.3674 13.2934 10.2001 13.4637 9.99738 13.4637Z" fill="#0F1011"/>
</svg>
