<svg width="24" height="25" viewBox="0 0 24 25" fill="none" xmlns="http://www.w3.org/2000/svg" id="part">
<path d="M5.47222 4.49766H5.49722V4.47266V3.77266C5.49722 3.55317 5.57933 3.36989 5.7445 3.22124C5.90981 3.07246 6.11478 2.99766 6.36111 2.99766C6.61553 2.99766 6.82719 3.07259 6.99781 3.22149C7.16824 3.37023 7.25278 3.55344 7.25278 3.77266V4.47266V4.49766H7.27778H16.7222H16.7472V4.47266V3.77266C16.7472 3.55317 16.8293 3.36989 16.9945 3.22124C17.1598 3.07246 17.3648 2.99766 17.6111 2.99766C17.8655 2.99766 18.0772 3.07259 18.2478 3.22149C18.4182 3.37023 18.5028 3.55344 18.5028 3.77266V4.47266V4.49766H18.5278H20.3333C20.7715 4.49766 21.1545 4.64533 21.4833 4.94124C21.812 5.23714 21.975 5.58064 21.975 5.97266V21.4727C21.975 21.8647 21.812 22.2082 21.4833 22.5041C21.1545 22.8 20.7715 22.9477 20.3333 22.9477H3.66667C3.22846 22.9477 2.84551 22.8 2.51672 22.5041C2.18795 22.2082 2.025 21.8647 2.025 21.4727V5.97266C2.025 5.58064 2.18795 5.23714 2.51672 4.94124C2.84551 4.64533 3.22846 4.49766 3.66667 4.49766H5.47222ZM3.64167 21.4727V21.4977H3.66667H20.3333H20.3583V21.4727V9.05599V9.03099H20.3333H3.66667H3.64167V9.05599V21.4727ZM3.64167 7.55599V7.58099H3.66667H20.3333H20.3583V7.55599V5.97266V5.94766H20.3333H3.66667H3.64167V5.97266V7.55599Z" fill="#F8F8F8" stroke="#F8F8F8" stroke-width="0.05"/>
<circle cx="12" cy="15.2422" r="3.125" stroke="#54AAE9"/>
<path d="M14.25 15.2422C14.25 14.9467 14.1918 14.6541 14.0787 14.3811C13.9657 14.1082 13.7999 13.8601 13.591 13.6512C13.3821 13.4423 13.134 13.2765 12.861 13.1635C12.5881 13.0504 12.2955 12.9922 12 12.9922L12 15.2422H14.25Z" fill="#54AAE9"/>
</svg>
