<svg width="20" height="21" viewBox="0 0 20 21" fill="none" xmlns="http://www.w3.org/2000/svg" id="cdone">
<path d="M5.10417 3.78672H5.12917V3.76172V3.23672C5.12917 3.0739 5.18998 2.93812 5.31256 2.8278C5.43528 2.71735 5.58746 2.66172 5.77083 2.66172C5.96032 2.66172 6.11755 2.71749 6.24425 2.82806C6.37075 2.93846 6.43333 3.07417 6.43333 3.23672V3.76172V3.78672H6.45833H13.5417H13.5667V3.76172V3.23672C13.5667 3.0739 13.6275 2.93812 13.7501 2.8278C13.8728 2.71735 14.025 2.66172 14.2083 2.66172C14.3978 2.66172 14.5551 2.71749 14.6817 2.82806C14.8083 2.93846 14.8708 3.07417 14.8708 3.23672V3.76172V3.78672H14.8958H16.25C16.5771 3.78672 16.8628 3.89689 17.1083 4.1178C17.3537 4.3387 17.475 4.59471 17.475 4.88672V16.5117C17.475 16.8037 17.3537 17.0597 17.1083 17.2806C16.8628 17.5015 16.5771 17.6117 16.25 17.6117H3.75C3.4229 17.6117 3.13718 17.5015 2.89172 17.2806C2.64628 17.0597 2.525 16.8037 2.525 16.5117V4.88672C2.525 4.59471 2.64628 4.3387 2.89172 4.1178C3.13718 3.89689 3.4229 3.78672 3.75 3.78672H5.10417ZM3.725 16.5117V16.5367H3.75H16.25H16.275V16.5117V7.19922V7.17422H16.25H3.75H3.725V7.19922V16.5117ZM3.725 6.07422V6.09922H3.75H16.25H16.275V6.07422V4.88672V4.86172H16.25H3.75H3.725V4.88672V6.07422Z" fill="#F8F8F8" stroke="#F8F8F8" stroke-width="0.05"/>
<path fill-rule="evenodd" clip-rule="evenodd" d="M10 15.1484C11.7259 15.1484 13.125 13.7493 13.125 12.0234C13.125 10.2975 11.7259 8.89844 10 8.89844C8.27411 8.89844 6.875 10.2975 6.875 12.0234C6.875 13.7493 8.27411 15.1484 10 15.1484ZM9.44435 13.6713C9.47583 13.6838 9.50957 13.6901 9.54556 13.6901C9.58154 13.6901 9.61528 13.6838 9.64676 13.6713C9.67825 13.659 9.70749 13.6379 9.73448 13.6081L12.2174 10.8639C12.2669 10.8092 12.2917 10.7383 12.2917 10.6512C12.2917 10.5643 12.2669 10.4935 12.2174 10.4388C12.168 10.3841 12.1039 10.3568 12.0253 10.3568C11.9465 10.3568 11.8823 10.3841 11.8329 10.4388L9.54556 12.9668L8.58071 11.9004C8.53123 11.8457 8.46825 11.8184 8.39178 11.8184C8.31532 11.8184 8.25234 11.8457 8.20286 11.9004C8.15338 11.9551 8.12747 12.0259 8.12514 12.1128C8.12298 12.1999 8.14664 12.2708 8.19612 12.3255L9.35663 13.6081C9.38362 13.6379 9.41286 13.659 9.44435 13.6713Z" fill="#08C873"/>
</svg>
