<svg width="25" height="25" viewBox="0 0 25 25" fill="none" xmlns="http://www.w3.org/2000/svg">
<path d="M6.23828 4.66406H6.26328V4.63906V4.00906C6.26328 3.81224 6.33687 3.64796 6.48501 3.51465C6.63328 3.3812 6.81713 3.31406 7.03828 3.31406C7.26672 3.31406 7.45662 3.38133 7.60967 3.5149C7.76252 3.64831 7.83828 3.81252 7.83828 4.00906V4.63906V4.66406H7.86328H16.3633H16.3883V4.63906V4.00906C16.3883 3.81224 16.4619 3.64796 16.61 3.51465C16.7583 3.3812 16.9421 3.31406 17.1633 3.31406C17.3917 3.31406 17.5816 3.38133 17.7347 3.5149C17.8875 3.64831 17.9633 3.81252 17.9633 4.00906V4.63906V4.66406H17.9883H19.6133C20.007 4.66406 20.3511 4.79674 20.6466 5.06264C20.942 5.32854 21.0883 5.63705 21.0883 5.98906V19.9391C21.0883 20.2911 20.942 20.5996 20.6466 20.8655C20.3511 21.1314 20.007 21.2641 19.6133 21.2641H4.61328C4.21952 21.2641 3.87546 21.1314 3.58001 20.8655C3.28456 20.5996 3.13828 20.2911 3.13828 19.9391V5.98906C3.13828 5.63705 3.28456 5.32854 3.58001 5.06264C3.87546 4.79674 4.21952 4.66406 4.61328 4.66406H6.23828ZM4.58828 19.9391V19.9641H4.61328H19.6133H19.6383V19.9391V10.2641V10.2391H19.6133H4.61328H4.58828V10.2641V19.9391ZM4.58828 8.91406V8.93906H4.61328H19.6133H19.6383V8.91406V5.98906V5.96406H19.6133H4.61328H4.58828V5.98906V8.91406ZM12.1133 14.0641C11.8355 14.0641 11.6041 13.9797 11.4175 13.8117C11.231 13.6439 11.1383 13.4369 11.1383 13.1891C11.1383 12.9412 11.231 12.7342 11.4175 12.5664C11.6041 12.3984 11.8355 12.3141 12.1133 12.3141C12.3911 12.3141 12.6224 12.3984 12.8091 12.5664C12.9955 12.7342 13.0883 12.9412 13.0883 13.1891C13.0883 13.4369 12.9955 13.6439 12.8091 13.8117C12.6224 13.9797 12.3911 14.0641 12.1133 14.0641ZM8.11328 14.0641C7.83546 14.0641 7.60411 13.9797 7.41751 13.8117C7.23104 13.6439 7.13828 13.4369 7.13828 13.1891C7.13828 12.9412 7.23104 12.7342 7.41751 12.5664C7.60411 12.3984 7.83546 12.3141 8.11328 12.3141C8.3911 12.3141 8.62245 12.3984 8.80906 12.5664C8.99552 12.7342 9.08828 12.9412 9.08828 13.1891C9.08828 13.4369 8.99552 13.6439 8.80906 13.8117C8.62245 13.9797 8.3911 14.0641 8.11328 14.0641ZM16.1133 14.0641C15.8355 14.0641 15.6041 13.9797 15.4175 13.8117C15.231 13.6439 15.1383 13.4369 15.1383 13.1891C15.1383 12.9412 15.231 12.7342 15.4175 12.5664C15.6041 12.3984 15.8355 12.3141 16.1133 12.3141C16.3911 12.3141 16.6224 12.3984 16.8091 12.5664C16.9955 12.7342 17.0883 12.9412 17.0883 13.1891C17.0883 13.4369 16.9955 13.6439 16.8091 13.8117C16.6224 13.9797 16.3911 14.0641 16.1133 14.0641ZM12.1133 17.6641C11.8355 17.6641 11.6041 17.5797 11.4175 17.4117C11.231 17.2439 11.1383 17.0369 11.1383 16.7891C11.1383 16.5412 11.231 16.3342 11.4175 16.1664C11.6041 15.9984 11.8355 15.9141 12.1133 15.9141C12.3911 15.9141 12.6224 15.9984 12.8091 16.1664C12.9955 16.3342 13.0883 16.5412 13.0883 16.7891C13.0883 17.0369 12.9955 17.2439 12.8091 17.4117C12.6224 17.5797 12.3911 17.6641 12.1133 17.6641ZM8.11328 17.6641C7.83546 17.6641 7.60411 17.5797 7.41751 17.4117C7.23104 17.2439 7.13828 17.0369 7.13828 16.7891C7.13828 16.5412 7.23104 16.3342 7.41751 16.1664C7.60411 15.9984 7.83546 15.9141 8.11328 15.9141C8.3911 15.9141 8.62245 15.9984 8.80906 16.1664C8.99552 16.3342 9.08828 16.5412 9.08828 16.7891C9.08828 17.0369 8.99552 17.2439 8.80906 17.4117C8.62245 17.5797 8.3911 17.6641 8.11328 17.6641ZM16.1133 17.6641C15.8355 17.6641 15.6041 17.5797 15.4175 17.4117C15.231 17.2439 15.1383 17.0369 15.1383 16.7891C15.1383 16.5412 15.231 16.3342 15.4175 16.1664C15.6041 15.9984 15.8355 15.9141 16.1133 15.9141C16.3911 15.9141 16.6224 15.9984 16.8091 16.1664C16.9955 16.3342 17.0883 16.5412 17.0883 16.7891C17.0883 17.0369 16.9955 17.2439 16.8091 17.4117C16.6224 17.5797 16.3911 17.6641 16.1133 17.6641Z" fill="#08C873" stroke="#08C873" stroke-width="0.05"/>
</svg>
