<svg width="24" height="25" viewBox="0 0 24 25" fill="none" xmlns="http://www.w3.org/2000/svg" id="notAssigned">
<path d="M5.47222 4.49766H5.49722V4.47266V3.77266C5.49722 3.55317 5.57933 3.36989 5.7445 3.22124C5.90981 3.07246 6.11478 2.99766 6.36111 2.99766C6.61553 2.99766 6.82719 3.07259 6.99781 3.22149C7.16824 3.37023 7.25278 3.55344 7.25278 3.77266V4.47266V4.49766H7.27778H16.7222H16.7472V4.47266V3.77266C16.7472 3.55317 16.8293 3.36989 16.9945 3.22124C17.1598 3.07246 17.3648 2.99766 17.6111 2.99766C17.8655 2.99766 18.0772 3.07259 18.2478 3.22149C18.4182 3.37023 18.5028 3.55344 18.5028 3.77266V4.47266V4.49766H18.5278H20.3333C20.7715 4.49766 21.1545 4.64533 21.4833 4.94124C21.812 5.23714 21.975 5.58064 21.975 5.97266V21.4727C21.975 21.8647 21.812 22.2082 21.4833 22.5041C21.1545 22.8 20.7715 22.9477 20.3333 22.9477H3.66667C3.22846 22.9477 2.84551 22.8 2.51672 22.5041C2.18795 22.2082 2.025 21.8647 2.025 21.4727V5.97266C2.025 5.58064 2.18795 5.23714 2.51672 4.94124C2.84551 4.64533 3.22846 4.49766 3.66667 4.49766H5.47222ZM3.64167 21.4727V21.4977H3.66667H20.3333H20.3583V21.4727V9.05599V9.03099H20.3333H3.66667H3.64167V9.05599V21.4727ZM3.64167 7.55599V7.58099H3.66667H20.3333H20.3583V7.55599V5.97266V5.94766H20.3333H3.66667H3.64167V5.97266V7.55599Z" fill="#F8F8F8" stroke="#F8F8F8" stroke-width="0.05"/>
<path fill-rule="evenodd" clip-rule="evenodd" d="M12 18.9922C14.0711 18.9922 15.75 17.3133 15.75 15.2422C15.75 13.1711 14.0711 11.4922 12 11.4922C9.92893 11.4922 8.25 13.1711 8.25 15.2422C8.25 17.3133 9.92893 18.9922 12 18.9922ZM11.2286 13.7636C11.0333 13.5684 10.7167 13.5684 10.5214 13.7636C10.3262 13.9589 10.3262 14.2755 10.5214 14.4707L11.2929 15.2422L10.5214 16.0136C10.3262 16.2089 10.3262 16.5255 10.5214 16.7207C10.7167 16.916 11.0333 16.916 11.2286 16.7207L12 15.9493L12.7714 16.7207C12.9667 16.916 13.2833 16.916 13.4786 16.7207C13.6738 16.5255 13.6738 16.2089 13.4786 16.0136L12.7071 15.2422L13.4786 14.4707C13.6738 14.2755 13.6738 13.9589 13.4786 13.7636C13.2833 13.5684 12.9667 13.5684 12.7714 13.7636L12 14.5351L11.2286 13.7636Z" fill="#E95554"/>
</svg>
