<svg width="15" height="9" viewBox="0 0 15 9" fill="none" xmlns="http://www.w3.org/2000/svg">
<path d="M13.7387 1.08541C13.6374 1.0269 13.5224 0.996094 13.4054 0.996094C13.2884 0.996094 13.1734 1.0269 13.0721 1.08541L10.7188 2.24541V3.29964L13.1512 2.29964V6.33784L10.7188 5.33784V6.39208L13.0921 7.57874C13.183 7.62533 13.2833 7.65042 13.3854 7.65208C13.5102 7.65248 13.6327 7.61783 13.7387 7.55208C13.8348 7.49203 13.914 7.40849 13.9688 7.30934C14.0237 7.21019 14.0523 7.09871 14.0521 6.98541V1.65208C14.0523 1.53878 14.0237 1.4273 13.9688 1.32815C13.914 1.229 13.8348 1.14546 13.7387 1.08541Z" fill="#F8F8F8"/>
<path d="M10.7188 5.33784L13.1512 6.33784V2.29964L10.7188 3.29964V5.33784Z" fill="#F8F8F8"/>
<rect x="0.726562" y="0.324219" width="9.98987" height="8" rx="1.5" fill="#F8F8F8"/>
</svg>
