<svg width="41" height="40" viewBox="0 0 41 40" fill="none" xmlns="http://www.w3.org/2000/svg">
<g clip-path="url(#clip0_9130_152388)">
<mask id="path-1-inside-1_9130_152388" fill="white">
<path fill-rule="evenodd" clip-rule="evenodd" d="M28.3015 27.7481C28.5935 27.0857 28.7608 26.3598 28.7861 25.6127L34.7195 28.8266C34.9466 28.9527 35.1975 29.0207 35.4528 29.0252C35.7648 29.0263 36.0709 28.9324 36.3361 28.7543C36.5763 28.5917 36.7743 28.3655 36.9114 28.0969C37.0484 27.8284 37.12 27.5265 37.1195 27.2196V12.7752C37.12 12.4683 37.0484 12.1664 36.9114 11.8979C36.7743 11.6293 36.5763 11.4031 36.3361 11.2405C36.0828 11.082 35.7954 10.9986 35.5028 10.9986C35.2102 10.9986 34.9228 11.082 34.6695 11.2405L28.7861 14.3821C28.7387 12.9802 28.191 11.653 27.2584 10.6797C26.3258 9.70646 25.0811 9.16312 23.7861 9.16406H9.7175L13.3286 12.7752H23.7861C24.2282 12.7752 24.6521 12.9654 24.9646 13.304C25.2772 13.6426 25.4528 14.1019 25.4528 14.5807V24.8994L28.3015 27.7481ZM9.79308 12.7752H8.78613C8.34411 12.7752 7.92018 12.9654 7.60762 13.304C7.29506 13.6426 7.11947 14.1019 7.11947 14.5807V25.4141C7.11947 25.8929 7.29506 26.3522 7.60762 26.6908C7.92018 27.0294 8.34411 27.2196 8.78613 27.2196H23.7861C23.9217 27.2196 24.0556 27.2017 24.185 27.1671L26.7761 29.7582C25.9167 30.4517 24.8689 30.8315 23.7861 30.8307H8.78613C7.46005 30.8307 6.18828 30.26 5.2506 29.2442C4.31292 28.2284 3.78613 26.8507 3.78613 25.4141V14.5807C3.78613 13.1441 4.31292 11.7664 5.2506 10.7506C5.66992 10.2963 6.15605 9.93106 6.68396 9.66606L9.79308 12.7752ZM28.7861 21.5863L33.7861 24.2946V15.7002L28.7861 18.4085V21.5863Z"/>
</mask>
<path fill-rule="evenodd" clip-rule="evenodd" d="M28.3015 27.7481C28.5935 27.0857 28.7608 26.3598 28.7861 25.6127L34.7195 28.8266C34.9466 28.9527 35.1975 29.0207 35.4528 29.0252C35.7648 29.0263 36.0709 28.9324 36.3361 28.7543C36.5763 28.5917 36.7743 28.3655 36.9114 28.0969C37.0484 27.8284 37.12 27.5265 37.1195 27.2196V12.7752C37.12 12.4683 37.0484 12.1664 36.9114 11.8979C36.7743 11.6293 36.5763 11.4031 36.3361 11.2405C36.0828 11.082 35.7954 10.9986 35.5028 10.9986C35.2102 10.9986 34.9228 11.082 34.6695 11.2405L28.7861 14.3821C28.7387 12.9802 28.191 11.653 27.2584 10.6797C26.3258 9.70646 25.0811 9.16312 23.7861 9.16406H9.7175L13.3286 12.7752H23.7861C24.2282 12.7752 24.6521 12.9654 24.9646 13.304C25.2772 13.6426 25.4528 14.1019 25.4528 14.5807V24.8994L28.3015 27.7481ZM9.79308 12.7752H8.78613C8.34411 12.7752 7.92018 12.9654 7.60762 13.304C7.29506 13.6426 7.11947 14.1019 7.11947 14.5807V25.4141C7.11947 25.8929 7.29506 26.3522 7.60762 26.6908C7.92018 27.0294 8.34411 27.2196 8.78613 27.2196H23.7861C23.9217 27.2196 24.0556 27.2017 24.185 27.1671L26.7761 29.7582C25.9167 30.4517 24.8689 30.8315 23.7861 30.8307H8.78613C7.46005 30.8307 6.18828 30.26 5.2506 29.2442C4.31292 28.2284 3.78613 26.8507 3.78613 25.4141V14.5807C3.78613 13.1441 4.31292 11.7664 5.2506 10.7506C5.66992 10.2963 6.15605 9.93106 6.68396 9.66606L9.79308 12.7752ZM28.7861 21.5863L33.7861 24.2946V15.7002L28.7861 18.4085V21.5863Z" fill="#B3B3B4"/>
<path d="M28.3015 27.7481L27.5944 28.4552L28.6274 29.4882L29.2166 28.1514L28.3015 27.7481ZM28.7861 25.6127L29.2624 24.7334L27.8414 23.9637L27.7867 25.5788L28.7861 25.6127ZM34.7195 28.8266L35.205 27.9523L35.1958 27.9473L34.7195 28.8266ZM35.4528 29.0252L35.4352 30.0251L35.4493 30.0252L35.4528 29.0252ZM36.3361 28.7543L36.8936 29.5846L36.8968 29.5824L36.3361 28.7543ZM37.1195 27.2196H36.1195L36.1195 27.2215L37.1195 27.2196ZM37.1195 12.7752L36.1195 12.7733V12.7752H37.1195ZM36.9114 11.8979L36.0207 12.3525V12.3525L36.9114 11.8979ZM36.3361 11.2405L36.8968 10.4124L36.8818 10.4022L36.8664 10.3926L36.3361 11.2405ZM34.6695 11.2405L35.1405 12.1226L35.1707 12.1064L35.1998 12.0883L34.6695 11.2405ZM28.7861 14.3821L27.7867 14.416L27.841 16.0204L29.2572 15.2642L28.7861 14.3821ZM27.2584 10.6797L27.9804 9.98786V9.98786L27.2584 10.6797ZM23.7861 9.16406V10.1641L23.7869 10.1641L23.7861 9.16406ZM9.7175 9.16406V8.16406H7.30329L9.01039 9.87117L9.7175 9.16406ZM13.3286 12.7752L12.6215 13.4823L12.9144 13.7752H13.3286V12.7752ZM25.4528 24.8994H24.4528V25.3136L24.7457 25.6065L25.4528 24.8994ZM9.79308 12.7752V13.7752H12.2073L10.5002 12.0681L9.79308 12.7752ZM24.185 27.1671L24.8922 26.46L24.4843 26.0522L23.927 26.201L24.185 27.1671ZM26.7761 29.7582L27.4041 30.5365L28.2699 29.8378L27.4832 29.0511L26.7761 29.7582ZM23.7861 30.8307L23.7869 29.8307H23.7861V30.8307ZM5.2506 29.2442L4.5158 29.9225H4.5158L5.2506 29.2442ZM5.2506 10.7506L4.5158 10.0723L4.5158 10.0723L5.2506 10.7506ZM6.68396 9.66606L7.39107 8.95895L6.88057 8.44845L6.23534 8.77234L6.68396 9.66606ZM33.7861 24.2946L33.3099 25.1739L34.7861 25.9736V24.2946H33.7861ZM28.7861 21.5863H27.7861V22.1819L28.3099 22.4656L28.7861 21.5863ZM33.7861 15.7002H34.7861V14.0212L33.3099 14.8209L33.7861 15.7002ZM28.7861 18.4085L28.3099 17.5292L27.7861 17.8129V18.4085H28.7861ZM29.2166 28.1514C29.5602 27.3718 29.756 26.5204 29.7856 25.6465L27.7867 25.5788C27.7657 26.1991 27.6267 26.7996 27.3864 27.3448L29.2166 28.1514ZM28.3099 26.492L34.2432 29.7059L35.1958 27.9473L29.2624 24.7334L28.3099 26.492ZM34.2339 29.7008C34.6018 29.9051 35.013 30.0176 35.4352 30.025L35.4704 28.0253C35.3821 28.0238 35.2915 28.0004 35.205 27.9523L34.2339 29.7008ZM35.4493 30.0252C35.9661 30.027 36.4667 29.8712 36.8936 29.5846L35.7787 27.9241C35.6751 27.9937 35.5636 28.0256 35.4563 28.0252L35.4493 30.0252ZM36.8968 29.5824C37.2824 29.3213 37.5914 28.9643 37.802 28.5515L36.0207 27.6423C35.9572 27.7667 35.8703 27.8621 35.7755 27.9263L36.8968 29.5824ZM37.802 28.5515C38.0126 28.1391 38.1203 27.6804 38.1195 27.2178L36.1195 27.2215C36.1198 27.3726 36.0843 27.5177 36.0207 27.6423L37.802 28.5515ZM38.1195 27.2196V12.7752H36.1195V27.2196H38.1195ZM38.1195 12.777C38.1203 12.3144 38.0126 11.8557 37.802 11.4433L36.0207 12.3525C36.0843 12.4771 36.1198 12.6222 36.1195 12.7733L38.1195 12.777ZM37.802 11.4433C37.5914 11.0305 37.2824 10.6735 36.8968 10.4124L35.7755 12.0685C35.8703 12.1327 35.9572 12.2281 36.0207 12.3525L37.802 11.4433ZM36.8664 10.3926C36.4577 10.137 35.9871 9.99855 35.5028 9.99855V11.9986C35.6036 11.9986 35.7079 12.027 35.8059 12.0883L36.8664 10.3926ZM35.5028 9.99855C35.0185 9.99855 34.5479 10.137 34.1392 10.3926L35.1998 12.0883C35.2977 12.027 35.402 11.9986 35.5028 11.9986V9.99855ZM34.1984 10.3583L28.3151 13.5L29.2572 15.2642L35.1405 12.1226L34.1984 10.3583ZM29.7856 14.3483C29.7301 12.7113 29.0907 11.1466 27.9804 9.98786L26.5364 11.3716C27.2912 12.1593 27.7472 13.2491 27.7867 14.416L29.7856 14.3483ZM27.9804 9.98786C26.8677 8.82664 25.3655 8.16291 23.7854 8.16406L23.7869 10.1641C24.7966 10.1633 25.7839 10.5863 26.5364 11.3716L27.9804 9.98786ZM23.7861 8.16406H9.7175V10.1641H23.7861V8.16406ZM9.01039 9.87117L12.6215 13.4823L14.0357 12.0681L10.4246 8.45696L9.01039 9.87117ZM13.3286 13.7752H23.7861V11.7752H13.3286V13.7752ZM23.7861 13.7752C23.9359 13.7752 24.0975 13.8389 24.2298 13.9823L25.6994 12.6257C25.2067 12.0919 24.5204 11.7752 23.7861 11.7752V13.7752ZM24.2298 13.9823C24.3647 14.1284 24.4528 14.3424 24.4528 14.5807H26.4528C26.4528 13.8613 26.1897 13.1569 25.6994 12.6257L24.2298 13.9823ZM24.4528 14.5807V24.8994H26.4528V14.5807H24.4528ZM24.7457 25.6065L27.5944 28.4552L29.0086 27.041L26.1599 24.1923L24.7457 25.6065ZM8.78613 13.7752H9.79308V11.7752H8.78613V13.7752ZM8.34243 13.9823C8.47477 13.8389 8.63633 13.7752 8.78613 13.7752V11.7752C8.05189 11.7752 7.3656 12.0919 6.87282 12.6257L8.34243 13.9823ZM8.11947 14.5807C8.11947 14.3424 8.2076 14.1284 8.34243 13.9823L6.87282 12.6257C6.38252 13.1569 6.11947 13.8613 6.11947 14.5807H8.11947ZM8.11947 25.4141V14.5807H6.11947V25.4141H8.11947ZM8.34243 26.0125C8.2076 25.8664 8.11947 25.6524 8.11947 25.4141H6.11947C6.11947 26.1335 6.38252 26.8379 6.87282 27.3691L8.34243 26.0125ZM8.78613 26.2196C8.63633 26.2196 8.47477 26.1559 8.34243 26.0125L6.87282 27.3691C7.3656 27.9029 8.05189 28.2196 8.78613 28.2196V26.2196ZM23.7861 26.2196H8.78613V28.2196H23.7861V26.2196ZM23.927 26.201C23.8806 26.2134 23.8335 26.2196 23.7861 26.2196V28.2196C24.0099 28.2196 24.2305 28.1901 24.4431 28.1333L23.927 26.201ZM27.4832 29.0511L24.8922 26.46L23.4779 27.8743L26.069 30.4653L27.4832 29.0511ZM23.7854 31.8307C25.1056 31.8317 26.3735 31.3681 27.4041 30.5365L26.1482 28.98C25.4599 29.5354 24.6323 29.8313 23.7869 29.8307L23.7854 31.8307ZM8.78613 31.8307H23.7861V29.8307H8.78613V31.8307ZM4.5158 29.9225C5.6337 31.1336 7.16783 31.8307 8.78613 31.8307V29.8307C7.75227 29.8307 6.74287 29.3865 5.9854 28.5659L4.5158 29.9225ZM2.78613 25.4141C2.78613 27.0912 3.40038 28.7141 4.5158 29.9225L5.9854 28.5659C5.22546 27.7427 4.78613 26.6101 4.78613 25.4141H2.78613ZM2.78613 14.5807V25.4141H4.78613V14.5807H2.78613ZM4.5158 10.0723C3.40038 11.2807 2.78613 12.9036 2.78613 14.5807H4.78613C4.78613 13.3847 5.22546 12.2521 5.9854 11.4288L4.5158 10.0723ZM6.23534 8.77234C5.59795 9.0923 5.01531 9.53114 4.5158 10.0723L5.9854 11.4288C6.32452 11.0615 6.71415 10.7698 7.13259 10.5598L6.23534 8.77234ZM10.5002 12.0681L7.39107 8.95895L5.97686 10.3732L9.08597 13.4823L10.5002 12.0681ZM34.2624 23.4153L29.2624 20.707L28.3099 22.4656L33.3099 25.1739L34.2624 23.4153ZM32.7861 15.7002V24.2946H34.7861V15.7002H32.7861ZM29.2624 19.2878L34.2624 16.5795L33.3099 14.8209L28.3099 17.5292L29.2624 19.2878ZM29.7861 21.5863V18.4085H27.7861V21.5863H29.7861Z" fill="#B3B3B4" mask="url(#path-1-inside-1_9130_152388)"/>
<rect x="29.7402" y="36.6797" width="41.3883" height="2.93734" rx="1" transform="rotate(-135 29.7402 36.6797)" fill="#B3B3B4"/>
</g>
<defs>
<clipPath id="clip0_9130_152388">
<rect width="40" height="40" fill="white" transform="translate(0.453125)"/>
</clipPath>
</defs>
</svg>
