<svg width="16" height="10" viewBox="0 0 16 10" fill="none" xmlns="http://www.w3.org/2000/svg">
<path d="M15.5811 1.71767C15.4671 1.65184 15.3377 1.61719 15.2061 1.61719C15.0744 1.61719 14.9451 1.65184 14.8311 1.71767L12.1836 3.02267V4.20868L14.9201 3.08368V7.62665L12.1836 6.50165V7.68767L14.8536 9.02267C14.9558 9.07508 15.0687 9.10331 15.1836 9.10517C15.324 9.10562 15.4617 9.06664 15.5811 8.99267C15.6892 8.92512 15.7783 8.83113 15.8399 8.71959C15.9016 8.60805 15.9338 8.48263 15.9336 8.35517V2.35517C15.9338 2.22771 15.9016 2.10229 15.8399 1.99075C15.7783 1.8792 15.6892 1.78522 15.5811 1.71767Z" fill="#B3B3B4"/>
<path d="M12.1836 6.50165L14.9201 7.62665V3.08368L12.1836 4.20868V6.50165Z" fill="#B3B3B4"/>
<rect x="0.945312" y="0.863281" width="11.2386" height="9" rx="1.5" fill="#B3B3B4"/>
</svg>
