<svg width="12" height="8" viewBox="0 0 12 8" fill="none" xmlns="http://www.w3.org/2000/svg" id="car_1">
    <path d="M3.043 3.833c-.568 0-.98.35-.98.833 0 .482.412.832.98.832l.222.002c.858 0 .986-.419.986-.668 0-.514-.68-.999-1.208-.999zM3.265 5l-.222-.002c-.273 0-.455-.133-.455-.332 0-.2.182-.333.455-.333s.683.3.683.499c0 .15-.23.168-.461.168zm5.693-1.167c-.528 0-1.208.484-1.208.999 0 .25.128.668.986.668l.222-.002c.568 0 .98-.35.98-.832 0-.483-.413-.833-.98-.833zm0 1.165L8.736 5c-.23 0-.46-.019-.46-.168 0-.2.409-.499.682-.499.273 0 .455.133.455.333 0 .199-.182.332-.455.332zm2.51-2.936a.88.88 0 0 0-.743-.396H9.638l-.176-.515C9.227.464 8.555 0 7.798 0H4.203c-.758 0-1.43.464-1.664 1.15l-.176.516H1.276a.88.88 0 0 0-.744.395.794.794 0 0 0-.038.811l.126.242a.991.991 0 0 0 .372.386 1.576 1.576 0 0 0-.241.833V7c0 .551.47 1 1.05 1h.35C2.73 8 3.2 7.551 3.2 7v-.333h5.6V7c0 .551.47 1 1.05 1h.35c.578 0 1.05-.449 1.05-1V4.333c0-.305-.09-.588-.242-.833a.99.99 0 0 0 .372-.387l.126-.24a.795.795 0 0 0-.038-.811zm-8.263-.705c.141-.413.542-.69.998-.69h3.595c.456 0 .857.277.998.69l.448 1.31H2.757l.448-1.31zM1.246 2.816l-.126-.242a.159.159 0 0 1 .007-.162.172.172 0 0 1 .15-.079h.858l-.141.413c-.18.052-.35.132-.504.235a.34.34 0 0 1-.244-.165zM2.501 7a.342.342 0 0 1-.35.333H1.8A.342.342 0 0 1 1.45 7v-.333H2.5V7zm8.05 0a.342.342 0 0 1-.35.333h-.35A.342.342 0 0 1 9.5 7v-.333h1.05V7zm0-1.667V6h-9.1V4.333c0-.551.47-1 1.05-1h7c.578 0 1.05.449 1.05 1v1zm.33-2.758-.127.24a.339.339 0 0 1-.243.166 1.8 1.8 0 0 0-.504-.235l-.14-.413h.857c.085 0 .13.05.15.08a.158.158 0 0 1 .007.162z" fill="#fff"/>
</svg>
