<svg width="34" height="34" viewBox="0 0 34 34" id="theme" fill="none" xmlns="http://www.w3.org/2000/svg">
<path d="M17 2.19355C25.222 2.19355 31.8065 8.86584 31.8065 17C31.8065 25.222 25.1342 31.8065 17 31.8065C8.77796 31.8065 2.19355 25.1342 2.19355 17C2.19355 8.77796 8.86584 2.19355 17 2.19355ZM17 0C7.61113 0 0 7.61113 0 17C0 26.3889 7.61113 34 17 34C26.3889 34 34 26.3889 34 17C34 7.61113 26.3889 0 17 0ZM14.8065 8.50069V25.4993C11.1148 24.5533 8.22581 21.1807 8.22581 17C8.22581 12.8192 11.1148 9.44665 14.8065 8.50069ZM17 6.03226C10.9427 6.03226 6.03226 10.9427 6.03226 17C6.03226 23.0573 10.9427 27.9677 17 27.9677V6.03226Z" fill="rgb(255,255,255)"/>
<path d="M2.19355 17C2.19355 25.1342 8.77796 31.8065 17 31.8065V27.9677C10.9427 27.9677 6.03226 23.0573 6.03226 17C6.03226 10.9427 10.9427 6.03226 17 6.03226V2.19355C8.86584 2.19355 2.19355 8.77796 2.19355 17Z" fill="rgb(255,255,255)"/>
<path d="M14.8065 8.50069V25.4993C11.1148 24.5533 8.22581 21.1807 8.22581 17C8.22581 12.8192 11.1148 9.44665 14.8065 8.50069Z" fill="rgb(255,255,255)"/>
</svg>
