<svg width="18" height="18" viewBox="0 0 18 18" fill="none" xmlns="http://www.w3.org/2000/svg">
<g clip-path="url(#clip0_291_5428)">
<rect width="18" height="18" rx="2" fill="#08C873"/>
<path d="M7.40933 13C7.32297 13 7.242 12.985 7.16644 12.9549C7.09087 12.9253 7.0207 12.8747 6.95592 12.8031L4.17068 9.72483C4.05193 9.59359 3.99514 9.42344 4.00032 9.21441C4.00594 9.00585 4.06812 8.83594 4.18687 8.7047C4.30562 8.57345 4.45676 8.50783 4.64028 8.50783C4.82381 8.50783 4.97494 8.57345 5.0937 8.7047L7.40933 11.264L12.8989 5.19687C13.0176 5.06562 13.1716 5 13.3607 5C13.5494 5 13.7031 5.06562 13.8219 5.19687C13.9406 5.32811 14 5.49802 14 5.70658C14 5.91562 13.9406 6.08576 13.8219 6.217L7.86275 12.8031C7.79797 12.8747 7.7278 12.9253 7.65223 12.9549C7.57666 12.985 7.4957 13 7.40933 13Z" fill="#151718"/>
</g>
<defs>
<clipPath id="clip0_291_5428">
<rect width="18" height="18" fill="white"/>
</clipPath>
</defs>
</svg>
