<svg width="24" height="24" viewBox="0 0 24 24" fill="none" xmlns="http://www.w3.org/2000/svg" id="check">
<path d="M10.13 15.0165L18.5964 5.58044C18.8595 5.28723 19.1943 5.14062 19.6009 5.14062C20.0075 5.14062 20.3423 5.28723 20.6054 5.58044C20.8685 5.87365 21 6.24683 21 6.69997C21 7.15312 20.8685 7.5263 20.6054 7.81951L11.1345 18.3751C10.8475 18.695 10.5127 18.8549 10.13 18.8549C9.74738 18.8549 9.41256 18.695 9.12556 18.3751L5.39462 14.2168C5.13154 13.9236 5 13.5505 5 13.0973C5 12.6442 5.13154 12.271 5.39462 11.9778C5.6577 11.6846 5.99253 11.538 6.3991 11.538C6.80568 11.538 7.14051 11.6846 7.40359 11.9778L10.13 15.0165Z" fill="#08C873"/>
</svg>
