<svg width="24" height="24" viewBox="0 0 24 24" fill="none" xmlns="http://www.w3.org/2000/svg" id="close">
<path d="M11.9974 13.9886L5.04176 20.9443C4.78151 21.2045 4.45029 21.3346 4.04809 21.3346C3.6459 21.3346 3.31467 21.2045 3.05443 20.9443C2.79418 20.684 2.66406 20.3528 2.66406 19.9506C2.66406 19.5484 2.79418 19.2172 3.05443 18.9569L10.0101 12.0013L3.05443 5.04566C2.79418 4.78542 2.66406 4.4542 2.66406 4.052C2.66406 3.6498 2.79418 3.31858 3.05443 3.05834C3.31467 2.79809 3.6459 2.66797 4.04809 2.66797C4.45029 2.66797 4.78151 2.79809 5.04176 3.05834L11.9974 10.014L18.953 3.05834C19.2133 2.79809 19.5445 2.66797 19.9467 2.66797C20.3489 2.66797 20.6801 2.79809 20.9404 3.05834C21.2006 3.31858 21.3307 3.6498 21.3307 4.052C21.3307 4.4542 21.2006 4.78542 20.9404 5.04566L13.9847 12.0013L20.9404 18.9569C21.2006 19.2172 21.3307 19.5484 21.3307 19.9506C21.3307 20.3528 21.2006 20.684 20.9404 20.9443C20.6801 21.2045 20.3489 21.3346 19.9467 21.3346C19.5445 21.3346 19.2133 21.2045 18.953 20.9443L11.9974 13.9886Z" fill="#F8F8F8"/>
</svg>
