<svg width="33" height="34" viewBox="0 0 33 34" id="settings" fill="none" xmlns="http://www.w3.org/2000/svg">
<path d="M32.1686 19.9665L29.9147 18.676C30.0564 17.5631 30.0564 16.4369 29.9147 15.324L32.1686 14.0335C32.8305 13.6545 33.1498 12.8749 32.9321 12.1483C32.157 9.56067 30.7774 7.23146 28.9554 5.32122C28.4278 4.76804 27.5857 4.64698 26.9208 5.0277L24.6702 6.31627C23.77 5.6368 22.7868 5.07297 21.7439 4.63821V2.05982C21.7439 1.29688 21.215 0.633739 20.4663 0.45805C17.8644 -0.152649 15.1361 -0.152717 12.5337 0.45805C11.7851 0.633739 11.2561 1.29681 11.2561 2.05982V4.63821C10.2132 5.07296 9.22998 5.63679 8.32977 6.31627L6.07917 5.0277C5.41419 4.64698 4.57213 4.76804 4.04456 5.32122C2.22262 7.23146 0.84297 9.56074 0.0678876 12.1483C-0.149763 12.8749 0.16949 13.6545 0.831359 14.0335L3.08528 15.324C2.94359 16.4369 2.94359 17.5631 3.08528 18.676L0.831359 19.9665C0.16949 20.3455 -0.149763 21.1251 0.0678876 21.8517C0.84297 24.4393 2.22262 26.7685 4.04456 28.6788C4.5722 29.232 5.41426 29.353 6.07917 28.9724L8.32977 27.6838C9.22998 28.3633 10.2132 28.9271 11.2561 29.3618V31.9402C11.2561 32.7031 11.785 33.3663 12.5337 33.542C15.1356 34.1526 17.8639 34.1527 20.4663 33.542C21.2149 33.3663 21.7439 32.7032 21.7439 31.9402V29.3618C22.7867 28.927 23.77 28.3632 24.6702 27.6838L26.9208 28.9724C27.5857 29.3531 28.4278 29.232 28.9554 28.6788C30.7774 26.7685 32.157 24.4393 32.9321 21.8517C33.1498 21.1251 32.8305 20.3455 32.1686 19.9665V19.9665ZM27.6429 26.853L24.4421 25.02C22.5768 26.6015 21.9153 26.9994 19.5321 27.8345V31.5004C17.5318 31.9097 15.4682 31.9097 13.4679 31.5004V27.8345C11.1441 27.0202 10.4713 26.6421 8.55786 25.02L5.3571 26.853C3.99479 25.3388 2.95948 23.5634 2.32084 21.6462L5.52298 19.8132C5.0713 17.3854 5.07109 16.6158 5.52298 14.1868L2.32084 12.3538C2.95948 10.4366 3.99486 8.66118 5.3571 7.14626L8.55786 8.98062C10.4501 7.37425 11.1196 6.98825 13.4679 6.1654V2.49956C15.4682 2.08964 17.5318 2.08964 19.5321 2.49956V6.16547C21.8806 6.98839 22.5501 7.37445 24.4421 8.98068L27.6429 7.14633C29.0051 8.66118 30.0405 10.4366 30.6792 12.3539L27.477 14.1869C27.9288 16.6153 27.9289 17.3842 27.477 19.8133L30.6792 21.6463C30.0405 23.5634 29.0052 25.3388 27.6429 26.853V26.853ZM16.5 10.4194C12.8413 10.4194 9.86473 13.3714 9.86473 17C9.86473 20.6286 12.8413 23.5807 16.5 23.5807C20.1587 23.5807 23.1353 20.6286 23.1353 17C23.1353 13.3714 20.1587 10.4194 16.5 10.4194ZM16.5 21.3871C14.0608 21.3871 12.0765 19.4191 12.0765 17C12.0765 14.581 14.0608 12.6129 16.5 12.6129C18.9392 12.6129 20.9235 14.581 20.9235 17C20.9235 19.4191 18.9392 21.3871 16.5 21.3871Z" fill="rgb(255,255,255)"/>
</svg>
