<svg width="24" height="24" viewBox="0 0 41 41" fill="none" xmlns="http://www.w3.org/2000/svg">
<g filter="url(#filter0_b_9130_152833)">
<rect x="0.632812" y="1.46875" width="39" height="39" rx="3.5" fill="#444546" fill-opacity="0.8" stroke="#4C4E51"/>
<path d="M30.2635 33.0636C30.5134 33.3127 30.8488 33.4573 31.2015 33.4681C31.5542 33.4789 31.8978 33.355 32.1625 33.1216C32.4272 32.8882 32.5931 32.5629 32.6265 32.2116C32.66 31.8603 32.5585 31.5094 32.3427 31.2303L32.2274 31.0997L26.3547 25.5925H29.9463C30.3003 25.5921 30.6408 25.4566 30.8982 25.2135C31.1556 24.9705 31.3105 24.6384 31.3313 24.285C31.352 23.9316 31.2371 23.5836 31.0099 23.3122C30.7826 23.0407 30.4604 22.8662 30.1088 22.8244L29.9463 22.8147H23.0019C22.6617 22.8148 22.3334 22.9397 22.0791 23.1657C21.8249 23.3918 21.6625 23.7033 21.6227 24.0411L21.613 24.2036V31.148C21.6134 31.502 21.7489 31.8425 21.992 32.0999C22.235 32.3574 22.5671 32.5123 22.9205 32.533C23.2739 32.5538 23.6219 32.4388 23.8933 32.2116C24.1648 31.9844 24.3392 31.6621 24.3811 31.3105L24.3908 31.148V27.5564L30.2635 33.0636ZM16.9466 18.5922C17.2868 18.5921 17.6151 18.4672 17.8693 18.2412C18.1235 18.0151 18.2859 17.7036 18.3257 17.3658L18.3355 17.2033V10.2588C18.3351 9.90484 18.1995 9.56435 17.9565 9.30694C17.7135 9.04953 17.3814 8.89463 17.028 8.87388C16.6746 8.85314 16.3266 8.96811 16.0551 9.19532C15.7837 9.42253 15.6092 9.74482 15.5674 10.0963L15.5577 10.2588V13.8505L10.0021 8.87388C9.75219 8.62479 9.41681 8.48017 9.0641 8.4694C8.71139 8.45863 8.36781 8.58251 8.10314 8.81589C7.83846 9.04927 7.67254 9.37465 7.63908 9.72593C7.60561 10.0772 7.70712 10.4281 7.92297 10.7072L8.03824 10.8378L13.5938 15.8144H10.0021C9.64813 15.8148 9.30764 15.9503 9.05023 16.1934C8.79282 16.4364 8.63792 16.7685 8.61717 17.1219C8.59642 17.4753 8.7114 17.8233 8.93861 18.0947C9.16582 18.3662 9.48811 18.5406 9.83963 18.5825L10.0021 18.5922H16.9466Z" fill="#F8F8F8"/>
</g>
<defs>
<filter id="filter0_b_9130_152833" x="-3.86719" y="-3.03125" width="48" height="48" filterUnits="userSpaceOnUse" color-interpolation-filters="sRGB">
<feFlood flood-opacity="0" result="BackgroundImageFix"/>
<feGaussianBlur in="BackgroundImageFix" stdDeviation="2"/>
<feComposite in2="SourceAlpha" operator="in" result="effect1_backgroundBlur_9130_152833"/>
<feBlend mode="normal" in="SourceGraphic" in2="effect1_backgroundBlur_9130_152833" result="shape"/>
</filter>
</defs>
</svg>
