<svg width="16" height="16" viewBox="0 0 16 16" fill="none" xmlns="http://www.w3.org/2000/svg">
<path fill-rule="evenodd" clip-rule="evenodd" d="M8.125 15.5C12.2671 15.5 15.625 12.1421 15.625 8C15.625 3.85786 12.2671 0.5 8.125 0.5C3.98286 0.5 0.625 3.85786 0.625 8C0.625 12.1421 3.98286 15.5 8.125 15.5ZM6.79144 11.9549C6.867 11.985 6.94797 12 7.03433 12C7.1207 12 7.20166 11.985 7.27723 11.9549C7.3528 11.9253 7.42297 11.8747 7.48775 11.8031L13.4469 5.217C13.5656 5.08576 13.625 4.91562 13.625 4.70658C13.625 4.49802 13.5656 4.32811 13.4469 4.19687C13.3281 4.06562 13.1744 4 12.9857 4C12.7966 4 12.6426 4.06562 12.5239 4.19687L7.03433 10.264L4.7187 7.7047C4.59994 7.57345 4.44881 7.50783 4.26528 7.50783C4.08176 7.50783 3.93062 7.57345 3.81187 7.7047C3.69312 7.83594 3.63094 8.00585 3.62532 8.21441C3.62014 8.42344 3.67693 8.59359 3.79568 8.72483L6.58092 11.8031C6.6457 11.8747 6.71587 11.9253 6.79144 11.9549Z" fill="#08C873"/>
</svg>
