<svg id="communication" width="16" height="30" viewBox="0 0 16 30"  xmlns="http://www.w3.org/2000/svg">
<path fill-rule="evenodd" clip-rule="evenodd" d="M6.19474 8.06817H12.3476C12.751 8.10179 13.7597 8.35059 14.5666 9.07683C15.3735 9.80306 15.777 10.8252 15.8779 11.2454C15.9956 13.7167 16.0796 17.1965 15.8779 21.0799C15.6761 24.9632 15.4744 25.7702 15.0205 26.7284C14.5666 27.6866 13.2554 29.3509 11.4398 29.5526C10.1356 29.6975 8.54523 29.6343 7.36019 29.5871H7.36008H7.35998C6.89536 29.5686 6.49302 29.5526 6.19474 29.5526C5.13564 29.5526 2.51313 28.2918 2.21053 26.7284C1.90793 25.165 1.58696 22.643 1.5549 21.0799L1.30273 11.2454C1.30273 9.52898 2.84935 8.84147 3.47135 8.4212V5.94998C3.47135 5.94998 3.77395 4.99175 4.83304 4.94132C5.89214 4.89089 6.19474 5.94998 6.19474 5.94998V8.06817ZM4.88348 11.395H12.4484C13.0055 11.395 13.4571 11.8466 13.4571 12.4037V16.7409C13.4571 17.298 13.0055 17.7496 12.4484 17.7496H4.88348C4.32641 17.7496 3.87482 17.298 3.87482 16.7409V12.4037C3.87482 11.8466 4.32641 11.395 4.88348 11.395ZM11.9441 20.8764C12.3898 20.8764 12.751 20.5151 12.751 20.0695C12.751 19.6238 12.3898 19.2626 11.9441 19.2626C11.4984 19.2626 11.1372 19.6238 11.1372 20.0695C11.1372 20.5151 11.4984 20.8764 11.9441 20.8764ZM12.751 22.7929C12.751 23.2385 12.3898 23.5998 11.9441 23.5998C11.4984 23.5998 11.1372 23.2385 11.1372 22.7929C11.1372 22.3472 11.4984 21.9859 11.9441 21.9859C12.3898 21.9859 12.751 22.3472 12.751 22.7929ZM11.9441 26.1214C12.3898 26.1214 12.751 25.7602 12.751 25.3145C12.751 24.8689 12.3898 24.5076 11.9441 24.5076C11.4984 24.5076 11.1372 24.8689 11.1372 25.3145C11.1372 25.7602 11.4984 26.1214 11.9441 26.1214ZM9.42245 25.3145C9.42245 25.7602 9.06118 26.1214 8.61552 26.1214C8.16987 26.1214 7.80859 25.7602 7.80859 25.3145C7.80859 24.8689 8.16987 24.5076 8.61552 24.5076C9.06118 24.5076 9.42245 24.8689 9.42245 25.3145ZM8.61552 23.5998C9.06118 23.5998 9.42245 23.2385 9.42245 22.7929C9.42245 22.3472 9.06118 21.9859 8.61552 21.9859C8.16987 21.9859 7.80859 22.3472 7.80859 22.7929C7.80859 23.2385 8.16987 23.5998 8.61552 23.5998ZM9.42245 20.0695C9.42245 20.5151 9.06118 20.8764 8.61552 20.8764C8.16987 20.8764 7.80859 20.5151 7.80859 20.0695C7.80859 19.6238 8.16987 19.2626 8.61552 19.2626C9.06118 19.2626 9.42245 19.6238 9.42245 20.0695ZM5.28694 20.8764C5.7326 20.8764 6.09387 20.5151 6.09387 20.0695C6.09387 19.6238 5.7326 19.2626 5.28694 19.2626C4.84129 19.2626 4.48001 19.6238 4.48001 20.0695C4.48001 20.5151 4.84129 20.8764 5.28694 20.8764ZM6.09387 22.7929C6.09387 23.2385 5.7326 23.5998 5.28694 23.5998C4.84129 23.5998 4.48001 23.2385 4.48001 22.7929C4.48001 22.3472 4.84129 21.9859 5.28694 21.9859C5.7326 21.9859 6.09387 22.3472 6.09387 22.7929ZM5.28694 26.1214C5.7326 26.1214 6.09387 25.7602 6.09387 25.3145C6.09387 24.8689 5.7326 24.5076 5.28694 24.5076C4.84129 24.5076 4.48001 24.8689 4.48001 25.3145C4.48001 25.7602 4.84129 26.1214 5.28694 26.1214Z" />
<path d="M0.337337 2.5248C0.101979 2.7896 -0.243816 3.40686 0.255867 3.75749C0.440317 3.99855 0.899914 3.93094 1.15204 3.56574C1.55554 2.63438 3.07378 1.21541 4.89871 1.23733C6.72364 1.25924 7.9101 2.5248 8.29721 3.56574C8.71703 3.93094 8.98156 3.95472 9.32916 3.64792C9.67677 3.34112 9.37522 2.8645 9.22054 2.63438C8.46487 1.51016 7.50575 0.114209 4.89871 0.00463676C2.29167 -0.104936 0.748615 1.76232 0.337337 2.5248Z" />
<path d="M2.26214 3.85699C2.02678 4.12179 1.68099 4.73905 2.18067 5.08968C2.36512 5.33074 2.7665 5.2422 3.07684 4.89793C3.48035 3.96657 4.10587 3.74782 4.79734 3.75612C5.48881 3.76443 6.13751 3.92048 6.52461 4.96142C6.90201 5.29263 7.20896 5.3504 7.55656 5.0436C7.90417 4.7368 7.60262 4.26018 7.44794 4.03006C6.69227 2.90584 5.74098 2.52343 4.79734 2.52343C3.62387 2.52343 2.67342 3.09451 2.26214 3.85699Z" />
</svg>
