<svg width="16" height="20" viewBox="0 0 16 20" fill="none" xmlns="http://www.w3.org/2000/svg">
<path d="M1.6 16.525V5.83333C1.59984 4.77547 1.98597 3.75715 2.68006 2.98492C3.37416 2.2127 4.32424 1.7444 5.3376 1.675L5.6 1.66667H12.6624C12.497 1.1793 12.1906 0.757339 11.7854 0.458862C11.3803 0.160385 10.8962 7.43866e-05 10.4 0H4.8C3.52696 0 2.30606 0.526785 1.40589 1.46447C0.505713 2.40215 3.29979e-07 3.67392 3.29979e-07 5V14.1667C-0.000259968 14.6839 0.153484 15.1884 0.440045 15.6108C0.726606 16.0332 1.13188 16.3526 1.6 16.525ZM13.6 20C14.2365 20 14.847 19.7366 15.2971 19.2678C15.7471 18.7989 16 18.163 16 17.5V5.83333C16 5.17029 15.7471 4.53441 15.2971 4.06557C14.847 3.59673 14.2365 3.33333 13.6 3.33333H5.6C4.96348 3.33333 4.35303 3.59673 3.90294 4.06557C3.45286 4.53441 3.2 5.17029 3.2 5.83333V17.5C3.2 18.163 3.45286 18.7989 3.90294 19.2678C4.35303 19.7366 4.96348 20 5.6 20H13.6ZM13.6 18.3333H5.6C5.38783 18.3333 5.18434 18.2455 5.03432 18.0893C4.88429 17.933 4.8 17.721 4.8 17.5V5.83333C4.8 5.61232 4.88429 5.40036 5.03432 5.24408C5.18434 5.0878 5.38783 5 5.6 5H13.6C13.8122 5 14.0157 5.0878 14.1657 5.24408C14.3157 5.40036 14.4 5.61232 14.4 5.83333V17.5C14.4 17.721 14.3157 17.933 14.1657 18.0893C14.0157 18.2455 13.8122 18.3333 13.6 18.3333Z" fill="#F8F8F8"/>
</svg>
