<svg width="20" height="20" viewBox="0 0 20 20" fill="none" xmlns="http://www.w3.org/2000/svg">
<g filter="url(#filter0_b_6674_12417)">
<rect x="0.5" y="0.5" width="19" height="19" rx="9.5" fill="#303438" fill-opacity="0.2" stroke="#F8F8F8"/>
<path d="M11.2667 4C11.4999 4.00007 11.7271 4.07937 11.9163 4.22668C12.1054 4.374 12.2469 4.58185 12.3206 4.8208L12.6222 5.8H14.4444C14.5918 5.8 14.7331 5.86321 14.8373 5.97574C14.9415 6.08826 15 6.24087 15 6.4C15 6.55913 14.9415 6.71174 14.8373 6.82426C14.7331 6.93679 14.5918 7 14.4444 7L14.4428 7.0426L13.9611 14.3284C13.9311 14.7824 13.7429 15.2072 13.4345 15.5173C13.1261 15.8275 12.7203 15.9999 12.2989 16H7.70111C7.2797 15.9999 6.87395 15.8275 6.56554 15.5173C6.25713 15.2072 6.06895 14.7824 6.03889 14.3284L5.55722 7.042C5.55622 7.02803 5.55566 7.01402 5.55556 7C5.40821 7 5.26691 6.93679 5.16272 6.82426C5.05853 6.71174 5 6.55913 5 6.4C5 6.24087 5.05853 6.08826 5.16272 5.97574C5.26691 5.86321 5.40821 5.8 5.55556 5.8H7.37778L7.67944 4.8208C7.75317 4.58175 7.89469 4.37383 8.08394 4.22651C8.2732 4.07919 8.50059 3.99994 8.73389 4H11.2667ZM13.3317 7H6.66833L7.14722 14.2426C7.1572 14.3939 7.21988 14.5356 7.32264 14.639C7.42541 14.7424 7.56064 14.7999 7.70111 14.8H12.2989C12.4394 14.7999 12.5746 14.7424 12.6774 14.639C12.7801 14.5356 12.8428 14.3939 12.8528 14.2426L13.3317 7ZM8.88889 8.8C9.02496 8.80002 9.1563 8.85397 9.25799 8.95163C9.35967 9.04928 9.42463 9.18385 9.44056 9.3298L9.44444 9.4V12.4C9.44429 12.5529 9.39007 12.7 9.29286 12.8112C9.19566 12.9224 9.0628 12.9893 8.92145 12.9983C8.78009 13.0073 8.6409 12.9576 8.53232 12.8594C8.42373 12.7613 8.35395 12.6221 8.33722 12.4702L8.33333 12.4V9.4C8.33333 9.24087 8.39187 9.08826 8.49605 8.97574C8.60024 8.86321 8.74155 8.8 8.88889 8.8ZM11.1111 8.8C11.2585 8.8 11.3998 8.86321 11.5039 8.97574C11.6081 9.08826 11.6667 9.24087 11.6667 9.4V12.4C11.6667 12.5591 11.6081 12.7117 11.5039 12.8243C11.3998 12.9368 11.2585 13 11.1111 13C10.9638 13 10.8225 12.9368 10.7183 12.8243C10.6141 12.7117 10.5556 12.5591 10.5556 12.4V9.4C10.5556 9.24087 10.6141 9.08826 10.7183 8.97574C10.8225 8.86321 10.9638 8.8 11.1111 8.8ZM11.2667 5.2H8.73333L8.54833 5.8H11.4517L11.2667 5.2Z" fill="#F8F8F8"/>
</g>
<defs>
<filter id="filter0_b_6674_12417" x="-8" y="-8" width="36" height="36" filterUnits="userSpaceOnUse" color-interpolation-filters="sRGB">
<feFlood flood-opacity="0" result="BackgroundImageFix"/>
<feGaussianBlur in="BackgroundImageFix" stdDeviation="4"/>
<feComposite in2="SourceAlpha" operator="in" result="effect1_backgroundBlur_6674_12417"/>
<feBlend mode="normal" in="SourceGraphic" in2="effect1_backgroundBlur_6674_12417" result="shape"/>
</filter>
</defs>
</svg>
