<svg width="24" height="24" viewBox="0 0 24 24" fill="none" xmlns="http://www.w3.org/2000/svg" id="delete_trash">
<path d="M13.7733 3C14.0998 3.0001 14.418 3.11906 14.6828 3.34003C14.9476 3.561 15.1456 3.87278 15.2488 4.2312L15.6711 5.7H18.2222C18.4285 5.7 18.6263 5.79482 18.7722 5.9636C18.9181 6.13239 19 6.3613 19 6.6C19 6.83869 18.9181 7.06761 18.7722 7.2364C18.6263 7.40518 18.4285 7.5 18.2222 7.5L18.2199 7.5639L17.5456 18.4926C17.5035 19.1735 17.24 19.8108 16.8082 20.276C16.3765 20.7412 15.8084 20.9999 15.2184 21H8.78156C8.19158 20.9999 7.62353 20.7412 7.19175 20.276C6.75998 19.8108 6.49653 19.1735 6.45444 18.4926L5.78011 7.563C5.7787 7.54204 5.77793 7.52102 5.77778 7.5C5.5715 7.5 5.37367 7.40518 5.22781 7.2364C5.08194 7.06761 5 6.83869 5 6.6C5 6.3613 5.08194 6.13239 5.22781 5.9636C5.37367 5.79482 5.5715 5.7 5.77778 5.7H8.32889L8.75122 4.2312C8.85443 3.87263 9.05256 3.56075 9.31752 3.33976C9.58248 3.11878 9.90083 2.99991 10.2274 3H13.7733ZM16.6643 7.5H7.33567L8.00611 18.3639C8.02007 18.5909 8.10782 18.8033 8.2517 18.9585C8.39558 19.1136 8.5849 19.1999 8.78156 19.2H15.2184C15.4151 19.1999 15.6044 19.1136 15.7483 18.9585C15.8922 18.8033 15.9799 18.5909 15.9939 18.3639L16.6643 7.5ZM10.4444 10.2C10.6349 10.2 10.8188 10.281 10.9612 10.4274C11.1035 10.5739 11.1945 10.7758 11.2168 10.9947L11.2222 11.1V15.6C11.222 15.8294 11.1461 16.05 11.01 16.2168C10.8739 16.3836 10.6879 16.484 10.49 16.4975C10.2921 16.5109 10.0973 16.4364 9.94524 16.2892C9.79322 16.1419 9.69553 15.9331 9.67211 15.7053L9.66667 15.6V11.1C9.66667 10.8613 9.74861 10.6324 9.89447 10.4636C10.0403 10.2948 10.2382 10.2 10.4444 10.2ZM13.5556 10.2C13.7618 10.2 13.9597 10.2948 14.1055 10.4636C14.2514 10.6324 14.3333 10.8613 14.3333 11.1V15.6C14.3333 15.8387 14.2514 16.0676 14.1055 16.2364C13.9597 16.4052 13.7618 16.5 13.5556 16.5C13.3493 16.5 13.1514 16.4052 13.0056 16.2364C12.8597 16.0676 12.7778 15.8387 12.7778 15.6V11.1C12.7778 10.8613 12.8597 10.6324 13.0056 10.4636C13.1514 10.2948 13.3493 10.2 13.5556 10.2ZM13.7733 4.8H10.2267L9.96767 5.7H14.0323L13.7733 4.8Z" fill="#757575"/>
</svg>
