<?xml version="1.0" encoding="UTF-8"?>
<svg id="deliver" width="14" height="14" viewBox="0 0 14 14" xmlns="http://www.w3.org/2000/svg">
<path d="M3.40933 11C3.32297 11 3.242 10.985 3.16644 10.9549C3.09087 10.9253 3.0207 10.8747 2.95592 10.8031L0.170678 7.72483C0.0519276 7.59359 -0.00485686 7.42344 0.000324994 7.21441C0.00593866 7.00585 0.0681206 6.83594 0.186871 6.7047C0.305622 6.57345 0.45676 6.50783 0.640283 6.50783C0.823807 6.50783 0.974944 6.57345 1.0937 6.7047L3.40933 9.26398L8.89886 3.19687C9.01761 3.06562 9.17155 3 9.36069 3C9.5494 3 9.70312 3.06562 9.82187 3.19687C9.94063 3.32811 10 3.49802 10 3.70658C10 3.91562 9.94063 4.08576 9.82187 4.217L3.86275 10.8031C3.79797 10.8747 3.7278 10.9253 3.65223 10.9549C3.57666 10.985 3.4957 11 3.40933 11Z"/>
</svg>
