<svg width="26" height="26" viewBox="0 0 26 26" fill="none" xmlns="http://www.w3.org/2000/svg">
<g id="Denied">
<g id="feDisabled1">
<path id="feDisabled2" fill-rule="evenodd" clip-rule="evenodd" d="M13 26C20.1799 26 26 20.1799 26 13C26 5.8201 20.1799 0 13 0C5.8201 0 0 5.8201 0 13C0 20.1799 5.8201 26 13 26ZM6.6222 21.216L21.216 6.6222C22.7715 8.62312 23.5428 11.1232 23.385 13.6527C23.2272 16.1822 22.1512 18.567 20.3591 20.3591C18.567 22.1512 16.1822 23.2272 13.6527 23.385C11.1232 23.5428 8.62312 22.7715 6.6222 21.216ZM4.784 19.3778C3.22851 17.3769 2.45721 14.8768 2.615 12.3473C2.77279 9.81783 3.84881 7.43301 5.64091 5.64091C7.43301 3.84881 9.81783 2.77279 12.3473 2.615C14.8768 2.45721 17.3769 3.22851 19.3778 4.784L4.784 19.3778Z" fill="#F8F8F8"/>
</g>
</g>
</svg>
