<svg width="24" height="24" viewBox="0 0 24 24" fill="none" xmlns="http://www.w3.org/2000/svg">
<path fill-rule="evenodd" clip-rule="evenodd" d="M8.4 3H15.6C16.2365 3 16.847 3.27092 17.2971 3.75315C17.7471 4.23539 18 4.88944 18 5.57143V18.4286C18 19.1106 17.7471 19.7646 17.2971 20.2468C16.847 20.7291 16.2365 21 15.6 21H8.4C7.76348 21 7.15303 20.7291 6.70294 20.2468C6.25286 19.7646 6 19.1106 6 18.4286V5.57143C6 4.88944 6.25286 4.23539 6.70294 3.75315C7.15303 3.27092 7.76348 3 8.4 3Z" stroke="#F8F8F8" stroke-width="1.5" stroke-linecap="round" stroke-linejoin="round"/>
<path d="M12.0018 18.4289C12.6645 18.4289 13.2018 17.8532 13.2018 17.1431C13.2018 16.4331 12.6645 15.8574 12.0018 15.8574C11.339 15.8574 10.8018 16.4331 10.8018 17.1431C10.8018 17.8532 11.339 18.4289 12.0018 18.4289Z" fill="#F8F8F8"/>
</svg>
