<svg width="32" height="32" viewBox="0 0 32 32" fill="none" xmlns="http://www.w3.org/2000/svg">
<path d="M28.7045 14H18.3636C17.4233 14 16.5215 13.6839 15.8566 13.1213C15.1917 12.5587 14.8182 11.7956 14.8182 11V2.25C14.8182 2.1837 14.7871 2.12011 14.7316 2.07322C14.6762 2.02634 14.6011 2 14.5227 2H7.72727C6.47352 2 5.27112 2.42143 4.38459 3.17157C3.49805 3.92172 3 4.93913 3 6V26C3 27.0609 3.49805 28.0783 4.38459 28.8284C5.27112 29.5786 6.47352 30 7.72727 30H24.2727C25.5265 30 26.7289 29.5786 27.6154 28.8284C28.502 28.0783 29 27.0609 29 26V14.25C29 14.1837 28.9689 14.1201 28.9135 14.0732C28.8581 14.0263 28.7829 14 28.7045 14Z" fill="#F8F8F8"/>
<path d="M28.056 11.7869L17.4337 2.79875C17.413 2.78137 17.3868 2.76955 17.3582 2.76477C17.3296 2.75999 17.3 2.76247 17.2731 2.77189C17.2462 2.7813 17.2232 2.79724 17.2069 2.8177C17.1907 2.83816 17.1819 2.86223 17.1818 2.88687V11C17.1818 11.2652 17.3063 11.5196 17.528 11.7071C17.7496 11.8946 18.0502 12 18.3636 12H27.9519C27.981 11.9999 28.0094 11.9925 28.0336 11.9788C28.0578 11.965 28.0766 11.9455 28.0878 11.9228C28.0989 11.9 28.1018 11.8749 28.0962 11.8508C28.0905 11.8266 28.0766 11.8044 28.056 11.7869Z" fill="#F8F8F8"/>
<path d="M6.7948 22.22C6.7948 21.6667 6.90814 21.1767 7.1348 20.75C7.36814 20.3233 7.68147 19.9933 8.0748 19.76C8.4748 19.52 8.91814 19.4 9.4048 19.4C9.7648 19.4 10.1181 19.48 10.4648 19.64C10.8181 19.7933 11.0981 20 11.3048 20.26V17.6H12.4548V25H11.3048V24.17C11.1181 24.4367 10.8581 24.6567 10.5248 24.83C10.1981 25.0033 9.82147 25.09 9.3948 25.09C8.9148 25.09 8.4748 24.97 8.0748 24.73C7.68147 24.4833 7.36814 24.1433 7.1348 23.71C6.90814 23.27 6.7948 22.7733 6.7948 22.22ZM11.3048 22.24C11.3048 21.86 11.2248 21.53 11.0648 21.25C10.9115 20.97 10.7081 20.7567 10.4548 20.61C10.2015 20.4633 9.92814 20.39 9.6348 20.39C9.34147 20.39 9.06814 20.4633 8.8148 20.61C8.56147 20.75 8.3548 20.96 8.1948 21.24C8.04147 21.5133 7.9648 21.84 7.9648 22.22C7.9648 22.6 8.04147 22.9333 8.1948 23.22C8.3548 23.5067 8.56147 23.7267 8.8148 23.88C9.0748 24.0267 9.34814 24.1 9.6348 24.1C9.92814 24.1 10.2015 24.0267 10.4548 23.88C10.7081 23.7333 10.9115 23.52 11.0648 23.24C11.2248 22.9533 11.3048 22.62 11.3048 22.24ZM15.8421 25.09C15.3221 25.09 14.8521 24.9733 14.4321 24.74C14.0121 24.5 13.6821 24.1667 13.4421 23.74C13.2021 23.3067 13.0821 22.8067 13.0821 22.24C13.0821 21.68 13.2055 21.1833 13.4521 20.75C13.6988 20.3167 14.0355 19.9833 14.4621 19.75C14.8888 19.5167 15.3655 19.4 15.8921 19.4C16.4188 19.4 16.8955 19.5167 17.3221 19.75C17.7488 19.9833 18.0855 20.3167 18.3321 20.75C18.5788 21.1833 18.7021 21.68 18.7021 22.24C18.7021 22.8 18.5755 23.2967 18.3221 23.73C18.0688 24.1633 17.7221 24.5 17.2821 24.74C16.8488 24.9733 16.3688 25.09 15.8421 25.09ZM15.8421 24.1C16.1355 24.1 16.4088 24.03 16.6621 23.89C16.9221 23.75 17.1321 23.54 17.2921 23.26C17.4521 22.98 17.5321 22.64 17.5321 22.24C17.5321 21.84 17.4555 21.5033 17.3021 21.23C17.1488 20.95 16.9455 20.74 16.6921 20.6C16.4388 20.46 16.1655 20.39 15.8721 20.39C15.5788 20.39 15.3055 20.46 15.0521 20.6C14.8055 20.74 14.6088 20.95 14.4621 21.23C14.3155 21.5033 14.2421 21.84 14.2421 22.24C14.2421 22.8333 14.3921 23.2933 14.6921 23.62C14.9988 23.94 15.3821 24.1 15.8421 24.1ZM18.9491 22.24C18.9491 21.6733 19.0624 21.1767 19.2891 20.75C19.5224 20.3167 19.8424 19.9833 20.2491 19.75C20.6558 19.5167 21.1224 19.4 21.6491 19.4C22.3158 19.4 22.8658 19.56 23.2991 19.88C23.7391 20.1933 24.0358 20.6433 24.1891 21.23H22.9591C22.8591 20.9567 22.6991 20.7433 22.4791 20.59C22.2591 20.4367 21.9824 20.36 21.6491 20.36C21.1824 20.36 20.8091 20.5267 20.5291 20.86C20.2558 21.1867 20.1191 21.6467 20.1191 22.24C20.1191 22.8333 20.2558 23.2967 20.5291 23.63C20.8091 23.9633 21.1824 24.13 21.6491 24.13C22.3091 24.13 22.7458 23.84 22.9591 23.26H24.1891C24.0291 23.82 23.7291 24.2667 23.2891 24.6C22.8491 24.9267 22.3024 25.09 21.6491 25.09C21.1224 25.09 20.6558 24.9733 20.2491 24.74C19.8424 24.5 19.5224 24.1667 19.2891 23.74C19.0624 23.3067 18.9491 22.8067 18.9491 22.24Z" fill="#151718"/>
</svg>
