<svg width="18" height="18" viewBox="0 0 18 18" fill="none" xmlns="http://www.w3.org/2000/svg">
<path d="M16.1463 7.875H10.3295C9.80062 7.875 9.29336 7.69721 8.91935 7.38074C8.54534 7.06428 8.33523 6.63505 8.33523 6.1875V1.26562C8.33523 1.22833 8.31772 1.19256 8.28655 1.16619C8.25538 1.13982 8.21311 1.125 8.16903 1.125H4.34659C3.64136 1.125 2.96501 1.36205 2.46633 1.78401C1.96765 2.20597 1.6875 2.77826 1.6875 3.375V14.625C1.6875 15.2217 1.96765 15.794 2.46633 16.216C2.96501 16.6379 3.64136 16.875 4.34659 16.875H13.6534C14.3586 16.875 15.035 16.6379 15.5337 16.216C16.0323 15.794 16.3125 15.2217 16.3125 14.625V8.01562C16.3125 7.97833 16.295 7.94256 16.2638 7.91619C16.2327 7.88982 16.1904 7.875 16.1463 7.875Z" fill="#B3B3B4"/>
<path d="M15.7815 6.63012L9.80645 1.5743C9.79483 1.56452 9.78006 1.55787 9.76399 1.55518C9.74791 1.5525 9.73126 1.55389 9.71612 1.55919C9.70098 1.56448 9.68802 1.57345 9.67889 1.58496C9.66975 1.59647 9.66484 1.61 9.66477 1.62387V6.1875C9.66477 6.33668 9.73481 6.47976 9.85948 6.58525C9.98415 6.69074 10.1532 6.75 10.3295 6.75H15.7229C15.7393 6.74994 15.7553 6.74579 15.7689 6.73806C15.7825 6.73033 15.7931 6.71937 15.7994 6.70656C15.8056 6.69374 15.8073 6.67965 15.8041 6.66605C15.8009 6.65245 15.7931 6.63995 15.7815 6.63012Z" fill="#B3B3B4"/>
<path d="M1.91084 12.2135C1.91084 11.7708 2.00151 11.3788 2.18284 11.0375C2.36951 10.6962 2.62018 10.4322 2.93484 10.2455C3.25484 10.0535 3.60951 9.9575 3.99884 9.9575C4.28684 9.9575 4.56951 10.0215 4.84684 10.1495C5.12951 10.2722 5.35351 10.4375 5.51884 10.6455V8.5175H6.43884V14.4375H5.51884V13.7735C5.36951 13.9868 5.16151 14.1628 4.89484 14.3015C4.63351 14.4402 4.33218 14.5095 3.99084 14.5095C3.60684 14.5095 3.25484 14.4135 2.93484 14.2215C2.62018 14.0242 2.36951 13.7522 2.18284 13.4055C2.00151 13.0535 1.91084 12.6562 1.91084 12.2135ZM5.51884 12.2295C5.51884 11.9255 5.45484 11.6615 5.32684 11.4375C5.20418 11.2135 5.04151 11.0428 4.83884 10.9255C4.63618 10.8082 4.41751 10.7495 4.18284 10.7495C3.94818 10.7495 3.72951 10.8082 3.52684 10.9255C3.32418 11.0375 3.15884 11.2055 3.03084 11.4295C2.90818 11.6482 2.84684 11.9095 2.84684 12.2135C2.84684 12.5175 2.90818 12.7842 3.03084 13.0135C3.15884 13.2428 3.32418 13.4188 3.52684 13.5415C3.73484 13.6588 3.95351 13.7175 4.18284 13.7175C4.41751 13.7175 4.63618 13.6588 4.83884 13.5415C5.04151 13.4242 5.20418 13.2535 5.32684 13.0295C5.45484 12.8002 5.51884 12.5335 5.51884 12.2295ZM9.14872 14.5095C8.73272 14.5095 8.35672 14.4162 8.02072 14.2295C7.68472 14.0375 7.42072 13.7708 7.22872 13.4295C7.03672 13.0828 6.94072 12.6828 6.94072 12.2295C6.94072 11.7815 7.03939 11.3842 7.23672 11.0375C7.43405 10.6908 7.70339 10.4242 8.04472 10.2375C8.38605 10.0508 8.76739 9.9575 9.18872 9.9575C9.61005 9.9575 9.99139 10.0508 10.3327 10.2375C10.6741 10.4242 10.9434 10.6908 11.1407 11.0375C11.3381 11.3842 11.4367 11.7815 11.4367 12.2295C11.4367 12.6775 11.3354 13.0748 11.1327 13.4215C10.9301 13.7682 10.6527 14.0375 10.3007 14.2295C9.95405 14.4162 9.57005 14.5095 9.14872 14.5095ZM9.14872 13.7175C9.38339 13.7175 9.60205 13.6615 9.80472 13.5495C10.0127 13.4375 10.1807 13.2695 10.3087 13.0455C10.4367 12.8215 10.5007 12.5495 10.5007 12.2295C10.5007 11.9095 10.4394 11.6402 10.3167 11.4215C10.1941 11.1975 10.0314 11.0295 9.82872 10.9175C9.62605 10.8055 9.40739 10.7495 9.17272 10.7495C8.93805 10.7495 8.71939 10.8055 8.51672 10.9175C8.31939 11.0295 8.16205 11.1975 8.04472 11.4215C7.92739 11.6402 7.86872 11.9095 7.86872 12.2295C7.86872 12.7042 7.98872 13.0722 8.22872 13.3335C8.47405 13.5895 8.78072 13.7175 9.14872 13.7175ZM11.6343 12.2295C11.6343 11.7762 11.7249 11.3788 11.9063 11.0375C12.0929 10.6908 12.3489 10.4242 12.6743 10.2375C12.9996 10.0508 13.3729 9.9575 13.7943 9.9575C14.3276 9.9575 14.7676 10.0855 15.1143 10.3415C15.4663 10.5922 15.7036 10.9522 15.8263 11.4215H14.8423C14.7623 11.2028 14.6343 11.0322 14.4583 10.9095C14.2823 10.7868 14.0609 10.7255 13.7943 10.7255C13.4209 10.7255 13.1223 10.8588 12.8983 11.1255C12.6796 11.3868 12.5703 11.7548 12.5703 12.2295C12.5703 12.7042 12.6796 13.0748 12.8983 13.3415C13.1223 13.6082 13.4209 13.7415 13.7943 13.7415C14.3223 13.7415 14.6716 13.5095 14.8423 13.0455H15.8263C15.6983 13.4935 15.4583 13.8508 15.1063 14.1175C14.7543 14.3788 14.3169 14.5095 13.7943 14.5095C13.3729 14.5095 12.9996 14.4162 12.6743 14.2295C12.3489 14.0375 12.0929 13.7708 11.9063 13.4295C11.7249 13.0828 11.6343 12.6828 11.6343 12.2295Z" fill="#151718"/>
</svg>
