<svg width="12" height="13" viewBox="0 0 12 13" fill="none" xmlns="http://www.w3.org/2000/svg" id="doneIcon">
<circle cx="6" cy="6.13672" r="4.4" stroke="#08C873" stroke-width="1.2"/>
<g clip-path="url(#clip0_8777_113036)">
<path d="M5.10055 7.22321L7.62597 4.40854C7.70444 4.32107 7.80432 4.27734 7.9256 4.27734C8.04688 4.27734 8.14675 4.32107 8.22522 4.40854C8.3037 4.496 8.34294 4.60731 8.34294 4.74248C8.34294 4.87765 8.3037 4.98896 8.22522 5.07643L5.40017 8.22504C5.31457 8.32046 5.21469 8.36816 5.10055 8.36816C4.9864 8.36816 4.88653 8.32046 4.80092 8.22504L3.68802 6.98468C3.60955 6.89722 3.57031 6.7859 3.57031 6.65073C3.57031 6.51557 3.60955 6.40425 3.68802 6.31679C3.7665 6.22933 3.86637 6.1856 3.98765 6.1856C4.10893 6.1856 4.2088 6.22933 4.28728 6.31679L5.10055 7.22321Z" fill="#08C873"/>
</g>
<defs>
<clipPath id="clip0_8777_113036">
<rect width="5" height="5" fill="white" transform="translate(3.5 3.63672)"/>
</clipPath>
</defs>
</svg>
