<svg width="12" height="12" viewBox="0 0 12 12" fill="none" xmlns="http://www.w3.org/2000/svg" id="download_1">
    <path d="M10.594 10.125a.47.47 0 0 1-.469.469.47.47 0 0 1-.469-.469.47.47 0 0 1 .469-.469.47.47 0 0 1 .469.469zm-1.969-.469a.47.47 0 0 0-.469.469c0 .258.211.469.469.469a.47.47 0 0 0 .469-.469.47.47 0 0 0-.469-.469zM12 8.531v2.438c0 .57-.462 1.031-1.031 1.031H1.03C.461 12 0 11.538 0 10.969V8.53C0 7.961.462 7.5 1.031 7.5h2.33L2.039 6.178c-.59-.59-.171-1.6.663-1.6h1.236V.937c0-.518.419-.938.937-.938h2.25c.518 0 .938.42.938.938v3.64h1.235c.834 0 1.251 1.01.663 1.6L8.639 7.5h2.33c.57 0 1.031.462 1.031 1.031zm-6.134.415a.188.188 0 0 0 .265 0L9.43 5.648a.188.188 0 0 0-.134-.32H7.313V.937A.188.188 0 0 0 7.125.75h-2.25a.188.188 0 0 0-.188.188v4.39H2.702a.189.189 0 0 0-.133.32l3.297 3.298zm5.384-.415a.282.282 0 0 0-.281-.281h-3.08L6.663 9.476a.94.94 0 0 1-1.326 0L4.11 8.25H1.03a.282.282 0 0 0-.281.281v2.438c0 .154.127.281.281.281h9.938a.282.282 0 0 0 .281-.281V8.53z" fill="#fff"/>
</svg>
