<svg width="24" height="24" viewBox="0 0 24 24" fill="none" xmlns="http://www.w3.org/2000/svg">
<g id="Download">
<path id="Vector" d="M18.0635 18.4998C18.3011 18.5001 18.5296 18.5725 18.703 18.7023C18.8765 18.8321 18.9818 19.0097 18.9979 19.1993C19.0139 19.3888 18.9394 19.5761 18.7894 19.7235C18.6395 19.8708 18.4252 19.9671 18.1898 19.993L18.0635 20H4.93772C4.70006 19.9999 4.47129 19.9277 4.29763 19.798C4.12398 19.6683 4.01838 19.4906 4.00218 19.301C3.98598 19.1114 4.06039 18.924 4.21037 18.7765C4.36035 18.6291 4.57471 18.5327 4.81015 18.5068L4.93772 18.4998H18.0635ZM11.5087 4C11.7354 4.00001 11.9544 4.06565 12.1252 4.18479C12.2961 4.30393 12.4072 4.4685 12.438 4.64808L12.4468 4.75009L12.4455 14.9444L16.155 11.974C16.3137 11.8466 16.5245 11.769 16.7487 11.7554C16.973 11.7418 17.196 11.7931 17.3769 11.9L17.482 11.972C17.6411 12.0991 17.7379 12.2676 17.7547 12.447C17.7715 12.6263 17.7071 12.8046 17.5733 12.9491L17.4832 13.0331L12.1766 17.2837L12.0891 17.3467L11.974 17.4057L11.929 17.4267L11.8152 17.4647L11.6651 17.4947L11.5775 17.5027L11.5025 17.5047C11.4394 17.5046 11.3766 17.4992 11.3149 17.4887L11.2123 17.4657C11.0939 17.4349 10.9846 17.3852 10.8909 17.3197L5.52553 13.0341C5.35727 12.9005 5.25858 12.7208 5.24933 12.5312C5.24008 12.3417 5.32095 12.1564 5.47567 12.0127C5.63039 11.8689 5.84747 11.7774 6.08321 11.7565C6.31895 11.7356 6.55584 11.7868 6.74619 11.9L6.85125 11.973L10.5695 14.9404V4.75009C10.5695 4.55116 10.6683 4.36037 10.8442 4.2197C11.0201 4.07903 11.26 4 11.5087 4Z" fill="#F8F8F8"/>
</g>
</svg>
