<svg width="20" height="20" viewBox="0 0 20 20" fill="none" xmlns="http://www.w3.org/2000/svg">
    <path
        d="M8.4368 0.5276C9.47251 0.360592 10.5283 0.360592 11.564 0.5276C11.7965 0.569522 12.0032 0.701187 12.1395 0.894176C12.2758 1.08717 12.3307 1.326 12.2924 1.55914C12.2541 1.79227 12.1257 2.001 11.9349 2.14029C11.7441 2.27957 11.5061 2.33823 11.2724 2.3036C10.4298 2.16814 9.57099 2.16814 8.7284 2.3036C8.61092 2.32478 8.4904 2.32238 8.37386 2.29654C8.25731 2.27069 8.14707 2.22192 8.04956 2.15306C7.95205 2.0842 7.86921 1.99664 7.80586 1.89545C7.74252 1.79427 7.69993 1.6815 7.68059 1.5637C7.66125 1.4459 7.66554 1.32543 7.6932 1.20931C7.72087 1.09318 7.77136 0.983722 7.84174 0.887298C7.91211 0.790874 8.00097 0.709414 8.10313 0.647661C8.20529 0.585908 8.31871 0.545095 8.4368 0.5276ZM5.6636 2.4032C5.73258 2.49923 5.78197 2.60792 5.80893 2.72305C5.8359 2.83818 5.83991 2.95749 5.82074 3.07417C5.80157 3.19085 5.7596 3.30261 5.69722 3.40306C5.63484 3.50351 5.55328 3.59068 5.4572 3.6596C4.76389 4.15706 4.15632 4.76422 3.6584 5.4572C3.51721 5.64588 3.30764 5.77166 3.07472 5.80751C2.8418 5.84336 2.60411 5.78642 2.41271 5.64892C2.22132 5.51143 2.09149 5.30434 2.05112 5.07217C2.01075 4.83999 2.06305 4.60123 2.1968 4.4072C2.80858 3.55517 3.55517 2.80858 4.4072 2.1968C4.50323 2.12782 4.61192 2.07843 4.72705 2.05147C4.84218 2.02451 4.96149 2.02049 5.07817 2.03966C5.19485 2.05883 5.30661 2.1008 5.40706 2.16318C5.50751 2.22556 5.59468 2.30712 5.6636 2.4032ZM14.3372 2.4032C14.4764 2.20949 14.6867 2.07895 14.9221 2.04025C15.1574 2.00155 15.3985 2.05786 15.5924 2.1968C16.4448 2.80849 17.1918 3.55509 17.804 4.4072C17.9432 4.60118 17.9997 4.84253 17.961 5.07815C17.9223 5.31377 17.7916 5.52436 17.5976 5.6636C17.4036 5.80284 17.1623 5.85932 16.9267 5.82061C16.691 5.7819 16.4804 5.65118 16.3412 5.4572C15.8437 4.7643 15.2365 4.15714 14.5436 3.6596C14.4475 3.59068 14.366 3.50351 14.3036 3.40306C14.2412 3.30261 14.1992 3.19085 14.1801 3.07417C14.1609 2.95749 14.1649 2.83818 14.1919 2.72305C14.2188 2.60792 14.2682 2.49923 14.3372 2.4032ZM1.5608 7.6952C1.79604 7.73377 2.00637 7.8641 2.14563 8.05758C2.28489 8.25106 2.3417 8.49188 2.3036 8.7272C2.16799 9.57018 2.16799 10.4294 2.3036 11.2724C2.33823 11.5061 2.27957 11.7441 2.14029 11.9349C2.001 12.1257 1.79227 12.2541 1.55914 12.2924C1.326 12.3307 1.08717 12.2758 0.894176 12.1395C0.701187 12.0032 0.569522 11.7965 0.5276 11.564C0.360592 10.5283 0.360592 9.47251 0.5276 8.4368C0.566173 8.20156 0.696499 7.99123 0.889978 7.85197C1.08346 7.71271 1.32428 7.6559 1.5596 7.694L1.5608 7.6952ZM18.44 7.6952C18.6753 7.65672 18.9163 7.71321 19.11 7.85225C19.3037 7.9913 19.4344 8.20153 19.4732 8.4368C19.6412 9.4568 19.6412 10.5452 19.4732 11.564C19.4313 11.7965 19.2996 12.0032 19.1066 12.1395C18.9136 12.2758 18.6748 12.3307 18.4417 12.2924C18.2085 12.2541 17.9998 12.1257 17.8605 11.9349C17.7212 11.7441 17.6626 11.5061 17.6972 11.2724C17.8327 10.4298 17.8327 9.57098 17.6972 8.7284C17.678 8.6117 17.682 8.49236 17.7089 8.3772C17.7358 8.26203 17.7852 8.15331 17.8542 8.05724C17.9232 7.96118 18.0104 7.87965 18.111 7.81732C18.2115 7.75499 18.3233 7.71309 18.44 7.694V7.6952ZM2.4032 14.336C2.59707 14.1971 2.83816 14.1408 3.07351 14.1795C3.30887 14.2182 3.51923 14.3487 3.6584 14.5424C4.1563 15.2354 4.76388 15.8426 5.4572 16.34C5.55325 16.4089 5.63478 16.4961 5.69713 16.5966C5.75949 16.697 5.80144 16.8088 5.82061 16.9255C5.83978 17.0421 5.83577 17.1614 5.80883 17.2765C5.78189 17.3917 5.73254 17.5004 5.6636 17.5964C5.59466 17.6924 5.50747 17.774 5.40702 17.8363C5.30656 17.8987 5.19481 17.9406 5.07815 17.9598C4.96148 17.979 4.84218 17.975 4.72706 17.948C4.61194 17.9211 4.50325 17.8717 4.4072 17.8028C3.55514 17.1911 2.80855 16.4445 2.1968 15.5924C2.12782 15.4964 2.07843 15.3877 2.05147 15.2726C2.02451 15.1574 2.02049 15.0381 2.03966 14.9214C2.05883 14.8048 2.1008 14.693 2.16318 14.5925C2.22556 14.4921 2.30712 14.4049 2.4032 14.336ZM17.5976 14.336C17.6937 14.4049 17.7752 14.4921 17.8376 14.5925C17.9 14.693 17.942 14.8048 17.9611 14.9214C17.9803 15.0381 17.9763 15.1574 17.9493 15.2726C17.9224 15.3877 17.873 15.4964 17.804 15.5924C17.1919 16.4445 16.4449 17.1911 15.5924 17.8028C15.3983 17.9395 15.1581 17.9939 14.9241 17.9543C14.69 17.9147 14.4811 17.7843 14.3428 17.5914C14.2045 17.3984 14.148 17.1587 14.1856 16.9243C14.2232 16.69 14.3519 16.4799 14.5436 16.34C15.2365 15.8425 15.8437 15.2353 16.3412 14.5424C16.4101 14.4463 16.4973 14.3648 16.5977 14.3024C16.6982 14.24 16.81 14.198 16.9266 14.1789C17.0433 14.1597 17.1626 14.1637 17.2778 14.1907C17.3929 14.2176 17.5016 14.267 17.5976 14.336ZM7.694 18.4388C7.73256 18.2033 7.86306 17.9928 8.05681 17.8535C8.25056 17.7142 8.4917 17.6575 8.7272 17.696C9.5552 17.8316 10.4456 17.8316 11.2712 17.696C11.5061 17.6586 11.7463 17.7156 11.9392 17.8547C12.1322 17.9939 12.2622 18.2037 12.3009 18.4384C12.3396 18.6731 12.2838 18.9135 12.1457 19.1072C12.0076 19.3009 11.7985 19.4321 11.564 19.472C10.544 19.64 9.4556 19.64 8.4368 19.472C8.20131 19.4334 7.99078 19.3029 7.85149 19.1092C7.71219 18.9154 7.65555 18.6743 7.694 18.4388Z"
        fill="#F8F8F8" />
</svg>
    