<svg width="24" height="24" viewBox="0 0 24 24" fill="none" xmlns="http://www.w3.org/2000/svg">
<g id="Disable rotatiob">
<g id="Vector">
<mask id="path-1-inside-1_8319_86724" fill="white">
<path d="M21 12C21 16.9706 16.9706 21 12 21C7.02944 21 3 16.9706 3 12C3 7.02944 7.02944 3 12 3C16.9706 3 21 7.02944 21 12Z"/>
</mask>
<path d="M14.6473 10.4001C14.9392 10.1063 14.9377 9.63141 14.6438 9.33949C14.3499 9.04757 13.8751 9.04915 13.5831 9.34302L14.6473 10.4001ZM9.35463 13.5997C9.06271 13.8936 9.06429 14.3685 9.35815 14.6604C9.65202 14.9523 10.1269 14.9507 10.4188 14.6569L9.35463 13.5997ZM13.5831 9.34302L9.35463 13.5997L10.4188 14.6569L14.6473 10.4001L13.5831 9.34302ZM19.5 12C19.5 16.1421 16.1421 19.5 12 19.5V22.5C17.799 22.5 22.5 17.799 22.5 12H19.5ZM12 19.5C7.85786 19.5 4.5 16.1421 4.5 12H1.5C1.5 17.799 6.20101 22.5 12 22.5V19.5ZM4.5 12C4.5 7.85786 7.85786 4.5 12 4.5V1.5C6.20101 1.5 1.5 6.20101 1.5 12H4.5ZM12 4.5C16.1421 4.5 19.5 7.85786 19.5 12H22.5C22.5 6.20101 17.799 1.5 12 1.5V4.5Z" fill="#F8F8F8" mask="url(#path-1-inside-1_8319_86724)"/>
</g>
</g>
</svg>
