<svg width="25" height="25" viewBox="0 0 25 25" fill="none" xmlns="http://www.w3.org/2000/svg">
<path d="M20.3891 12.9297C20.3891 17.4032 16.7626 21.0297 12.2891 21.0297C7.81556 21.0297 4.18906 17.4032 4.18906 12.9297C4.18906 8.45618 7.81556 4.82969 12.2891 4.82969C16.7626 4.82969 20.3891 8.45618 20.3891 12.9297Z" stroke="#F8F8F8" stroke-width="1.8" stroke-linecap="round"/>
<path d="M10.6984 16.9315C10.612 16.9315 10.5311 16.9164 10.4555 16.8864C10.3799 16.8568 10.3098 16.8062 10.245 16.7346L7.45974 13.6563C7.34099 13.5251 7.28421 13.3549 7.28939 13.1459C7.295 12.9373 7.35718 12.7674 7.47593 12.6362C7.59468 12.5049 7.74582 12.4393 7.92935 12.4393C8.11287 12.4393 8.26401 12.5049 8.38276 12.6362L10.6984 15.1955L15.7871 9.43906C15.9059 9.30781 16.0598 9.24219 16.249 9.24219C16.4377 9.24219 16.5914 9.30781 16.7102 9.43906C16.8289 9.5703 16.8883 9.7402 16.8883 9.94876C16.8883 10.1578 16.8289 10.3279 16.7102 10.4592L11.1518 16.7346C11.087 16.8062 11.0169 16.8568 10.9413 16.8864C10.8657 16.9164 10.7848 16.9315 10.6984 16.9315Z" fill="#F8F8F8"/>
</svg>
