<svg width="16" height="20" viewBox="0 0 16 20" fill="none" xmlns="http://www.w3.org/2000/svg">
<path d="M15.0011 18.1248C15.2545 18.1252 15.4983 18.2156 15.6833 18.3779C15.8682 18.5402 15.9806 18.7622 15.9977 18.9991C16.0148 19.236 15.9354 19.4702 15.7754 19.6543C15.6154 19.8385 15.3869 19.9589 15.1358 19.9912L15.0011 20H1.00023C0.746732 19.9999 0.502711 19.9097 0.317477 19.7475C0.132243 19.5853 0.019607 19.3633 0.00232842 19.1263C-0.0149502 18.8893 0.064417 18.655 0.224393 18.4707C0.384368 18.2864 0.613024 18.1659 0.864159 18.1335L1.00023 18.1248H15.0011ZM8.00933 0C8.25111 9.55482e-06 8.48471 0.0820635 8.66693 0.230988C8.84914 0.379912 8.96765 0.585631 9.00053 0.810101L9.00987 0.937617L9.00854 13.6805L12.9653 9.9675C13.1346 9.80819 13.3594 9.71121 13.5987 9.69422C13.8379 9.67724 14.0757 9.74139 14.2687 9.87498L14.3808 9.965C14.5506 10.1238 14.6538 10.3345 14.6717 10.5587C14.6896 10.7829 14.6209 11.0057 14.4781 11.1864L14.3821 11.2914L8.72172 16.6046L8.62833 16.6833L8.5056 16.7571L8.45757 16.7833L8.33617 16.8309L8.17609 16.8684L8.08271 16.8784L8.00266 16.8809C7.9354 16.8807 7.86834 16.874 7.80256 16.8609L7.69316 16.8321C7.56687 16.7936 7.45023 16.7316 7.35031 16.6496L1.62724 11.2927C1.44775 11.1256 1.34248 10.901 1.33262 10.6641C1.32275 10.4272 1.40902 10.1955 1.57405 10.0159C1.73909 9.83616 1.97064 9.72172 2.22209 9.69559C2.47354 9.66945 2.72622 9.73355 2.92927 9.87498L3.04133 9.96625L7.00746 13.6755V0.937617C7.00746 0.688946 7.11287 0.450459 7.30051 0.274622C7.48815 0.0987843 7.74397 0 8.00933 0Z" fill="#F8F8F8"/>
</svg>
