<svg width="24" height="24" viewBox="0 0 24 24" fill="none" xmlns="http://www.w3.org/2000/svg" id="download">
<path d="M19.0011 20.1248C19.2545 20.1252 19.4983 20.2156 19.6833 20.3779C19.8682 20.5402 19.9806 20.7622 19.9977 20.9991C20.0148 21.236 19.9354 21.4702 19.7754 21.6543C19.6154 21.8385 19.3869 21.9589 19.1358 21.9912L19.0011 22H5.00023C4.74673 21.9999 4.50271 21.9097 4.31748 21.7475C4.13224 21.5853 4.01961 21.3633 4.00233 21.1263C3.98505 20.8893 4.06442 20.655 4.22439 20.4707C4.38437 20.2864 4.61302 20.1659 4.86416 20.1335L5.00023 20.1248H19.0011ZM12.0093 2C12.2511 2.00001 12.4847 2.08206 12.6669 2.23099C12.8491 2.37991 12.9677 2.58563 13.0005 2.8101L13.0099 2.93762L13.0085 15.6805L16.9653 11.9675C17.1346 11.8082 17.3594 11.7112 17.5987 11.6942C17.8379 11.6772 18.0757 11.7414 18.2687 11.875L18.3808 11.965C18.5506 12.1238 18.6538 12.3345 18.6717 12.5587C18.6896 12.7829 18.6209 13.0057 18.4781 13.1864L18.3821 13.2914L12.7217 18.6046L12.6283 18.6833L12.5056 18.7571L12.4576 18.7833L12.3362 18.8309L12.1761 18.8684L12.0827 18.8784L12.0027 18.8809C11.9354 18.8807 11.8683 18.874 11.8026 18.8609L11.6932 18.8321C11.5669 18.7936 11.4502 18.7316 11.3503 18.6496L5.62724 13.2927C5.44775 13.1256 5.34248 12.901 5.33262 12.6641C5.32275 12.4272 5.40902 12.1955 5.57405 12.0159C5.73909 11.8362 5.97064 11.7217 6.22209 11.6956C6.47354 11.6694 6.72622 11.7336 6.92927 11.875L7.04133 11.9662L11.0075 15.6755V2.93762C11.0075 2.68895 11.1129 2.45046 11.3005 2.27462C11.4881 2.09878 11.744 2 12.0093 2Z" fill="#F8F8F8"/>
</svg>
