<svg width="24" height="24" viewBox="0 0 24 24" fill="none" xmlns="http://www.w3.org/2000/svg">
<path d="M11.6484 23.4724C11.6466 23.4721 11.6449 23.4719 11.6433 23.4716L11.6256 23.4656C9.28988 22.677 7.35099 21.1127 5.81016 18.7362C4.26974 16.3604 3.5 13.7398 3.5 10.8622V5.12769C3.5 4.71755 3.60861 4.36035 3.82319 4.04148C4.04297 3.71489 4.31828 3.48703 4.65385 3.34438L11.3959 0.616865C11.6039 0.537201 11.8044 0.5 12 0.5C12.1956 0.5 12.3961 0.537201 12.6041 0.616865L19.3463 3.34445C19.6827 3.48717 19.9583 3.71507 20.1779 4.04148C20.3924 4.36013 20.5006 4.71705 20.5 5.12695V5.12769V10.8622C20.5 13.7407 19.7302 16.3617 18.1898 18.7374C16.649 21.1139 14.7102 22.6777 12.3746 23.4655L12.3551 23.4721L12.3444 23.4767C12.3406 23.4776 12.3197 23.4828 12.2741 23.488C12.2101 23.4953 12.1202 23.5 12 23.5C11.9724 23.5 11.8733 23.4961 11.7705 23.4868C11.7202 23.4823 11.6779 23.4773 11.6484 23.4724Z" fill="#393E44" stroke="#4C5158"/>
<path d="M16.8769 9.42401L15.9231 8.40001L15.0769 6.44446C15.0043 6.30791 14.9024 6.1953 14.7811 6.11745C14.6599 6.03961 14.5233 5.99916 14.3846 6.00001H9.61538C9.47667 5.99916 9.34011 6.03961 9.21885 6.11745C9.0976 6.1953 8.99573 6.30791 8.92308 6.44446L8.07692 8.40001L7.12308 9.42401C7.08422 9.46565 7.05323 9.51612 7.03205 9.57226C7.01087 9.6284 6.99996 9.68899 7 9.75023V13.5556C7 13.6734 7.04052 13.7865 7.11265 13.8698C7.18478 13.9532 7.28261 14 7.38462 14H8.92308C9.07692 14 9.30769 13.8222 9.30769 13.6444V13.1111H14.6923V13.5556C14.6923 13.7333 14.8462 14 15 14H16.6154C16.7174 14 16.8152 13.9532 16.8873 13.8698C16.9595 13.7865 17 13.6734 17 13.5556V9.75023C17 9.68899 16.9891 9.6284 16.968 9.57226C16.9468 9.51612 16.9158 9.46565 16.8769 9.42401ZM9.69231 6.8889H14.3077L15.0769 8.66668H8.92308L9.69231 6.8889ZM10.0769 10.9778C10.0769 11.1556 9.84615 11.3333 9.69231 11.3333H8.07692C7.92308 11.3333 7.76923 11.0667 7.76923 10.8889V9.91112C7.84615 9.64445 8 9.46667 8.23077 9.55556L9.76923 9.91112C9.92308 9.91112 10.0769 10.1778 10.0769 10.3556V10.9778ZM16.2308 10.8889C16.2308 11.0667 16.0769 11.3333 15.9231 11.3333H14.3077C14.1538 11.3333 13.9231 11.1556 13.9231 10.9778V10.3556C13.9231 10.1778 14.0769 9.91112 14.2308 9.91112L15.7692 9.55556C16 9.46667 16.1538 9.64445 16.2308 9.91112V10.8889Z" fill="#F8F8F8"/>
</svg>
