<svg width="28" height="28" viewBox="0 0 28 28" fill="none" xmlns="http://www.w3.org/2000/svg" id="editt-icon">
<rect width="28" height="28" rx="14" fill="#08C873"/>
<path d="M11.4026 21.0013C11.2615 21.0013 11.1293 20.9772 11.0058 20.929C10.8824 20.8815 10.7678 20.8003 10.662 20.6855L6.11276 15.7474C5.9188 15.5368 5.82605 15.2639 5.83452 14.9286C5.84368 14.594 5.94525 14.3215 6.13921 14.1109C6.33317 13.9004 6.58002 13.7951 6.87978 13.7951C7.17954 13.7951 7.42639 13.9004 7.62035 14.1109L11.4026 18.2164L20.3688 8.48378C20.5627 8.27324 20.8142 8.16797 21.1231 8.16797C21.4313 8.16797 21.6824 8.27324 21.8764 8.48378C22.0703 8.69432 22.1673 8.96687 22.1673 9.30144C22.1673 9.63677 22.0703 9.9097 21.8764 10.1202L12.1431 20.6855C12.0373 20.8003 11.9227 20.8815 11.7993 20.929C11.6759 20.9772 11.5436 21.0013 11.4026 21.0013Z" fill="#151718"/>
</svg>
