<svg width="24" height="24" viewBox="0 0 24 24" fill="none" xmlns="http://www.w3.org/2000/svg">
<path d="M3.31518 17.0962L8.1391 15.2577L8.15253 15.2527C8.39944 15.1538 8.61777 14.9948 8.78778 14.7902C8.95779 14.5856 9.07412 14.3419 9.12623 14.081C9.13248 14.0505 9.13697 14.0195 9.13966 13.9884L9.39351 10.8C11.0135 10.2393 13.2565 10.2308 14.8623 10.7774L15.1402 13.9941C15.1438 14.0259 15.148 14.057 15.1544 14.0888C15.2083 14.347 15.3252 14.5879 15.4947 14.7899C15.6642 14.992 15.8811 15.1491 16.1259 15.2471L16.1344 15.2556L20.9682 17.0955C21.2893 17.2224 21.6427 17.2421 21.9759 17.1516C22.309 17.0611 22.6039 16.8653 22.8166 16.5934C23.6487 15.5092 24.0577 14.1591 23.9671 12.7954C23.8765 11.4317 23.2926 10.1476 22.3245 9.18289C16.71 3.56841 7.5741 3.5684 1.95963 9.18287C0.991486 10.1475 0.407603 11.4317 0.317037 12.7954C0.226472 14.1591 0.635416 15.5092 1.46749 16.5934C1.68007 16.8653 1.97484 17.0611 2.30782 17.1517C2.64081 17.2423 2.99417 17.2228 3.31518 17.0962ZM3.09102 10.3142C5.49332 7.91719 8.74839 6.57098 12.1421 6.57098C15.5357 6.57099 18.7908 7.91721 21.1931 10.3143C21.8863 11.0021 22.3054 11.9187 22.3721 12.893C22.4389 13.8672 22.1487 14.8325 21.5559 15.6084C21.5533 15.6053 21.5505 15.6025 21.5474 15.5999L16.739 13.7614L16.4512 10.5504C16.449 10.5185 16.4442 10.4869 16.4371 10.4557C16.3802 10.186 16.2546 9.93556 16.0725 9.72867C15.8904 9.52178 15.6579 9.36544 15.3976 9.27481C13.4467 8.60517 10.8162 8.61506 8.85186 9.29955C8.59107 9.39226 8.35879 9.55104 8.17771 9.76037C7.99664 9.96971 7.87296 10.2224 7.81877 10.4939C7.81285 10.5242 7.8086 10.5549 7.80604 10.5858L7.55361 13.7713L2.74171 15.6063L2.73393 15.6141C2.13898 14.8382 1.84706 13.8723 1.91279 12.8968C1.97851 11.9213 2.39737 11.0032 3.09102 10.3142Z" fill="#F8F8F8"/>
</svg>
