<svg width="25" height="24" viewBox="0 0 25 24" fill="none" xmlns="http://www.w3.org/2000/svg">
<rect x="0.453125" width="24" height="24" rx="4" fill="#E95554"/>
<path d="M12.4527 13.3284L7.8156 17.9654C7.6421 18.1389 7.42129 18.2257 7.15316 18.2257C6.88502 18.2257 6.66421 18.1389 6.49071 17.9654C6.31722 17.792 6.23047 17.5711 6.23047 17.303C6.23047 17.0349 6.31722 16.8141 6.49071 16.6406L11.1278 12.0035L6.49071 7.36638C6.31722 7.19288 6.23047 6.97207 6.23047 6.70394C6.23047 6.43581 6.31722 6.21499 6.49071 6.04149C6.66421 5.868 6.88502 5.78125 7.15316 5.78125C7.42129 5.78125 7.6421 5.868 7.8156 6.04149L12.4527 10.6786L17.0898 6.04149C17.2633 5.868 17.4841 5.78125 17.7522 5.78125C18.0204 5.78125 18.2412 5.868 18.4147 6.04149C18.5882 6.21499 18.6749 6.43581 18.6749 6.70394C18.6749 6.97207 18.5882 7.19288 18.4147 7.36638L13.7776 12.0035L18.4147 16.6406C18.5882 16.8141 18.6749 17.0349 18.6749 17.303C18.6749 17.5711 18.5882 17.792 18.4147 17.9654C18.2412 18.1389 18.0204 18.2257 17.7522 18.2257C17.4841 18.2257 17.2633 18.1389 17.0898 17.9654L12.4527 13.3284Z" fill="#F8F8F8"/>
</svg>
