<svg width="29" height="25" viewBox="0 0 29 25" fill="none" xmlns="http://www.w3.org/2000/svg">
<g clip-path="url(#clip0_9212_140144)">
<rect x="0.65625" y="0.5" width="28" height="24" rx="5" fill="#959697" fill-opacity="0.25"/>
<path d="M16.7991 5H21.0848C21.369 5 21.6415 5.11288 21.8424 5.31381C22.0434 5.51475 22.1562 5.78727 22.1562 6.07143V10.3571C22.1562 10.6413 22.0434 10.9138 21.8424 11.1148C21.6415 11.3157 21.369 11.4286 21.0848 11.4286H16.7991C16.5149 11.4286 16.2424 11.3157 16.0415 11.1148C15.8406 10.9138 15.7277 10.6413 15.7277 10.3571V6.07143C15.7277 5.78727 15.8406 5.51475 16.0415 5.31381C16.2424 5.11288 16.5149 5 16.7991 5ZM8.22768 5H12.5134C12.7976 5 13.0701 5.11288 13.271 5.31381C13.4719 5.51475 13.5848 5.78727 13.5848 6.07143V10.3571C13.5848 10.6413 13.4719 10.9138 13.271 11.1148C13.0701 11.3157 12.7976 11.4286 12.5134 11.4286H8.22768C7.94352 11.4286 7.671 11.3157 7.47006 11.1148C7.26913 10.9138 7.15625 10.6413 7.15625 10.3571V6.07143C7.15625 5.78727 7.26913 5.51475 7.47006 5.31381C7.671 5.11288 7.94352 5 8.22768 5ZM16.7991 13.5714H21.0848C21.369 13.5714 21.6415 13.6843 21.8424 13.8852C22.0434 14.0862 22.1562 14.3587 22.1562 14.6429V18.9286C22.1562 19.2127 22.0434 19.4853 21.8424 19.6862C21.6415 19.8871 21.369 20 21.0848 20H16.7991C16.5149 20 16.2424 19.8871 16.0415 19.6862C15.8406 19.4853 15.7277 19.2127 15.7277 18.9286V14.6429C15.7277 14.3587 15.8406 14.0862 16.0415 13.8852C16.2424 13.6843 16.5149 13.5714 16.7991 13.5714ZM8.22768 13.5714H12.5134C12.7976 13.5714 13.0701 13.6843 13.271 13.8852C13.4719 14.0862 13.5848 14.3587 13.5848 14.6429V18.9286C13.5848 19.2127 13.4719 19.4853 13.271 19.6862C13.0701 19.8871 12.7976 20 12.5134 20H8.22768C7.94352 20 7.671 19.8871 7.47006 19.6862C7.26913 19.4853 7.15625 19.2127 7.15625 18.9286V14.6429C7.15625 14.3587 7.26913 14.0862 7.47006 13.8852C7.671 13.6843 7.94352 13.5714 8.22768 13.5714Z" stroke="#F8F8F8" stroke-width="1.5" stroke-linecap="round" stroke-linejoin="round"/>
</g>
<defs>
<clipPath id="clip0_9212_140144">
<rect x="0.65625" y="0.5" width="28" height="24" rx="5" fill="white"/>
</clipPath>
</defs>
</svg>
