<svg width="25" height="25" viewBox="0 0 25 25" fill="none" xmlns="http://www.w3.org/2000/svg">
<path d="M14.9788 5H19.2645C19.5487 5 19.8212 5.11288 20.0221 5.31381C20.2231 5.51475 20.3359 5.78727 20.3359 6.07143V10.3571C20.3359 10.6413 20.2231 10.9138 20.0221 11.1148C19.8212 11.3157 19.5487 11.4286 19.2645 11.4286H14.9788C14.6946 11.4286 14.4221 11.3157 14.2212 11.1148C14.0202 10.9138 13.9074 10.6413 13.9074 10.3571V6.07143C13.9074 5.78727 14.0202 5.51475 14.2212 5.31381C14.4221 5.11288 14.6946 5 14.9788 5ZM6.40737 5H10.6931C10.9772 5 11.2498 5.11288 11.4507 5.31381C11.6516 5.51475 11.7645 5.78727 11.7645 6.07143V10.3571C11.7645 10.6413 11.6516 10.9138 11.4507 11.1148C11.2498 11.3157 10.9772 11.4286 10.6931 11.4286H6.40737C6.12321 11.4286 5.85068 11.3157 5.64975 11.1148C5.44882 10.9138 5.33594 10.6413 5.33594 10.3571V6.07143C5.33594 5.78727 5.44882 5.51475 5.64975 5.31381C5.85068 5.11288 6.12321 5 6.40737 5ZM14.9788 13.5714H19.2645C19.5487 13.5714 19.8212 13.6843 20.0221 13.8852C20.2231 14.0862 20.3359 14.3587 20.3359 14.6429V18.9286C20.3359 19.2127 20.2231 19.4853 20.0221 19.6862C19.8212 19.8871 19.5487 20 19.2645 20H14.9788C14.6946 20 14.4221 19.8871 14.2212 19.6862C14.0202 19.4853 13.9074 19.2127 13.9074 18.9286V14.6429C13.9074 14.3587 14.0202 14.0862 14.2212 13.8852C14.4221 13.6843 14.6946 13.5714 14.9788 13.5714ZM6.40737 13.5714H10.6931C10.9772 13.5714 11.2498 13.6843 11.4507 13.8852C11.6516 14.0862 11.7645 14.3587 11.7645 14.6429V18.9286C11.7645 19.2127 11.6516 19.4853 11.4507 19.6862C11.2498 19.8871 10.9772 20 10.6931 20H6.40737C6.12321 20 5.85068 19.8871 5.64975 19.6862C5.44882 19.4853 5.33594 19.2127 5.33594 18.9286V14.6429C5.33594 14.3587 5.44882 14.0862 5.64975 13.8852C5.85068 13.6843 6.12321 13.5714 6.40737 13.5714Z" stroke="#fff" stroke-width="1.5" stroke-linecap="round" stroke-linejoin="round"/>
</svg>
