<svg width="25" height="25" viewBox="0 0 25 25" fill="none" xmlns="http://www.w3.org/2000/svg">
<path fill-rule="evenodd" clip-rule="evenodd" d="M7.71875 4.32422C7.25462 4.32422 6.8095 4.49279 6.48131 4.79285C6.15312 5.09291 5.96875 5.49987 5.96875 5.92422V9.85971H7.28125V5.92422C7.28125 5.81813 7.32734 5.71639 7.40939 5.64138C7.49144 5.56636 7.60272 5.52422 7.71875 5.52422H12.9688V9.12422C12.9688 9.54857 13.1531 9.95553 13.4813 10.2556C13.8095 10.5556 14.2546 10.7242 14.7188 10.7242H18.6562V18.7242C18.6562 18.8303 18.6102 18.932 18.5281 19.0071C18.4461 19.0821 18.3348 19.1242 18.2188 19.1242H7.71875C7.60272 19.1242 7.49144 19.0821 7.40939 19.0071C7.32734 18.932 7.28125 18.8303 7.28125 18.7242V17.8544H5.96875V18.7242C5.96875 19.1486 6.15312 19.5555 6.48131 19.8556C6.8095 20.1556 7.25462 20.3242 7.71875 20.3242H18.2188C18.6829 20.3242 19.128 20.1556 19.4562 19.8556C19.7844 19.5555 19.9688 19.1486 19.9688 18.7242V10.5866C19.9687 10.1623 19.7842 9.75541 19.456 9.45542L14.3565 4.79302C14.0284 4.49294 13.5833 4.32431 13.1192 4.32422H7.71875ZM14.7188 9.52422H17.6762L14.2812 6.42022V9.12422C14.2812 9.23031 14.3273 9.33205 14.4094 9.40706C14.4914 9.48208 14.6027 9.52422 14.7188 9.52422Z" fill="#77797A"/>
<path fill-rule="evenodd" clip-rule="evenodd" d="M15.367 12.1016H10.5722C9.85958 12.1016 9.28125 12.6799 9.28125 13.3925V16.3431C9.28125 16.6855 9.41726 17.0138 9.65935 17.2559C9.90144 17.498 10.2298 17.634 10.5722 17.634H15.367C15.7093 17.634 16.0377 17.498 16.2798 17.2559C16.5219 17.0138 16.6579 16.6855 16.6579 16.3431V13.3925C16.6579 12.6799 16.0795 12.1016 15.367 12.1016ZM15.5514 14.3146V13.3925C15.5514 13.3436 15.532 13.2967 15.4974 13.2621C15.4628 13.2275 15.4159 13.2081 15.367 13.2081H12.6007V14.3146H15.5514ZM12.6007 16.5275V15.421H15.5514V16.3431C15.5514 16.392 15.532 16.4389 15.4974 16.4735C15.4628 16.5081 15.4159 16.5275 15.367 16.5275H12.6007ZM10.3877 15.421V16.3431C10.3877 16.4449 10.4704 16.5275 10.5722 16.5275H11.4942V15.421H10.3877ZM10.3877 14.3146V13.3925C10.3877 13.3436 10.4072 13.2967 10.4418 13.2621C10.4763 13.2275 10.5232 13.2081 10.5722 13.2081H11.4942V14.3146H10.3877Z" fill="#77797A"/>
<rect x="3.96875" y="10.8516" width="6" height="6" rx="1" fill="#77797A"/>
<path d="M6.23164 12.4095L6.99555 13.4332L7.75205 12.4105C7.77925 12.3746 7.82746 12.3526 7.87937 12.3526H8.32067C8.34727 12.3527 8.37335 12.3585 8.39619 12.3696C8.41903 12.3806 8.4378 12.3964 8.45055 12.4152C8.4633 12.4341 8.46955 12.4554 8.46867 12.4769C8.46778 12.4984 8.45979 12.5193 8.44551 12.5375L7.39111 13.8621L8.42944 15.1656C8.47394 15.2216 8.45417 15.2956 8.38494 15.3316C8.36022 15.3436 8.33303 15.3506 8.3046 15.3506H7.84105C7.79037 15.3506 7.74217 15.3296 7.71497 15.2936L6.94487 14.2799L6.16983 15.2946C6.14264 15.3296 6.09567 15.3516 6.04375 15.3516H5.61729C5.59078 15.3515 5.56476 15.3458 5.54192 15.3349C5.51909 15.3239 5.50027 15.3083 5.48741 15.2896C5.47456 15.2708 5.46813 15.2496 5.4688 15.2282C5.46946 15.2067 5.4772 15.1858 5.49121 15.1676L6.52212 13.8401L5.50481 12.5365C5.46031 12.4795 5.48132 12.4055 5.55054 12.3706C5.57403 12.3576 5.60122 12.3516 5.62965 12.3516H6.10432C6.15624 12.3516 6.20444 12.3736 6.23164 12.4095Z" fill="#42474E"/>
</svg>
