<svg width="25" height="25" viewBox="0 0 25 25" fill="none" xmlns="http://www.w3.org/2000/svg" id="exportItem">
<path fill-rule="evenodd" clip-rule="evenodd" d="M6.99219 4.32422C6.52806 4.32422 6.08294 4.49279 5.75475 4.79285C5.42656 5.09291 5.24219 5.49987 5.24219 5.92422V18.7242C5.24219 19.1486 5.42656 19.5555 5.75475 19.8556C6.08294 20.1556 6.52806 20.3242 6.99219 20.3242H17.4922C17.9563 20.3242 18.4014 20.1556 18.7296 19.8556C19.0578 19.5555 19.2422 19.1486 19.2422 18.7242V17.8181H17.9297V18.7242C17.9297 18.8303 17.8836 18.932 17.8015 19.0071C17.7195 19.0821 17.6082 19.1242 17.4922 19.1242H6.99219C6.87616 19.1242 6.76488 19.0821 6.68283 19.0071C6.60078 18.932 6.55469 18.8303 6.55469 18.7242V5.92422C6.55469 5.81813 6.60078 5.71639 6.68283 5.64138C6.76488 5.56636 6.87616 5.52422 6.99219 5.52422H12.2422V9.12422C12.2422 9.54857 12.4266 9.95553 12.7548 10.2556C13.0829 10.5556 13.5281 10.7242 13.9922 10.7242H17.9297V12.3249H19.2422V10.5866C19.2421 10.1623 19.0576 9.75541 18.7294 9.45542L13.6299 4.79302C13.3018 4.49294 12.8568 4.32431 12.3927 4.32422H6.99219ZM13.9922 9.52422H16.9497L13.5547 6.42022V9.12422C13.5547 9.23031 13.6008 9.33205 13.6828 9.40706C13.7649 9.48208 13.8762 9.52422 13.9922 9.52422Z" fill="#B3B3B4"/>
<path fill-rule="evenodd" clip-rule="evenodd" d="M14.6404 12.0859H9.8456C9.13302 12.0859 8.55469 12.6643 8.55469 13.3768V16.3275C8.55469 16.6699 8.69069 16.9982 8.93279 17.2403C9.17488 17.4824 9.50323 17.6184 9.8456 17.6184H14.6404C14.9828 17.6184 15.3111 17.4824 15.5532 17.2403C15.7953 16.9982 15.9313 16.6699 15.9313 16.3275V13.3768C15.9313 12.6643 15.353 12.0859 14.6404 12.0859ZM14.8248 14.2989V13.3768C14.8248 13.3279 14.8054 13.281 14.7708 13.2464C14.7362 13.2119 14.6893 13.1924 14.6404 13.1924H11.8742V14.2989H14.8248ZM11.8742 16.5119V15.4054H14.8248V16.3275C14.8248 16.3764 14.8054 16.4233 14.7708 16.4579C14.7362 16.4925 14.6893 16.5119 14.6404 16.5119H11.8742ZM9.66118 15.4054V16.3275C9.66118 16.4293 9.7438 16.5119 9.8456 16.5119H10.7677V15.4054H9.66118ZM9.66118 14.2989V13.3768C9.66118 13.3279 9.68061 13.281 9.7152 13.2464C9.74978 13.2119 9.79669 13.1924 9.8456 13.1924H10.7677V14.2989H9.66118Z" fill="#B3B3B4"/>
<path d="M20.8329 12.4342C20.7454 12.3593 20.6328 12.3201 20.5177 12.3246C20.4025 12.329 20.2933 12.3767 20.2118 12.4582C20.1304 12.5397 20.0826 12.6489 20.0782 12.764C20.0737 12.8792 20.1129 12.9917 20.1879 13.0792L21.6746 14.5614H17.309C17.1877 14.5614 17.0713 14.6096 16.9855 14.6954C16.8998 14.7812 16.8516 14.8976 16.8516 15.0189C16.8516 15.1402 16.8998 15.2566 16.9855 15.3424C17.0713 15.4281 17.1877 15.4763 17.309 15.4763H21.6883L20.1879 16.9768C20.14 17.0178 20.1011 17.0683 20.0736 17.125C20.0462 17.1818 20.0307 17.2436 20.0283 17.3066C20.0259 17.3696 20.0365 17.4324 20.0595 17.4911C20.0825 17.5499 20.1174 17.6032 20.1619 17.6478C20.2065 17.6923 20.2598 17.7272 20.3185 17.7502C20.3772 17.7732 20.4401 17.7838 20.5031 17.7814C20.5661 17.779 20.6279 17.7635 20.6846 17.7361C20.7414 17.7086 20.7919 17.6697 20.8329 17.6218L23.0774 15.3734C23.2727 15.1777 23.2722 14.8606 23.0761 14.6656L20.8329 12.4342Z" fill="#B3B3B4"/>
</svg>
