<svg width="13" height="12" viewBox="0 0 13 12" fill="none" xmlns="http://www.w3.org/2000/svg" id="eye_little">
    <path fill-rule="evenodd" clip-rule="evenodd" d="M5.364 2.422c.054-.006.108-.008.161-.008 1.017 0 1.842.794 1.842 1.811 0 1-.825 1.81-1.842 1.81-1.034 0-1.842-.81-1.842-1.81 0-.053.002-.106.008-.158.179.084.386.158.606.158.678 0 1.228-.541 1.228-1.207 0-.217-.075-.42-.16-.596zM9.22 1.52c.898.819 1.499 1.783 1.782 2.473a.59.59 0 0 1 0 .464c-.05.118-.108.244-.177.377a3.563 3.563 0 0 0-1.4-.284 3.57 3.57 0 0 0-1.19.203c.035-.171.053-.348.053-.528 0-1.5-1.238-2.716-2.763-2.716S2.763 2.725 2.763 4.225c0 1.5 1.237 2.716 2.762 2.716.187 0 .369-.018.545-.053a3.568 3.568 0 0 0-.206 1.55 5.13 5.13 0 0 1-.339.012c-1.55 0-2.791-.694-3.694-1.52C.933 6.094.333 5.13.047 4.457a.594.594 0 0 1 0-.464c.286-.69.886-1.654 1.784-2.473C2.734.695 3.975 0 5.525 0c1.55 0 2.792.695 3.695 1.52z" fill="#FF5A04"/>
    <path d="M9.425 5.2a2.925 2.925 0 1 0 0 5.85 2.925 2.925 0 0 0 0-5.85zm2.507 2.925c0 .592-.21 1.166-.595 1.617l-3.53-3.53a2.504 2.504 0 0 1 4.125 1.913zm-5.015 0c0-.593.211-1.166.595-1.617l3.53 3.53a2.504 2.504 0 0 1-4.125-1.913z" fill="#F32E2E"/>
</svg>
