<svg width="24" height="24" viewBox="0 0 24 24" fill="none" xmlns="http://www.w3.org/2000/svg">
    <path
        d="M21.8951 13.2362C21.9964 13.3817 22.024 13.5544 21.9717 13.7165C21.9195 13.8787 21.7917 14.0173 21.6163 14.1019C21.5004 14.1599 21.3673 14.1901 21.2318 14.1892C21.0956 14.1903 20.9616 14.1614 20.8434 14.1056C20.7252 14.0497 20.627 13.969 20.5589 13.8716L18.7902 11.346C17.7524 11.9228 16.6104 12.3598 15.4067 12.6406L15.9642 15.2535C15.9979 15.4196 15.9513 15.5901 15.8345 15.7282C15.7176 15.8664 15.5399 15.9611 15.3394 15.9921H15.2048C15.0238 15.9925 14.8484 15.9402 14.7095 15.8443C14.5706 15.7484 14.4771 15.6151 14.4454 15.4679L13.8975 12.8947C13.2706 12.9719 12.6377 13.0118 12.0039 13.0138C11.367 13.0141 10.731 12.9769 10.1006 12.9027L9.55268 15.4758C9.521 15.6231 9.42749 15.7564 9.28858 15.8522C9.14968 15.9481 8.97429 16.0004 8.79329 16H8.65872C8.45824 15.969 8.28048 15.8743 8.16364 15.7362C8.0468 15.5981 8.00022 15.4276 8.03391 15.2614L8.60105 12.6406C7.39355 12.3616 6.24796 11.9245 5.20785 11.346L3.42955 13.8875C3.36085 13.9827 3.26388 14.0618 3.14781 14.1174C3.03175 14.173 2.90043 14.2032 2.76629 14.2051C2.63153 14.2047 2.49926 14.1751 2.38274 14.1192C2.26621 14.0632 2.16952 13.983 2.10235 13.8865C2.03518 13.79 1.99988 13.6806 2 13.5692C2.00012 13.4579 2.03565 13.3485 2.10303 13.2521L3.97746 10.5677C3.32245 10.1036 2.72071 9.59051 2.17993 9.03495C2.11602 8.97057 2.06826 8.89632 2.03943 8.81654C2.01061 8.73675 2.00129 8.65302 2.01203 8.57023C2.02276 8.48744 2.05334 8.40725 2.10197 8.33432C2.1506 8.26139 2.21631 8.19719 2.29528 8.14546C2.3726 8.09221 2.46197 8.05219 2.55818 8.02774C2.65439 8.00328 2.75552 7.99488 2.8557 8.003C2.95588 8.01113 3.0531 8.03564 3.14172 8.07509C3.23033 8.11454 3.30856 8.16816 3.37187 8.23282C3.97358 8.85261 4.6607 9.41232 5.41932 9.90062H5.42894C7.30601 11.1104 9.62331 11.7598 12.0039 11.7431C14.8203 11.7431 16.9831 10.9251 18.5692 9.90856H18.5884C19.347 9.42026 20.0341 8.86055 20.6358 8.24076C20.6984 8.17552 20.7762 8.12122 20.8644 8.08104C20.9527 8.04087 21.0498 8.0156 21.15 8.00673C21.2502 7.99786 21.3515 8.00556 21.4481 8.02938C21.5446 8.05319 21.6345 8.09265 21.7124 8.14546C21.7914 8.19719 21.8571 8.26139 21.9057 8.33432C21.9544 8.40725 21.9849 8.48744 21.9957 8.57023C22.0064 8.65302 21.9971 8.73675 21.9683 8.81654C21.9394 8.89632 21.8917 8.97057 21.8278 9.03495C21.287 9.59051 20.6853 10.1036 20.0302 10.5677L21.8951 13.2362Z"
        fill="#B3B3B4" />
</svg>    