<svg width="24" height="24" viewBox="0 0 24 24" fill="none" xmlns="http://www.w3.org/2000/svg" id="info">
<path d="M17.5 12C18.9587 12 20.3576 12.5795 21.3891 13.6109C22.4205 14.6424 23 16.0413 23 17.5C23 18.9587 22.4205 20.3576 21.3891 21.3891C20.3576 22.4205 18.9587 23 17.5 23C16.0413 23 14.6424 22.4205 13.6109 21.3891C12.5795 20.3576 12 18.9587 12 17.5C12 16.0413 12.5795 14.6424 13.6109 13.6109C14.6424 12.5795 16.0413 12 17.5 12ZM17.5 16.125C17.5774 16.125 17.654 16.1098 17.7255 16.0801C17.797 16.0505 17.862 16.0071 17.9167 15.9524C17.9714 15.8977 18.0148 15.8327 18.0444 15.7612C18.074 15.6897 18.0893 15.6131 18.0893 15.5357C18.0893 15.4583 18.074 15.3817 18.0444 15.3102C18.0148 15.2387 17.9714 15.1737 17.9167 15.119C17.862 15.0643 17.797 15.0209 17.7255 14.9913C17.654 14.9617 17.5774 14.9464 17.5 14.9464C17.3439 14.9464 17.1942 15.0084 17.0839 15.1188C16.9735 15.2292 16.9115 15.3788 16.9115 15.5349C16.9115 15.691 16.9735 15.8407 17.0839 15.9511C17.1942 16.0614 17.3439 16.1234 17.5 16.1234M17.8929 17.1056C17.8929 17.0014 17.8515 16.9015 17.7778 16.8278C17.7041 16.7541 17.6042 16.7127 17.5 16.7127C17.3958 16.7127 17.2959 16.7541 17.2222 16.8278C17.1485 16.9015 17.1071 17.0014 17.1071 17.1056V19.4627C17.1071 19.5669 17.1485 19.6668 17.2222 19.7405C17.2959 19.8142 17.3958 19.8556 17.5 19.8556C17.6042 19.8556 17.7041 19.8142 17.7778 19.7405C17.8515 19.6668 17.8929 19.5669 17.8929 19.4627V17.1056Z" fill="#B3B3B4"/>
<path fill-rule="evenodd" clip-rule="evenodd" d="M11.1412 19.7701H7.48538C5.73465 19.7701 4.85059 18.9564 4.85059 17.3218V5.45628C4.85059 3.82899 5.73465 3 7.48538 3H11.5224C12.4826 3 13.0099 3.13283 13.6553 3.74322L18.3469 8.13115C19.0268 8.77258 19.1457 9.21044 19.1457 10.2196V10.9521C18.7053 10.8417 18.2476 10.7746 17.7776 10.7556V10.2744H12.933C11.8792 10.2744 11.3353 9.78947 11.3353 8.80395V4.25918H7.56189C6.67782 4.25918 6.21875 4.70538 6.21875 5.47964V17.2985C6.21875 18.0804 6.67782 18.5109 7.55318 18.5109H10.8252C10.8905 18.9456 10.9972 19.3667 11.1412 19.7701ZM12.6182 8.65511C12.6182 8.96815 12.7546 9.09297 13.086 9.09297L17.5136 9.0933L12.6182 4.5018V8.65511Z" fill="#B3B3B4"/>
</svg>
