<svg width="14" height="18" id="file-chart" viewBox="0 0 14 18" fill="none" xmlns="http://www.w3.org/2000/svg">
    <g clip-path="url(#kjajykfdpa)">
        <path d="M4.781 11.25H4.22a.282.282 0 0 0-.282.281v3.375c0 .155.127.281.282.281h.562a.282.282 0 0 0 .282-.28V11.53a.282.282 0 0 0-.282-.281zm2.25-3.375H6.47a.282.282 0 0 0-.282.281v6.75c0 .155.127.281.282.281h.562a.282.282 0 0 0 .282-.28v-6.75a.282.282 0 0 0-.282-.282zm1.407 2.531v4.5c0 .155.126.281.28.281h.563a.282.282 0 0 0 .281-.28v-4.5a.282.282 0 0 0-.28-.282h-.563a.282.282 0 0 0-.281.281zm4.566-6.961L10.055.495A1.687 1.687 0 0 0 8.864 0H1.687A1.693 1.693 0 0 0 0 1.69v14.623C0 17.244.756 18 1.687 18h10.126c.931 0 1.687-.756 1.687-1.687V4.64c0-.447-.18-.879-.496-1.195zm-4.003-2.3a.553.553 0 0 1 .26.148l2.95 2.95a.553.553 0 0 1 .147.26H9V1.145zm3.374 15.168c0 .31-.253.562-.562.562H1.687a.564.564 0 0 1-.562-.562V1.69c0-.31.253-.566.562-.566h6.189v3.659a.84.84 0 0 0 .844.841h3.655v10.688z" fill="#fff"/>
    </g>
    <defs>
        <clipPath id="kjajykfdpa">
            <path fill="#fff" d="M0 0h13.5v18H0z"/>
        </clipPath>
    </defs>
</svg>
