<svg width="24" height="24" viewBox="0 0 24 24" fill="none" xmlns="http://www.w3.org/2000/svg">
<g id="File">
<g id="Vector">
<path d="M19.7873 7.82913L14.6964 2.71375C14.6288 2.64591 14.5485 2.59211 14.4603 2.55544C14.372 2.51876 14.2774 2.49992 14.1818 2.5H5.45455C5.06878 2.5 4.69881 2.65398 4.42603 2.92807C4.15325 3.20217 4 3.57391 4 3.96154V20.0385C4 20.4261 4.15325 20.7978 4.42603 21.0719C4.69881 21.346 5.06878 21.5 5.45455 21.5H18.5455C18.9312 21.5 19.3012 21.346 19.574 21.0719C19.8468 20.7978 20 20.4261 20 20.0385V8.34615C20.0001 8.25016 19.9813 8.15509 19.9448 8.06638C19.9083 7.97767 19.8548 7.89705 19.7873 7.82913ZM14.9091 4.99466L17.5173 7.61539H14.9091V4.99466ZM18.5455 20.0385H5.45455V3.96154H13.4545V8.34615C13.4545 8.53997 13.5312 8.72584 13.6676 8.86289C13.8039 8.99993 13.9889 9.07692 14.1818 9.07692H18.5455V20.0385Z" fill="#F8F8F8"/>
<path d="M14.9091 4.99466L17.5173 7.61539H14.9091V4.99466Z" fill="#F8F8F8"/>
</g>
</g>
</svg>
