<svg width="24" height="24" viewBox="0 0 24 24" fill="none" xmlns="http://www.w3.org/2000/svg">
<path d="M20.4615 4H3.53846C3.13044 4 2.73912 4.15325 2.4506 4.42603C2.16209 4.69881 2 5.06878 2 5.45455V18.5455C2 18.9312 2.16209 19.3012 2.4506 19.574C2.73912 19.8468 3.13044 20 3.53846 20H20.4615C20.8696 20 21.2609 19.8468 21.5494 19.574C21.8379 19.3012 22 18.9312 22 18.5455V5.45455C22 5.06878 21.8379 4.69881 21.5494 4.42603C21.2609 4.15325 20.8696 4 20.4615 4ZM20.4615 5.45455V14.7955L17.9548 12.4264C17.8119 12.2913 17.6423 12.1841 17.4557 12.111C17.269 12.0379 17.0689 12.0002 16.8668 12.0002C16.6648 12.0002 16.4647 12.0379 16.278 12.111C16.0913 12.1841 15.9217 12.2913 15.7788 12.4264L13.8558 14.2445L9.625 10.2445C9.33651 9.97197 8.94535 9.81886 8.5375 9.81886C8.12965 9.81886 7.73849 9.97197 7.45 10.2445L3.53846 13.9427V5.45455H20.4615ZM3.53846 16L8.53846 11.2727L16.2308 18.5455H3.53846V16ZM20.4615 18.5455H18.4067L14.9452 15.2727L16.8683 13.4545L20.4615 16.8527V18.5455ZM13.5385 9.45455C13.5385 9.23878 13.6061 9.02787 13.7329 8.84847C13.8597 8.66907 14.0399 8.52925 14.2508 8.44668C14.4616 8.36411 14.6936 8.3425 14.9174 8.3846C15.1412 8.42669 15.3468 8.53059 15.5082 8.68316C15.6696 8.83572 15.7795 9.0301 15.824 9.24172C15.8685 9.45334 15.8457 9.67268 15.7583 9.87202C15.671 10.0714 15.5231 10.2417 15.3334 10.3616C15.1436 10.4815 14.9205 10.5455 14.6923 10.5455C14.3863 10.5455 14.0928 10.4305 13.8764 10.2259C13.66 10.0213 13.5385 9.74387 13.5385 9.45455Z" fill="#F8F8F8"/>
</svg>
