<svg width="25" height="25" viewBox="0 0 25 25" fill="none" xmlns="http://www.w3.org/2000/svg">
<path d="M7.56055 4.08594C7.09642 4.08594 6.6513 4.25451 6.32311 4.55457C5.99492 4.85462 5.81055 5.26159 5.81055 5.68594V18.4859C5.81055 18.9103 5.99492 19.3173 6.32311 19.6173C6.6513 19.9174 7.09642 20.0859 7.56055 20.0859H18.0605C18.5247 20.0859 18.9698 19.9174 19.298 19.6173C19.6262 19.3173 19.8105 18.9103 19.8105 18.4859V10.3483C19.8104 9.92403 19.626 9.51713 19.2978 9.21714L14.1983 4.55474C13.8702 4.25466 13.4251 4.08603 12.961 4.08594H7.56055ZM7.12305 5.68594C7.12305 5.57985 7.16914 5.47811 7.25119 5.40309C7.33323 5.32808 7.44451 5.28594 7.56055 5.28594H12.8105V8.88594C12.8105 9.31028 12.9949 9.71725 13.3231 10.0173C13.6513 10.3174 14.0964 10.4859 14.5605 10.4859H18.498V18.4859C18.498 18.592 18.452 18.6938 18.3699 18.7688C18.2879 18.8438 18.1766 18.8859 18.0605 18.8859H7.56055C7.44451 18.8859 7.33323 18.8438 7.25119 18.7688C7.16914 18.6938 7.12305 18.592 7.12305 18.4859V5.68594ZM17.518 9.28594H14.5605C14.4445 9.28594 14.3332 9.24379 14.2512 9.16878C14.1691 9.09377 14.123 8.99202 14.123 8.88594V6.18194L17.518 9.28594Z" fill="#77797A"/>
</svg>
