<svg id="global" width="24" height="24" viewBox="0 0 24 24" fill="none" xmlns="http://www.w3.org/2000/svg">
<path d="M12 23C18.0751 23 23 18.0751 23 12C23 5.92487 18.0751 1 12 1C5.92487 1 1 5.92487 1 12C1 18.0751 5.92487 23 12 23Z" stroke="white" stroke-linecap="round" stroke-linejoin="round"/>
<path d="M1 12H23" stroke="white" stroke-linecap="round" stroke-linejoin="round"/>
<path d="M11.9996 23C14.4297 23 16.3996 18.0751 16.3996 12C16.3996 5.92487 14.4297 1 11.9996 1C9.56954 1 7.59961 5.92487 7.59961 12C7.59961 18.0751 9.56954 23 11.9996 23Z" stroke="white" stroke-linecap="round" stroke-linejoin="round"/>
<path d="M4.22168 4.37817C6.21229 6.36879 8.96229 7.60002 11.9998 7.60002C15.0374 7.60002 17.7874 6.36879 19.778 4.37817" stroke="white" stroke-linecap="round" stroke-linejoin="round"/>
<path d="M19.778 19.6219C17.7874 17.6313 15.0374 16.4 11.9998 16.4C8.96229 16.4 6.21229 17.6313 4.22168 19.6219" stroke="white" stroke-linecap="round" stroke-linejoin="round"/>
</svg>
