<svg width="24" height="24" viewBox="0 0 24 24" fill="none" xmlns="http://www.w3.org/2000/svg">
<circle cx="12" cy="12" r="12" fill="#54AAE9"/>
<path d="M14.7396 9.94366C14.4821 9.4554 14.1245 9.0892 13.6667 8.84507C13.2089 8.59155 12.6795 8.46479 12.0787 8.46479C11.4206 8.46479 10.834 8.61033 10.319 8.90141C9.80401 9.19249 9.39866 9.60563 9.103 10.1408C8.81688 10.6761 8.67382 11.2958 8.67382 12C8.67382 12.7042 8.81688 13.3286 9.103 13.8732C9.39866 14.4085 9.80401 14.8216 10.319 15.1127C10.834 15.4038 11.4206 15.5493 12.0787 15.5493C12.9657 15.5493 13.6857 15.3052 14.2389 14.8169C14.7921 14.3286 15.1307 13.6667 15.2546 12.831H11.5207V11.5493H17V12.8028C16.8951 13.5634 16.6185 14.2629 16.1702 14.9014C15.7315 15.5399 15.1545 16.0516 14.4392 16.4366C13.7334 16.8122 12.9466 17 12.0787 17C11.144 17 10.2904 16.7887 9.51788 16.3662C8.74535 15.9343 8.13019 15.338 7.67239 14.5775C7.22413 13.8169 7 12.9577 7 12C7 11.0423 7.22413 10.1831 7.67239 9.42254C8.13019 8.66197 8.74535 8.07042 9.51788 7.64789C10.3 7.21596 11.1536 7 12.0787 7C13.1373 7 14.0768 7.25822 14.897 7.77465C15.7268 8.28169 16.3276 9.0047 16.6996 9.94366H14.7396Z" fill="#151718"/>
</svg>
