<svg width="24" height="24" viewBox="0 0 24 24" fill="none" xmlns="http://www.w3.org/2000/svg">
    <path fill-rule="evenodd" clip-rule="evenodd" d="M6.00058 16.2931C7.73417 17.3744 9.76808 18 12 18C16.256 18 19.792 15.7253 21.8987 12.3533C21.9649 12.2474 22 12.1249 22 12C22 11.8751 21.9649 11.7526 21.8987 11.6467C21.0022 10.2117 19.8469 8.97554 18.4874 8.02876L17.2785 8.82892C18.5627 9.62635 19.667 10.7101 20.5387 12C18.6267 14.8293 15.596 16.6667 12 16.6667C10.2604 16.6667 8.65302 16.2367 7.24065 15.4724L6.00058 16.2931ZM9.93598 13.6885C9.99189 13.7568 10.0514 13.8226 10.1144 13.8856C10.6145 14.3857 11.2928 14.6667 12 14.6667C12.7072 14.6667 13.3855 14.3857 13.8856 13.8856C14.3857 13.3855 14.6667 12.7072 14.6667 12C14.6667 11.564 14.5599 11.139 14.3608 10.7599L9.93598 13.6885ZM13.2931 9.66783L9.34795 12.2789C9.33825 12.1867 9.33333 12.0936 9.33333 12C9.33333 11.2928 9.61428 10.6145 10.1144 10.1144C10.6145 9.61428 11.2928 9.33333 12 9.33333C12.4565 9.33333 12.9009 9.45037 13.2931 9.66783ZM15.7398 8.0485C14.5898 7.5861 13.3338 7.33333 12 7.33333C8.404 7.33333 5.37333 9.17067 3.46133 12C4.13388 12.9952 4.94485 13.8677 5.87014 14.5807L4.70275 15.3533C3.69033 14.5093 2.81404 13.4941 2.10133 12.3533C2.03511 12.2474 2 12.1249 2 12C2 11.8751 2.03511 11.7526 2.10133 11.6467C4.208 8.27467 7.744 6 12 6C13.8383 6 15.5422 6.42436 17.0547 7.17822L15.7398 8.0485Z" fill="#B3B3B4"/>
    <rect x="3" y="18.1421" width="22" height="1.5" rx="0.75" transform="rotate(-33.4983 3 18.1421)" fill="#B3B3B4"/>
    </svg>
    