<svg width="40" height="40" viewBox="0 0 40 40" fill="none" xmlns="http://www.w3.org/2000/svg">
<path d="M20.0003 18.5198V25.9272M20.0003 33.3346C18.2494 33.3346 16.5156 32.9898 14.8979 32.3197C13.2802 31.6496 11.8103 30.6675 10.5722 29.4294C9.33412 28.1913 8.35199 26.7214 7.68193 25.1037C7.01187 23.4861 6.66699 21.7523 6.66699 20.0013C6.66699 18.2503 7.01187 16.5165 7.68193 14.8989C8.35199 13.2812 9.33412 11.8113 10.5722 10.5732C11.8103 9.3351 13.2802 8.35297 14.8979 7.68291C16.5156 7.01285 18.2494 6.66797 20.0003 6.66797C23.5365 6.66797 26.9279 8.07273 29.4284 10.5732C31.9289 13.0737 33.3337 16.4651 33.3337 20.0013C33.3337 23.5375 31.9289 26.9289 29.4284 29.4294C26.9279 31.9299 23.5365 33.3346 20.0003 33.3346ZM20.0744 14.0754V14.2235H19.9263V14.0754H20.0744Z" stroke="#F8F8F8" stroke-width="3" stroke-linecap="round" stroke-linejoin="round"/>
</svg>
