<svg width="24" height="24" viewBox="0 0 24 24" fill="none" xmlns="http://www.w3.org/2000/svg" id="process">
<path d="M17.8008 8.20312C18.9054 8.20312 19.8008 7.30769 19.8008 6.20312C19.8008 5.09856 18.9054 4.20312 17.8008 4.20312C16.6962 4.20312 15.8008 5.09856 15.8008 6.20312C15.8008 7.30769 16.6962 8.20312 17.8008 8.20312Z" fill="#7F8387"/>
<path d="M12 6C13.1046 6 14 5.10457 14 4C14 2.89543 13.1046 2 12 2C10.8954 2 10 2.89543 10 4C10 5.10457 10.8954 6 12 6Z" fill="#94979A"/>
<path d="M6.19922 8.20312C7.30379 8.20312 8.19922 7.30769 8.19922 6.20312C8.19922 5.09856 7.30379 4.20312 6.19922 4.20312C5.09465 4.20312 4.19922 5.09856 4.19922 6.20312C4.19922 7.30769 5.09465 8.20312 6.19922 8.20312Z" fill="#9EA1A3"/>
<path d="M4 14C5.10457 14 6 13.1046 6 12C6 10.8954 5.10457 10 4 10C2.89543 10 2 10.8954 2 12C2 13.1046 2.89543 14 4 14Z" fill="#B2B4B6"/>
<path d="M6.19922 19.6016C7.30379 19.6016 8.19922 18.7061 8.19922 17.6016C8.19922 16.497 7.30379 15.6016 6.19922 15.6016C5.09465 15.6016 4.19922 16.497 4.19922 17.6016C4.19922 18.7061 5.09465 19.6016 6.19922 19.6016Z" fill="#BCBEC0"/>
<path d="M12 22C13.1046 22 14 21.1046 14 20C14 18.8954 13.1046 18 12 18C10.8954 18 10 18.8954 10 20C10 21.1046 10.8954 22 12 22Z" fill="#C6C8C9"/>
<path d="M17.8008 19.6016C18.9054 19.6016 19.8008 18.7061 19.8008 17.6016C19.8008 16.497 18.9054 15.6016 17.8008 15.6016C16.6962 15.6016 15.8008 16.497 15.8008 17.6016C15.8008 18.7061 16.6962 19.6016 17.8008 19.6016Z" fill="#D0D2D3"/>
<path d="M20 14C21.1046 14 22 13.1046 22 12C22 10.8954 21.1046 10 20 10C18.8954 10 18 10.8954 18 12C18 13.1046 18.8954 14 20 14Z" fill="#DADBDC"/>
</svg>
