<svg width="18" height="18" viewBox="0 0 18 18" xmlns="http://www.w3.org/2000/svg" id="infoico">
    <circle cx="9" cy="9" r="9"/>
    <path d="M9 3.028a5.973 5.973 0 1 1-.002 11.946A5.973 5.973 0 0 1 9 3.028zm0-.885a6.858 6.858 0 1 0 .002 13.716A6.858 6.858 0 0 0 9 2.143zm-.996 9.511h.332V8.336h-.332a.332.332 0 0 1-.331-.331v-.222c0-.183.148-.331.331-.331h1.328c.183 0 .331.148.331.331v3.871h.332c.183 0 .332.149.332.332v.221a.332.332 0 0 1-.332.332h-1.99a.332.332 0 0 1-.332-.332v-.22c0-.184.148-.333.331-.333zM9 5.018a.885.885 0 1 0 0 1.77.885.885 0 0 0 0-1.77z" fill="#fff"/>
</svg>
