<svg width="25" height="25" viewBox="0 0 25 25" id="info_" xmlns="http://www.w3.org/2000/svg">
    <path
        d="M12.1138 18.1367C12.2989 18.1367 12.4763 18.0632 12.6072 17.9324C12.738 17.8015 12.8115 17.6241 12.8115 17.439V11.8576C12.8115 11.6726 12.738 11.4952 12.6072 11.3643C12.4763 11.2335 12.2989 11.16 12.1138 11.16C11.9288 11.16 11.7513 11.2335 11.6205 11.3643C11.4897 11.4952 11.4162 11.6726 11.4162 11.8576V17.439C11.4162 17.8242 11.7287 18.1367 12.1138 18.1367ZM12.1138 8.13672C12.3605 8.13672 12.5971 8.23473 12.7716 8.40918C12.9461 8.58363 13.0441 8.82024 13.0441 9.06695C13.0441 9.31366 12.9461 9.55027 12.7716 9.72472C12.5971 9.89918 12.3605 9.99718 12.1138 9.99718C11.8671 9.99718 11.6305 9.89918 11.4561 9.72472C11.2816 9.55027 11.1836 9.31366 11.1836 9.06695C11.1836 8.82024 11.2816 8.58363 11.4561 8.40918C11.6305 8.23473 11.8671 8.13672 12.1138 8.13672Z"
        fill="#F8F8F8" />
    <path fill-rule="evenodd" clip-rule="evenodd"
        d="M2.11328 12.7891C2.11328 7.26627 6.59049 2.78906 12.1133 2.78906C17.6361 2.78906 22.1133 7.26627 22.1133 12.7891C22.1133 18.3119 17.6361 22.7891 12.1133 22.7891C6.59049 22.7891 2.11328 18.3119 2.11328 12.7891ZM12.1133 4.18441C9.83119 4.18441 7.64256 5.09097 6.02887 6.70466C4.41519 8.31834 3.50863 10.507 3.50863 12.7891C3.50863 15.0712 4.41519 17.2598 6.02887 18.8735C7.64256 20.4872 9.83119 21.3937 12.1133 21.3937C14.3954 21.3937 16.584 20.4872 18.1977 18.8735C19.8114 17.2598 20.7179 15.0712 20.7179 12.7891C20.7179 10.507 19.8114 8.31834 18.1977 6.70466C16.584 5.09097 14.3954 4.18441 12.1133 4.18441Z"
        fill="#F8F8F8" />
</svg>