<svg width="24" height="24" viewBox="0 0 24 24" fill="none" xmlns="http://www.w3.org/2000/svg">
<path d="M8.25 10H6.375C5.87772 10 5.40081 10.2107 5.04917 10.5858C4.69754 10.9609 4.5 11.4696 4.5 12V19C4.5 19.5304 4.69754 20.0391 5.04917 20.4142C5.40081 20.7893 5.87772 21 6.375 21H17.625C18.1223 21 18.5992 20.7893 18.9508 20.4142C19.3025 20.0391 19.5 19.5304 19.5 19V12C19.5 11.4696 19.3025 10.9609 18.9508 10.5858C18.5992 10.2107 18.1223 10 17.625 10H15.75M8.25 10V7C8.25 5.667 9 3 12 3C13.785 3 14.7731 3.944 15.2812 4.99C15.2812 4.99 15.75 5.86521 15.75 7.5C15.75 9.13479 15.75 10 15.75 10M8.25 10H15.75" stroke="#F8F8F8" stroke-width="1.7" stroke-linecap="round" stroke-linejoin="round"/>
</svg>
