<svg width="25" height="25" viewBox="0 0 25 25" fill="none" xmlns="http://www.w3.org/2000/svg">
<path d="M18.3196 8.28906C19.4241 8.28906 20.3196 7.39363 20.3196 6.28906C20.3196 5.18449 19.4241 4.28906 18.3196 4.28906C17.215 4.28906 16.3196 5.18449 16.3196 6.28906C16.3196 7.39363 17.215 8.28906 18.3196 8.28906Z" fill="#7F8387"/>
<path d="M12.5195 6.08594C13.6241 6.08594 14.5195 5.19051 14.5195 4.08594C14.5195 2.98137 13.6241 2.08594 12.5195 2.08594C11.415 2.08594 10.5195 2.98137 10.5195 4.08594C10.5195 5.19051 11.415 6.08594 12.5195 6.08594Z" fill="#94979A"/>
<path d="M6.71948 8.28906C7.82405 8.28906 8.71948 7.39363 8.71948 6.28906C8.71948 5.18449 7.82405 4.28906 6.71948 4.28906C5.61491 4.28906 4.71948 5.18449 4.71948 6.28906C4.71948 7.39363 5.61491 8.28906 6.71948 8.28906Z" fill="#9EA1A3"/>
<path d="M4.51953 14.0859C5.6241 14.0859 6.51953 13.1905 6.51953 12.0859C6.51953 10.9814 5.6241 10.0859 4.51953 10.0859C3.41496 10.0859 2.51953 10.9814 2.51953 12.0859C2.51953 13.1905 3.41496 14.0859 4.51953 14.0859Z" fill="#B2B4B6"/>
<path d="M6.71948 19.6875C7.82405 19.6875 8.71948 18.7921 8.71948 17.6875C8.71948 16.5829 7.82405 15.6875 6.71948 15.6875C5.61491 15.6875 4.71948 16.5829 4.71948 17.6875C4.71948 18.7921 5.61491 19.6875 6.71948 19.6875Z" fill="#BCBEC0"/>
<path d="M12.5195 22.0859C13.6241 22.0859 14.5195 21.1905 14.5195 20.0859C14.5195 18.9814 13.6241 18.0859 12.5195 18.0859C11.415 18.0859 10.5195 18.9814 10.5195 20.0859C10.5195 21.1905 11.415 22.0859 12.5195 22.0859Z" fill="#C6C8C9"/>
<path d="M18.3196 19.6875C19.4241 19.6875 20.3196 18.7921 20.3196 17.6875C20.3196 16.5829 19.4241 15.6875 18.3196 15.6875C17.215 15.6875 16.3196 16.5829 16.3196 17.6875C16.3196 18.7921 17.215 19.6875 18.3196 19.6875Z" fill="#D0D2D3"/>
<path d="M20.5195 14.0859C21.6241 14.0859 22.5195 13.1905 22.5195 12.0859C22.5195 10.9814 21.6241 10.0859 20.5195 10.0859C19.415 10.0859 18.5195 10.9814 18.5195 12.0859C18.5195 13.1905 19.415 14.0859 20.5195 14.0859Z" fill="#DADBDC"/>
</svg>
