<svg width="18" height="18" viewBox="0 0 18 18" xmlns="http://www.w3.org/2000/svg" id="map-marker" >
    <circle cx="9" cy="9" r="9" />
    <path d="M9 3a3.528 3.528 0 0 1 3.536 3.521c0 2.64-3.536 6.54-3.536 6.54s-3.535-3.9-3.535-6.54A3.529 3.529 0 0 1 9 3zm0 2.367c-.312 0-.612.125-.833.347A1.186 1.186 0 0 0 9 7.734c.313 0 .613-.124.834-.346A1.186 1.186 0 0 0 9 5.368zm4.715 7.694c0 1.308-2.11 2.368-4.715 2.368-2.604 0-4.714-1.06-4.714-2.368 0-.763.72-1.444 1.833-1.876l.377.539c-.636.266-1.031.633-1.031 1.041 0 .817 1.585 1.48 3.535 1.48 1.951 0 3.536-.663 3.536-1.48 0-.408-.395-.775-1.031-1.041l.377-.539c1.114.432 1.833 1.113 1.833 1.876z" fill="#fff"/>
</svg>
