<svg width="24" height="24" viewBox="0 0 24 24" fill="none" xmlns="http://www.w3.org/2000/svg">
<path d="M19.4563 9.79966C19.2257 9.90747 19.2257 10.2354 19.4563 10.3432L22.4187 11.7282C22.6493 11.836 22.6493 12.164 22.4187 12.2718L19.4563 13.6568C19.2257 13.7646 19.2257 14.0925 19.4563 14.2003L22.4187 15.5854C22.6493 15.6932 22.6493 16.0211 22.4187 16.1289L12.1271 20.9406C12.0465 20.9782 11.9535 20.9782 11.8729 20.9406L1.58127 16.1289C1.35069 16.0211 1.35069 15.6932 1.58127 15.5854L4.54373 14.2003C4.77431 14.0925 4.77431 13.7646 4.54373 13.6568L1.58127 12.2718C1.35069 12.164 1.35069 11.836 1.58127 11.7282L4.54373 10.3432C4.77431 10.2354 4.77431 9.90747 4.54373 9.79966L1.58127 8.41462C1.35069 8.30681 1.35069 7.9789 1.58127 7.87109L11.8729 3.0594C11.9535 3.02176 12.0465 3.02176 12.1271 3.0594L22.4187 7.87109C22.6493 7.9789 22.6493 8.30681 22.4187 8.41462L19.4563 9.79966ZM4.65354 7.87109C4.42295 7.9789 4.42295 8.30681 4.65354 8.41462L11.8729 11.7899C11.9535 11.8276 12.0465 11.8276 12.1271 11.7899L19.3465 8.41462C19.577 8.30681 19.577 7.9789 19.3465 7.87109L12.1271 4.49579C12.0465 4.45814 11.9535 4.45814 11.8729 4.49579L4.65354 7.87109ZM19.3453 16.1295C19.576 16.0216 19.5758 15.6933 19.3448 15.5857L17.4656 14.7108C17.3853 14.6734 17.2925 14.6734 17.2122 14.7109L12.1268 17.0837C12.0464 17.1212 11.9536 17.1212 11.8732 17.0837L6.78785 14.7109C6.70752 14.6734 6.61473 14.6734 6.53437 14.7108L4.65518 15.5857C4.42422 15.6933 4.42396 16.0216 4.65475 16.1295L11.8729 19.5042C11.9535 19.5419 12.0465 19.5419 12.1271 19.5042L19.3453 16.1295ZM11.8729 15.6471C11.9535 15.6847 12.0465 15.6847 12.1271 15.6471L19.3453 12.2723C19.576 12.1644 19.5758 11.8361 19.3448 11.7286L17.4656 10.8537C17.3853 10.8162 17.2925 10.8163 17.2122 10.8538L12.1268 13.2265C12.0464 13.264 11.9536 13.264 11.8732 13.2265L6.78785 10.8538C6.70752 10.8163 6.61473 10.8162 6.53437 10.8537L4.65518 11.7286C4.42422 11.8361 4.42396 12.1644 4.65475 12.2723L11.8729 15.6471Z" fill="#F8F8F8"/>
</svg>
