<svg width="10" height="14" viewBox="0 0 10 14" fill="none" xmlns="http://www.w3.org/2000/svg" id="map_marker_radius1">
    <path d="M5 0c2.069 0 3.75 1.773 3.75 3.967C8.75 6.94 5 11.333 5 11.333S1.25 6.94 1.25 3.967C1.25 1.773 2.931 0 5 0zm0 2.667c-.332 0-.65.14-.884.39A1.38 1.38 0 0 0 3.75 4c0 .354.132.693.366.943.235.25.552.39.884.39.332 0 .65-.14.884-.39.234-.25.366-.59.366-.943a1.38 1.38 0 0 0-.366-.943A1.212 1.212 0 0 0 5 2.667zm5 8.666C10 12.807 7.763 14 5 14s-5-1.193-5-2.667c0-.86.762-1.626 1.944-2.113l.4.607c-.675.3-1.094.713-1.094 1.173 0 .92 1.681 1.667 3.75 1.667S8.75 11.92 8.75 11c0-.46-.419-.873-1.094-1.173l.4-.607C9.238 9.707 10 10.473 10 11.333z" fill="#fff"/>
</svg>
