<svg width="24" height="24" viewBox="0 0 24 24" fill="none" xmlns="http://www.w3.org/2000/svg">
<path d="M19 7H10M14 17H5" stroke="#F8F8F8" stroke-width="1.7" stroke-linecap="round" stroke-linejoin="round"/>
<path d="M16 19C17.1046 19 18 18.1046 18 17C18 15.8954 17.1046 15 16 15C14.8954 15 14 15.8954 14 17C14 18.1046 14.8954 19 16 19Z" stroke="#F8F8F8" stroke-width="1.7" stroke-linecap="round" stroke-linejoin="round"/>
<path d="M7 9C8.10457 9 9 8.10457 9 7C9 5.89543 8.10457 5 7 5C5.89543 5 5 5.89543 5 7C5 8.10457 5.89543 9 7 9Z" stroke="#F8F8F8" stroke-width="1.7" stroke-linecap="round" stroke-linejoin="round"/>
</svg>
