<svg width="16" height="20" viewBox="0 0 16 20" xmlns="http://www.w3.org/2000/svg" id="marker-on-map">
    <path d="M8 1.90476C10.2 1.90476 12 3.61905 12 5.71429C12 7.57909 10.1743 10.5203 8.38734 12.7622C8.18987 13.0099 7.81467 13.0061 7.62062 12.7557C5.83111 10.446 4 7.58186 4 5.71429C4 3.61905 5.8 1.90476 8 1.90476ZM8 0C4.7 0 2 2.57143 2 5.71429C2 9.36879 6.36277 14.4083 7.64788 15.8135C7.83939 16.0229 8.15924 16.0218 8.3494 15.8112C9.63107 14.3916 14 9.2901 14 5.71429C14 2.57143 11.3 0 8 0ZM8 3.80952C6.9 3.80952 6 4.66667 6 5.71429C6 6.7619 6.9 7.61905 8 7.61905C9.1 7.61905 10 6.7619 10 5.71429C10 4.66667 9.1 3.80952 8 3.80952ZM16 16.1905C16 18.2857 12.4 20 8 20C3.6 20 0 18.2857 0 16.1905C0 15.0338 1.04731 14.0434 2.73427 13.2969C2.94674 13.2029 3.19426 13.2775 3.3275 13.4679L3.36113 13.5159C3.53844 13.7692 3.44395 14.1188 3.17702 14.2748C2.46438 14.6915 2 15.1713 2 15.7143C2 17.0476 4.7 18.0952 8 18.0952C11.3 18.0952 14 17.0476 14 15.7143C14 15.1674 13.5289 14.6845 12.7523 14.2658C12.4737 14.1156 12.37 13.7572 12.5515 13.4979L12.5765 13.4621C12.7079 13.2744 12.9506 13.1989 13.1619 13.2875C14.9439 14.0351 16 15.029 16 16.1905Z"/>
</svg>
