<svg width="24" height="24" viewBox="0 0 24 24" fill="none" xmlns="http://www.w3.org/2000/svg">
<path d="M12 24H11.7187C11.625 24 11.5406 23.9798 11.4656 23.9393C9.00937 23.11 6.98437 21.4663 5.39062 19.0082C3.79687 16.5502 3 13.8348 3 10.8622V5.12769C3 4.622 3.13612 4.16688 3.40837 3.76233C3.68062 3.35777 4.032 3.06448 4.4625 2.88243L11.2125 0.151707C11.475 0.0505689 11.7375 0 12 0C12.2625 0 12.525 0.0505689 12.7875 0.151707L19.5375 2.88243C19.9688 3.06448 20.3205 3.35777 20.5927 3.76233C20.865 4.16688 21.0007 4.622 21 5.12769V10.8622C21 13.8357 20.2031 16.5514 18.6094 19.0095C17.0156 21.4675 14.9906 23.1108 12.5344 23.9393C12.4406 23.9798 12.2625 24 12 24Z" fill="#B3B3B4"/>
<path d="M11.9999 6L8.90469 7.2963L7 9.75928L8.33179 11.3148C8.37962 11.2658 8.43102 11.2182 8.48433 11.173C8.48865 11.1694 8.49114 11.1645 8.49546 11.1609L8.49919 11.165C9.30029 10.4551 10.5426 10.1482 12 10.1482C13.4574 10.1482 14.6996 10.4551 15.5008 11.165L15.5045 11.1609C15.5089 11.1645 15.5114 11.1694 15.5157 11.173C15.569 11.2182 15.6204 11.2658 15.6682 11.3148L17 9.75928L15.0953 7.2963L11.9999 6ZM12.0036 7.42589L13.1903 7.8148C13.0643 8.86687 12.5832 9.50002 12.0036 9.50002C11.4241 9.50002 10.9355 8.86687 10.8094 7.8148L12.0036 7.42589ZM11.9999 10.6667C10.6023 10.6667 9.43785 10.9893 8.78565 11.5741C8.58536 11.7406 8.42849 11.9574 8.42849 12.0926C8.42849 12.7122 10.1463 13 11.9999 13C13.8535 13 15.5713 12.7122 15.5713 12.0926C15.5713 11.9573 15.4144 11.7406 15.2141 11.5741C14.5618 10.9893 13.3974 10.6667 11.9999 10.6667H11.9999Z" fill="#151718"/>
</svg>
