<svg width="18" height="15" viewBox="0 0 18 15" fill="none" xmlns="http://www.w3.org/2000/svg">
<path d="M0 0.953236C0 0.426778 0.431637 0 0.964088 0H14.4613C14.9938 0 15.4254 0.426778 15.4254 0.953236C15.4254 1.47969 14.9938 1.90647 14.4613 1.90647H0.964088C0.431637 1.90647 0 1.47969 0 0.953236Z" fill="#F8F8F8"/>
<path d="M0 5.40167C0 4.87521 0.431637 4.44843 0.964088 4.44843H14.4613C14.9938 4.44843 15.4254 4.87521 15.4254 5.40167C15.4254 5.92813 14.9938 6.3549 14.4613 6.3549H0.964088C0.431637 6.3549 0 5.92813 0 5.40167Z" fill="#F8F8F8"/>
<path d="M0 9.8501C0 9.32364 0.431637 8.89687 0.964088 8.89687H9.31952C9.85197 8.89687 10.2836 9.32364 10.2836 9.8501C10.2836 10.3766 9.85197 10.8033 9.31952 10.8033H0.964088C0.431637 10.8033 0 10.3766 0 9.8501Z" fill="#F8F8F8"/>
<path d="M17.6774 11.4438C18.1064 11.6988 18.1078 12.3388 17.68 12.5958L13.83 14.9091C13.4022 15.1662 12.866 14.8474 12.8649 14.3354L12.8545 9.72744C12.8534 9.21543 13.3881 8.89414 13.817 9.14911L17.6774 11.4438Z" fill="#F8F8F8"/>
</svg>
