<svg width="24" height="24" viewBox="0 0 24 24" fill="none" xmlns="http://www.w3.org/2000/svg">
<path d="M3.42857 7.45455V19.0909C3.42857 19.4767 3.57908 19.8466 3.84699 20.1194C4.1149 20.3922 4.47826 20.5455 4.85714 20.5455H19.1429C19.5217 20.5455 19.8851 20.3922 20.153 20.1194C20.4209 19.8466 20.5714 19.4767 20.5714 19.0909V7.45455H3.42857ZM3.42857 6H20.5714C20.9503 6 21.3137 6.15325 21.5816 6.42603C21.8495 6.69881 22 7.06878 22 7.45455V19.0909C22 19.8624 21.699 20.6024 21.1632 21.1479C20.6273 21.6935 19.9006 22 19.1429 22H4.85714C4.09938 22 3.37266 21.6935 2.83684 21.1479C2.30102 20.6024 2 19.8624 2 19.0909V7.45455C2 7.06878 2.15051 6.69881 2.41842 6.42603C2.68633 6.15325 3.04969 6 3.42857 6Z" fill="#F8F8F8"/>
<path d="M20.75 7.45455L15.2257 13.8836C14.8235 14.3518 14.3275 14.7271 13.7712 14.9842C13.2149 15.2412 12.611 15.3742 12 15.3742C11.389 15.3742 10.7851 15.2412 10.2288 14.9842C9.67247 14.7271 9.17654 14.3518 8.77429 13.8836L3.25 7.45455H20.75ZM5.14857 7.45455L9.84857 12.9251C10.1167 13.2373 10.4474 13.4875 10.8183 13.659C11.1893 13.8304 11.5919 13.9191 11.9993 13.9191C12.4067 13.9191 12.8093 13.8304 13.1802 13.659C13.5512 13.4875 13.8818 13.2373 14.15 12.9251L18.8514 7.45455H5.14857Z" fill="#F8F8F8"/>
</svg>
