<svg width="20" height="20" viewBox="0 0 20 20"  xmlns="http://www.w3.org/2000/svg" id="micro_1">
    <path d="M10 13a3 3 0 0 0 3-3V5a3 3 0 1 0-6 0v5a3 3 0 0 0 3 3zM8 5c0-1.103.897-2 2-2s2 .897 2 2v5c0 1.103-.897 2-2 2s-2-.897-2-2V5zm6.75 3h-.5a.25.25 0 0 0-.25.25V10a4.004 4.004 0 0 1-4.273 3.99C7.603 13.85 6 11.989 6 9.86V8.25A.25.25 0 0 0 5.75 8h-.5a.25.25 0 0 0-.25.25v1.573c0 2.606 1.927 4.879 4.5 5.139V17H7.25a.25.25 0 0 0-.25.25v.5c0 .138.112.25.25.25h5.5a.25.25 0 0 0 .25-.25v-.5a.25.25 0 0 0-.25-.25H10.5v-2.032c2.522-.252 4.5-2.38 4.5-4.968V8.25a.25.25 0 0 0-.25-.25z" />
</svg>
