<svg width="37" height="36" viewBox="0 0 37 36" fill="none" xmlns="http://www.w3.org/2000/svg">
<rect x="0.953125" width="36" height="36" rx="18" fill="#959697" fill-opacity="0.25"/>
<path d="M14.4531 18.8333C14.4531 18.8333 14.4531 22.7222 18.9531 22.7222M18.9531 22.7222C23.4531 22.7222 23.4531 18.8333 23.4531 18.8333M18.9531 22.7222V25.5M17.2656 25.5H20.6406M18.9531 10.5C16.7031 10.5 16.7031 12.7222 16.7031 12.7222C16.7031 12.7222 16.7031 12.7222 16.7031 12.7222V18.2778C16.7031 18.2778 16.7031 18.2778 16.7031 18.2778C16.7031 18.2778 16.7031 20.5 18.9531 20.5C21.2031 20.5 21.2031 18.2778 21.2031 18.2778C21.2031 18.2778 21.2031 18.2778 21.2031 18.2778V12.7222C21.2031 12.7222 21.2031 12.7222 21.2031 12.7222C21.2031 12.7222 21.2031 10.5 18.9531 10.5Z" stroke="#F8F8F8" stroke-width="1.5" stroke-linecap="round" stroke-linejoin="round"/>
</svg>
