<svg width="37" height="36" viewBox="0 0 37 36" fill="none" xmlns="http://www.w3.org/2000/svg">
<rect x="0.453125" width="36" height="36" rx="18" fill="#959697" fill-opacity="0.25"/>
<path d="M18.4531 20.5C16.2031 20.5 16.2031 18.2778 16.2031 18.2778C16.2031 18.2778 16.2031 18.2778 16.2031 18.2778V16.5M20.7031 18.2778V12.7222C20.7031 12.7222 20.7031 12.7222 20.7031 12.7222C20.7031 12.7222 20.7031 10.5 18.4531 10.5C16.2031 10.5 16.2031 12.7222 16.2031 12.7222C16.2031 12.7222 16.2031 12.7222 16.2031 12.7222V13.125M13.9531 18.8333C13.9531 18.8333 13.9531 22.7222 18.4531 22.7222M18.4531 22.7222V25.5M18.4531 22.7222C19.3815 22.7222 20.1183 22.5567 20.7031 22.294M22.9531 18.8333C22.9531 18.8333 22.9531 19.5 22.5781 20.625M16.7656 25.5H20.1406" stroke="#F8F8F8" stroke-width="1.5" stroke-linecap="round" stroke-linejoin="round"/>
<path d="M13.2031 12.75L23.7031 25.5" stroke="#F8F8F8" stroke-width="1.7" stroke-linecap="round"/>
</svg>
