<svg width="24" height="24" viewBox="0 0 24 24" fill="none" xmlns="http://www.w3.org/2000/svg">
<path d="M4.98622 3.29764C4.89949 3.20447 4.79652 3.13056 4.6832 3.08014C4.56987 3.02972 4.44841 3.00377 4.32575 3.00377C4.20309 3.00377 4.08164 3.02972 3.96831 3.08014C3.85499 3.13056 3.75202 3.20447 3.66529 3.29764C3.49012 3.4858 3.39172 3.741 3.39172 4.0071C3.39172 4.2732 3.49012 4.5284 3.66529 4.71656L18.549 20.7044C18.6355 20.7981 18.7384 20.8724 18.8517 20.9232C18.9651 20.9739 19.0867 21 19.2095 21C19.3323 21 19.4539 20.9739 19.5672 20.9232C19.6806 20.8724 19.7835 20.7981 19.8699 20.7044C19.9571 20.6115 20.0263 20.501 20.0736 20.3792C20.1208 20.2575 20.1451 20.1269 20.1451 19.995C20.1451 19.8631 20.1208 19.7324 20.0736 19.6107C20.0263 19.4889 19.9571 19.3784 19.8699 19.2855L4.98622 3.29764ZM16.4052 13.9506C16.3648 14.028 16.3755 14.1229 16.4351 14.1869L17.5034 15.3345C17.591 15.4286 17.7435 15.4168 17.811 15.3074C18.427 14.3099 18.752 13.1353 18.741 11.9345C18.7293 10.6479 18.3326 9.39952 17.6095 8.37378C17.5325 8.27143 17.4375 8.18636 17.33 8.12344C17.2224 8.06051 17.1044 8.02096 16.9826 8.00704C16.8608 7.99312 16.7376 8.00511 16.6201 8.04232C16.5026 8.07953 16.3931 8.14123 16.2978 8.2239C16.1054 8.39086 15.9826 8.63309 15.9564 8.89732C15.9435 9.02815 15.9546 9.16044 15.9893 9.28664C16.0239 9.41284 16.0814 9.53047 16.1583 9.63283C16.5948 10.2717 16.8447 11.0355 16.8762 11.8273C16.9056 12.5692 16.7421 13.3043 16.4052 13.9506Z" fill="#F8F8F8"/>
<path d="M20.1395 12.0015C20.1208 13.5729 19.5732 15.0816 18.6014 16.2506C18.5357 16.3297 18.5371 16.4455 18.6071 16.5208L19.6548 17.6462C19.7352 17.7325 19.8725 17.7311 19.9485 17.6409C21.2501 16.0962 21.9817 14.0902 22 12.0015C21.9828 10.6947 21.6931 9.40863 21.1522 8.23792C20.6113 7.06721 19.833 6.04164 18.8744 5.23668C18.7804 5.1527 18.6718 5.08944 18.555 5.05052C18.4382 5.0116 18.3154 4.99777 18.1936 5.00983C18.0718 5.0219 17.9534 5.05961 17.8451 5.12082C17.7369 5.18203 17.641 5.26554 17.5628 5.36658C17.4846 5.46763 17.4257 5.58422 17.3895 5.70971C17.3532 5.8352 17.3404 5.96712 17.3516 6.09795C17.3628 6.22878 17.3979 6.35596 17.4549 6.47221C17.5119 6.58847 17.5897 6.69153 17.6837 6.77551C18.4298 7.39492 19.0375 8.18565 19.4624 9.08987C19.8873 9.99409 20.1187 10.9889 20.1395 12.0015ZM13.1586 17.6958C13.1603 17.8608 12.9727 17.9568 12.8399 17.8589L8.4186 14.5996C8.26199 14.4865 8.07706 14.4272 7.88837 14.4297H4.06047C3.95001 14.4297 3.86047 14.3402 3.86047 14.2297V9.77339C3.86047 9.66293 3.95001 9.57339 4.06047 9.57339H6.41498C6.58973 9.57339 6.68044 9.36502 6.56137 9.23711L5.07328 7.63863C5.03544 7.59799 4.98242 7.57491 4.92689 7.57491H2.93023C2.68352 7.57491 2.44691 7.68018 2.27246 7.86758C2.09801 8.05497 2 8.30913 2 8.57415V15.4289C2 15.694 2.09801 15.9481 2.27246 16.1355C2.44691 16.3229 2.68352 16.4282 2.93023 16.4282H7.51563C7.55835 16.4282 7.59994 16.4419 7.63433 16.4672L13.5442 20.8249C13.7022 20.9347 13.8862 20.9936 14.0744 20.9947C14.3211 20.9947 14.5577 20.8894 14.7322 20.7021C14.9066 20.5147 15.0047 20.2605 15.0047 19.9955V18.4054C15.0047 18.3549 14.9855 18.3062 14.951 18.2692L13.496 16.7062C13.3715 16.5725 13.1477 16.6619 13.1496 16.8445L13.1586 17.6958ZM12.8442 6.14077C12.9763 6.04353 13.1628 6.13782 13.1628 6.30182V10.5939C13.1628 10.6444 13.1819 10.6931 13.2164 10.7301L14.6769 12.299C14.8006 12.4319 15.0233 12.3443 15.0233 12.1627V4.00762C15.0247 3.82448 14.9792 3.64444 14.8919 3.48717C14.8045 3.3299 14.6785 3.20145 14.5278 3.11585C14.3771 3.03025 14.2074 2.9908 14.0372 3.00181C13.867 3.01281 13.7029 3.07385 13.5628 3.17824L9.37103 6.27267C9.27493 6.34361 9.26204 6.48243 9.34343 6.56985L10.4088 7.71424C10.478 7.7886 10.592 7.79925 10.6738 7.73902L12.8442 6.14077Z" fill="#F8F8F8"/>
</svg>
