<svg width="16" height="16" viewBox="0 0 16 16" fill="none" xmlns="http://www.w3.org/2000/svg">
<circle cx="8.48047" cy="7.78906" r="6.75" stroke="#B3B3B4" stroke-width="1.5"/>
<path fill-rule="evenodd" clip-rule="evenodd" d="M12.9805 7.78906C12.9805 8.38001 12.8641 8.96517 12.6379 9.51114C12.4118 10.0571 12.0803 10.5532 11.6624 10.971C11.2446 11.3889 10.7485 11.7204 10.2025 11.9465C9.65658 12.1727 9.07142 12.2891 8.48047 12.2891C7.88952 12.2891 7.30436 12.1727 6.75839 11.9465C6.21243 11.7204 5.71635 11.3889 5.29849 10.971C4.88062 10.5532 4.54916 10.0571 4.32301 9.51114C4.09686 8.96517 3.98047 8.38001 3.98047 7.78906C3.98047 6.59559 4.45457 5.451 5.29849 4.60708C6.1424 3.76317 7.28699 3.28906 8.48047 3.28906C9.67394 3.28906 10.8185 3.76317 11.6624 4.60708C12.5064 5.451 12.9805 6.59559 12.9805 7.78906ZM6.12697 10.1426C6.03323 10.0488 5.98058 9.92164 5.98058 9.78906C5.98058 9.65648 6.03323 9.52933 6.12697 9.43556L7.77347 7.78906L6.12697 6.14256C6.03589 6.04826 5.98549 5.92196 5.98663 5.79086C5.98777 5.65976 6.04036 5.53436 6.13306 5.44165C6.22576 5.34895 6.35117 5.29636 6.48227 5.29523C6.61337 5.29409 6.73967 5.34448 6.83397 5.43556L8.48047 7.08206L10.127 5.43556C10.1731 5.38781 10.2283 5.34972 10.2893 5.32351C10.3503 5.29731 10.4159 5.28351 10.4823 5.28294C10.5487 5.28236 10.6145 5.29501 10.6759 5.32015C10.7374 5.34529 10.7932 5.38242 10.8402 5.42936C10.8871 5.47631 10.9242 5.53214 10.9494 5.59359C10.9745 5.65503 10.9872 5.72087 10.9866 5.78726C10.986 5.85365 10.9722 5.91926 10.946 5.98026C10.9198 6.04127 10.8817 6.09644 10.834 6.14256L9.18747 7.78906L10.834 9.43556C10.925 9.52986 10.9754 9.65616 10.9743 9.78726C10.9732 9.91836 10.9206 10.0438 10.8279 10.1365C10.7352 10.2292 10.6098 10.2818 10.4787 10.2829C10.3476 10.284 10.2213 10.2336 10.127 10.1426L8.48047 8.49606L6.83397 10.1426C6.7402 10.2363 6.61305 10.289 6.48047 10.289C6.34789 10.289 6.22073 10.2363 6.12697 10.1426Z" fill="#B3B3B4"/>
</svg>
