<svg width="22" height="14" viewBox="0 0 22 14" xmlns="http://www.w3.org/2000/svg" id="nfc">
<path d="M19.6728 0H2.32721C1.044 0 0 1.03457 0 2.30618V11.6938C0 12.9654 1.044 14 2.32721 14H19.6728C20.956 14 22 12.9654 22 11.6938L21.9998 2.30618C21.9998 1.03457 20.9558 0 19.6726 0H19.6728ZM20.6183 11.6939C20.6183 12.2105 20.1942 12.6308 19.6728 12.6308H2.32721C1.80582 12.6308 1.38174 12.2105 1.38174 11.6939V2.30622C1.38174 1.78954 1.80582 1.3693 2.32721 1.3693H19.6728C20.1942 1.3693 20.6183 1.78954 20.6183 2.30622V11.6939Z"/>
<path d="M7.87509 5.49464V3.72927C7.87509 3.07168 7.33519 2.53684 6.67179 2.53684H3.67006C3.00647 2.53684 2.46676 3.07187 2.46676 3.72927V5.49464C2.46676 6.15223 3.00667 6.68722 3.67006 6.68722H6.67164C7.33523 6.68722 7.87509 6.15219 7.87509 5.49464ZM6.49335 5.31798H3.84846V3.90608H6.49335V5.31798Z"/>
<path d="M5.40257 9.75342H3.1574C2.77587 9.75342 2.46653 10.06 2.46653 10.4381C2.46653 10.8161 2.77587 11.1227 3.1574 11.1227H5.40257C5.78409 11.1227 6.09344 10.8161 6.09344 10.4381C6.09344 10.0598 5.78409 9.75342 5.40257 9.75342Z"/>
<path d="M9.31329 9.75342H7.95219C7.57067 9.75342 7.26132 10.06 7.26132 10.4381C7.26132 10.8161 7.57067 11.1227 7.95219 11.1227H9.31329C9.69481 11.1227 10.0042 10.8161 10.0042 10.4381C10.0042 10.0598 9.69481 9.75342 9.31329 9.75342Z"/>
<path d="M14.1541 6.71797C13.8842 6.98525 13.8842 7.4188 14.1541 7.68623C14.4238 7.95351 14.8613 7.95351 15.1312 7.68623C15.4563 7.36409 15.9856 7.36394 16.3108 7.68623C16.4457 7.81995 16.6224 7.88673 16.7993 7.88673C16.9762 7.88673 17.1529 7.8198 17.2879 7.68623C17.5577 7.41895 17.5577 6.98541 17.2879 6.71797C16.4238 5.86203 15.018 5.86187 14.1541 6.71797Z"/>
<path d="M13.3239 5.07134C13.0542 5.33862 13.054 5.77217 13.3239 6.0396C13.5936 6.30703 14.0311 6.30703 14.301 6.0396C15.0838 5.2639 16.3576 5.26405 17.1402 6.0396C17.2751 6.17332 17.4518 6.2401 17.6287 6.2401C17.8056 6.2401 17.9823 6.17317 18.1173 6.0396C18.3871 5.77232 18.3871 5.33878 18.1173 5.07134C16.7957 3.76182 14.6455 3.76182 13.3238 5.07134H13.3239Z"/>
<path d="M15.7206 8.14709C15.3275 8.14709 15.0088 8.46296 15.0088 8.85249C15.0088 9.24202 15.3275 9.55789 15.7206 9.55789C16.1137 9.55789 16.4325 9.24202 16.4325 8.85249C16.4323 8.46296 16.1137 8.14709 15.7206 8.14709Z"/>
</svg>
