<svg width="25" height="28" viewBox="0 0 25 28" fill="none" xmlns="http://www.w3.org/2000/svg" id="no-user">
<path fill-rule="evenodd" clip-rule="evenodd" d="M20.8063 8.37546C20.8063 11.1198 19.4916 13.5674 17.4533 15.0975C18.8883 15.7236 20.2071 16.6214 21.3322 17.7576C21.3967 17.8227 21.4605 17.8885 21.5234 17.9549H17.1685C15.7449 17.1712 14.1389 16.7509 12.4917 16.7509C9.90305 16.7509 7.4161 17.7891 5.57911 19.6442C3.74138 21.5001 2.70522 24.0217 2.70522 26.6553C2.70522 27.398 2.09963 28 1.35261 28C0.605583 28 0 27.398 0 26.6553C0 23.322 1.311 20.121 3.65125 17.7576C4.77635 16.6214 6.09516 15.7236 7.53015 15.0975C5.49181 13.5674 4.17717 11.1198 4.17717 8.37546C4.17717 3.76985 7.87973 0 12.4917 0C17.1037 0 20.8063 3.76985 20.8063 8.37546ZM6.88239 8.37546C6.88239 5.21506 9.41376 2.68931 12.4917 2.68931C15.5697 2.68931 18.1011 5.21506 18.1011 8.37546C18.1011 11.5359 15.5697 14.0616 12.4917 14.0616C9.41376 14.0616 6.88239 11.5359 6.88239 8.37546Z" fill="#F8F8F8"/>
<path d="M18.1385 20.2437C17.5232 20.4179 17.0944 21.1333 17.2156 21.7753C17.2622 22.0412 17.4859 22.3164 18.2504 23.0776L19.22 24.0497L18.2877 24.9577C17.2995 25.9206 17.1037 26.26 17.2156 26.8011C17.2902 27.2321 17.7563 27.7274 18.1851 27.8466C18.8004 28.0117 19.1454 27.8374 20.1988 26.8286L21.1404 25.9298L21.9795 26.7552C22.9304 27.6998 23.2101 27.8741 23.7601 27.8649C24.4779 27.8558 25 27.3055 25 26.5443C25 26.049 24.8975 25.8931 23.872 24.866L23.0422 24.0406L23.7508 23.3527C24.7763 22.3622 25 22.0321 25 21.546C25 20.8857 24.6364 20.3904 24.0491 20.2345C23.4152 20.0603 23.0982 20.2253 22.0634 21.2433L21.1404 22.1605L20.1988 21.2525C19.509 20.5738 19.1733 20.3171 18.8937 20.2437C18.6886 20.1887 18.5021 20.1428 18.4741 20.152C18.4462 20.152 18.297 20.1978 18.1385 20.2437Z" fill="#F8F8F8"/>
</svg>
