<svg width="21" height="20" viewBox="0 0 21 20" fill="none" xmlns="http://www.w3.org/2000/svg">
<path d="M15.124 6.98349C14.9943 6.81124 14.8062 6.7013 14.6011 6.67788C14.3959 6.65446 14.1904 6.71946 14.0299 6.85859C13.8694 6.99772 13.767 7.19958 13.7452 7.41977C13.7233 7.63995 13.7839 7.86042 13.9135 8.03268C14.3056 8.60466 14.517 9.29611 14.517 10.0061C14.517 10.7162 14.3056 11.4076 13.9135 11.9796C13.821 12.102 13.7628 12.25 13.7456 12.4065C13.7283 12.563 13.7528 12.7215 13.8162 12.8636C13.8796 13.0058 13.9792 13.1257 14.1036 13.2095C14.228 13.2932 14.3719 13.3374 14.5188 13.3369C14.6347 13.3373 14.7492 13.3099 14.8539 13.2565C14.9587 13.2032 15.0509 13.1254 15.124 13.0288C15.7394 12.1595 16.0726 11.0979 16.0726 10.0061C16.0726 8.91442 15.7394 7.85275 15.124 6.98349Z" fill="#F8F8F8"/>
<path d="M16.1797 4.36853C16.1013 4.29854 16.0107 4.24583 15.9133 4.21339C15.8158 4.18096 15.7134 4.16944 15.6118 4.17949C15.5102 4.18954 15.4115 4.22097 15.3212 4.27198C15.2309 4.32299 15.1509 4.39258 15.0857 4.47678C15.0205 4.56098 14.9713 4.65814 14.9411 4.76271C14.9109 4.86728 14.9002 4.97722 14.9095 5.08624C14.9189 5.19526 14.9482 5.30124 14.9957 5.39812C15.0432 5.495 15.1081 5.58088 15.1865 5.65087C15.8088 6.16702 16.3158 6.82596 16.6702 7.57946C17.0246 8.33296 17.2176 9.16197 17.235 10.0058C17.2176 10.8497 17.0246 11.6787 16.6702 12.4322C16.3158 13.1857 15.8088 13.8446 15.1865 14.3608C15.108 14.4307 15.043 14.5165 14.9954 14.6134C14.9478 14.7103 14.9185 14.8163 14.9091 14.9254C14.8997 15.0344 14.9105 15.1444 14.9408 15.249C14.9711 15.3536 15.0203 15.4507 15.0857 15.5349C15.1586 15.6289 15.25 15.7044 15.3532 15.7563C15.4565 15.8081 15.5691 15.8348 15.6831 15.8346C15.8644 15.835 16.0401 15.7672 16.1797 15.6431C16.9792 14.9723 17.6285 14.1177 18.0797 13.1421C18.5308 12.1665 18.7725 11.0948 18.7868 10.0058C18.7725 8.91681 18.5308 7.84509 18.0797 6.86951C17.6285 5.89394 16.9792 5.03932 16.1797 4.36853ZM12.5795 2.61156C12.4615 2.53848 12.3277 2.5 12.1915 2.5C12.0553 2.5 11.9215 2.53848 11.8035 2.61156L6.83002 6.27692C6.79464 6.30299 6.7522 6.31702 6.70868 6.31702H2.89603C2.69025 6.31702 2.49289 6.40474 2.34738 6.5609C2.20187 6.71706 2.12012 6.92886 2.12012 7.1497V12.8619C2.12012 13.0828 2.20187 13.2946 2.34738 13.4507C2.49289 13.6069 2.69025 13.6946 2.89603 13.6946H6.7087C6.75221 13.6946 6.79463 13.7086 6.83001 13.7347L11.7492 17.3584C11.881 17.45 12.0345 17.4991 12.1915 17.5C12.3973 17.5 12.5946 17.4123 12.7402 17.2561C12.8857 17.1 12.9674 16.8882 12.9674 16.6673V3.34432C12.9693 3.19619 12.9344 3.05019 12.8662 2.92138C12.798 2.79257 12.699 2.68562 12.5795 2.61156ZM11.4379 14.6837C11.4383 14.8583 11.2464 14.9601 11.1083 14.8584L7.45842 12.1708C7.32778 12.0766 7.17354 12.0272 7.01615 12.0292H3.86476C3.7497 12.0292 3.65643 11.9333 3.65643 11.815V8.19667C3.65643 8.07833 3.7497 7.98239 3.86476 7.98239H7.01615C7.17354 7.98444 7.32778 7.93507 7.45842 7.84083L11.0869 5.16849C11.2246 5.06709 11.4161 5.16804 11.4165 5.34221L11.4379 14.6837Z" fill="#F8F8F8"/>
</svg>
