<svg width="24" height="12" viewBox="0 0 24 12" fill="none" xmlns="http://www.w3.org/2000/svg">
<path fill-rule="evenodd" clip-rule="evenodd" d="M2.5 0H21.5C22.8807 0 24 1.16795 24 2.6087V9.3913C24 10.832 22.8807 12 21.5 12H2.5C1.11929 12 0 10.832 0 9.3913V2.6087C0 1.16795 1.11929 0 2.5 0ZM2.5 1C1.67157 1 1 1.70692 1 2.57895V9.42105C1 10.2931 1.67157 11 2.5 11H21.5C22.3284 11 23 10.2931 23 9.42105V2.57895C23 1.70692 22.3284 1 21.5 1H2.5Z" fill="#E66458"/>
<path d="M7.9216 5.05C7.7416 4.70333 7.4916 4.44333 7.1716 4.27C6.8516 4.09 6.4816 4 6.0616 4C5.6016 4 5.1916 4.10333 4.8316 4.31C4.4716 4.51667 4.18827 4.81 3.9816 5.19C3.7816 5.57 3.6816 6.01 3.6816 6.51C3.6816 7.01 3.7816 7.45333 3.9816 7.84C4.18827 8.22 4.4716 8.51333 4.8316 8.72C5.1916 8.92667 5.6016 9.03 6.0616 9.03C6.6816 9.03 7.18494 8.85667 7.5716 8.51C7.95827 8.16333 8.19494 7.69333 8.2816 7.1H5.6716V6.19H9.5016V7.08C9.42827 7.62 9.23494 8.11667 8.9216 8.57C8.61494 9.02333 8.2116 9.38667 7.7116 9.66C7.21827 9.92667 6.66827 10.06 6.0616 10.06C5.40827 10.06 4.8116 9.91 4.2716 9.61C3.7316 9.30333 3.3016 8.88 2.9816 8.34C2.66827 7.8 2.5116 7.19 2.5116 6.51C2.5116 5.83 2.66827 5.22 2.9816 4.68C3.3016 4.14 3.7316 3.72 4.2716 3.42C4.81827 3.11333 5.41494 2.96 6.0616 2.96C6.8016 2.96 7.45827 3.14333 8.0316 3.51C8.6116 3.87 9.0316 4.38333 9.2916 5.05H7.9216ZM15.486 5.12C15.486 5.47333 15.4026 5.80667 15.236 6.12C15.0693 6.43333 14.8026 6.69 14.436 6.89C14.0693 7.08333 13.5993 7.18 13.026 7.18H11.766V10H10.626V3.05H13.026C13.5593 3.05 14.0093 3.14333 14.376 3.33C14.7493 3.51 15.026 3.75667 15.206 4.07C15.3926 4.38333 15.486 4.73333 15.486 5.12ZM13.026 6.25C13.4593 6.25 13.7826 6.15333 13.996 5.96C14.2093 5.76 14.316 5.48 14.316 5.12C14.316 4.36 13.886 3.98 13.026 3.98H11.766V6.25H13.026ZM18.8632 10.07C18.3966 10.07 17.9766 9.99 17.6032 9.83C17.2299 9.66333 16.9366 9.43 16.7232 9.13C16.5099 8.83 16.4032 8.48 16.4032 8.08H17.6232C17.6499 8.38 17.7666 8.62667 17.9732 8.82C18.1866 9.01333 18.4832 9.11 18.8632 9.11C19.2566 9.11 19.5632 9.01667 19.7832 8.83C20.0032 8.63667 20.1132 8.39 20.1132 8.09C20.1132 7.85667 20.0432 7.66667 19.9032 7.52C19.7699 7.37333 19.5999 7.26 19.3932 7.18C19.1932 7.1 18.9132 7.01333 18.5532 6.92C18.0999 6.8 17.7299 6.68 17.4432 6.56C17.1632 6.43333 16.9232 6.24 16.7232 5.98C16.5232 5.72 16.4232 5.37333 16.4232 4.94C16.4232 4.54 16.5232 4.19 16.7232 3.89C16.9232 3.59 17.2032 3.36 17.5632 3.2C17.9232 3.04 18.3399 2.96 18.8132 2.96C19.4866 2.96 20.0366 3.13 20.4632 3.47C20.8966 3.80333 21.1366 4.26333 21.1832 4.85H19.9232C19.9032 4.59667 19.7832 4.38 19.5632 4.2C19.3432 4.02 19.0532 3.93 18.6932 3.93C18.3666 3.93 18.0999 4.01333 17.8932 4.18C17.6866 4.34667 17.5832 4.58667 17.5832 4.9C17.5832 5.11333 17.6466 5.29 17.7732 5.43C17.9066 5.56333 18.0732 5.67 18.2732 5.75C18.4732 5.83 18.7466 5.91667 19.0932 6.01C19.5532 6.13667 19.9266 6.26333 20.2132 6.39C20.5066 6.51667 20.7532 6.71333 20.9532 6.98C21.1599 7.24 21.2632 7.59 21.2632 8.03C21.2632 8.38333 21.1666 8.71667 20.9732 9.03C20.7866 9.34333 20.5099 9.59667 20.1432 9.79C19.7832 9.97667 19.3566 10.07 18.8632 10.07Z" fill="#E95554"/>
</svg>
