<svg width="24" height="24" viewBox="0 0 24 24" fill="none" xmlns="http://www.w3.org/2000/svg">
<path d="M14.5438 17.5385V18.2308C14.5438 18.9652 14.2758 19.6696 13.7989 20.1889C13.3219 20.7082 12.675 21 12.0005 21C11.326 21 10.6791 20.7082 10.2021 20.1889C9.72513 19.6696 9.45718 18.9652 9.45718 18.2308V17.5385M18.8229 16.1292C17.8024 14.7692 17.0819 14.0769 17.0819 10.3276C17.0819 6.89423 15.4717 5.67101 14.1464 5.07692C13.9703 4.99817 13.8046 4.81731 13.751 4.62043C13.5185 3.75894 12.8668 3 12.0005 3C11.1342 3 10.482 3.75938 10.252 4.6213C10.1983 4.82034 10.0326 4.99817 9.85655 5.07692C8.52967 5.67188 6.92103 6.89077 6.92103 10.3276C6.91904 14.0769 6.19858 14.7692 5.17808 16.1292C4.75525 16.6925 5.12562 17.5385 5.86517 17.5385H18.1398C18.8753 17.5385 19.2433 16.69 18.8229 16.1292Z" stroke="#F8F8F8" stroke-width="1.7" stroke-linecap="round" stroke-linejoin="round"/>
</svg>
