<svg width="24" height="24" viewBox="0 0 24 24" fill="none" xmlns="http://www.w3.org/2000/svg">
<path d="M14.0419 8.95145V15.0485H16.6239C16.9432 15.0485 17.1135 15.3776 16.9149 15.5938L12.2966 20.8712C12.1695 21.0165 11.9327 21.0428 11.7696 20.93C10.3984 19.7125 8.37704 17.0706 7.07951 15.5876C6.88648 15.3669 7.06803 15.0478 7.37612 15.0495L9.95838 15.0485V8.95145H7.37612C7.05681 8.95145 6.88648 8.62243 7.08511 8.40624L11.7034 3.12882C11.8305 2.98351 12.0673 2.95719 12.2304 3.07003C13.6016 4.28751 15.623 6.92942 16.9205 8.4124C17.1135 8.63309 16.9314 8.95216 16.6239 8.9505L14.0419 8.95145Z" fill="#040404" stroke="#F8F8F8"/>
</svg>
