<svg width="24" height="24" viewBox="0 0 24 24" fill="none" xmlns="http://www.w3.org/2000/svg">
<path d="M15.0485 14.0419H8.95145V16.6239C8.95145 16.9432 8.62243 17.1135 8.40624 16.9149L3.12882 12.2966C2.98351 12.1695 2.95719 11.9327 3.07003 11.7696C4.28751 10.3984 6.92942 8.37704 8.4124 7.07951C8.6331 6.88648 8.95216 7.06803 8.9505 7.37612L8.95145 9.95838H15.0485V7.37612C15.0485 7.05681 15.3776 6.88648 15.5938 7.08511L20.8712 11.7034C21.0165 11.8305 21.0428 12.0673 20.93 12.2304C19.7125 13.6016 17.0706 15.623 15.5876 16.9205C15.3669 17.1135 15.0478 16.9314 15.0495 16.6239L15.0485 14.0419Z" fill="#040404" stroke="#F8F8F8"/>
</svg>
