<svg width="28" height="28" viewBox="0 0 28 28" fill="none" xmlns="http://www.w3.org/2000/svg">
<path d="M25.4999 23.1937C24.9831 23.1944 24.4792 23.3487 24.0572 23.6355C23.6353 23.9224 23.3159 24.3276 23.143 24.7958H16.6111C16.0954 24.7958 15.6008 24.5988 15.2362 24.2483C14.8715 23.8978 14.6667 23.4224 14.6667 22.9266C14.6667 22.4309 14.8715 21.9555 15.2362 21.605C15.6008 21.2544 16.0954 21.0575 16.6111 21.0575H23.2777C24.0881 21.0575 24.8653 20.7481 25.4383 20.1972C26.0113 19.6464 26.3333 18.8993 26.3333 18.1203C26.3333 17.3413 26.0113 16.5942 25.4383 16.0434C24.8653 15.4926 24.0881 15.1831 23.2777 15.1831H16.6111C16.3901 15.1831 16.1781 15.2675 16.0218 15.4177C15.8656 15.5679 15.7778 15.7717 15.7778 15.9842C15.7778 16.1966 15.8656 16.4004 16.0218 16.5506C16.1781 16.7008 16.3901 16.7852 16.6111 16.7852H23.2777C23.6461 16.7852 23.9993 16.9259 24.2598 17.1763C24.5203 17.4266 24.6666 17.7662 24.6666 18.1203C24.6666 18.4744 24.5203 18.814 24.2598 19.0644C23.9993 19.3147 23.6461 19.4554 23.2777 19.4554H16.6111C15.6534 19.4554 14.7349 19.8211 14.0577 20.4721C13.3805 21.1231 13 22.006 13 22.9266C13 23.8473 13.3805 24.7302 14.0577 25.3812C14.7349 26.0322 15.6534 26.3979 16.6111 26.3979H23.143C23.2958 26.8133 23.5644 27.1803 23.9195 27.4588C24.2746 27.7374 24.7026 27.9167 25.1566 27.9772C25.6106 28.0377 26.0731 27.9771 26.4937 27.802C26.9143 27.6269 27.2767 27.344 27.5413 26.9843C27.8059 26.6245 27.9625 26.2018 27.9941 25.7623C28.0256 25.3227 27.9309 24.8833 27.7202 24.492C27.5095 24.1008 27.1909 23.7727 26.7993 23.5437C26.4078 23.3148 25.9583 23.1936 25.4999 23.1937ZM25.4999 26.3979C25.3351 26.3979 25.174 26.3509 25.037 26.2629C24.8999 26.1749 24.7931 26.0498 24.73 25.9034C24.667 25.757 24.6505 25.5959 24.6826 25.4406C24.7148 25.2852 24.7941 25.1424 24.9107 25.0304C25.0272 24.9184 25.1757 24.8421 25.3374 24.8112C25.499 24.7803 25.6666 24.7961 25.8188 24.8568C25.9711 24.9174 26.1013 25.0201 26.1928 25.1518C26.2844 25.2835 26.3333 25.4384 26.3333 25.5968C26.3333 25.8093 26.2455 26.013 26.0892 26.1633C25.9329 26.3135 25.7209 26.3979 25.4999 26.3979Z" fill="#B3B3B4"/>
<path d="M11.4869 14.0473C11.1719 14.1359 10.9523 14.4999 11.0144 14.8266C11.0382 14.9619 11.1528 15.1019 11.5442 15.4893L12.0406 15.9839L11.5633 16.4459C11.0573 16.9359 10.9571 17.1086 11.0144 17.3839C11.0526 17.6033 11.2912 17.8553 11.5108 17.9159C11.8258 17.9999 12.0024 17.9113 12.5418 17.3979L13.0239 16.9406L13.4535 17.3606C13.9404 17.8413 14.0835 17.9299 14.3652 17.9253C14.7327 17.9206 15 17.6406 15 17.2533C15 17.0013 14.9475 16.9219 14.4224 16.3993L13.9976 15.9793L14.3604 15.6293C14.8854 15.1253 15 14.9573 15 14.7099C15 14.3739 14.8138 14.1219 14.5131 14.0426C14.1886 13.9539 14.0263 14.0379 13.4964 14.5559L13.0239 15.0226L12.5418 14.5606C12.1886 14.2153 12.0168 14.0846 11.8736 14.0473C11.7685 14.0193 11.6731 13.9959 11.6588 14.0006C11.6444 14.0006 11.5681 14.0239 11.4869 14.0473Z" fill="#B3B3B4"/>
<path d="M6.5 2C8.88333 2 10.8333 3.8 10.8333 6C10.8333 7.97039 8.83049 11.0853 6.883 13.4447C6.6853 13.6843 6.31913 13.6806 6.12489 13.4383C4.17493 11.0054 2.16667 7.97305 2.16667 6C2.16667 3.8 4.11667 2 6.5 2ZM6.5 0C2.925 0 0 2.7 0 6C0 9.87014 4.80776 15.2196 6.15362 16.6413C6.34449 16.8429 6.65433 16.8418 6.84388 16.6389C8.18628 15.2022 13 9.78649 13 6C13 2.7 10.075 0 6.5 0ZM6.5 4C5.30833 4 4.33333 4.9 4.33333 6C4.33333 7.1 5.30833 8 6.5 8C7.69167 8 8.66667 7.1 8.66667 6C8.66667 4.9 7.69167 4 6.5 4Z" fill="#B3B3B4"/>
</svg>
