<svg width="24" height="28" viewBox="0 0 24 28" fill="none" xmlns="http://www.w3.org/2000/svg">
<path d="M16.1884 8.16377C16.4321 8.41853 16.7424 8.54591 17.1191 8.54591C17.4958 8.54591 17.8061 8.41853 18.0499 8.16377L19.9114 6.21836L21.7729 8.16377C22.0166 8.41853 22.3269 8.54591 22.7036 8.54591C23.0803 8.54591 23.3906 8.41853 23.6343 8.16377C23.8781 7.90902 24 7.58478 24 7.19107C24 6.79735 23.8781 6.47312 23.6343 6.21836L21.7729 4.27295L23.6343 2.32754C23.8781 2.07279 24 1.74855 24 1.35484C24 0.961125 23.8781 0.63689 23.6343 0.382134C23.3906 0.127378 23.0803 0 22.7036 0C22.3269 0 22.0166 0.127378 21.7729 0.382134L19.9114 2.32754L18.0499 0.382134C17.8061 0.127378 17.4958 0 17.1191 0C16.7424 0 16.4321 0.127378 16.1884 0.382134C15.9446 0.63689 15.8227 0.961125 15.8227 1.35484C15.8227 1.74855 15.9446 2.07279 16.1884 2.32754L18.0499 4.27295L16.1884 6.21836C15.9446 6.47312 15.8227 6.79735 15.8227 7.19107C15.8227 7.58478 15.9446 7.90902 16.1884 8.16377ZM10.6371 14.6253C11.3684 14.6253 11.9947 14.353 12.5159 13.8082C13.0371 13.2635 13.2973 12.6095 13.2964 11.8462C13.2964 11.0819 13.0358 10.4274 12.5146 9.88268C11.9934 9.33797 11.3675 9.06607 10.6371 9.067C9.90582 9.067 9.27956 9.33936 8.75834 9.88407C8.23712 10.4288 7.97695 11.0828 7.97784 11.8462C7.97784 12.6104 8.23845 13.2649 8.75967 13.8096C9.28089 14.3543 9.9067 14.6262 10.6371 14.6253ZM10.6371 28C10.4598 28 10.2825 27.9653 10.1053 27.8958C9.92798 27.8263 9.77285 27.7337 9.63989 27.6179C6.40443 24.6303 3.98892 21.8567 2.39335 19.2971C0.797784 16.7375 0 14.3465 0 12.1241C0 8.65012 1.06947 5.88255 3.20842 3.82134C5.34737 1.76013 7.8236 0.729528 10.6371 0.729528C10.8587 0.729528 11.0803 0.73555 11.3019 0.747593C11.5235 0.759636 11.7452 0.776774 11.9668 0.799007V3.6129C11.7452 3.56658 11.5289 3.5374 11.3179 3.52536C11.1069 3.51332 10.88 3.50776 10.6371 3.50869C8.39889 3.50869 6.50947 4.31371 4.96886 5.92377C3.42826 7.53383 2.65839 9.6006 2.65928 12.1241C2.65928 13.7684 3.31302 15.6504 4.6205 17.7699C5.92798 19.8895 7.93352 22.2458 10.6371 24.8387C13.3407 22.2448 15.3463 19.8881 16.6537 17.7685C17.9612 15.649 18.615 13.7675 18.615 12.1241V11.8462H21.2742V12.1241C21.2742 14.3474 20.4765 16.7389 18.8809 19.2985C17.2853 21.8581 14.8698 24.6312 11.6343 27.6179C11.5014 27.7337 11.3463 27.8263 11.169 27.8958C10.9917 27.9653 10.8144 28 10.6371 28Z" fill="#B3B3B4"/>
</svg>
