<svg width="30" height="29" viewBox="0 0 30 29" fill="none" xmlns="http://www.w3.org/2000/svg">
<path d="M14.8047 24.781H14.82M10.4719 20.2957C11.6211 19.1063 13.1796 18.4382 14.8047 18.4382C16.4297 18.4382 17.9883 19.1063 19.1375 20.2957M6.13751 15.8087C7.76221 14.122 9.81454 12.9454 12.0576 12.4145M18.4358 12.6604C20.3397 13.2758 22.0688 14.365 23.4719 15.8325M1.80469 11.3233C3.37271 9.69672 5.21234 8.37751 7.2345 7.42957M11.9856 5.97039C14.8431 5.51171 17.7649 5.75725 20.5135 6.68708C23.2622 7.6169 25.7602 9.20479 27.8047 11.3218M2.0006 1.5L26.6239 27.5" stroke="#B3B3B4" stroke-width="2.8" stroke-linecap="round" stroke-linejoin="round"/>
</svg>
