<svg width="32" height="32" viewBox="0 0 32 32" fill="none" xmlns="http://www.w3.org/2000/svg">
<path fill-rule="evenodd" clip-rule="evenodd" d="M23.8063 10.3755C23.8063 13.1198 22.4916 15.5674 20.4533 17.0975C21.8883 17.7236 23.2071 18.6214 24.3322 19.7576C24.3967 19.8227 24.4605 19.8885 24.5234 19.9549H20.1685C18.7449 19.1712 17.1389 18.7509 15.4917 18.7509C12.9031 18.7509 10.4161 19.7891 8.57911 21.6442C6.74138 23.5001 5.70522 26.0217 5.70522 28.6553C5.70522 29.398 5.09963 30 4.35261 30C3.60558 30 3 29.398 3 28.6553C3 25.322 4.311 22.121 6.65125 19.7576C7.77635 18.6214 9.09516 17.7236 10.5302 17.0975C8.49181 15.5674 7.17717 13.1198 7.17717 10.3755C7.17717 5.76985 10.8797 2 15.4917 2C20.1037 2 23.8063 5.76985 23.8063 10.3755ZM9.88239 10.3755C9.88239 7.21506 12.4138 4.68931 15.4917 4.68931C18.5697 4.68931 21.1011 7.21506 21.1011 10.3755C21.1011 13.5359 18.5697 16.0616 15.4917 16.0616C12.4138 16.0616 9.88239 13.5359 9.88239 10.3755Z" fill="#B3B3B4"/>
<path d="M19 25.9999C19 25.3272 19.4418 24.7819 19.9868 24.7819H27.6295L26.9829 23.9919C26.5 23.5001 26.42 22.7907 26.793 22.335C27.16 21.8866 28 22.0001 28.3087 22.335L30.7745 25.3347C31.0752 25.7005 31.0752 26.2993 30.7745 26.6651L28.3087 29.6648C28 30.0002 27.1635 30.1133 26.7964 29.6649C26.4234 29.2092 26.5 28.5002 26.9829 28.0079L27.6295 27.2179H19.9868C19.4418 27.2179 19 26.6726 19 25.9999Z" fill="#B3B3B4"/>
</svg>
