<svg width="30" height="26" viewBox="0 0 30 26" fill="none" xmlns="http://www.w3.org/2000/svg">
<path d="M14.9967 9.99997V15.3333M14.9967 19.3333H15.0101M12.8141 2.78797L2.00606 20.8333C1.78325 21.2191 1.66535 21.6566 1.66407 22.1022C1.6628 22.5477 1.77819 22.9858 1.99879 23.3729C2.21938 23.7601 2.53748 24.0827 2.92145 24.3087C3.30541 24.5347 3.74187 24.6563 4.18739 24.6613H25.8061C26.2514 24.6562 26.6876 24.5346 27.0714 24.3086C27.4552 24.0827 27.7732 23.7602 27.9937 23.3733C28.2143 22.9864 28.3297 22.5485 28.3286 22.1031C28.3275 21.6578 28.2099 21.2204 27.9874 20.8346L17.1794 2.78663C16.952 2.41131 16.6317 2.10096 16.2493 1.88556C15.867 1.67017 15.4356 1.55701 14.9967 1.55701C14.5579 1.55701 14.1265 1.67017 13.7441 1.88556C13.3618 2.10096 13.0415 2.41131 12.8141 2.78663V2.78797Z" stroke="#B3B3B4" stroke-width="2.5" stroke-linecap="round" stroke-linejoin="round"/>
</svg>
