<svg width="28" height="28" viewBox="0 0 28 28" fill="none" xmlns="http://www.w3.org/2000/svg">
<path d="M6.5 2C8.88333 2 10.8333 3.8 10.8333 6C10.8333 7.97039 8.83049 11.0853 6.883 13.4447C6.6853 13.6843 6.31913 13.6806 6.12489 13.4383C4.17493 11.0054 2.16667 7.97305 2.16667 6C2.16667 3.8 4.11667 2 6.5 2ZM6.5 0C2.925 0 0 2.7 0 6C0 9.87014 4.80776 15.2196 6.15362 16.6413C6.34449 16.8429 6.65433 16.8418 6.84388 16.6389C8.18628 15.2022 13 9.78649 13 6C13 2.7 10.075 0 6.5 0ZM6.5 4C5.30833 4 4.33333 4.9 4.33333 6C4.33333 7.1 5.30833 8 6.5 8C7.69167 8 8.66667 7.1 8.66667 6C8.66667 4.9 7.69167 4 6.5 4Z" fill="#B3B3B4"/>
<path d="M23 26.1429C23 25.6695 22.6162 25.2857 22.1429 25.2857H12.595C12.0816 25.2857 11.5893 25.075 11.2262 24.6999C10.8632 24.3249 10.6593 23.8161 10.6593 23.2857C10.6593 22.7553 10.8632 22.2466 11.2262 21.8715C11.5893 21.4964 12.0816 21.2857 12.595 21.2857H19.232C20.0388 21.2857 20.8126 20.9546 21.383 20.3652C21.9535 19.7758 22.274 18.9764 22.274 18.1429C22.274 17.3093 21.9535 16.5099 21.383 15.9205C20.8126 15.3311 20.0388 15 19.232 15H12.595C12.375 15 12.164 15.0903 12.0084 15.2511C11.8528 15.4118 11.7654 15.6298 11.7654 15.8571C11.7654 16.0845 11.8528 16.3025 12.0084 16.4632C12.164 16.624 12.375 16.7143 12.595 16.7143H19.232C19.5988 16.7143 19.9505 16.8648 20.2098 17.1327C20.4691 17.4006 20.6148 17.764 20.6148 18.1429C20.6148 18.5217 20.4691 18.8851 20.2098 19.153C19.9505 19.4209 19.5988 19.5714 19.232 19.5714H12.595C11.6416 19.5714 10.7272 19.9628 10.053 20.6593C9.37876 21.3559 9 22.3006 9 23.2857C9 24.2708 9.37876 25.2155 10.053 25.9121C10.7272 26.6087 11.6416 27 12.595 27H22.1429C22.6162 27 23 26.6162 23 26.1429Z" fill="#B3B3B4"/>
<path d="M24.4869 24.0479C24.1719 24.1379 23.9523 24.5071 24.0144 24.8384C24.0382 24.9757 24.1528 25.1177 24.5442 25.5105L25.0406 26.0123L24.5633 26.4809C24.0573 26.9779 23.9571 27.153 24.0144 27.4323C24.0526 27.6547 24.2912 27.9103 24.5108 27.9719C24.8258 28.0571 25.0024 27.9671 25.5418 27.4465L26.0239 26.9826L26.4535 27.4086C26.9403 27.8961 27.0835 27.9861 27.3652 27.9813C27.7327 27.9766 28 27.6926 28 27.2997C28 27.0441 27.9475 26.9637 27.4224 26.4335L26.9976 26.0075L27.3604 25.6525C27.8854 25.1413 28 24.9709 28 24.7201C28 24.3793 27.8138 24.1237 27.5131 24.0432C27.1886 23.9533 27.0263 24.0385 26.4964 24.5639L26.0239 25.0372L25.5418 24.5686C25.1886 24.2183 25.0168 24.0858 24.8736 24.0479C24.7685 24.0195 24.6731 23.9959 24.6588 24.0006C24.6444 24.0006 24.5681 24.0243 24.4869 24.0479Z" fill="#B3B3B4"/>
</svg>
