<svg width="28" height="18" viewBox="0 0 28 18" fill="none" xmlns="http://www.w3.org/2000/svg">
<path d="M14.0002 0C13.8902 0 13.7911 0.0213791 13.6693 0.0638693L5.50132 3.00936C5.34697 3.06254 5.20391 3.15848 5.10459 3.28595L0.19917 9.16517C-0.098241 9.51605 -0.0544958 10.0796 0.276483 10.3878L4.17882 13.9495C4.0905 14.0555 4.02447 14.1729 3.95844 14.3003C3.74907 14.7252 3.73752 15.2995 3.94744 15.7354C4.38846 16.5863 5.21521 16.8944 6.18505 17.1812C8.12551 17.7659 11.0024 18 14.0001 18C16.9874 18 19.8754 17.7664 21.8152 17.1812C22.7851 16.8942 23.6121 16.5858 24.0528 15.7354C24.2622 15.2996 24.2512 14.7252 24.0421 14.3003C23.9758 14.1729 23.9095 14.0555 23.8212 13.9495L27.7235 10.3878C28.0545 10.0794 28.0982 9.51633 27.8008 9.16517L22.8951 3.28547C22.7961 3.158 22.653 3.06207 22.4984 3.00888C22.4984 3.00888 17.0526 1.04148 14.3305 0.0633902C14.1978 0.0211668 14.0985 5.53261e-05 13.9995 5.53261e-05L14.0002 0ZM14.0002 1.86075L21.6061 4.61462L25.8169 9.64347L22.3776 12.8011C20.3606 11.5039 17.4064 10.7383 13.9997 10.7383C10.6047 10.7383 7.63942 11.5037 5.62191 12.8011L2.18259 9.64347L6.38236 4.61434L14.0002 1.86075ZM14.0002 3.14724C13.9119 3.14724 13.8239 3.15793 13.7356 3.18973L10.7923 4.02936C10.3736 4.14613 10.0762 4.58226 10.1309 5.00745C10.3073 6.33697 10.704 7.51681 11.3326 8.43128C11.9494 9.33507 12.8651 10.0366 13.9999 10.0366C15.1244 10.0366 16.0394 9.33507 16.6678 8.43128C17.2962 7.51681 17.6929 6.33697 17.8693 5.00745C17.9246 4.58254 17.6272 4.15681 17.2079 4.02936L14.2646 3.18973C14.1879 3.15793 14.0993 3.14724 14.0002 3.14724ZM14.0002 4.9861L15.8521 5.51789C15.6757 6.29396 15.4221 6.98527 15.1137 7.44226C14.6944 8.04836 14.298 8.25014 14.0002 8.25014C13.6918 8.25014 13.2951 8.04812 12.8868 7.44226C12.5787 6.98529 12.3247 6.29424 12.1484 5.51789L14.0002 4.9861ZM14.0002 12.5997C17.4176 12.5997 20.4602 13.5142 22.3999 14.9386C21.3861 15.7465 17.2521 16.2039 14.0002 16.2039C10.7376 16.2039 6.60352 15.747 5.60057 14.9386C7.52976 13.5137 10.5723 12.5997 14.0002 12.5997Z" fill="#B3B3B4"/>
</svg>
