<svg width="32" height="32" viewBox="0 0 32 32" fill="none" xmlns="http://www.w3.org/2000/svg">
<path d="M2 4.25C2 3.65326 2.23705 3.08097 2.65901 2.65901C3.08097 2.23705 3.65326 2 4.25 2H8.75V4.25H4.25V8.75H2V4.25ZM4.25 29C3.65326 29 3.08097 28.7629 2.65901 28.341C2.23705 27.919 2 27.3467 2 26.75V22.25H4.25V26.75H8.75V29H4.25ZM26.75 2C27.3467 2 27.919 2.23705 28.341 2.65901C28.7629 3.08097 29 3.65326 29 4.25V8.75H26.75V4.25H22.25V2H26.75Z" fill="#B3B3B4"/>
<path d="M16.8889 17.7778H15.1111V21.7222C15.1111 21.9984 15.335 22.2222 15.6111 22.2222H16.3889C16.665 22.2222 16.8889 21.9984 16.8889 21.7222V17.7778ZM22.2222 14.7222C22.2222 14.4461 21.9984 14.2222 21.7222 14.2222H20.9444C20.6683 14.2222 20.4444 14.4461 20.4444 14.7222V16H21.7222C21.9984 16 22.2222 15.7761 22.2222 15.5V14.7222ZM11.5556 16H9.77778V17.2778C9.77778 17.5539 10.0016 17.7778 10.2778 17.7778H11.0556C11.3317 17.7778 11.5556 17.5539 11.5556 17.2778V16ZM9.77778 14.7222C9.77778 14.4461 9.55392 14.2222 9.27778 14.2222H8.5C8.22386 14.2222 8 14.4461 8 14.7222V15.5C8 15.7761 8.22386 16 8.5 16H9.77778V14.7222ZM16 9.77778H17.2778C17.5539 9.77778 17.7778 9.55392 17.7778 9.27778V8.5C17.7778 8.22386 17.5539 8 17.2778 8H16.5C16.2239 8 16 8.22386 16 8.5V9.77778ZM9.83333 9.33333C9.55719 9.33333 9.33333 9.55719 9.33333 9.83333V11.5C9.33333 11.7761 9.55719 12 9.83333 12H11.5C11.7761 12 12 11.7761 12 11.5V9.83333C12 9.55719 11.7761 9.33333 11.5 9.33333H9.83333ZM13.3333 12.8333C13.3333 13.1095 13.1095 13.3333 12.8333 13.3333H8.5C8.22386 13.3333 8 13.1095 8 12.8333V8.5C8 8.22386 8.22386 8 8.5 8H12.8333C13.1095 8 13.3333 8.22386 13.3333 8.5V12.8333ZM9.83333 20C9.55719 20 9.33333 20.2239 9.33333 20.5V22.1667C9.33333 22.4428 9.55719 22.6667 9.83333 22.6667H11.5C11.7761 22.6667 12 22.4428 12 22.1667V20.5C12 20.2239 11.7761 20 11.5 20H9.83333ZM13.3333 23.5C13.3333 23.7761 13.1095 24 12.8333 24H8.5C8.22386 24 8 23.7761 8 23.5V19.1667C8 18.8905 8.22386 18.6667 8.5 18.6667H12.8333C13.1095 18.6667 13.3333 18.8905 13.3333 19.1667V23.5ZM20.5 9.33333C20.2239 9.33333 20 9.55719 20 9.83333V11.5C20 11.7761 20.2239 12 20.5 12H22.1667C22.4428 12 22.6667 11.7761 22.6667 11.5V9.83333C22.6667 9.55719 22.4428 9.33333 22.1667 9.33333H20.5ZM24 12.8333C24 13.1095 23.7761 13.3333 23.5 13.3333H19.1667C18.8905 13.3333 18.6667 13.1095 18.6667 12.8333V8.5C18.6667 8.22386 18.8905 8 19.1667 8H23.5C23.7761 8 24 8.22386 24 8.5V12.8333ZM20.4444 16H16.8889V17.7778H19.9444C20.2206 17.7778 20.4444 17.5539 20.4444 17.2778V16ZM16.8889 14.7222C16.8889 14.4461 16.665 14.2222 16.3889 14.2222H12.0556C11.7794 14.2222 11.5556 14.4461 11.5556 14.7222V16H12.8333C13.1095 16 13.3333 16.2239 13.3333 16.5V17.2778C13.3333 17.5539 13.5572 17.7778 13.8333 17.7778H15.1111V16.5C15.1111 16.2239 15.335 16 15.6111 16H16.8889V14.7222ZM17.2778 13.3333C17.5539 13.3333 17.7778 13.1095 17.7778 12.8333V12.0556C17.7778 11.7794 17.5539 11.5556 17.2778 11.5556H16.5C16.2239 11.5556 16 11.3317 16 11.0556V9.77778H14.7222C14.4461 9.77778 14.2222 10.0016 14.2222 10.2778V12.8333C14.2222 13.1095 14.4461 13.3333 14.7222 13.3333H17.2778ZM11.3333 10.5C11.3333 10.2239 11.1095 10 10.8333 10H10.5C10.2239 10 10 10.2239 10 10.5V10.8333C10 11.1095 10.2239 11.3333 10.5 11.3333H10.8333C11.1095 11.3333 11.3333 11.1095 11.3333 10.8333V10.5ZM11.3333 21.1667C11.3333 20.8905 11.1095 20.6667 10.8333 20.6667H10.5C10.2239 20.6667 10 20.8905 10 21.1667V21.5C10 21.7761 10.2239 22 10.5 22H10.8333C11.1095 22 11.3333 21.7761 11.3333 21.5V21.1667ZM22 10.5C22 10.2239 21.7761 10 21.5 10H21.1667C20.8905 10 20.6667 10.2239 20.6667 10.5V10.8333C20.6667 11.1095 20.8905 11.3333 21.1667 11.3333H21.5C21.7761 11.3333 22 11.1095 22 10.8333V10.5Z" fill="#B3B3B4"/>
<path d="M24.3969 18.7998C27.4898 18.7998 29.9969 21.3069 29.9969 24.3998C29.9969 27.4927 27.4898 29.9998 24.3969 29.9998C21.304 29.9998 18.7969 27.4927 18.7969 24.3998C18.7969 21.3069 21.304 18.7998 24.3969 18.7998ZM24.3969 26.0798C24.2484 26.0798 24.1059 26.1388 24.0009 26.2438C23.8959 26.3488 23.8369 26.4913 23.8369 26.6398C23.8369 26.7883 23.8959 26.9308 24.0009 27.0358C24.1059 27.1408 24.2484 27.1998 24.3969 27.1998C24.5454 27.1998 24.6878 27.1408 24.7929 27.0358C24.8979 26.9308 24.9569 26.7883 24.9569 26.6398C24.9569 26.4913 24.8979 26.3488 24.7929 26.2438C24.6878 26.1388 24.5454 26.0798 24.3969 26.0798ZM24.3969 21.0398C24.2597 21.0398 24.1273 21.0902 24.0248 21.1813C23.9223 21.2725 23.8568 21.3981 23.8408 21.5343L23.8369 21.5998V24.9598C23.837 25.1025 23.8917 25.2398 23.9897 25.3436C24.0877 25.4474 24.2216 25.5099 24.3641 25.5182C24.5065 25.5266 24.6468 25.4802 24.7563 25.3886C24.8658 25.297 24.9361 25.1671 24.953 25.0253L24.9569 24.9598V21.5998C24.9569 21.4513 24.8979 21.3088 24.7929 21.2038C24.6878 21.0988 24.5454 21.0398 24.3969 21.0398Z" fill="#B3B3B4"/>
</svg>
