<svg width="28" height="24" viewBox="0 0 28 24" fill="none" xmlns="http://www.w3.org/2000/svg">
<path d="M12.6575 0.0117855C7.31871 0.570143 2.75156 4.06128 0.8481 9.04136C0.573728 9.76328 0.316504 10.6939 0.16217 11.5681C0.0078354 12.4366 -0.0493255 14.1794 0.047848 15.1269C0.259343 17.1234 0.956706 19.182 2.0199 20.9022C2.75156 22.0809 4.03196 23.5868 4.48353 23.7842C5.26092 24.1339 6.16978 23.553 6.16978 22.707C6.16978 22.3065 6.07261 22.1148 5.62103 21.6354C4.70646 20.6597 4.13485 19.8475 3.58039 18.7195C3.19741 17.9469 2.86016 17.0445 2.92876 16.9768C2.94591 16.9542 3.50608 16.7907 4.17486 16.6102C4.83793 16.4297 5.46098 16.2323 5.56387 16.1703C5.78109 16.0349 6.03259 15.6063 6.08975 15.2848C6.19264 14.6306 5.60389 14.0214 4.86651 14.0214C4.75791 14.0214 4.18058 14.1512 3.58611 14.3034C2.98592 14.4614 2.47719 14.5742 2.46004 14.5516C2.39144 14.4839 2.44861 12.7919 2.54006 12.1885C2.72298 10.9702 3.08309 9.84223 3.6547 8.71988C3.94622 8.14461 4.42066 7.36629 4.48353 7.36629C4.50068 7.36629 4.8608 7.64829 5.29522 7.99233C6.13548 8.67476 6.44415 8.84396 6.82713 8.84396C7.14723 8.84396 7.73599 8.58452 7.88461 8.38148C8.21042 7.92465 8.13611 7.29297 7.70169 6.88126C7.5645 6.75154 7.15866 6.41314 6.79855 6.1255C6.43844 5.83786 6.11833 5.58407 6.09547 5.56151C6.06689 5.53331 6.26124 5.33591 6.52418 5.11031C7.76457 4.06128 9.41652 3.19272 10.977 2.77537C11.5772 2.61181 12.3889 2.45953 12.6461 2.45953H12.8004V3.49164C12.8004 4.46735 12.8062 4.54067 12.9319 4.77755C13.0177 4.94111 13.1606 5.08211 13.3378 5.19491C13.5721 5.33591 13.6693 5.35847 14.0008 5.35847C14.3324 5.35847 14.4295 5.33591 14.6639 5.19491C14.8411 5.08211 14.984 4.94111 15.0697 4.77755C15.1955 4.54067 15.2012 4.46735 15.2012 3.49164V2.45953H15.3612C15.6128 2.45953 16.4244 2.61181 17.0246 2.77537C18.648 3.20964 20.2085 4.03872 21.5575 5.18363L21.8833 5.45999L21.043 6.13678C20.1799 6.8305 20.037 6.99969 19.9741 7.40577C19.8884 7.92465 20.2714 8.62964 20.7229 8.77628C21.0202 8.87216 21.4089 8.85524 21.6032 8.7368C21.6947 8.6804 22.1462 8.33073 22.6093 7.95849L23.4495 7.28733L23.581 7.45089C23.8096 7.73289 24.3812 8.78192 24.6499 9.40232C25.1586 10.5867 25.4501 11.7993 25.5473 13.1472C25.6045 13.9199 25.5816 14.6982 25.5016 14.6982C25.4844 14.6982 24.93 14.5572 24.2726 14.388C23.0037 14.0553 22.9179 14.0496 22.5064 14.2527C21.9748 14.5178 21.729 15.2961 22.0033 15.8206C22.2263 16.2549 22.4092 16.3451 23.8096 16.7061C24.8785 16.9824 25.09 17.0557 25.09 17.1403C25.09 17.3095 24.6899 18.3078 24.3641 18.9564C23.8382 19.9942 23.2895 20.7725 22.4606 21.6636C22.2034 21.9456 21.9519 22.2501 21.9119 22.3517C21.8147 22.566 21.809 23.0285 21.8947 23.2541C21.9748 23.4684 22.3349 23.8293 22.5578 23.9252C22.7864 24.0211 23.3009 24.0267 23.4724 23.9308C23.6439 23.835 24.7242 22.6844 25.1643 22.1317C26.7363 20.1352 27.6851 17.7833 27.9481 15.1833C28.051 14.2245 27.9938 12.4366 27.8395 11.5681C27.5194 9.78583 26.9249 8.20101 26.0103 6.72334C24.1011 3.61572 21.0602 1.34282 17.5905 0.434784C16.3444 0.102026 15.6985 0.0230656 14.2295 0.00614738C13.4921 -0.00513268 12.7833 0.000507355 12.6575 0.0117855Z" fill="#B3B3B4"/>
<path d="M16.6786 10.0289C16.3306 10.0949 13.9851 11.099 12.8362 11.6694C11.7636 12.2068 11.225 12.5463 10.8341 12.9375C9.79005 13.9793 9.71855 15.6764 10.6624 16.9445C11.0057 17.4018 11.7064 17.7978 12.431 17.9439C13.599 18.1749 14.8956 17.6752 15.4915 16.7654C15.9635 16.0441 16.7739 14.2575 17.5462 12.2587C17.7702 11.6741 17.9657 11.1509 17.9847 11.0896C18.0467 10.8822 17.9132 10.5192 17.7035 10.3023C17.4461 10.0336 17.1171 9.94879 16.6786 10.0289ZM14.7955 13.5645C14.0614 15.2333 13.7897 15.6576 13.3606 15.8226C12.7361 16.0583 12.0592 15.6198 12.0115 14.9457C11.9925 14.7147 12.0115 14.6346 12.1212 14.4366C12.2308 14.2386 12.3119 14.1679 12.6408 13.9841C13.1699 13.6824 15.0053 12.7961 15.134 12.7772C15.1388 12.7772 14.9862 13.1308 14.7955 13.5645Z" fill="#B3B3B4"/>
</svg>
