<svg width="24" height="24" viewBox="0 0 24 24" fill="none" xmlns="http://www.w3.org/2000/svg">
<path d="M12 24H11.7187C11.625 24 11.5406 23.9798 11.4656 23.9393C9.00937 23.11 6.98437 21.4663 5.39062 19.0082C3.79687 16.5502 3 13.8348 3 10.8622V5.12769C3 4.622 3.13612 4.16688 3.40837 3.76233C3.68062 3.35777 4.032 3.06448 4.4625 2.88243L11.2125 0.151707C11.475 0.0505689 11.7375 0 12 0C12.2625 0 12.525 0.0505689 12.7875 0.151707L19.5375 2.88243C19.9688 3.06448 20.3205 3.35777 20.5927 3.76233C20.865 4.16688 21.0007 4.622 21 5.12769V10.8622C21 13.8357 20.2031 16.5514 18.6094 19.0095C17.0156 21.4675 14.9906 23.1108 12.5344 23.9393C12.4406 23.9798 12.2625 24 12 24Z" fill="#E95554"/>
<path d="M11.9999 4L8.90469 5.2963L7 7.75928L8.33179 9.31483C8.37962 9.26582 8.43102 9.21816 8.48433 9.17304C8.48865 9.16943 8.49114 9.16454 8.49546 9.16093L8.49919 9.165C9.30029 8.45508 10.5426 8.14818 12 8.14818C13.4574 8.14818 14.6996 8.45508 15.5008 9.165L15.5045 9.16093C15.5089 9.16454 15.5114 9.16943 15.5157 9.17304C15.569 9.21816 15.6204 9.26582 15.6682 9.31483L17 7.75928L15.0953 5.2963L11.9999 4ZM12.0036 5.42589L13.1903 5.8148C13.0643 6.86687 12.5832 7.50002 12.0036 7.50002C11.4241 7.50002 10.9355 6.86687 10.8094 5.8148L12.0036 5.42589ZM11.9999 8.66665C10.6023 8.66665 9.43785 8.98929 8.78565 9.57413C8.58536 9.7406 8.42849 9.95735 8.42849 10.0926C8.42849 10.7122 10.1463 11 11.9999 11C13.8535 11 15.5713 10.7122 15.5713 10.0926C15.5713 9.95733 15.4144 9.74059 15.2141 9.57413C14.5618 8.98927 13.3974 8.66665 11.9999 8.66665H11.9999Z" fill="#151718"/>
<path d="M13.5387 13L13.385 13.1925C13.5928 13.218 13.7939 13.2478 13.9823 13.2839L13.3735 13.4667L14.1861 13.6857L14.7917 13.4921C15.1637 13.6185 15.6788 13.7731 15.8495 13.9489H14.6351L14.7557 14.3064H16.016C16.0122 14.508 15.6566 14.6717 15.3171 14.8043L14.4558 14.6156L13.6444 14.9102L14.5111 15.1107C14.005 15.2503 13.1555 15.3352 12.4521 15.3742L12.4226 14.9644H11.5775L11.5478 15.3742C10.8445 15.3352 9.99502 15.2504 9.4889 15.1108L10.3557 14.9102L9.54423 14.6156L8.68289 14.8043C8.34822 14.7013 7.98789 14.508 7.98411 14.3064H9.24445L9.36512 13.9489H8.15067C8.32133 13.7731 8.83645 13.6185 9.20845 13.4921L9.81412 13.6857L10.6267 13.4667L10.0179 13.2839C10.2145 13.2471 10.4122 13.2168 10.6108 13.1931L10.4594 13.0002C8.81656 13.1733 7.45122 13.5418 7.09321 14.1237C6.52221 15.0512 8.62867 15.9842 11.93 15.9987C11.9791 16.0012 12.0276 15.9994 12.0734 15.9987C15.3728 15.9834 17.4774 15.0508 16.9069 14.1237C16.5486 13.5415 15.1825 13.1729 13.5387 13Z" fill="#151718"/>
</svg>
