<svg width="24" height="24" viewBox="0 0 24 24" fill="none" xmlns="http://www.w3.org/2000/svg">
<path d="M12 24H11.7187C11.625 24 11.5406 23.9798 11.4656 23.9393C9.00937 23.11 6.98437 21.4663 5.39062 19.0082C3.79687 16.5502 3 13.8348 3 10.8622V5.12769C3 4.622 3.13612 4.16688 3.40837 3.76233C3.68062 3.35777 4.032 3.06448 4.4625 2.88243L11.2125 0.151707C11.475 0.0505689 11.7375 0 12 0C12.2625 0 12.525 0.0505689 12.7875 0.151707L19.5375 2.88243C19.9688 3.06448 20.3205 3.35777 20.5927 3.76233C20.865 4.16688 21.0007 4.622 21 5.12769V10.8622C21 13.8357 20.2031 16.5514 18.6094 19.0095C17.0156 21.4675 14.9906 23.1108 12.5344 23.9393C12.4406 23.9798 12.2625 24 12 24Z" fill="#E95554"/>
<path d="M13.5387 13L13.385 13.1925C13.5928 13.218 13.7939 13.2478 13.9823 13.2839L13.3735 13.4667L14.1861 13.6857L14.7917 13.4921C15.1637 13.6185 15.6788 13.7731 15.8495 13.9489H14.6351L14.7557 14.3064H16.016C16.0122 14.508 15.6566 14.6717 15.3171 14.8043L14.4558 14.6156L13.6444 14.9102L14.5111 15.1107C14.005 15.2503 13.1555 15.3352 12.4521 15.3742L12.4226 14.9644H11.5775L11.5478 15.3742C10.8445 15.3352 9.99502 15.2504 9.4889 15.1108L10.3557 14.9102L9.54423 14.6156L8.68289 14.8043C8.34822 14.7013 7.98789 14.508 7.98411 14.3064H9.24445L9.36512 13.9489H8.15067C8.32133 13.7731 8.83645 13.6185 9.20845 13.4921L9.81413 13.6857L10.6267 13.4667L10.0179 13.2839C10.2145 13.2471 10.4122 13.2168 10.6108 13.1931L10.4594 13.0002C8.81656 13.1733 7.45122 13.5418 7.09321 14.1237C6.52221 15.0512 8.62867 15.9842 11.93 15.9987C11.9791 16.0012 12.0276 15.9994 12.0734 15.9987C15.3728 15.9834 17.4774 15.0508 16.9069 14.1237C16.5486 13.5415 15.1825 13.1729 13.5387 13Z" fill="#151718"/>
<path d="M11.9828 4.00003C11.6551 4.00459 11.3425 4.13889 11.1124 4.37388C10.8823 4.60887 10.7534 4.92565 10.7534 5.25568C10.7534 5.5887 10.8847 5.90808 11.1185 6.14356C11.3523 6.37905 11.6694 6.51134 12 6.51134C12.3306 6.51134 12.6476 6.37905 12.8814 6.14356C13.1152 5.90808 13.2465 5.5887 13.2465 5.25568C13.2465 4.92266 13.1152 4.60328 12.8814 4.3678C12.6476 4.13232 12.3306 4.00003 12 4.00003C11.9942 3.99999 11.9885 3.99999 11.9828 4.00003ZM11.976 6.8213C11.0459 6.82154 10.1244 7.22407 10.2213 8.02864L10.4588 9.77759C10.5004 10.0853 10.7069 10.5773 11.0152 10.5773H11.0372L11.2897 13.5108C11.3006 13.643 11.3956 13.75 11.5271 13.75H12.4769C12.6084 13.75 12.7034 13.643 12.7143 13.5108L12.9668 10.5774H12.9889C13.2972 10.5774 13.5036 10.0853 13.5453 9.77759L13.7828 8.02864C13.845 7.22335 12.9062 6.82118 11.976 6.8213Z" fill="#151718"/>
</svg>
