<svg width="24" height="24" viewBox="0 0 24 24" fill="none" xmlns="http://www.w3.org/2000/svg">
<path d="M12 24C11.9062 24 11.5406 23.9798 11.4656 23.9393C9.00937 23.11 6.98437 21.4663 5.39062 19.0082C3.79687 16.5502 3 13.8348 3 10.8622V5.12769C3 4.622 3.13612 4.16688 3.40837 3.76233C3.68062 3.35777 4.032 3.06448 4.4625 2.88243L11.2125 0.151707C11.475 0.0505689 11.7375 0 12 0C12.2625 0 12.525 0.0505689 12.7875 0.151707L19.5375 2.88243C19.9687 3.06448 20.3205 3.35777 20.5927 3.76233C20.865 4.16688 21.0007 4.622 21 5.12769V10.8622C21 13.8357 20.2031 16.5514 18.6094 19.0095C17.0156 21.4675 14.9906 23.1108 12.5344 23.9393C12.4406 23.9798 12.2625 24 12 24Z" fill="#08C873"/>
<path fill-rule="evenodd" clip-rule="evenodd" d="M10.9993 7.7039H9.35525C9.23033 7.70313 9.10736 7.74001 8.99816 7.81101C8.88896 7.882 8.79723 7.98471 8.7318 8.10924L7.96981 9.89273L7.11084 10.8266C7.07584 10.8646 7.04793 10.9106 7.02886 10.9618C7.00979 11.013 6.99996 11.0683 7 11.1242V14.5947C7 14.7022 7.03649 14.8053 7.10145 14.8813C7.1664 14.9573 7.2545 15 7.34636 15H8.7318C8.87034 15 9.07816 14.8379 9.07816 14.6757V14.1893H13.9272V14.5947C13.9272 14.7568 14.0657 15 14.2043 15H15.659C15.7509 15 15.839 14.9573 15.9039 14.8813C15.9689 14.8053 16.0054 14.7022 16.0054 14.5947V11.1242C16.0054 11.0683 15.9956 11.013 15.9765 10.9618C15.9574 10.9106 15.9295 10.8646 15.8945 10.8266L15.5498 10.4518C14.8787 10.8565 14.0882 10.9771 13.3077 10.723C12.9282 10.5994 12.5832 10.3977 12.2812 10.1359H8.7318L9.42452 8.51458H11.2046C11.1125 8.25558 11.0433 7.9838 10.9993 7.7039ZM9.42452 12.568C9.56307 12.568 9.77088 12.4058 9.77088 12.2437V11.6762C9.77088 11.5141 9.63234 11.2709 9.49379 11.2709L8.10835 10.9466C7.90054 10.8655 7.76199 11.0277 7.69272 11.2709V12.1626C7.69272 12.3248 7.83126 12.568 7.96981 12.568H9.42452ZM15.0356 12.568C15.1741 12.568 15.3126 12.3248 15.3126 12.1626V11.2709C15.2434 11.0277 15.1048 10.8655 14.897 10.9466L13.5116 11.2709C13.373 11.2709 13.2345 11.5141 13.2345 11.6762V12.2437C13.2345 12.4058 13.4423 12.568 13.5808 12.568H15.0356Z" fill="#151718"/>
<path d="M14.622 5L12.6472 5.2312L11.201 6.42133L11.7575 7.65163C11.792 7.62983 11.8284 7.60955 11.8656 7.59122C11.8686 7.58976 11.8707 7.58716 11.8738 7.5857L11.8754 7.58897C12.4384 7.29354 13.2014 7.33502 14.0465 7.61023C14.8917 7.88543 15.5695 8.31312 15.9356 8.91113L15.9383 8.90928C15.9403 8.91237 15.9411 8.91591 15.9431 8.919C15.9678 8.95746 15.9909 8.99715 16.0119 9.03702L17 8.3097L16.2372 6.40022L14.622 5ZM14.4263 5.89793L15.0605 6.36675C14.8415 7.00495 14.4746 7.3125 14.1386 7.20306C13.8025 7.09363 13.607 6.60295 13.6799 5.91715L14.4263 5.89793ZM13.9745 7.93645C13.1641 7.67254 12.4441 7.65566 11.9847 7.90051C11.8455 7.96743 11.7244 8.0742 11.7057 8.15931C11.6197 8.54918 12.5759 9.05465 13.6508 9.40468C14.7257 9.75472 15.7618 9.89798 15.8478 9.50813C15.8665 9.42301 15.8056 9.257 15.7126 9.11444C15.4154 8.62324 14.785 8.20036 13.9745 7.93645Z" fill="#151718"/>
</svg>
