<svg width="24" height="24" viewBox="0 0 24 24" fill="none" xmlns="http://www.w3.org/2000/svg">
<path d="M12 24C11.9062 24 11.5406 23.9798 11.4656 23.9393C9.00937 23.11 6.98437 21.4663 5.39062 19.0082C3.79687 16.5502 3 13.8348 3 10.8622V5.12769C3 4.622 3.13612 4.16688 3.40837 3.76233C3.68062 3.35777 4.032 3.06448 4.4625 2.88243L11.2125 0.151707C11.475 0.0505689 11.7375 0 12 0C12.2625 0 12.525 0.0505689 12.7875 0.151707L19.5375 2.88243C19.9687 3.06448 20.3205 3.35777 20.5927 3.76233C20.865 4.16688 21.0007 4.622 21 5.12769V10.8622C21 13.8357 20.2031 16.5514 18.6094 19.0095C17.0156 21.4675 14.9906 23.1108 12.5344 23.9393C12.4406 23.9798 12.2625 24 12 24Z" fill="#08C873"/>
<path d="M16.8769 9.42401L15.9231 8.40001L15.0769 6.44446C15.0043 6.30791 14.9024 6.1953 14.7811 6.11745C14.6599 6.03961 14.5233 5.99916 14.3846 6.00001H9.61538C9.47667 5.99916 9.34011 6.03961 9.21885 6.11745C9.0976 6.1953 8.99573 6.30791 8.92308 6.44446L8.07692 8.40001L7.12308 9.42401C7.08422 9.46565 7.05323 9.51612 7.03205 9.57226C7.01087 9.6284 6.99996 9.68899 7 9.75023V13.5556C7 13.6734 7.04052 13.7865 7.11265 13.8698C7.18478 13.9532 7.28261 14 7.38462 14H8.92308C9.07692 14 9.30769 13.8222 9.30769 13.6444V13.1111H14.6923V13.5556C14.6923 13.7333 14.8462 14 15 14H16.6154C16.7174 14 16.8152 13.9532 16.8873 13.8698C16.9595 13.7865 17 13.6734 17 13.5556V9.75023C17 9.68899 16.9891 9.6284 16.968 9.57226C16.9468 9.51612 16.9158 9.46565 16.8769 9.42401ZM9.69231 6.8889H14.3077L15.0769 8.66668H8.92308L9.69231 6.8889ZM10.0769 10.9778C10.0769 11.1556 9.84615 11.3333 9.69231 11.3333H8.07692C7.92308 11.3333 7.76923 11.0667 7.76923 10.8889V9.91112C7.84615 9.64445 8 9.46667 8.23077 9.55556L9.76923 9.91112C9.92308 9.91112 10.0769 10.1778 10.0769 10.3556V10.9778ZM16.2308 10.8889C16.2308 11.0667 16.0769 11.3333 15.9231 11.3333H14.3077C14.1538 11.3333 13.9231 11.1556 13.9231 10.9778V10.3556C13.9231 10.1778 14.0769 9.91112 14.2308 9.91112L15.7692 9.55556C16 9.46667 16.1538 9.64445 16.2308 9.91112V10.8889Z" fill="#151718"/>
</svg>
