<svg width="16" height="20" viewBox="0 0 16 20" fill="none" xmlns="http://www.w3.org/2000/svg">
<path d="M5 2.97802H3C2.46957 2.97802 1.96086 3.18903 1.58579 3.56461C1.21071 3.9402 1 4.44961 1 4.98077V16.9973C1 17.5284 1.21071 18.0378 1.58579 18.4134C1.96086 18.789 2.46957 19 3 19H13C13.5304 19 14.0391 18.789 14.4142 18.4134C14.7893 18.0378 15 17.5284 15 16.9973V4.98077C15 4.44961 14.7893 3.9402 14.4142 3.56461C14.0391 3.18903 13.5304 2.97802 13 2.97802H11M5 2.97802C5 2.45342 5.21062 1.9503 5.58569 1.57935C5.96076 1.2084 6.46947 1 6.9999 1H8.9999C9.53034 1 10.039 1.2084 10.4141 1.57935C10.7892 1.9503 11 2.45342 11 2.97802M5 2.97802C5 3.50263 5.21062 4.00574 5.58569 4.37669C5.96076 4.74765 6.46947 4.95604 6.9999 4.95604H8.9999C9.53034 4.95604 10.039 4.74765 10.4141 4.37669C10.7892 4.00574 11 3.50263 11 2.97802M4.9999 9.9011H5.0099M8.9999 9.9011H10.9999M4.9999 13.8571H5.0099M8.9999 13.8571H10.9999" stroke="#F8F8F8" stroke-width="1.9" stroke-linecap="round" stroke-linejoin="round"/>
</svg>
