<svg width="13" height="13" viewBox="0 0 13 13" fill="none" xmlns="http://www.w3.org/2000/svg">
<g clip-path="url(#clip0_7909_105689)">
<path d="M1.61328 5.99756C1.61328 4.39856 1.61328 3.59906 1.80228 3.33006C1.99078 3.06156 2.74228 2.80406 4.24578 2.28956L4.53228 2.19156C5.31578 1.92306 5.70728 1.78906 6.11328 1.78906C6.51878 1.78906 6.91078 1.92306 7.69428 2.19156L7.98078 2.28956C9.48428 2.80406 10.2358 3.06156 10.4243 3.33006C10.6133 3.59906 10.6133 4.39906 10.6133 5.99756V6.78456C10.6133 9.60356 8.49378 10.9721 7.16378 11.5526C6.80328 11.7101 6.62328 11.7891 6.11328 11.7891C5.60328 11.7891 5.42328 11.7101 5.06278 11.5526C3.73278 10.9716 1.61328 9.60406 1.61328 6.78456V5.99756Z" stroke="#08C873"/>
<path d="M5.59783 7.66953L8.06718 4.91734C8.14391 4.83182 8.24157 4.78906 8.36016 4.78906C8.47874 4.78906 8.5764 4.83182 8.65313 4.91734C8.72986 5.00286 8.76823 5.11171 8.76823 5.24387C8.76823 5.37604 8.72986 5.48488 8.65313 5.5704L5.8908 8.64912C5.80709 8.74242 5.70943 8.78906 5.59783 8.78906C5.48622 8.78906 5.38856 8.74242 5.30485 8.64912L4.21666 7.43629C4.13993 7.35077 4.10156 7.24193 4.10156 7.10976C4.10156 6.97759 4.13993 6.86875 4.21666 6.78323C4.29339 6.69771 4.39105 6.65495 4.50963 6.65495C4.62822 6.65495 4.72588 6.69771 4.80261 6.78323L5.59783 7.66953Z" fill="#08C873"/>
</g>
<defs>
<clipPath id="clip0_7909_105689">
<rect width="12" height="12" fill="white" transform="translate(0.113281 0.789062)"/>
</clipPath>
</defs>
</svg>
