<svg width="20" height="20" viewBox="0 0 20 20" id='path' xmlns="http://www.w3.org/2000/svg">
    <circle cx="10" cy="10" r="10" />
    <path d="M14.05 16c-.423 0-.802-.125-1.138-.375a1.938 1.938 0 0 1-.698-.958H8.85c-.715 0-1.327-.261-1.836-.784A2.601 2.601 0 0 1 6.25 12c0-.733.255-1.361.764-1.883.509-.523 1.121-.784 1.836-.784h1.3c.357 0 .664-.13.918-.392A1.3 1.3 0 0 0 11.45 8c0-.367-.127-.68-.382-.942a1.238 1.238 0 0 0-.918-.391H6.786c-.14.389-.376.708-.706.958-.33.25-.708.375-1.13.375a1.857 1.857 0 0 1-1.381-.583A1.954 1.954 0 0 1 3 6c0-.556.19-1.028.569-1.417C3.948 4.194 4.409 4 4.95 4c.422 0 .8.125 1.13.375.33.25.565.57.706.958h3.364c.715 0 1.327.261 1.836.784.51.522.764 1.15.764 1.883 0 .733-.255 1.361-.764 1.883-.509.523-1.121.784-1.836.784h-1.3c-.357 0-.663.13-.918.391A1.301 1.301 0 0 0 7.55 12c0 .367.127.68.382.942.255.26.56.391.918.391h3.364c.14-.389.376-.708.707-.958.33-.25.707-.375 1.129-.375.542 0 1.002.194 1.381.583.38.39.569.861.569 1.417s-.19 1.028-.569 1.417c-.379.389-.84.583-1.381.583zm-9.1-9.333a.622.622 0 0 0 .463-.192A.655.655 0 0 0 5.6 6a.655.655 0 0 0-.187-.475.622.622 0 0 0-.463-.192.622.622 0 0 0-.463.192A.655.655 0 0 0 4.3 6c0 .189.062.347.187.475.124.128.279.192.463.192z" fill="#fff"/>
</svg>
