<svg width="20" height="20" viewBox="0 0 20 20" fill="none" xmlns="http://www.w3.org/2000/svg">
    <path
        d="M5.62987 5.62995L8.63587 8.63595M1.04187 2.33995L3.65787 11.4969C4.43587 14.2199 6.59087 16.0969 9.42187 16.0969C9.84745 16.0957 10.2715 16.0461 10.6859 15.9489C11.0779 15.8589 11.4979 15.9479 11.7829 16.2319L14.2429 18.6919C14.6529 19.1019 15.3179 19.1019 15.7279 18.6919L18.6919 15.7269C18.7895 15.6294 18.867 15.5136 18.9199 15.3861C18.9727 15.2586 18.9999 15.122 18.9999 14.9839C18.9999 14.8459 18.9727 14.7093 18.9199 14.5818C18.867 14.4543 18.7895 14.3385 18.6919 14.2409L16.2369 11.7859C15.9529 11.5019 15.8639 11.0829 15.9529 10.6919C16.0469 10.2769 16.0979 9.85195 16.0979 9.42195C16.0979 6.58995 14.2209 4.43495 11.4979 3.65695L2.34087 1.04195C2.1606 0.989975 1.9697 0.987252 1.78803 1.03406C1.60635 1.08087 1.44053 1.1755 1.30782 1.30811C1.17511 1.44072 1.08036 1.60646 1.03341 1.7881C0.98646 1.96974 0.989036 2.16064 1.04087 2.34095L1.04187 2.33995Z"
        stroke="#F8F8F8" stroke-width="1.5" stroke-linecap="round" stroke-linejoin="round" />
</svg>
    