<svg width="12" height="12" viewBox="0 0 12 12" fill="none" xmlns="http://www.w3.org/2000/svg">
<path d="M6 4.83333C6.99 4.83333 7.8 5.62083 7.8 6.58333C7.8 7.54583 6.99 8.33333 6 8.33333C5.01 8.33333 4.2 7.54583 4.2 6.58333C4.2 5.62083 5.01 4.83333 6 4.83333Z" fill="#B3B3B4"/>
<path fill-rule="evenodd" clip-rule="evenodd" d="M8.80208 3.08333C8.52635 3.08333 8.26285 2.96948 8.07387 2.76868L7.56813 2.23132C7.37915 2.03052 7.11565 1.91667 6.83992 1.91667H5.16008C4.88435 1.91667 4.62085 2.03052 4.43187 2.23132L3.92613 2.76869C3.73715 2.96948 3.47365 3.08333 3.19792 3.08333H2.2C1.64772 3.08333 1.2 3.53105 1.2 4.08333V9.08333C1.2 9.63562 1.64771 10.0833 2.2 10.0833H9.8C10.3523 10.0833 10.8 9.63562 10.8 9.08333V4.08333C10.8 3.53105 10.3523 3.08333 9.8 3.08333H8.80208ZM3.90387 1.06465C4.09285 0.863854 4.35635 0.75 4.63208 0.75H7.36792C7.64365 0.75 7.90715 0.863854 8.09613 1.06465L8.60187 1.60202C8.79085 1.80281 9.05435 1.91667 9.33008 1.91667H10.8C11.46 1.91667 12 2.44167 12 3.08333V10.0833C12 10.725 11.46 11.25 10.8 11.25H1.2C0.54 11.25 0 10.725 0 10.0833V3.08333C0 2.44167 0.54 1.91667 1.2 1.91667H2.66992C2.94565 1.91667 3.20915 1.80281 3.39813 1.60202L3.90387 1.06465Z" fill="#B3B3B4"/>
<path fill-rule="evenodd" clip-rule="evenodd" d="M6.83992 1.91667C7.11565 1.91667 7.37915 2.03052 7.56813 2.23132L8.07387 2.76868C8.26285 2.96948 8.52635 3.08333 8.80208 3.08333H9.8C10.3523 3.08333 10.8 3.53105 10.8 4.08333V9.08333C10.8 9.63562 10.3523 10.0833 9.8 10.0833H2.2C1.64771 10.0833 1.2 9.63562 1.2 9.08333V4.08333C1.2 3.53105 1.64772 3.08333 2.2 3.08333H3.19792C3.47365 3.08333 3.73715 2.96948 3.92613 2.76869L4.43187 2.23132C4.62085 2.03052 4.88435 1.91667 5.16008 1.91667H6.83992ZM3 6.58333C3 4.97333 4.344 3.66667 6 3.66667C7.656 3.66667 9 4.97333 9 6.58333C9 8.19333 7.656 9.5 6 9.5C4.344 9.5 3 8.19333 3 6.58333Z" fill="#B3B3B4"/>
</svg>
