<svg width="20" id="planning" height="18" viewBox="0 0 20 18" xmlns="http://www.w3.org/2000/svg">
<path d="M19 2.29091H15.3333V0H14V2.29091H6V0H4.66667V2.29091H1C0.734878 2.29121 0.480704 2.39475 0.293234 2.57881C0.105765 2.76287 0.000308769 3.01243 0 3.27273V17.0182C0.000308769 17.2785 0.105765 17.528 0.293234 17.7121C0.480704 17.8962 0.734878 17.9997 1 18H19C19.2651 17.9997 19.5193 17.8962 19.7068 17.7121C19.8942 17.528 19.9997 17.2785 20 17.0182V3.27273C19.9997 3.01243 19.8942 2.76287 19.7068 2.57881C19.5193 2.39475 19.2651 2.29121 19 2.29091V2.29091ZM18.6667 16.6909H1.33333V3.6H4.66667V5.23636H6V3.6H14V5.23636H15.3333V3.6H18.6667V16.6909Z"/>
<path d="M9.42061 11.1684L7.00501 8.96718L6 9.88303L9.42061 13L15 7.91581L13.9949 7L9.42061 11.1684V11.1684Z"/>
</svg>
