<svg width="42" height="41" viewBox="0 0 42 41" id="planImg" xmlns="http://www.w3.org/2000/svg">
<path d="M37.3494 4.24995V28.55H13.0494V4.24995H37.3494ZM37.3494 0.199951H13.0494C10.8219 0.199951 8.99941 2.02245 8.99941 4.24995V28.55C8.99941 30.7775 10.8219 32.6 13.0494 32.6H37.3494C39.5769 32.6 41.3994 30.7775 41.3994 28.55V4.24995C41.3994 2.02245 39.5769 0.199951 37.3494 0.199951ZM20.1369 19.7817L23.5592 24.3582L28.5812 18.0807L35.3244 26.525H15.0744L20.1369 19.7817ZM0.899414 8.29995V36.65C0.899414 38.8775 2.72191 40.7 4.94941 40.7H33.2994V36.65H4.94941V8.29995H0.899414Z"/>
</svg>
