<svg width="13" height="13" viewBox="0 0 13 13" fill="none" xmlns="http://www.w3.org/2000/svg">
<g clip-path="url(#clip0_7909_90147)">
<path d="M1.61328 5.99756C1.61328 4.39856 1.61328 3.59906 1.80228 3.33006C1.99078 3.06156 2.74228 2.80406 4.24578 2.28956L4.53228 2.19156C5.31578 1.92306 5.70728 1.78906 6.11328 1.78906C6.51878 1.78906 6.91078 1.92306 7.69428 2.19156L7.98078 2.28956C9.48428 2.80406 10.2358 3.06156 10.4243 3.33006C10.6133 3.59906 10.6133 4.39906 10.6133 5.99756V6.78456C10.6133 9.60356 8.49378 10.9721 7.16378 11.5526C6.80328 11.7101 6.62328 11.7891 6.11328 11.7891C5.60328 11.7891 5.42328 11.7101 5.06278 11.5526C3.73278 10.9716 1.61328 9.60406 1.61328 6.78456V5.99756Z" stroke="#F3B300"/>
<path d="M7.50391 2.64844L4.97327 11.401" stroke="#F3B300" stroke-width="0.5" stroke-linecap="round"/>
<path d="M6.48828 6.59375L10.3329 7.69764" stroke="#F3B300" stroke-width="0.5" stroke-linecap="round"/>
<path d="M6.21484 7.55469L10.0595 8.65858" stroke="#F3B300" stroke-width="0.5" stroke-linecap="round"/>
<path d="M5.93359 8.51562L9.77825 9.61952" stroke="#F3B300" stroke-width="0.5" stroke-linecap="round"/>
<path d="M5.66016 9.47656L8.54365 10.3045" stroke="#F3B300" stroke-width="0.5" stroke-linecap="round"/>
<path d="M5.38672 10.4375L7.30905 10.9894" stroke="#F3B300" stroke-width="0.5" stroke-linecap="round"/>
<path d="M7.31641 3.71094L10.793 4.77246" stroke="#F3B300" stroke-width="0.5" stroke-linecap="round"/>
<path d="M7.58984 2.75L10.4733 3.57792" stroke="#F3B300" stroke-width="0.5" stroke-linecap="round"/>
<path d="M7.04297 4.67188L10.6992 5.77686" stroke="#F3B300" stroke-width="0.5" stroke-linecap="round"/>
<path d="M6.76172 5.63281L10.6064 6.73671" stroke="#F3B300" stroke-width="0.5" stroke-linecap="round"/>
</g>
<defs>
<clipPath id="clip0_7909_90147">
<rect width="12" height="12" fill="white" transform="translate(0.113281 0.789062)"/>
</clipPath>
</defs>
</svg>
