<svg width="24" height="24" viewBox="0 0 24 24" fill="none" xmlns="http://www.w3.org/2000/svg">
<circle cx="12" cy="12" r="12" fill="#FFC31B"/>
<path d="M16 9.97842C16 10.4868 15.88 10.9664 15.6399 11.4173C15.3999 11.8681 15.0158 12.2374 14.4877 12.5252C13.9595 12.8034 13.2826 12.9424 12.4568 12.9424H10.642V17H9V7H12.4568C13.225 7 13.8731 7.13429 14.4012 7.40288C14.939 7.66187 15.3374 8.01679 15.5967 8.46763C15.8656 8.91847 16 9.42206 16 9.97842ZM12.4568 11.6043C13.0809 11.6043 13.5466 11.4652 13.8539 11.1871C14.1612 10.8993 14.3148 10.4964 14.3148 9.97842C14.3148 8.88489 13.6955 8.33813 12.4568 8.33813H10.642V11.6043H12.4568Z" fill="#151718"/>
</svg>
