<svg width="18" height="22" viewBox="0 0 18 22" fill="none" xmlns="http://www.w3.org/2000/svg">
<g id="Group">
<path id="Vector" d="M14.2941 13.1232H14.7353C15.5674 13.1232 15.9829 13.1232 16.2415 12.8136C16.5 12.504 16.5 12.0063 16.5 11.0099V9.95322C16.5 7.96035 16.5 6.96497 15.9829 6.34577C15.4659 5.72656 14.6347 5.72656 12.9706 5.72656H5.02941C3.36529 5.72656 2.53412 5.72656 2.01706 6.34577C1.5 6.96497 1.5 7.96035 1.5 9.95322V12.0666C1.5 12.5642 1.5 12.8136 1.62882 12.9689C1.75853 13.1232 1.96676 13.1232 2.38235 13.1232H3.70588" stroke="#F8F8F8" stroke-width="1.5"/>
<path id="Vector_2" d="M4.14844 19.7865V11.0098C4.14844 10.0134 4.14844 9.51569 4.40697 9.20609C4.6655 8.89648 5.08108 8.89648 5.91314 8.89648H12.0896C12.9217 8.89648 13.3373 8.89648 13.5958 9.20609C13.8543 9.51569 13.8543 10.0134 13.8543 11.0098V19.7865C13.8543 20.1214 13.8543 20.2884 13.7626 20.3676C13.6708 20.4469 13.5384 20.3941 13.2737 20.2884L11.3608 19.5244C11.3123 19.4995 11.2607 19.4845 11.2081 19.48C11.1556 19.4881 11.1046 19.5067 11.0573 19.535L9.1655 20.4416C9.11424 20.4729 9.0586 20.4926 9.00138 20.4997C8.94415 20.4926 8.88852 20.4729 8.83726 20.4416L6.9455 19.535C6.89838 19.5069 6.84769 19.4883 6.7955 19.48C6.74259 19.4843 6.69067 19.4993 6.64197 19.5244L4.72903 20.2884C4.46432 20.3941 4.33197 20.4469 4.2402 20.3676C4.14844 20.2884 4.14844 20.1214 4.14844 19.7865Z" stroke="#F8F8F8" stroke-width="1.5"/>
<path id="Vector_3" d="M6.79688 13.123H10.3263M6.79688 16.293H11.2086" stroke="#F8F8F8" stroke-width="1.5" stroke-linecap="round"/>
<path id="Vector_4" d="M13.8543 5.72666V5.30399C13.8543 3.51083 13.8543 2.61372 13.3893 2.05686C12.9243 1.5 12.1752 1.5 10.6778 1.5H7.32491C5.82756 1.5 5.07844 1.5 4.61344 2.05686C4.14844 2.61372 4.14844 3.51083 4.14844 5.30399V5.72666" stroke="#F8F8F8" stroke-width="1.5"/>
</g>
</svg>
