<svg width="24" height="24" viewBox="0 0 24 24" fill="none" xmlns="http://www.w3.org/2000/svg">
<path d="M6 13.1111C6 13.1111 6 18.2963 12 18.2963M12 18.2963C18 18.2963 18 13.1111 18 13.1111M12 18.2963V22M9.75 22H14.25M12 2C9 2 9 4.96296 9 4.96296C9 4.96296 9 4.96297 9 4.96296V12.3704C9 12.3704 9 12.3704 9 12.3704C9 12.3704 9 15.3333 12 15.3333C15 15.3333 15 12.3704 15 12.3704C15 12.3704 15 12.3704 15 12.3704V4.96296C15 4.96297 15 4.96296 15 4.96296C15 4.96296 15 2 12 2Z" stroke="#F8F8F8" stroke-width="1.5" stroke-linecap="round" stroke-linejoin="round"/>
</svg>
