<svg width="40" height="40" viewBox="0 0 40 40" fill="none" xmlns="http://www.w3.org/2000/svg">
<circle cx="20" cy="20" r="19.5" fill="#1D1F25" stroke="url(#paint0_linear_2728_88973)"/>
<path d="M16 20.7778C16 20.7778 16 24.4074 20 24.4074M20 24.4074C24 24.4074 24 20.7778 24 20.7778M20 24.4074V27M18.5 27H21.5M20 13C18 13 18 15.0741 18 15.0741C18 15.0741 18 15.0741 18 15.0741V20.2593C18 20.2593 18 20.2593 18 20.2593C18 20.2593 18 22.3333 20 22.3333C22 22.3333 22 20.2593 22 20.2593C22 20.2593 22 20.2593 22 20.2593V15.0741C22 15.0741 22 15.0741 22 15.0741C22 15.0741 22 13 20 13Z" stroke="#F8F8F8" stroke-linecap="round" stroke-linejoin="round"/>
<defs>
<linearGradient id="paint0_linear_2728_88973" x1="2.85714" y1="10.2857" x2="36.8571" y2="30.5714" gradientUnits="userSpaceOnUse">
<stop stop-color="#373B46"/>
<stop offset="1" stop-color="#030304"/>
</linearGradient>
</defs>
</svg>
