<svg width="20" height="20" viewBox="0 0 20 20" xmlns="http://www.w3.org/2000/svg" id="qr-color" >
    <path d="M13.3333 19.5C13.3333 19.7761 13.1095 20 12.8333 20H11.6111C11.335 20 11.1111 19.7761 11.1111 19.5V17.7778H12.8333C13.1095 17.7778 13.3333 18.0016 13.3333 18.2778V19.5ZM11.1111 12.2222H8.88889V17.2778C8.88889 17.5539 9.11275 17.7778 9.38889 17.7778H11.1111V12.2222ZM20 10.5C20 10.2239 19.7761 10 19.5 10H17.7778V14.4444H19.5C19.7761 14.4444 20 14.2206 20 13.9444V10.5ZM17.7778 8.27778C17.7778 8.00164 17.5539 7.77778 17.2778 7.77778H16.0556C15.7794 7.77778 15.5556 8.00164 15.5556 8.27778V10H17.7778V8.27778ZM4.44444 10H2.22222V11.7222C2.22222 11.9984 2.44608 12.2222 2.72222 12.2222H3.94444C4.22059 12.2222 4.44444 11.9984 4.44444 11.7222V10ZM2.22222 8.27778C2.22222 8.00164 1.99836 7.77778 1.72222 7.77778H0.5C0.223858 7.77778 0 8.00164 0 8.27778V9.5C0 9.77614 0.223858 10 0.5 10H2.22222V8.27778ZM10 2.22222H11.7222C11.9984 2.22222 12.2222 1.99836 12.2222 1.72222V0.5C12.2222 0.223858 11.9984 0 11.7222 0H10.5C10.2239 0 10 0.223858 10 0.5V2.22222ZM2.16667 1.66667C1.89052 1.66667 1.66667 1.89052 1.66667 2.16667V4.5C1.66667 4.77614 1.89052 5 2.16667 5H4.5C4.77614 5 5 4.77614 5 4.5V2.16667C5 1.89052 4.77614 1.66667 4.5 1.66667H2.16667ZM6.66667 6.16667C6.66667 6.44281 6.44281 6.66667 6.16667 6.66667H0.5C0.223857 6.66667 0 6.44281 0 6.16667V0.5C0 0.223857 0.223858 0 0.5 0H6.16667C6.44281 0 6.66667 0.223858 6.66667 0.5V6.16667ZM2.16667 15C1.89052 15 1.66667 15.2239 1.66667 15.5V17.8333C1.66667 18.1095 1.89052 18.3333 2.16667 18.3333H4.5C4.77614 18.3333 5 18.1095 5 17.8333V15.5C5 15.2239 4.77614 15 4.5 15H2.16667ZM6.66667 19.5C6.66667 19.7761 6.44281 20 6.16667 20H0.5C0.223857 20 0 19.7761 0 19.5V13.8333C0 13.5572 0.223858 13.3333 0.5 13.3333H6.16667C6.44281 13.3333 6.66667 13.5572 6.66667 13.8333V19.5ZM15.5 1.66667C15.2239 1.66667 15 1.89052 15 2.16667V4.5C15 4.77614 15.2239 5 15.5 5H17.8333C18.1095 5 18.3333 4.77614 18.3333 4.5V2.16667C18.3333 1.89052 18.1095 1.66667 17.8333 1.66667H15.5ZM20 6.16667C20 6.44281 19.7761 6.66667 19.5 6.66667H13.8333C13.5572 6.66667 13.3333 6.44281 13.3333 6.16667V0.5C13.3333 0.223857 13.5572 0 13.8333 0H19.5C19.7761 0 20 0.223858 20 0.5V6.16667ZM18.2778 17.7778C18.0016 17.7778 17.7778 17.5539 17.7778 17.2778V14.4444H13.8333C13.5572 14.4444 13.3333 14.6683 13.3333 14.9444V16.1667C13.3333 16.4428 13.5572 16.6667 13.8333 16.6667H15.0556C15.3317 16.6667 15.5556 16.8905 15.5556 17.1667V19.5C15.5556 19.7761 15.7794 20 16.0556 20H19.5C19.7761 20 20 19.7761 20 19.5V18.2778C20 18.0016 19.7761 17.7778 19.5 17.7778H18.2778ZM15.5556 10H11.1111V12.2222H15.0556C15.3317 12.2222 15.5556 11.9984 15.5556 11.7222V10ZM11.1111 8.27778C11.1111 8.00164 10.8873 7.77778 10.6111 7.77778H4.94444C4.6683 7.77778 4.44444 8.00164 4.44444 8.27778V10H6.16667C6.44281 10 6.66667 10.2239 6.66667 10.5V11.7222C6.66667 11.9984 6.89052 12.2222 7.16667 12.2222H8.88889V10.5C8.88889 10.2239 9.11275 10 9.38889 10H11.1111V8.27778ZM11.7222 6.66667C11.9984 6.66667 12.2222 6.44281 12.2222 6.16667V4.94444C12.2222 4.6683 11.9984 4.44444 11.7222 4.44444H10.5C10.2239 4.44444 10 4.22059 10 3.94444V2.22222H8.27778C8.00164 2.22222 7.77778 2.44608 7.77778 2.72222V6.16667C7.77778 6.44281 8.00164 6.66667 8.27778 6.66667H11.7222ZM4.16667 3C4.16667 2.72386 3.94281 2.5 3.66667 2.5H3C2.72386 2.5 2.5 2.72386 2.5 3V3.66667C2.5 3.94281 2.72386 4.16667 3 4.16667H3.66667C3.94281 4.16667 4.16667 3.94281 4.16667 3.66667V3ZM4.16667 16.3333C4.16667 16.0572 3.94281 15.8333 3.66667 15.8333H3C2.72386 15.8333 2.5 16.0572 2.5 16.3333V17C2.5 17.2761 2.72386 17.5 3 17.5H3.66667C3.94281 17.5 4.16667 17.2761 4.16667 17V16.3333ZM17.5 3C17.5 2.72386 17.2761 2.5 17 2.5H16.3333C16.0572 2.5 15.8333 2.72386 15.8333 3V3.66667C15.8333 3.94281 16.0572 4.16667 16.3333 4.16667H17C17.2761 4.16667 17.5 3.94281 17.5 3.66667V3Z" />
</svg>
