<svg width="18" height="18" viewBox="0 0 18 18" fill="none" xmlns="http://www.w3.org/2000/svg">
    <circle cx="9" cy="9" r="9" fill="#F32E2E"/>
    <path d="M3.429 3.429V7.48h1.013v1.013h1.013V7.48H7.48V3.429H3.429zM7.48 7.48v1.013h1.013v1.013H6.468v1.013h-3.04v4.051h4.053V10.52h3.039V9.507H9.507V8.494h2.026V7.48h1.013v1.013h1.013V7.48h1.013V3.429H10.52V7.48H7.48zm6.078 1.013v1.013h1.013V8.494h-1.013zm0 1.013h-1.013v1.013h1.013V9.507zm0 1.013v1.013h1.013V10.52h-1.013zm0 1.013h-1.013V10.52h-1.013v1.013H9v3.038h1.013v-2.025h2.026v1.013h1.013v-1.013h.507v-1.013zm-1.52 2.026h-1.013v1.012h1.013V13.56zm.507-4.052V8.494h-1.013v1.013h1.013zm-6.078 0V8.494H5.455v1.013h1.013zM4.442 8.494H3.429v1.013h1.013V8.494zm4.052-5.065v2.026h-.507v1.013h.507v.506h1.013v-1.52h.506V4.443h-.506V3.429H8.494zM4.442 4.442h2.026v2.026H4.442V4.442zm7.09 0h2.027v2.026h-2.026V4.442zm-6.584.506v1.013h1.013V4.948H4.948zm7.091 0v1.013h1.013V4.948H12.04zm-7.597 6.585h2.026v2.026H4.442v-2.026zm.506.506v1.013h1.013v-1.013H4.948zm8.61 1.52v1.012h1.014V13.56h-1.013z" fill="#fff"/>
</svg>
