<svg width="24" height="24" viewBox="0 0 24 24" fill="none" xmlns="http://www.w3.org/2000/svg">
    <g filter="url(#filter0_b_4100_27704)">
        <rect x="0.5" y="0.5" width="23" height="23" rx="11.5" fill="#303438" fill-opacity="0.2"
            stroke="#F8F8F8" />
        <path
            d="M13.2667 6.00012C13.4999 6.00019 13.7271 6.07949 13.9163 6.22681C14.1054 6.37412 14.2469 6.58197 14.3206 6.82092L14.6222 7.80012H16.4444C16.5918 7.80012 16.7331 7.86334 16.8373 7.97586C16.9415 8.08838 17 8.24099 17 8.40012C17 8.55925 16.9415 8.71186 16.8373 8.82439C16.7331 8.93691 16.5918 9.00012 16.4444 9.00012L16.4428 9.04272L15.9611 16.3285C15.9311 16.7825 15.7429 17.2073 15.4345 17.5175C15.1261 17.8276 14.7203 18.0001 14.2989 18.0001H9.70111C9.2797 18.0001 8.87395 17.8276 8.56554 17.5175C8.25713 17.2073 8.06895 16.7825 8.03889 16.3285L7.55722 9.04212C7.55622 9.02815 7.55566 9.01414 7.55556 9.00012C7.40821 9.00012 7.26691 8.93691 7.16272 8.82439C7.05853 8.71186 7 8.55925 7 8.40012C7 8.24099 7.05853 8.08838 7.16272 7.97586C7.26691 7.86334 7.40821 7.80012 7.55556 7.80012H9.37778L9.67944 6.82092C9.75317 6.58188 9.89469 6.37395 10.0839 6.22663C10.2732 6.07931 10.5006 6.00006 10.7339 6.00012H13.2667ZM15.3317 9.00012H8.66833L9.14722 16.2427C9.1572 16.394 9.21988 16.5357 9.32264 16.6391C9.42541 16.7425 9.56064 16.8 9.70111 16.8001H14.2989C14.4394 16.8 14.5746 16.7425 14.6774 16.6391C14.7801 16.5357 14.8428 16.394 14.8528 16.2427L15.3317 9.00012ZM10.8889 10.8001C11.025 10.8001 11.1563 10.8541 11.258 10.9518C11.3597 11.0494 11.4246 11.184 11.4406 11.3299L11.4444 11.4001V14.4001C11.4443 14.5531 11.3901 14.7001 11.2929 14.8113C11.1957 14.9225 11.0628 14.9895 10.9214 14.9984C10.7801 15.0074 10.6409 14.9577 10.5323 14.8596C10.4237 14.7614 10.3539 14.6222 10.3372 14.4703L10.3333 14.4001V11.4001C10.3333 11.241 10.3919 11.0884 10.4961 10.9759C10.6002 10.8633 10.7415 10.8001 10.8889 10.8001ZM13.1111 10.8001C13.2585 10.8001 13.3998 10.8633 13.5039 10.9759C13.6081 11.0884 13.6667 11.241 13.6667 11.4001V14.4001C13.6667 14.5593 13.6081 14.7119 13.5039 14.8244C13.3998 14.9369 13.2585 15.0001 13.1111 15.0001C12.9638 15.0001 12.8225 14.9369 12.7183 14.8244C12.6141 14.7119 12.5556 14.5593 12.5556 14.4001V11.4001C12.5556 11.241 12.6141 11.0884 12.7183 10.9759C12.8225 10.8633 12.9638 10.8001 13.1111 10.8001ZM13.2667 7.20012H10.7333L10.5483 7.80012H13.4517L13.2667 7.20012Z"
            fill="#F8F8F8" />
    </g>
    <defs>
        <filter id="filter0_b_4100_27704" x="-8" y="-8" width="40" height="40"
            filterUnits="userSpaceOnUse" color-interpolation-filters="sRGB">
            <feFlood flood-opacity="0" result="BackgroundImageFix" />
            <feGaussianBlur in="BackgroundImageFix" stdDeviation="4" />
            <feComposite in2="SourceAlpha" operator="in" result="effect1_backgroundBlur_4100_27704" />
            <feBlend mode="normal" in="SourceGraphic" in2="effect1_backgroundBlur_4100_27704"
                result="shape" />
        </filter>
    </defs>
</svg>    