<svg width="28" height="28" viewBox="0 0 28 28" fill="none" xmlns="http://www.w3.org/2000/svg">
<circle cx="14" cy="14" r="13" stroke="#959697" stroke-opacity="0.25" stroke-width="2"/>
<path d="M14 0.994366C14 0.445193 14.4458 -0.00367501 14.9935 0.0352981C16.492 0.141906 17.9657 0.489161 19.3576 1.06569C21.0561 1.76925 22.5995 2.80049 23.8995 4.10051C25.1995 5.40053 26.2307 6.94388 26.9343 8.64243C27.6379 10.341 28 12.1615 28 14C28 15.8385 27.6379 17.659 26.9343 19.3576C26.2307 21.0561 25.1995 22.5995 23.8995 23.8995C22.5995 25.1995 21.0561 26.2307 19.3576 26.9343C17.9657 27.5108 16.492 27.8581 14.9935 27.9647C14.4457 28.0037 14 27.5548 14 27.0056C14 26.4565 14.4459 26.0155 14.9932 25.9701C16.2303 25.8675 17.446 25.5735 18.5965 25.097C20.0538 24.4933 21.3779 23.6086 22.4932 22.4933C23.6086 21.3779 24.4933 20.0538 25.097 18.5965C25.7006 17.1392 26.0113 15.5773 26.0113 14C26.0113 12.4227 25.7006 10.8608 25.097 9.40349C24.4933 7.94621 23.6086 6.6221 22.4932 5.50675C21.3779 4.3914 20.0538 3.50666 18.5965 2.90303C17.446 2.42648 16.2303 2.13251 14.9932 2.02987C14.4459 1.98446 14 1.54354 14 0.994366Z" fill="#FF9D1B"/>
</svg>
