<svg width="28" height="28" viewBox="0 0 28 28" fill="none" xmlns="http://www.w3.org/2000/svg">
<circle cx="14" cy="14" r="13" stroke="#959697" stroke-opacity="0.25" stroke-width="2"/>
<path d="M14 1.001C14 0.448715 14.4483 -0.00371659 14.9992 0.035699C16.4957 0.142774 17.9675 0.489882 19.3576 1.06569C21.0561 1.76925 22.5995 2.80049 23.8995 4.10051C25.1995 5.40053 26.2307 6.94388 26.9343 8.64243C27.5101 10.0326 27.8572 11.5043 27.9643 13.0008C28.0037 13.5517 27.5513 14 26.999 14C26.4467 14 26.0023 13.5515 25.9564 13.0011C25.8533 11.7678 25.5599 10.5557 25.0847 9.40857C24.4818 7.9529 23.598 6.63025 22.4839 5.51613C21.3698 4.40202 20.0471 3.51825 18.5914 2.91529C17.4443 2.44013 16.2322 2.14669 14.9989 2.04365C14.4485 1.99767 14 1.55328 14 1.001Z" fill="#E95554"/>
</svg>
