<svg width="20" height="17" viewBox="0 0 20 17" fill="none" xmlns="http://www.w3.org/2000/svg" id="redosvg">
    <path d="M11.724 16.364c1.637 0 3.237-.48 4.598-1.38a8.203 8.203 0 0 0 3.048-3.671c.626-1.495.79-3.14.471-4.727a8.153 8.153 0 0 0-2.265-4.19A8.306 8.306 0 0 0 13.34.157a8.364 8.364 0 0 0-4.782.466 8.256 8.256 0 0 0-3.714 3.013 8.116 8.116 0 0 0-1.395 4.546v4.227L.966 9.955 0 10.909 4.138 15l4.138-4.09-.966-.955-2.482 2.454V8.182c0-1.349.404-2.667 1.162-3.788a6.88 6.88 0 0 1 3.095-2.511 6.97 6.97 0 0 1 3.985-.388A6.921 6.921 0 0 1 16.6 3.36a6.795 6.795 0 0 1 1.888 3.49 6.746 6.746 0 0 1-.392 3.94 6.836 6.836 0 0 1-2.54 3.06A6.953 6.953 0 0 1 11.724 15v1.364z" fill="#8D8D8D"/>
</svg>
