<svg width="24" height="24" viewBox="0 0 24 24" fill="none" xmlns="http://www.w3.org/2000/svg">
<circle cx="12" cy="12" r="12" fill="#08C873"/>
<path d="M13.8109 17L11.2354 13H9.83501V17H8V7H11.8632C12.7217 7 13.446 7.13429 14.0362 7.40288C14.6372 7.67146 15.0825 8.03118 15.3722 8.48202C15.6727 8.93285 15.8229 9.43645 15.8229 9.99281C15.8229 10.6451 15.6083 11.2398 15.1791 11.777C14.7606 12.3046 14.1113 12.6643 13.2314 12.8561L16 17H13.8109ZM9.83501 11.6906H11.8632C12.55 11.6906 13.0651 11.5372 13.4085 11.2302C13.7626 10.9233 13.9396 10.5108 13.9396 9.99281C13.9396 9.47482 13.7679 9.07194 13.4245 8.78417C13.0812 8.48681 12.5607 8.33813 11.8632 8.33813H9.83501V11.6906Z" fill="#151718"/>
</svg>
