<svg width="20" height="16" viewBox="0 0 20 16" fill="none" xmlns="http://www.w3.org/2000/svg">
<path d="M18.862 16C18.5395 16 18.269 15.8871 18.0505 15.6612C17.832 15.4353 17.7232 15.1561 17.7239 14.8235V11.2941C17.7239 10.3137 17.392 9.48039 16.7281 8.79412C16.0643 8.10784 15.2582 7.7647 14.3098 7.7647H3.83982L7.16859 11.2059C7.37723 11.4216 7.48155 11.6863 7.48155 12C7.48155 12.3137 7.36775 12.5882 7.14014 12.8235C6.9315 13.0392 6.66595 13.1471 6.34351 13.1471C6.02106 13.1471 5.75552 13.0392 5.54688 12.8235L0.311893 7.41176C0.198089 7.29412 0.117288 7.16666 0.0694904 7.02941C0.0216927 6.89216 -0.00144735 6.7451 7.00337e-05 6.58823C7.00337e-05 6.43137 0.0239689 6.28431 0.0717666 6.14706C0.119564 6.0098 0.199606 5.88235 0.311893 5.7647L5.57533 0.323529C5.78397 0.107843 6.04003 0 6.34351 0C6.64699 0 6.91253 0.117647 7.14014 0.352941C7.34878 0.568627 7.4531 0.843137 7.4531 1.17647C7.4531 1.5098 7.34878 1.78431 7.14014 2L3.83982 5.41176H14.3098C15.8841 5.41176 17.2262 5.98549 18.3362 7.13294C19.4462 8.28039 20.0008 9.66745 20 11.2941V14.8235C20 15.1569 19.8907 15.4365 19.6722 15.6623C19.4537 15.8882 19.1836 16.0008 18.862 16Z" fill="#F8F8F8"/>
</svg>
