<svg width="24" height="24" viewBox="0 0 24 24" fill="none" xmlns="http://www.w3.org/2000/svg">
<g filter="url(#filter0_b_7534_83186)">
<rect x="3.5" y="3.5" width="17" height="17" rx="8.5" fill="#303438" fill-opacity="0.2" stroke="#F8F8F8"/>
<path d="M13.14 6.60156C13.3499 6.60162 13.5544 6.673 13.7247 6.80558C13.8949 6.93816 14.0222 7.12523 14.0885 7.34028L14.36 8.22156H16C16.1326 8.22156 16.2598 8.27846 16.3536 8.37972C16.4473 8.48099 16.5 8.61835 16.5 8.76156C16.5 8.90478 16.4473 9.04213 16.3536 9.1434C16.2598 9.24467 16.1326 9.30156 16 9.30156L15.9985 9.3399L15.565 15.8971C15.5379 16.3057 15.3686 16.688 15.091 16.9672C14.8134 17.2463 14.4483 17.4015 14.069 17.4016H9.931C9.55173 17.4015 9.18655 17.2463 8.90898 16.9672C8.63141 16.688 8.46205 16.3057 8.435 15.8971L8.0015 9.33936C8.0006 9.32678 8.0001 9.31418 8 9.30156C7.86739 9.30156 7.74021 9.24467 7.64645 9.1434C7.55268 9.04213 7.5 8.90478 7.5 8.76156C7.5 8.61835 7.55268 8.48099 7.64645 8.37972C7.74021 8.27846 7.86739 8.22156 8 8.22156H9.64L9.9115 7.34028C9.97785 7.12514 10.1052 6.93801 10.2755 6.80542C10.4459 6.67283 10.6505 6.60151 10.8605 6.60156H13.14ZM14.9985 9.30156H9.0015L9.4325 15.8199C9.44148 15.9561 9.49789 16.0836 9.59038 16.1766C9.68287 16.2697 9.80458 16.3215 9.931 16.3216H14.069C14.1954 16.3215 14.3171 16.2697 14.4096 16.1766C14.5021 16.0836 14.5585 15.9561 14.5675 15.8199L14.9985 9.30156ZM11 10.9216C11.1225 10.9216 11.2407 10.9701 11.3322 11.058C11.4237 11.1459 11.4822 11.267 11.4965 11.3984L11.5 11.4616V14.1616C11.4999 14.2992 11.4511 14.4316 11.3636 14.5317C11.2761 14.6317 11.1565 14.692 11.0293 14.7C10.9021 14.7081 10.7768 14.6634 10.6791 14.5751C10.5814 14.4867 10.5186 14.3614 10.5035 14.2247L10.5 14.1616V11.4616C10.5 11.3183 10.5527 11.181 10.6464 11.0797C10.7402 10.9785 10.8674 10.9216 11 10.9216ZM13 10.9216C13.1326 10.9216 13.2598 10.9785 13.3536 11.0797C13.4473 11.181 13.5 11.3183 13.5 11.4616V14.1616C13.5 14.3048 13.4473 14.4421 13.3536 14.5434C13.2598 14.6447 13.1326 14.7016 13 14.7016C12.8674 14.7016 12.7402 14.6447 12.6464 14.5434C12.5527 14.4421 12.5 14.3048 12.5 14.1616V11.4616C12.5 11.3183 12.5527 11.181 12.6464 11.0797C12.7402 10.9785 12.8674 10.9216 13 10.9216ZM13.14 7.68156H10.86L10.6935 8.22156H13.3065L13.14 7.68156Z" fill="#F8F8F8"/>
</g>
<defs>
<filter id="filter0_b_7534_83186" x="-5" y="-5" width="34" height="34" filterUnits="userSpaceOnUse" color-interpolation-filters="sRGB">
<feFlood flood-opacity="0" result="BackgroundImageFix"/>
<feGaussianBlur in="BackgroundImageFix" stdDeviation="4"/>
<feComposite in2="SourceAlpha" operator="in" result="effect1_backgroundBlur_7534_83186"/>
<feBlend mode="normal" in="SourceGraphic" in2="effect1_backgroundBlur_7534_83186" result="shape"/>
</filter>
</defs>
</svg>
