<svg width="13" height="12" viewBox="0 0 13 12" fill="none" id="romplete" xmlns="http://www.w3.org/2000/svg">
<path fill-rule="evenodd" clip-rule="evenodd" d="M6.5 11C9.26142 11 11.5 8.76142 11.5 6C11.5 3.23858 9.26142 1 6.5 1C3.73858 1 1.5 3.23858 1.5 6C1.5 8.76142 3.73858 11 6.5 11ZM5.61096 8.6366C5.66134 8.65664 5.71531 8.66667 5.77289 8.66667C5.83047 8.66667 5.88444 8.65664 5.93482 8.6366C5.9852 8.61687 6.03198 8.58315 6.07516 8.53542L10.0479 4.14467C10.1271 4.05717 10.1667 3.94374 10.1667 3.80438C10.1667 3.66534 10.1271 3.55208 10.0479 3.46458C9.96875 3.37708 9.86626 3.33333 9.74046 3.33333C9.61437 3.33333 9.51174 3.37708 9.43257 3.46458L5.77289 7.50932L4.22913 5.80313C4.14996 5.71563 4.0492 5.67189 3.92686 5.67189C3.80451 5.67189 3.70375 5.71563 3.62458 5.80313C3.54541 5.89063 3.50396 6.0039 3.50022 6.14294C3.49676 6.2823 3.53462 6.39572 3.61379 6.48322L5.47062 8.53542C5.5138 8.58315 5.56058 8.61687 5.61096 8.6366Z" fill="#E95554"/>
</svg>
