<svg width="20" height="20" viewBox="0 0 20 20" fill="none" xmlns="http://www.w3.org/2000/svg">
<path d="M19.7184 5.03809C19.6299 4.94883 19.5245 4.87798 19.4085 4.82963C19.2925 4.78128 19.1681 4.75638 19.0424 4.75638C18.9167 4.75638 18.7922 4.78128 18.6762 4.82963C18.5602 4.87798 18.4549 4.94883 18.3664 5.03809L17.1381 6.27619V0.952381C17.1381 0.699794 17.0378 0.457552 16.8593 0.278946C16.6807 0.10034 16.4385 0 16.186 0C15.9335 0 15.6913 0.10034 15.5128 0.278946C15.3342 0.457552 15.2339 0.699794 15.2339 0.952381V6.27619L14.0057 5.03809C13.8264 4.85876 13.5832 4.75801 13.3297 4.75801C13.0761 4.75801 12.8329 4.85876 12.6536 5.03809C12.4744 5.21743 12.3736 5.46067 12.3736 5.71429C12.3736 5.96791 12.4744 6.21114 12.6536 6.39048L15.51 9.24762C15.6006 9.33432 15.7073 9.40229 15.8242 9.44762C15.9382 9.498 16.0614 9.52403 16.186 9.52403C16.3106 9.52403 16.4338 9.498 16.5478 9.44762C16.6647 9.40229 16.7715 9.33432 16.862 9.24762L19.7184 6.39048C19.8076 6.30194 19.8784 6.19661 19.9268 6.08055C19.9751 5.96449 20 5.84001 20 5.71429C20 5.58856 19.9751 5.46408 19.9268 5.34802C19.8784 5.23197 19.8076 5.12663 19.7184 5.03809ZM16.186 11.4286C15.9335 11.4286 15.6913 11.5289 15.5128 11.7075C15.3342 11.8861 15.2339 12.1284 15.2339 12.381V12.7429L13.8248 11.3333C13.3272 10.8396 12.6547 10.5625 11.9538 10.5625C11.253 10.5625 10.5805 10.8396 10.0829 11.3333L9.41645 12L7.05519 9.63809C6.55068 9.15772 5.88082 8.8898 5.18428 8.8898C4.48775 8.8898 3.81788 9.15772 3.31337 9.63809L1.90424 11.0476V5.71429C1.90424 5.4617 2.00455 5.21946 2.18311 5.04085C2.36166 4.86224 2.60384 4.7619 2.85635 4.7619H10.4733C10.7258 4.7619 10.968 4.66156 11.1465 4.48296C11.3251 4.30435 11.4254 4.06211 11.4254 3.80952C11.4254 3.55694 11.3251 3.3147 11.1465 3.13609C10.968 2.95748 10.7258 2.85714 10.4733 2.85714H2.85635C2.0988 2.85714 1.37228 3.15816 0.836607 3.69398C0.300937 4.2298 0 4.95652 0 5.71429V17.1429C0 17.9006 0.300937 18.6273 0.836607 19.1632C1.37228 19.699 2.0988 20 2.85635 20H14.2818C15.0393 20 15.7658 19.699 16.3015 19.1632C16.8372 18.6273 17.1381 17.9006 17.1381 17.1429V12.381C17.1381 12.1284 17.0378 11.8861 16.8593 11.7075C16.6807 11.5289 16.4385 11.4286 16.186 11.4286ZM2.85635 18.0952C2.60384 18.0952 2.36166 17.9949 2.18311 17.8163C2.00455 17.6377 1.90424 17.3954 1.90424 17.1429V13.7429L4.66538 10.981C4.80526 10.8476 4.99106 10.7732 5.18428 10.7732C5.3775 10.7732 5.56331 10.8476 5.70319 10.981L8.7214 14L12.8155 18.0952H2.85635ZM15.2339 17.1429C15.2325 17.3252 15.1724 17.5022 15.0625 17.6476L10.7685 13.3333L11.4349 12.6667C11.5032 12.597 11.5847 12.5416 11.6746 12.5038C11.7645 12.466 11.8611 12.4466 11.9586 12.4466C12.0561 12.4466 12.1527 12.466 12.2426 12.5038C12.3325 12.5416 12.414 12.597 12.4823 12.6667L15.2339 15.4381V17.1429Z" fill="#F8F8F8"/>
</svg>
