<svg width="24" height="24" viewBox="0 0 24 24" fill="none" xmlns="http://www.w3.org/2000/svg">
<path d="M16.5 16.5L21 21M10.5 3C9.01664 3 7.5666 3.43987 6.33323 4.26398C5.09986 5.08809 4.13856 6.25943 3.57091 7.62987C3.00325 9.00032 2.85472 10.5083 3.14411 11.9632C3.4335 13.418 4.14781 14.7544 5.1967 15.8033C6.2456 16.8522 7.58197 17.5665 9.03683 17.8559C10.4917 18.1453 11.9997 17.9968 13.3701 17.4291C14.7406 16.8614 15.9119 15.9001 16.736 14.6668C17.5601 13.4334 18 11.9834 18 10.5C17.9999 8.51091 17.2097 6.60333 15.8032 5.19684C14.3967 3.79034 12.4891 3.00013 10.5 3Z" stroke="#F8F8F8" stroke-width="2" stroke-miterlimit="10" stroke-linecap="round"/>
</svg>
