<svg width="24" height="24" viewBox="0 0 24 24" fill="none" xmlns="http://www.w3.org/2000/svg" id="plus">
    <path d="M14.996 9.566v.375c0 .31-.253.563-.563.563h-3.938v3.939c0 .31-.253.562-.563.562h-.375a.564.564 0 0 1-.563-.562v-3.939H5.056a.564.564 0 0 1-.563-.563v-.375c0-.31.253-.562.563-.562h3.938v-3.94c0-.309.253-.562.563-.562h.375c.31 0 .563.253.563.563v3.939h3.938c.31 0 .563.253.563.562zm8.839 13.739-.53.53a.563.563 0 0 1-.797 0l-6.049-6.049a.557.557 0 0 1-.164-.399v-.398a9.71 9.71 0 0 1-6.541 2.518A9.731 9.731 0 0 1 0 9.88C-.07 4.394 4.394-.07 9.88 0a9.731 9.731 0 0 1 9.626 9.754 9.71 9.71 0 0 1-2.518 6.54h.398c.15 0 .291.062.399.165l6.049 6.049c.22.22.22.576 0 .797zM18.006 9.754A8.247 8.247 0 0 0 9.754 1.5 8.247 8.247 0 0 0 1.5 9.754a8.247 8.247 0 0 0 8.253 8.252 8.247 8.247 0 0 0 8.252-8.252z" fill="#fff"/>
</svg>
