<svg width="28" height="28" viewBox="0 0 28 28" fill="none" xmlns="http://www.w3.org/2000/svg" id="send-icon">
<path d="M24.1728 3.62891C24.4306 3.81641 24.5361 4.06641 24.4892 4.37891L21.4892 22.3789C21.4502 22.6055 21.3252 22.7812 21.1142 22.9062C21.0049 22.9688 20.8838 23 20.751 23C20.665 23 20.5713 22.9805 20.4697 22.9414L15.1612 20.7734L12.3254 24.2305C12.1847 24.4102 11.9933 24.5 11.7511 24.5C11.6496 24.5 11.5636 24.4844 11.4933 24.4531C11.3449 24.3984 11.2258 24.3066 11.1359 24.1777C11.0461 24.0488 11.0012 23.9062 11.0012 23.75V19.6602L21.126 7.25L8.59886 18.0898L3.97004 16.1914C3.68099 16.082 3.52474 15.8672 3.5013 15.5469C3.48568 15.2344 3.61067 15.0039 3.87629 14.8555L23.3759 3.60547C23.4931 3.53516 23.6181 3.5 23.7509 3.5C23.9072 3.5 24.0478 3.54297 24.1728 3.62891Z" fill="#08C873"/>
</svg>
