<svg width="33" height="35" id="shield" viewBox="0 0 33 35" fill="none" xmlns="http://www.w3.org/2000/svg">
<path d="M30.9719 5.72053L17.7719 0.25125C17.3698 0.0853792 16.9387 0 16.5034 0C16.0681 0 15.6371 0.0853792 15.235 0.25125L2.035 5.72053C0.804375 6.22644 0 7.42285 0 8.74915C0 22.3198 7.87188 31.6996 15.2281 34.7488C16.0394 35.0837 16.9537 35.0837 17.765 34.7488C23.6569 32.3081 33 23.8786 33 8.74915C33 7.42285 32.1956 6.22644 30.9719 5.72053ZM16.9263 32.732C16.6513 32.8413 16.3487 32.8413 16.0806 32.732C9.35 30.0794 2.2 20.7816 2.2 8.74915C2.2 8.30477 2.46812 7.90825 2.87375 7.73733L16.0738 2.26805C16.3419 2.15866 16.6513 2.15866 16.9194 2.26805L30.1194 7.73733C30.5319 7.90825 30.8 8.30477 30.7931 8.74915C30.8 20.7816 23.65 30.0794 16.9263 32.732V32.732ZM16.5 28.0967V6.8349L6.68938 10.9027C7.38375 19.1134 11.99 25.6014 16.5 28.0967ZM14.3 23.5299C11.7975 20.8021 9.77625 16.8437 9.06812 12.2837L14.3 10.1165V23.5299Z" fill="rgb(255,255,255)"/>
</svg>
