<svg width="24" height="24" viewBox="0 0 24 24" fill="none" xmlns="http://www.w3.org/2000/svg">
    <path fill-rule="evenodd" clip-rule="evenodd" d="M12 16.6667C8.404 16.6667 5.37333 14.8293 3.46133 12C5.37333 9.17067 8.404 7.33333 12 7.33333C15.596 7.33333 18.6267 9.17067 20.5387 12C18.6267 14.8293 15.596 16.6667 12 16.6667ZM12 6C7.744 6 4.208 8.27467 2.10133 11.6467C2.03511 11.7526 2 11.8751 2 12C2 12.1249 2.03511 12.2474 2.10133 12.3533C4.208 15.7253 7.744 18 12 18C16.256 18 19.792 15.7253 21.8987 12.3533C21.9649 12.2474 22 12.1249 22 12C22 11.8751 21.9649 11.7526 21.8987 11.6467C19.792 8.27467 16.256 6 12 6ZM12 14.6667C12.7072 14.6667 13.3855 14.3857 13.8856 13.8856C14.3857 13.3855 14.6667 12.7072 14.6667 12C14.6667 11.2928 14.3857 10.6145 13.8856 10.1144C13.3855 9.61428 12.7072 9.33333 12 9.33333C11.2928 9.33333 10.6145 9.61428 10.1144 10.1144C9.61428 10.6145 9.33333 11.2928 9.33333 12C9.33333 12.7072 9.61428 13.3855 10.1144 13.8856C10.6145 14.3857 11.2928 14.6667 12 14.6667Z" fill="#B3B3B4"/>
    </svg>
    