<svg width="27" id="srm" height="20" viewBox="0 0 27 20" fill="none" xmlns="http://www.w3.org/2000/svg">
    <path d="m11.098 10.235.47-.47a.333.333 0 0 0 0-.472L9.61 7.333l1.96-1.96a.333.333 0 0 0 0-.47l-.472-.472a.334.334 0 0 0-.47 0L7.96 7.098a.333.333 0 0 0 0 .471l2.666 2.667c.13.13.341.13.472 0zm4-.47.47.47c.13.13.342.13.472 0l2.667-2.666a.333.333 0 0 0 0-.471L16.04 4.43a.334.334 0 0 0-.471 0l-.472.471a.333.333 0 0 0 0 .471l1.96 1.96-1.96 1.96a.333.333 0 0 0 0 .471zM26 14h-2V2.667A2.67 2.67 0 0 0 21.333 0h-16a2.67 2.67 0 0 0-2.666 2.667V14h-2a.666.666 0 0 0-.667.667v2A3.337 3.337 0 0 0 3.333 20h20a3.337 3.337 0 0 0 3.334-3.333v-2A.667.667 0 0 0 26 14zM4 2.667c0-.737.597-1.334 1.333-1.334h16c.737 0 1.334.597 1.334 1.334V14h-6.37c-.17 0-.292.13-.33.295a1.334 1.334 0 0 1-1.3 1.038H12a1.334 1.334 0 0 1-1.3-1.038c-.038-.165-.161-.295-.33-.295H4V2.667zm21.333 14c0 1.103-.897 2-2 2h-20c-1.103 0-2-.897-2-2v-1.334h8.115a2.002 2.002 0 0 0 1.885 1.334h4c.87 0 1.611-.558 1.886-1.334h8.114v1.334z" fill="#fff"/>
</svg>
