<svg width="24" height="24" viewBox="0 0 24 24" fill="none" xmlns="http://www.w3.org/2000/svg">
<path d="M11.7187 23.5C11.7084 23.5 11.7032 23.4989 11.7018 23.4986L11.6657 23.4791L11.6256 23.4656C9.28989 22.677 7.35099 21.1127 5.81016 18.7362C4.26974 16.3604 3.5 13.7398 3.5 10.8622V5.12769C3.5 4.71755 3.60861 4.36035 3.82319 4.04148C4.04297 3.71489 4.31828 3.48703 4.65385 3.34438L11.3959 0.616865C11.6039 0.537201 11.8044 0.5 12 0.5C12.1956 0.5 12.3961 0.537201 12.6041 0.616865L19.3463 3.34445C19.6827 3.48716 19.9583 3.71506 20.1779 4.04148C20.3924 4.36013 20.5006 4.71705 20.5 5.12695V5.12769V10.8622C20.5 13.7407 19.7302 16.3617 18.1898 18.7374C16.649 21.1139 14.7102 22.6777 12.3746 23.4655L12.3551 23.4721L12.3444 23.4767C12.3406 23.4776 12.3197 23.4828 12.2741 23.488C12.2101 23.4953 12.1202 23.5 12 23.5H11.7187Z" fill="#393E44" stroke="#4C5158"/>
<path d="M14.1542 6.99979C14.0702 7.15015 14.0231 7.23446 13.9391 7.38483C14.23 7.43572 14.5115 7.49539 14.7752 7.56767L13.9229 7.93313L15.0605 8.37109L15.9084 7.98401C16.4292 8.23688 17.1504 8.54605 17.3893 8.89754H15.6891L15.858 9.61268H17.6223C17.617 10.0157 17.1193 10.3431 16.6439 10.6084L15.4382 10.231L14.3021 10.8203L15.5155 11.2211C14.8071 11.5003 13.6177 11.6701 12.633 11.7482L12.5916 10.9286H11.4085L11.3669 11.7482C10.3823 11.6701 9.19302 11.5005 8.48446 11.2213L9.69796 10.8203L8.56193 10.231L7.35605 10.6084C6.88751 10.4024 6.38304 10.0157 6.37775 9.61268H8.14224L8.31117 8.89754H6.61093C6.84987 8.54605 7.57103 8.23688 8.09183 7.98401L8.93977 8.37109L10.0774 7.93313L9.22507 7.56767C9.50031 7.49402 9.77714 7.43342 10.0551 7.38596C9.97232 7.23532 9.92589 7.15087 9.84309 7.00024C7.54318 7.34633 5.6317 8.08332 5.1305 9.24723C4.33109 11.1022 7.28014 12.9682 11.902 12.9973C11.9708 13.0022 12.0386 12.9986 12.1027 12.9973C16.722 12.9666 19.6684 11.1013 18.8696 9.24723C18.3681 8.08286 16.4555 7.34565 14.1542 6.99979Z" fill="#F8F8F8"/>
<path d="M13.9391 7.38483C14.0231 7.23446 14.0702 7.15015 14.1542 6.99979C13.3154 6.89834 12.8449 6.85987 12 6.85986C11.154 6.85985 10.6829 6.89842 9.84309 7.00024C9.92589 7.15087 9.97232 7.23532 10.0551 7.38596C10.8154 7.23882 11.2256 7.16976 12 7.17C12.772 7.17024 13.1838 7.25271 13.9391 7.38483Z" fill="#F8F8F8"/>
</svg>
