<svg width="24" height="24" viewBox="0 0 24 24" fill="none" xmlns="http://www.w3.org/2000/svg">
<path fill-rule="evenodd" clip-rule="evenodd" d="M4.75 4C4.75 3.58579 4.41421 3.25 4 3.25C3.58579 3.25 3.25 3.58579 3.25 4V4.10227L4.75 5.79113V4ZM4.75 8.35112L3.25 6.66226V17.3333C3.25 17.9743 3.50461 18.589 3.95783 19.0422C4.41104 19.4954 5.02573 19.75 5.66667 19.75H14.8742L13.5419 18.25H5.66667C5.42355 18.25 5.19039 18.1534 5.01849 17.9815C4.84658 17.8096 4.75 17.5764 4.75 17.3333V8.35112ZM8.59433 12.6795L6.50093 14.5582C6.19266 14.8348 5.71848 14.8092 5.44182 14.5009C5.16516 14.1927 5.19079 13.7185 5.49907 13.4418L7.59822 11.558L8.59433 12.6795ZM11.0009 12.829L8.86345 10.4225L9.21335 10.1085C9.49834 9.85273 9.93023 9.85273 10.2152 10.1085L13.4286 12.9923L17.0414 9.75H17C16.5858 9.75 16.25 9.41421 16.25 9C16.25 8.58579 16.5858 8.25 17 8.25H19C19.4142 8.25 19.75 8.58579 19.75 9V11C19.75 11.4142 19.4142 11.75 19 11.75C18.5858 11.75 18.25 11.4142 18.25 11V10.6808L13.9295 14.5582C13.6445 14.8139 13.2126 14.8139 12.9276 14.5582L11.0009 12.829ZM15.8156 18.25L17.0708 19.6632C17.0955 19.691 17.1181 19.72 17.1385 19.75H19C19.4142 19.75 19.75 19.4142 19.75 19C19.75 18.5858 19.4142 18.25 19 18.25H15.8156Z" fill="#F8F8F8"/>
<rect x="1.55469" y="4.19141" width="23.2178" height="1.7" rx="0.85" transform="rotate(48.3894 1.55469 4.19141)" fill="#F8F8F8"/>
</svg>
