<svg width="24" height="24" viewBox="0 0 24 24" fill="none" xmlns="http://www.w3.org/2000/svg">
<path d="M12 24H11.7187C11.625 24 11.5406 23.9798 11.4656 23.9393C9.00937 23.11 6.98437 21.4663 5.39062 19.0082C3.79687 16.5502 3 13.8348 3 10.8622V5.12769C3 4.622 3.13612 4.16688 3.40837 3.76233C3.68062 3.35777 4.032 3.06448 4.4625 2.88243L11.2125 0.151707C11.475 0.0505689 11.7375 0 12 0C12.2625 0 12.525 0.0505689 12.7875 0.151707L19.5375 2.88243C19.9688 3.06448 20.3205 3.35777 20.5927 3.76233C20.865 4.16688 21.0007 4.622 21 5.12769V10.8622C21 13.8357 20.2031 16.5514 18.6094 19.0095C17.0156 21.4675 14.9906 23.1108 12.5344 23.9393C12.4406 23.9798 12.2625 24 12 24Z" fill="#B3B3B4"/>
<path d="M14.1542 7.00003C14.0702 7.1504 14.0231 7.23471 13.9391 7.38508C14.23 7.43596 14.5115 7.49564 14.7752 7.56792L13.9229 7.93337L15.0605 8.37133L15.9084 7.98426C16.4292 8.23713 17.1504 8.54629 17.3893 8.89778H15.6891L15.858 9.61293H17.6223C17.617 10.016 17.1193 10.3434 16.6439 10.6086L15.4382 10.2313L14.3021 10.8205L15.5155 11.2213C14.8071 11.5005 13.6177 11.6703 12.633 11.7485L12.5916 10.9288H11.4085L11.3669 11.7485C10.3823 11.6703 9.19302 11.5008 8.48446 11.2216L9.69796 10.8205L8.56193 10.2313L7.35605 10.6086C6.88751 10.4026 6.38304 10.016 6.37775 9.61293H8.14224L8.31117 8.89778H6.61093C6.84987 8.54629 7.57103 8.23713 8.09183 7.98426L8.93977 8.37133L10.0774 7.93337L9.22507 7.56792C9.50031 7.49427 9.77714 7.43366 10.0551 7.3862C9.97232 7.23557 9.92589 7.15111 9.84309 7.00048C7.54318 7.34657 5.6317 8.08356 5.1305 9.24748C4.33109 11.1024 7.28014 12.9684 11.902 12.9975C11.9708 13.0024 12.0386 12.9988 12.1027 12.9975C16.722 12.9669 19.6684 11.1015 18.8696 9.24748C18.3681 8.08311 16.4555 7.34589 14.1542 7.00003Z" fill="#151718"/>
<path d="M13.9391 7.38508C14.0231 7.23471 14.0702 7.1504 14.1542 7.00003C13.3154 6.89859 12.8449 6.86012 12 6.86011C11.154 6.8601 10.6829 6.89867 9.84309 7.00048C9.92589 7.15111 9.97232 7.23557 10.0551 7.3862C10.8154 7.23907 11.2256 7.17001 12 7.17024C12.772 7.17048 13.1838 7.25295 13.9391 7.38508Z" fill="#151718"/>
</svg>
