<svg width="16" height="20" viewBox="0 0 16 20" fill="none" xmlns="http://www.w3.org/2000/svg">
    <path
        d="M14.995 12.5711V5.87203C14.995 5.54899 14.866 5.23919 14.6362 5.01077C14.4065 4.78235 14.0949 4.65402 13.77 4.65402C13.4452 4.65402 13.1336 4.78235 12.9039 5.01077C12.6741 5.23919 12.5451 5.54899 12.5451 5.87203V10.1351V3.43601C12.5451 3.11298 12.416 2.80317 12.1863 2.57475C11.9566 2.34633 11.645 2.21801 11.3201 2.21801C10.9952 2.21801 10.6837 2.34633 10.4539 2.57475C10.2242 2.80317 10.0952 3.11298 10.0952 3.43601V9.52605V2.21801C10.0952 1.89497 9.9661 1.58517 9.73638 1.35675C9.50665 1.12833 9.19508 1 8.8702 1C8.54532 1 8.23375 1.12833 8.00402 1.35675C7.7743 1.58517 7.64524 1.89497 7.64524 2.21801V9.52605M7.64524 9.56411V4.04502C7.64524 3.72198 7.51618 3.41218 7.28645 3.18376C7.05673 2.95534 6.74515 2.82701 6.42027 2.82701C6.09539 2.82701 5.78382 2.95534 5.5541 3.18376C5.32437 3.41218 5.19531 3.72198 5.19531 4.04502V12.5711"
        stroke="#F8F8F8" stroke-width="1.5" stroke-linecap="round" stroke-linejoin="round" />
    <path
        d="M14.9996 12.5358C14.9996 16.8477 12.4542 19 8.9543 19C5.45441 19 4.03417 17.5456 3.22721 15.7679L1.13244 10.479C0.867563 9.81607 0.987673 9.20123 1.60453 8.87766C2.22178 8.55371 3.03272 8.72046 3.3668 9.30664L4.81806 12.5358"
        stroke="#F8F8F8" stroke-width="1.5" stroke-linecap="round" stroke-linejoin="round" />
</svg>
    