<svg width="24" height="24" viewBox="0 0 24 24" fill="none" xmlns="http://www.w3.org/2000/svg">
<circle cx="12" cy="12" r="12" fill="#FFD869"/>
<path d="M9.03704 16C8.46091 16 7.94239 15.91 7.48148 15.73C7.02058 15.5424 6.65844 15.2799 6.39506 14.9423C6.13169 14.6048 6 14.211 6 13.7609H7.50617C7.53909 14.0985 7.68313 14.376 7.93827 14.5935C8.20165 14.8111 8.5679 14.9198 9.03704 14.9198C9.52263 14.9198 9.90123 14.8148 10.1728 14.6048C10.4444 14.3872 10.5802 14.1097 10.5802 13.7722C10.5802 13.5096 10.4938 13.2958 10.321 13.1308C10.1564 12.9658 9.9465 12.8383 9.69136 12.7482C9.44444 12.6582 9.09877 12.5607 8.65432 12.4557C8.09465 12.3207 7.63786 12.1857 7.28395 12.0506C6.93827 11.9081 6.64198 11.6906 6.39506 11.398C6.14815 11.1055 6.02469 10.7154 6.02469 10.2278C6.02469 9.77778 6.14815 9.38397 6.39506 9.04641C6.64198 8.70886 6.98765 8.45007 7.4321 8.27004C7.87654 8.09001 8.39095 8 8.97531 8C9.80658 8 10.4856 8.19128 11.0123 8.57384C11.5473 8.9489 11.8436 9.46648 11.9012 10.1266H10.3457C10.321 9.84154 10.1728 9.59775 9.90123 9.39522C9.62963 9.19269 9.27161 9.09142 8.82716 9.09142C8.42387 9.09142 8.09465 9.18519 7.83951 9.37271C7.58436 9.56024 7.45679 9.83029 7.45679 10.1828C7.45679 10.4229 7.53498 10.6217 7.69136 10.7792C7.85597 10.9292 8.06173 11.0492 8.30864 11.1392C8.55556 11.2293 8.893 11.3268 9.32099 11.4318C9.88889 11.5743 10.3498 11.7168 10.7037 11.8594C11.0658 12.0019 11.3704 12.2232 11.6173 12.5232C11.8724 12.8158 12 13.2096 12 13.7046C12 14.1022 11.8807 14.4773 11.642 14.8298C11.4115 15.1824 11.07 15.4674 10.6173 15.685C10.1728 15.895 9.64609 16 9.03704 16Z" fill="#151718"/>
<path d="M19 10.3827C19 10.7894 18.8971 11.1731 18.6914 11.5338C18.4856 11.8945 18.1564 12.1899 17.7037 12.4201C17.251 12.6427 16.6708 12.754 15.963 12.754H14.4074V16H13V8H15.963C16.6214 8 17.177 8.10743 17.6296 8.3223C18.0905 8.5295 18.4321 8.81343 18.6543 9.1741C18.8848 9.53477 19 9.93765 19 10.3827ZM15.963 11.6835C16.4979 11.6835 16.8971 11.5722 17.1605 11.3496C17.4239 11.1194 17.5556 10.7971 17.5556 10.3827C17.5556 9.50791 17.0247 9.0705 15.963 9.0705H14.4074V11.6835H15.963Z" fill="#151718"/>
</svg>
