<svg width="24" height="24" viewBox="0 0 24 24" fill="none" xmlns="http://www.w3.org/2000/svg">
<path d="M12 0C16.4114 0 20 3.756 20 8.4C20 13.8818 13.9431 21.6349 12.3698 23.5563C12.176 23.793 11.824 23.793 11.6302 23.5563C10.0569 21.6349 4 13.8818 4 8.4C4 6.17218 4.84285 4.03561 6.34315 2.4603C7.84344 0.884997 9.87827 0 12 0Z" fill="#B3B3B4"/>
<path d="M11.9999 4L8.90469 5.2963L7 7.75928L8.33179 9.31483C8.37962 9.26582 8.43102 9.21816 8.48433 9.17304C8.48865 9.16943 8.49114 9.16454 8.49546 9.16093L8.49919 9.165C9.30029 8.45508 10.5426 8.14818 12 8.14818C13.4574 8.14818 14.6996 8.45508 15.5008 9.165L15.5045 9.16093C15.5089 9.16454 15.5114 9.16943 15.5157 9.17304C15.569 9.21816 15.6204 9.26582 15.6682 9.31483L17 7.75928L15.0953 5.2963L11.9999 4ZM12.0036 5.42589L13.1903 5.8148C13.0643 6.86687 12.5832 7.50002 12.0036 7.50002C11.4241 7.50002 10.9355 6.86687 10.8094 5.8148L12.0036 5.42589ZM11.9999 8.66665C10.6023 8.66665 9.43785 8.98929 8.78565 9.57413C8.58536 9.7406 8.42849 9.95735 8.42849 10.0926C8.42849 10.7122 10.1463 11 11.9999 11C13.8535 11 15.5713 10.7122 15.5713 10.0926C15.5713 9.95733 15.4144 9.74059 15.2141 9.57413C14.5618 8.98927 13.3974 8.66665 11.9999 8.66665H11.9999Z" fill="#151718"/>
</svg>
