<svg width="14" height="12" viewBox="0 0 14 12" fill="none" xmlns="http://www.w3.org/2000/svg" id="text_icon" >
    <path d="M13.84 11.273H7.16a.15.15 0 0 0-.113.053.196.196 0 0 0-.047.128v.364c0 .048.017.095.047.129a.15.15 0 0 0 .112.053h6.682a.15.15 0 0 0 .112-.053.196.196 0 0 0 .047-.129v-.364a.196.196 0 0 0-.047-.128.15.15 0 0 0-.112-.053zm0-7.273H7.16a.15.15 0 0 0-.113.053.196.196 0 0 0-.047.129v.363c0 .049.017.095.047.129a.15.15 0 0 0 .112.053h6.682a.15.15 0 0 0 .112-.053.196.196 0 0 0 .047-.129v-.363a.196.196 0 0 0-.047-.129.15.15 0 0 0-.112-.053zm0 3.636H7.16a.15.15 0 0 0-.113.054.196.196 0 0 0-.047.128v.364c0 .048.017.094.047.128a.15.15 0 0 0 .112.054h6.682a.15.15 0 0 0 .112-.054.196.196 0 0 0 .047-.128v-.364a.196.196 0 0 0-.047-.128.15.15 0 0 0-.112-.054z" fill="#fff"/>
    <path d="M4.883 12H3.124V1.674H0V0h8v1.674H4.883V12z" fill="#fff"/>
</svg>
