<svg width="25"  height="20" viewBox="0 0 25 20" id='tourSettings' fill="none" xmlns="http://www.w3.org/2000/svg">
    <path d="M24.107 1.818h-4.464V.228c0-.126-.1-.228-.223-.228h-1.563a.226.226 0 0 0-.223.227v1.591h-4.13V.228c0-.126-.1-.228-.223-.228H11.72a.226.226 0 0 0-.223.227v1.591h-4.13V.228c0-.126-.1-.228-.223-.228H5.58a.226.226 0 0 0-.223.227v1.591H.893a.9.9 0 0 0-.893.91V19.09A.9.9 0 0 0 .893 20h23.214a.9.9 0 0 0 .893-.91V2.728a.9.9 0 0 0-.893-.909zm-1.116 16.136H2.01V3.864h3.348v1.59c0 .126.1.228.223.228h1.563a.226.226 0 0 0 .223-.227V3.864h4.13v1.59c0 .126.1.228.223.228h1.562a.226.226 0 0 0 .223-.227V3.864h4.13v1.59c0 .126.1.228.223.228h1.563a.226.226 0 0 0 .223-.227V3.864h3.348v14.09zM9.821 9.545H4.688a.226.226 0 0 0-.224.228v1.363c0 .125.1.228.223.228h5.134a.226.226 0 0 0 .224-.228V9.773c0-.125-.1-.228-.224-.228zm0 3.864H4.688a.226.226 0 0 0-.224.227V15c0 .125.1.227.223.227h5.134a.226.226 0 0 0 .224-.227v-1.364c0-.125-.1-.227-.224-.227zm8.6-5.04-2.89 4.083-1.474-2.077a.438.438 0 0 0-.36-.188h-1.532c-.181 0-.287.21-.181.361l3.183 4.495a.445.445 0 0 0 .36.187.438.438 0 0 0 .36-.187l4.604-6.498c.106-.15 0-.36-.181-.36h-1.532a.434.434 0 0 0-.357.184z" fill="#fff"/>
</svg>
