<svg width="24" height="18" viewBox="0 0 24 18" fill="none" xmlns="http://www.w3.org/2000/svg" id="tours-markers-1">
    <path fill-rule="evenodd" clip-rule="evenodd" d="m15.11 16.623-4.875-1.722c-.364-.13-.577-.131-.975.004l-4.391 1.62c-.723.248-.947.396-.972.61v.091a.487.487 0 0 0 .67.451l5.18-1.913 5.241 1.85a1.96 1.96 0 0 0 1.22.005l4.628-1.611c.354-.244.308-.918-.32-.918l-4.43 1.54c-.4.171-.611.154-.976-.007z" fill="#fff"/>
    <path d="M3.897 17.226a.487.487 0 0 0 .67.451l5.18-1.913 5.241 1.85a1.96 1.96 0 0 0 1.22.005l4.628-1.611c.354-.244.308-.918-.32-.918l-4.43 1.54c-.4.171-.611.154-.976-.007l-4.875-1.722c-.364-.13-.577-.131-.975.004l-4.391 1.62c-.723.248-.947.396-.972.61m0 .091v-.091m0 .091a.422.422 0 0 1 0-.091" stroke="#fff" stroke-width=".5"/>
    <path d="M6.18 1A5.18 5.18 0 0 0 1 6.18c0 2.089.728 2.672 4.648 8.355a.648.648 0 0 0 1.064 0c3.92-5.683 4.648-6.266 4.648-8.355A5.18 5.18 0 0 0 6.18 1zm0 12.786C2.422 8.352 1.863 7.92 1.863 6.18c0-1.153.45-2.237 1.265-3.052A4.288 4.288 0 0 1 6.18 1.863c1.153 0 2.237.45 3.052 1.265a4.288 4.288 0 0 1 1.265 3.052c0 1.74-.559 2.171-4.317 7.606zM17.82 1a5.18 5.18 0 0 0-5.18 5.18c0 2.089.727 2.672 4.647 8.355a.648.648 0 0 0 1.065 0C22.272 8.852 23 8.269 23 6.18A5.18 5.18 0 0 0 17.82 1zm0 12.786c-3.758-5.434-4.317-5.866-4.317-7.606 0-1.153.449-2.237 1.264-3.052a4.288 4.288 0 0 1 3.053-1.265c1.153 0 2.237.45 3.052 1.265a4.288 4.288 0 0 1 1.264 3.052c0 1.74-.558 2.171-4.316 7.606z" fill="#fff" stroke="#fff" stroke-width=".5"/>
</svg>
