<svg id="tree" width="22" height="23" viewBox="0 0 22 23"  xmlns="http://www.w3.org/2000/svg">
<path d="M16.1333 6.01437H20.5333C20.9223 6.01437 21.2954 5.85985 21.5704 5.58479C21.8455 5.30974 22 4.93669 22 4.5477V1.61437C22 1.22539 21.8455 0.852335 21.5704 0.577282C21.2954 0.302228 20.9223 0.147705 20.5333 0.147705H16.1333C15.7444 0.147705 15.3713 0.302228 15.0962 0.577282C14.8212 0.852335 14.6667 1.22539 14.6667 1.61437V2.34771H7.33333V1.61437C7.33333 1.22539 7.17881 0.852335 6.90376 0.577282C6.6287 0.302228 6.25565 0.147705 5.86667 0.147705H1.46667C1.07768 0.147705 0.70463 0.302228 0.429577 0.577282C0.154523 0.852335 0 1.22539 0 1.61437V4.5477C0 4.93669 0.154523 5.30974 0.429577 5.58479C0.70463 5.85985 1.07768 6.01437 1.46667 6.01437H5.86667C6.25565 6.01437 6.6287 5.85985 6.90376 5.58479C7.17881 5.30974 7.33333 4.93669 7.33333 4.5477V3.81437H10.2667V18.481C10.2671 18.8699 10.4217 19.2427 10.6967 19.5177C10.9716 19.7927 11.3445 19.9473 11.7333 19.9477H14.6667V20.681C14.6667 21.07 14.8212 21.4431 15.0962 21.7181C15.3713 21.9932 15.7444 22.1477 16.1333 22.1477H20.5333C20.9223 22.1477 21.2954 21.9932 21.5704 21.7181C21.8455 21.4431 22 21.07 22 20.681V17.7477C22 17.3587 21.8455 16.9857 21.5704 16.7106C21.2954 16.4356 20.9223 16.281 20.5333 16.281H16.1333C15.7444 16.281 15.3713 16.4356 15.0962 16.7106C14.8212 16.9857 14.6667 17.3587 14.6667 17.7477V18.481H11.7333V11.881H14.6667V12.6144C14.6667 13.0034 14.8212 13.3764 15.0962 13.6515C15.3713 13.9265 15.7444 14.081 16.1333 14.081H20.5333C20.9223 14.081 21.2954 13.9265 21.5704 13.6515C21.8455 13.3764 22 13.0034 22 12.6144V9.68104C22 9.29205 21.8455 8.919 21.5704 8.64395C21.2954 8.3689 20.9223 8.21437 20.5333 8.21437H16.1333C15.7444 8.21437 15.3713 8.3689 15.0962 8.64395C14.8212 8.919 14.6667 9.29205 14.6667 9.68104V10.4144H11.7333V3.81437H14.6667V4.5477C14.6667 4.93669 14.8212 5.30974 15.0962 5.58479C15.3713 5.85985 15.7444 6.01437 16.1333 6.01437ZM16.1333 1.61437H20.5333V4.5477H16.1333V1.61437ZM5.86667 4.5477H1.46667V1.61437H5.86667V4.5477ZM16.1333 17.7477H20.5333V20.681H16.1333V17.7477ZM16.1333 9.68104H20.5333V12.6144H16.1333V9.68104Z" />
</svg>
