<svg width="24" height="24" viewBox="0 0 24 24" fill="none" xmlns="http://www.w3.org/2000/svg">
<path d="M17.6046 8.38019C17.449 8.17348 17.2233 8.04156 16.9771 8.01346C16.7309 7.98535 16.4844 8.06335 16.2918 8.23031C16.0992 8.39727 15.9762 8.6395 15.95 8.90372C15.9238 9.16794 15.9965 9.43251 16.1521 9.63921C16.6225 10.3256 16.8762 11.1553 16.8762 12.0074C16.8762 12.8594 16.6225 13.6892 16.1521 14.3755C16.0411 14.5224 15.9712 14.7 15.9505 14.8878C15.9299 15.0756 15.9592 15.2658 16.0353 15.4364C16.1114 15.6069 16.231 15.7508 16.3802 15.8514C16.5294 15.9519 16.7022 16.0049 16.8784 16.0043C17.0175 16.0048 17.1549 15.9718 17.2806 15.9079C17.4063 15.8439 17.517 15.7505 17.6046 15.6346C18.3432 14.5915 18.743 13.3174 18.743 12.0074C18.743 10.6973 18.3432 9.4233 17.6046 8.38019Z" fill="#F8F8F8"/>
<path d="M18.8715 5.24223C18.7774 5.15825 18.6687 5.095 18.5518 5.05607C18.4349 5.01715 18.3119 5.00333 18.19 5.01539C18.0681 5.02745 17.9496 5.06516 17.8413 5.12637C17.7329 5.18758 17.6369 5.27109 17.5587 5.37213C17.4804 5.47317 17.4215 5.58976 17.3852 5.71525C17.3489 5.84074 17.336 5.97266 17.3473 6.10349C17.3585 6.23432 17.3937 6.36149 17.4507 6.47774C17.5077 6.594 17.5856 6.69706 17.6797 6.78104C18.4265 7.40043 19.0348 8.19115 19.4601 9.09535C19.8854 9.99956 20.1169 10.9944 20.1378 12.007C20.1169 13.0196 19.8854 14.0144 19.4601 14.9186C19.0348 15.8228 18.4265 16.6135 17.6797 17.2329C17.5854 17.3168 17.5075 17.4198 17.4504 17.5361C17.3932 17.6523 17.358 17.7796 17.3468 17.9104C17.3356 18.0413 17.3485 18.1733 17.3848 18.2988C17.4212 18.4243 17.4803 18.5409 17.5587 18.6418C17.6462 18.7546 17.7558 18.8453 17.8797 18.9075C18.0037 18.9697 18.1388 19.0018 18.2756 19.0016C18.4932 19.002 18.704 18.9207 18.8715 18.7717C19.831 17.9668 20.61 16.9412 21.1514 15.7705C21.6929 14.5999 21.9828 13.3138 22 12.007C21.9828 10.7002 21.6929 9.41411 21.1514 8.24342C20.61 7.07272 19.831 6.04718 18.8715 5.24223ZM14.5512 3.13387C14.4097 3.04617 14.2491 3 14.0857 3C13.9222 3 13.7617 3.04617 13.6201 3.13387L7.65188 7.5323C7.60942 7.56359 7.55851 7.58042 7.50627 7.58042H2.9311C2.68416 7.58042 2.44733 7.68569 2.27271 7.87308C2.0981 8.06048 2 8.31463 2 8.57964V15.4343C2 15.6993 2.0981 15.9535 2.27271 16.1409C2.44733 16.3283 2.68416 16.4335 2.9311 16.4335H7.5063C7.55852 16.4335 7.60942 16.4504 7.65187 16.4816L13.5549 20.8301C13.7131 20.94 13.8973 20.9989 14.0857 21C14.3326 21 14.5694 20.8947 14.744 20.7073C14.9187 20.5199 15.0168 20.2658 15.0168 20.0008V4.01319C15.0191 3.83543 14.9771 3.66022 14.8953 3.50565C14.8135 3.35108 14.6947 3.22274 14.5512 3.13387ZM13.1813 17.6205C13.1818 17.83 12.9515 17.9521 12.7858 17.8301L8.40596 14.605C8.2492 14.4919 8.0641 14.4326 7.87523 14.4351H4.09358C3.9555 14.4351 3.84358 14.32 3.84358 14.178V9.83601C3.84358 9.69399 3.9555 9.57887 4.09358 9.57887H7.87523C8.0641 9.58133 8.2492 9.52208 8.40596 9.409L12.7602 6.20219C12.9254 6.0805 13.1552 6.20164 13.1557 6.41065L13.1813 17.6205Z" fill="#F8F8F8"/>
</svg>
