<svg width="34" height="35" id="off" viewBox="0 0 34 35" fill="none" xmlns="http://www.w3.org/2000/svg">
<path d="M26.0827 3.21527C30.8399 6.27083 34 11.6528 34 17.7778C34 27.2777 26.4048 34.9791 17.0343 35C7.67743 35.0208 0.0137208 27.2916 1.113e-05 17.8055C-0.00684371 11.6667 3.15324 6.27083 7.91735 3.21527C8.31493 2.95833 8.84275 3.09027 9.07581 3.50694L9.34315 3.99305C9.55565 4.38194 9.43227 4.86805 9.06211 5.10416C4.92864 7.77777 2.19356 12.4722 2.19356 17.7778C2.19356 26.1041 8.86332 32.7777 17 32.7777C25.219 32.7777 31.8065 26.0208 31.8065 17.7778C31.8065 12.4305 29.0577 7.76388 24.9311 5.1111C24.5609 4.87499 24.4375 4.38194 24.65 3.99999L24.9173 3.51388C25.1504 3.09027 25.6851 2.96527 26.0827 3.21527V3.21527ZM18.0968 19.1666V0.833332C18.0968 0.375 17.7266 0 17.2742 0H16.7258C16.2734 0 15.9032 0.375 15.9032 0.833332V19.1666C15.9032 19.625 16.2734 20 16.7258 20H17.2742C17.7266 20 18.0968 19.625 18.0968 19.1666Z" fill="rgb(255,255,255)"/>
</svg>
