<svg width="24" height="24" viewBox="0 0 24 24" fill="none" xmlns="http://www.w3.org/2000/svg">
<path d="M12 0C16.4114 0 20 3.756 20 8.4C20 13.8818 13.9431 21.6349 12.3698 23.5563C12.176 23.793 11.824 23.793 11.6302 23.5563C10.0569 21.6349 4 13.8818 4 8.4C4 6.17218 4.84285 4.03561 6.34315 2.4603C7.84344 0.884997 9.87827 0 12 0Z" fill="#08C873"/>
<path d="M11.9807 3.00002C11.6138 3.00518 11.2636 3.11135 11.0059 3.37757C10.7482 3.64379 10.6038 4.00268 10.6038 4.37659C10.6038 4.75387 10.7509 5.11571 11.0127 5.38249C11.2746 5.64927 11.6297 5.7155 12 5.7155C12.3702 5.7155 12.7254 5.64927 12.9872 5.38249C13.249 5.11571 13.3961 4.75387 13.3961 4.37659C13.3961 3.9993 13.249 3.63747 12.9872 3.37069C12.7254 3.10391 12.3703 3.00002 12 3.00002C12 3.00002 11.9871 2.99997 11.9807 3.00002ZM11.9731 6.15032C10.9315 6.15059 9.89937 6.60662 10.0079 7.51814L10.2738 9.49956C10.3205 9.84816 10.5517 10.4055 10.897 10.4055H10.9216L11.2044 13.729C11.2167 13.8787 11.323 14 11.4704 14H12.5341C12.6814 14 12.7878 13.8787 12.8 13.729L13.0828 10.4057H13.1076C13.4529 10.4057 13.684 9.84816 13.7308 9.49956L13.9967 7.51814C14.0664 6.60581 13.0149 6.15018 11.9731 6.15032Z" fill="#151718"/>
</svg>
