<svg width="24" height="24" viewBox="0 0 24 24" fill="none" xmlns="http://www.w3.org/2000/svg">
    <path fill-rule="evenodd" clip-rule="evenodd"
        d="M20.0659 11.27V6.96181C20.0592 6.5094 19.9941 6.06007 19.8723 5.62627C19.561 4.4794 18.872 3.48767 17.9294 2.82979C16.9868 2.17192 15.8527 1.89117 14.7315 2.03814C13.6102 2.1851 12.5755 2.75013 11.8139 3.63138C11.0523 4.51263 10.6138 5.65215 10.5774 6.84459V7.09306L10.568 7.96473V17.9357H10.5642V17.9768C10.5642 18.5083 10.3642 19.018 10.0083 19.3937C9.65246 19.7695 9.16977 19.9806 8.66648 19.9806C8.16318 19.9806 7.68049 19.7695 7.3246 19.3937C6.96872 19.018 6.76878 18.5083 6.76878 17.9768C6.76878 17.9698 6.76975 17.9628 6.77075 17.9556C6.77146 17.9504 6.77218 17.9452 6.77258 17.9398H6.76878V16.6791C7.38118 16.3471 7.8 15.675 7.8 14.9C7.8 13.7954 6.94934 12.9 5.9 12.9C4.85066 12.9 4 13.7954 4 14.9C4 15.6055 4.34698 16.2256 4.87109 16.5816V17.9969H4.87299C4.87362 19.0592 5.27389 20.0778 5.98575 20.8285C6.69762 21.5793 7.66275 22.0007 8.66885 22C9.67494 21.9993 10.6396 21.5767 11.3506 20.825C12.0615 20.0733 12.4606 19.0542 12.46 17.9919H12.4619V17.008H12.4666V8.96664L12.4761 7.09306V6.84559C12.5031 6.05685 12.8228 5.31096 13.3661 4.76891C13.9094 4.22685 14.6328 3.93211 15.3801 3.94829C16.1274 3.96446 16.8387 4.29026 17.3605 4.85537C17.8823 5.42048 18.1727 6.17957 18.1692 6.96883V11.252C17.8058 11.4691 17.5204 11.8067 17.3573 12.2125C17.1942 12.6183 17.1624 13.0696 17.2668 13.4964C17.3713 13.9232 17.6063 14.3017 17.9352 14.5731C18.2641 14.8446 18.6687 14.9939 19.0862 14.9979C19.5036 15.0018 19.9107 14.8602 20.2442 14.5951C20.5777 14.3299 20.819 13.9559 20.9308 13.5312C21.0425 13.1064 21.0184 12.6546 20.8622 12.2458C20.706 11.837 20.4255 11.494 20.0659 11.27ZM19.9992 13C19.9992 13.4971 19.5963 13.9 19.0992 13.9C18.6022 13.9 18.1992 13.4971 18.1992 13C18.1992 12.5029 18.6022 12.1 19.0992 12.1C19.5963 12.1 19.9992 12.5029 19.9992 13ZM5.89922 15.9C6.42389 15.9 6.84922 15.4747 6.84922 14.95C6.84922 14.4253 6.42389 14 5.89922 14C5.37455 14 4.94922 14.4253 4.94922 14.95C4.94922 15.4747 5.37455 15.9 5.89922 15.9Z"
        fill="#e83f6f" />
</svg>