<svg width="72" height="72" viewBox="0 0 72 72" fill="none" xmlns="http://www.w3.org/2000/svg">
<g id="User">
<rect width="72" height="72" rx="36" fill="#303439"/>
<path id="Vector" fill-rule="evenodd" clip-rule="evenodd" d="M30.5449 28C30.5449 26.4087 31.1196 24.8826 32.1426 23.7574C33.1657 22.6321 34.5532 22 36 22C37.4468 22 38.8343 22.6321 39.8574 23.7574C40.8804 24.8826 41.4551 26.4087 41.4551 28C41.4551 29.5913 40.8804 31.1174 39.8574 32.2426C38.8343 33.3678 37.4468 34 36 34C34.5532 34 33.1657 33.3678 32.1426 32.2426C31.1196 31.1174 30.5449 29.5913 30.5449 28ZM26.0001 46.8066C26.041 43.9193 27.1126 41.1654 28.9834 39.1394C30.8543 37.1135 33.3745 35.9779 36 35.9779C38.6255 35.9779 41.1457 37.1135 43.0166 39.1394C44.8874 41.1654 45.959 43.9193 45.9999 46.8066C46.003 47.001 45.9546 47.1922 45.8605 47.3568C45.7664 47.5214 45.6307 47.6522 45.4701 47.7333C42.4991 49.2316 39.2684 50.0048 36 50C32.6227 50 29.4138 49.1893 26.5299 47.7333C26.3693 47.6522 26.2336 47.5214 26.1395 47.3568C26.0454 47.1922 25.997 47.001 26.0001 46.8066Z" fill="#77797A"/>
</g>
</svg>
