<svg width="24" height="24" viewBox="0 0 24 24" fill="none" xmlns="http://www.w3.org/2000/svg">
<circle cx="12" cy="12" r="12" fill="#9090D0"/>
<path d="M9.67956 7V13.9416C9.67956 14.7669 9.88091 15.3884 10.2836 15.8063C10.6961 16.2241 11.2658 16.433 11.9926 16.433C12.7293 16.433 13.299 16.2241 13.7017 15.8063C14.1142 15.3884 14.3204 14.7669 14.3204 13.9416V7H16V13.9103C16 14.7982 15.8183 15.5503 15.4549 16.1667C15.0915 16.783 14.6053 17.2426 13.9963 17.5456C13.3874 17.8485 12.7145 18 11.9779 18C11.2413 18 10.5684 17.8485 9.95948 17.5456C9.36034 17.2426 8.88398 16.783 8.53039 16.1667C8.1768 15.5503 8 14.7982 8 13.9103V7H9.67956Z" fill="#151718"/>
</svg>
