<svg width="18" id="userico" height="20" viewBox="0 0 18 20" fill="none" xmlns="http://www.w3.org/2000/svg">
    <path d="M12.25 11.25c-1.121 0-1.66.625-3.5.625s-2.375-.625-3.5-.625A5.251 5.251 0 0 0 0 16.5v1.625C0 19.16.84 20 1.875 20h13.75c1.035 0 1.875-.84 1.875-1.875V16.5a5.251 5.251 0 0 0-5.25-5.25zm4 6.875a.627.627 0 0 1-.625.625H1.875a.627.627 0 0 1-.625-.625V16.5c0-2.207 1.793-4 4-4 .766 0 1.527.625 3.5.625 1.969 0 2.734-.625 3.5-.625 2.207 0 4 1.793 4 4v1.625zM8.75 10a5 5 0 1 0 0-10 5 5 0 0 0 0 10zm0-8.75A3.756 3.756 0 0 1 12.5 5a3.756 3.756 0 0 1-3.75 3.75A3.756 3.756 0 0 1 5 5a3.756 3.756 0 0 1 3.75-3.75z" fill="#fff"/>
</svg>
