<svg width="11" height="9" viewBox="0 0 11 9" fill="none" xmlns="http://www.w3.org/2000/svg" id="user_1">
    <path d="m10.463 3.223-.29-.289a.156.156 0 0 0-.221 0l-1.564 1.56-.72-.718a.156.156 0 0 0-.22 0l-.292.289a.157.157 0 0 0 0 .221l1.12 1.117c.06.062.16.062.221 0l1.966-1.96c.06-.06.06-.159 0-.22zM4.198 5.13c1.206 0 2.184-.97 2.184-2.165A2.176 2.176 0 0 0 4.198.8c-1.206 0-2.185.97-2.185 2.166 0 1.195.979 2.165 2.185 2.165zm0-3.61c.802 0 1.456.649 1.456 1.445 0 .795-.654 1.443-1.456 1.443a1.452 1.452 0 0 1-1.456-1.443c0-.796.653-1.444 1.456-1.444zm1.36 3.85c-.438 0-.644.241-1.36.241-.715 0-.922-.24-1.36-.24A2.03 2.03 0 0 0 .8 7.393v.385c0 .399.326.722.728.722h5.34a.725.725 0 0 0 .728-.722v-.385a2.03 2.03 0 0 0-2.039-2.021zm1.31 2.407h-5.34v-.385c0-.716.589-1.3 1.31-1.3.222 0 .582.241 1.36.241.784 0 1.136-.24 1.36-.24.721 0 1.31.583 1.31 1.3v.384z" fill="#fff"/>
</svg>
