<svg width="21" height="20" viewBox="0 0 21 20" xmlns="http://www.w3.org/2000/svg" id="varning-exclamation">
<path d="M19.7541 15.3991L12.171 1.46306C11.679 0.550063 10.943 0.0390625 10.153 0.0390625C9.36301 0.0390625 8.63801 0.560063 8.137 1.47306L0.57292 15.4001C0.0829151 16.3011 0.0289145 17.2251 0.434919 17.9301C0.839923 18.6371 1.65093 19.0391 2.65394 19.0391H17.6741C18.6771 19.0391 19.4881 18.6371 19.8941 17.9311C20.2991 17.2251 20.2451 16.3121 19.7541 15.4001V15.3991ZM10.164 4.39606C10.559 4.39606 10.879 4.72206 10.879 5.12406V11.7071C10.879 12.1091 10.559 12.4351 10.164 12.4351C10.0693 12.4343 9.97557 12.4148 9.88832 12.3778C9.80108 12.3408 9.72199 12.2869 9.65559 12.2193C9.58918 12.1517 9.53675 12.0716 9.50131 11.9837C9.46586 11.8959 9.44809 11.8018 9.44901 11.7071V5.12306C9.44901 4.73206 9.76902 4.39606 10.164 4.39606ZM10.164 16.0201C9.54502 16.0201 9.05401 15.5101 9.05401 14.8801C9.05401 14.2501 9.55602 13.7391 10.164 13.7391C10.783 13.7391 11.274 14.2491 11.274 14.8791C11.274 15.5091 10.772 16.0201 10.164 16.0201Z" />
</svg>
