<svg width="24" height="24" viewBox="0 0 24 24" fill="none" xmlns="http://www.w3.org/2000/svg">
<path d="M21.53 6.74583C21.378 6.65075 21.2055 6.6007 21.03 6.6007C20.8545 6.6007 20.682 6.65075 20.53 6.74583L17 8.63083C16.9715 7.7897 16.6429 6.99335 16.0834 6.40939C15.5238 5.82544 14.777 5.49943 14 5.5H5C4.20435 5.5 3.44129 5.84241 2.87868 6.4519C2.31607 7.0614 2 7.88805 2 8.75V15.25C2 16.112 2.31607 16.9386 2.87868 17.5481C3.44129 18.1576 4.20435 18.5 5 18.5H14C14.777 18.5006 15.5238 18.1746 16.0834 17.5906C16.6429 17.0067 16.9715 16.2103 17 15.3692L20.56 17.2975C20.6963 17.3732 20.8468 17.414 21 17.4167C21.1872 17.4173 21.3709 17.361 21.53 17.2542C21.6741 17.1566 21.7929 17.0208 21.8751 16.8597C21.9574 16.6986 22.0003 16.5174 22 16.3333V7.66667C22.0003 7.48256 21.9574 7.3014 21.8751 7.14028C21.7929 6.97916 21.6741 6.84341 21.53 6.74583ZM15 15.25C15 15.5373 14.8946 15.8129 14.7071 16.016C14.5196 16.2192 14.2652 16.3333 14 16.3333H5C4.73478 16.3333 4.48043 16.2192 4.29289 16.016C4.10536 15.8129 4 15.5373 4 15.25V8.75C4 8.46268 4.10536 8.18713 4.29289 7.98397C4.48043 7.7808 4.73478 7.66667 5 7.66667H14C14.2652 7.66667 14.5196 7.7808 14.7071 7.98397C14.8946 8.18713 15 8.46268 15 8.75V15.25ZM20 14.5783L17 12.9533V11.0467L20 9.42167V14.5783Z" fill="#F8F8F8"/>
</svg>
