<svg width="25" height="24" viewBox="0 0 25 24" fill="none" xmlns="http://www.w3.org/2000/svg">
<g filter="url(#filter0_b_9308_137099)">
<rect x="0.953125" y="0.5" width="23" height="23" rx="3.5" fill="#444546" fill-opacity="0.8" stroke="#4C4E51"/>
<g clip-path="url(#clip0_9308_137099)">
<path d="M14.7628 13.3507C14.6129 13.2012 14.4116 13.1144 14.2 13.108C13.9884 13.1015 13.7822 13.1758 13.6234 13.3159C13.4646 13.4559 13.3651 13.6511 13.345 13.8619C13.3249 14.0727 13.3858 14.2832 13.5153 14.4507L13.5845 14.529L17.1081 17.8333H14.9531C14.7407 17.8336 14.5364 17.9149 14.382 18.0607C14.2275 18.2065 14.1346 18.4058 14.1221 18.6178C14.1097 18.8299 14.1787 19.0386 14.315 19.2015C14.4513 19.3644 14.6447 19.4691 14.8556 19.4942L14.9531 19.5H19.1198C19.3239 19.5 19.5209 19.425 19.6734 19.2894C19.826 19.1538 19.9234 18.9669 19.9473 18.7642L19.9531 18.6667V14.5C19.9529 14.2876 19.8716 14.0833 19.7258 13.9289C19.5799 13.7744 19.3807 13.6815 19.1686 13.669C18.9566 13.6566 18.7478 13.7256 18.5849 13.8619C18.4221 13.9982 18.3174 14.1916 18.2923 14.4025L18.2865 14.5V16.655L14.7628 13.3507ZM5.78646 4.5C5.58235 4.50003 5.38534 4.57496 5.23282 4.7106C5.08029 4.84623 4.98284 5.03312 4.95896 5.23583L4.95312 5.33333V9.5C4.95336 9.7124 5.03469 9.91669 5.1805 10.0711C5.32631 10.2256 5.52559 10.3185 5.73762 10.331C5.94966 10.3434 6.15844 10.2744 6.32132 10.1381C6.4842 10.0018 6.58887 9.80841 6.61396 9.5975L6.61979 9.5V7.345L9.95312 10.331C10.1031 10.4804 10.3043 10.5672 10.5159 10.5737C10.7276 10.5801 10.9337 10.5058 11.0925 10.3658C11.2513 10.2257 11.3509 10.0305 11.371 9.81975C11.391 9.60898 11.3301 9.39847 11.2006 9.23098L11.1315 9.15264L7.79813 6.16667H9.95312C10.1655 6.16643 10.3698 6.0851 10.5243 5.93929C10.6787 5.79349 10.7717 5.59421 10.7841 5.38217C10.7965 5.17014 10.7276 4.96135 10.5912 4.79847C10.4549 4.6356 10.2615 4.53092 10.0506 4.50583L9.95312 4.5H5.78646Z" fill="#F8F8F8"/>
</g>
</g>
<defs>
<filter id="filter0_b_9308_137099" x="-3.54688" y="-4" width="32" height="32" filterUnits="userSpaceOnUse" color-interpolation-filters="sRGB">
<feFlood flood-opacity="0" result="BackgroundImageFix"/>
<feGaussianBlur in="BackgroundImageFix" stdDeviation="2"/>
<feComposite in2="SourceAlpha" operator="in" result="effect1_backgroundBlur_9308_137099"/>
<feBlend mode="normal" in="SourceGraphic" in2="effect1_backgroundBlur_9308_137099" result="shape"/>
</filter>
<clipPath id="clip0_9308_137099">
<rect width="16" height="16" fill="white" transform="translate(4.45312 4)"/>
</clipPath>
</defs>
</svg>
