<svg width="42" id="video" height="42" viewBox="0 0 42 42" xmlns="http://www.w3.org/2000/svg">
<path d="M36.65 2H5.15C4.31457 2 3.51335 2.33187 2.92261 2.92261C2.33187 3.51335 2 4.31457 2 5.15V36.65C2 37.4854 2.33187 38.2866 2.92261 38.8774C3.51335 39.4681 4.31457 39.8 5.15 39.8H36.65C37.4854 39.8 38.2866 39.4681 38.8774 38.8774C39.4681 38.2866 39.8 37.4854 39.8 36.65V5.15C39.8 4.31457 39.4681 3.51335 38.8774 2.92261C38.2866 2.33187 37.4854 2 36.65 2Z" stroke="white" stroke-width="4" stroke-linecap="round" stroke-linejoin="round"/>
<path d="M2 11.45H39.8M30.35 2L24.05 11.45M17.75 2L11.45 11.45M17.225 25.1V18.7349L22.7375 21.9164L28.25 25.1L22.7375 28.2825L17.225 31.4651V25.1Z" stroke="white" stroke-width="4" stroke-linecap="round" stroke-linejoin="round"/>
</svg>
