<svg width="15" height="9" viewBox="0 0 15 9" fill="none" xmlns="http://www.w3.org/2000/svg">
<path d="M13.7387 1.58541C13.6374 1.5269 13.5224 1.49609 13.4054 1.49609C13.2884 1.49609 13.1734 1.5269 13.0721 1.58541L10.7188 2.74541V3.79964L13.1512 2.79964V6.83784L10.7188 5.83784V6.89208L13.0921 8.07874C13.183 8.12533 13.2833 8.15042 13.3854 8.15208C13.5102 8.15248 13.6327 8.11783 13.7387 8.05208C13.8348 7.99203 13.914 7.90849 13.9688 7.80934C14.0237 7.71019 14.0523 7.59871 14.0521 7.48541V2.15208C14.0523 2.03878 14.0237 1.9273 13.9688 1.82815C13.914 1.729 13.8348 1.64546 13.7387 1.58541Z" fill="#B3B3B4"/>
<path d="M10.7188 5.83784L13.1512 6.83784V2.79964L10.7188 3.79964V5.83784Z" fill="#B3B3B4"/>
<rect x="0.730469" y="0.824219" width="9.98987" height="8" rx="1.5" fill="#B3B3B4"/>
</svg>
