<svg width="14" height="14" viewBox="0 0 14 14" fill="none" xmlns="http://www.w3.org/2000/svg">
<g id="Warning" clip-path="url(#clip0_4050_66945)">
<g id="Vector">
<path d="M12.5877 10.4209L8.16423 2.2916C7.87723 1.75902 7.44789 1.46094 6.98705 1.46094C6.52621 1.46094 6.10329 1.76485 5.81104 2.29744L1.39866 10.4215C1.11282 10.9471 1.08132 11.4861 1.31816 11.8974C1.55441 12.3098 2.0275 12.5443 2.61259 12.5443H11.3743C11.9594 12.5443 12.4325 12.3098 12.6694 11.8979C12.9056 11.4861 12.8741 10.9529 12.5877 10.4209ZM6.99347 4.00252C7.22388 4.00252 7.41055 4.19269 7.41055 4.42719V8.26727C7.41055 8.50177 7.22388 8.69194 6.99347 8.69194C6.93818 8.69148 6.88353 8.68013 6.83264 8.65853C6.78175 8.63693 6.73562 8.60552 6.69688 8.56607C6.65814 8.52663 6.62756 8.47994 6.60688 8.42867C6.5862 8.3774 6.57584 8.32255 6.57638 8.26727V4.4266C6.57638 4.19852 6.76305 4.00252 6.99347 4.00252ZM6.99347 10.7832C6.63238 10.7832 6.34596 10.4857 6.34596 10.1182C6.34596 9.75069 6.6388 9.4526 6.99347 9.4526C7.35455 9.4526 7.64097 9.7501 7.64097 10.1176C7.64097 10.4851 7.34814 10.7832 6.99347 10.7832Z" fill="#FFC31B"/>
<path d="M6.99347 4.00252C7.22388 4.00252 7.41055 4.19269 7.41055 4.42719V8.26727C7.41055 8.50177 7.22388 8.69194 6.99347 8.69194C6.93818 8.69148 6.88353 8.68013 6.83264 8.65853C6.78175 8.63693 6.73562 8.60552 6.69688 8.56607C6.65814 8.52663 6.62756 8.47994 6.60688 8.42867C6.5862 8.3774 6.57584 8.32255 6.57638 8.26727V4.4266C6.57638 4.19852 6.76305 4.00252 6.99347 4.00252Z" fill="#303439"/>
<path d="M6.99347 10.7832C6.63238 10.7832 6.34596 10.4857 6.34596 10.1182C6.34596 9.75069 6.6388 9.4526 6.99347 9.4526C7.35455 9.4526 7.64097 9.7501 7.64097 10.1176C7.64097 10.4851 7.34814 10.7832 6.99347 10.7832Z" fill="#303439"/>
<path d="M13.0279 10.1839L13.0269 10.182L8.60439 2.05441C8.60422 2.0541 8.60405 2.05378 8.60388 2.05347C8.2586 1.41334 7.68542 0.960938 6.98705 0.960938C6.28258 0.960938 5.7188 1.42618 5.37269 2.0569L5.37166 2.0588L0.959412 10.1826C0.959398 10.1827 0.959384 10.1827 0.959369 10.1827C0.959339 10.1828 0.959309 10.1828 0.959279 10.1829C0.616782 10.8128 0.537105 11.5425 0.884545 12.1463C1.23266 12.7536 1.89932 13.0443 2.61259 13.0443H11.3743C12.0879 13.0443 12.7542 12.7535 13.1028 12.1472L13.1031 12.1467C13.4501 11.5418 13.3695 10.8184 13.0279 10.1839Z" stroke="#303439"/>
</g>
</g>
<defs>
<clipPath id="clip0_4050_66945">
<rect width="14" height="14" fill="white"/>
</clipPath>
</defs>
</svg>
