<svg width="17" height="17" viewBox="0 0 17 17" fill="none" xmlns="http://www.w3.org/2000/svg">
<path d="M14.9585 12.7166L9.90309 3.4259C9.57509 2.81723 9.08442 2.47656 8.55774 2.47656C8.03107 2.47656 7.54773 2.8239 7.21373 3.43256L2.17101 12.7172C1.84434 13.3179 1.80834 13.9339 2.07901 14.4039C2.34901 14.8752 2.88968 15.1432 3.55836 15.1432H13.5718C14.2405 15.1432 14.7811 14.8752 15.0518 14.4046C15.3218 13.9339 15.2858 13.3252 14.9585 12.7172V12.7166ZM8.56508 5.38123C8.82841 5.38123 9.04175 5.59856 9.04175 5.86656V10.2552C9.04175 10.5232 8.82841 10.7406 8.56508 10.7406C8.5019 10.74 8.43944 10.7271 8.38128 10.7024C8.32312 10.6777 8.27039 10.6418 8.22612 10.5967C8.18185 10.5516 8.1469 10.4983 8.12327 10.4397C8.09964 10.3811 8.08779 10.3184 8.08841 10.2552V5.8659C8.08841 5.60523 8.30174 5.38123 8.56508 5.38123ZM8.56508 13.1306C8.15241 13.1306 7.82507 12.7906 7.82507 12.3706C7.82507 11.9506 8.15974 11.6099 8.56508 11.6099C8.97775 11.6099 9.30509 11.9499 9.30509 12.3699C9.30509 12.7899 8.97042 13.1306 8.56508 13.1306Z" fill="#FFC31B"/>
</svg>
