<svg width="24" height="24" viewBox="0 0 24 24" fill="none" xmlns="http://www.w3.org/2000/svg">
<path d="M13.8181 21C14.0592 21 14.2904 20.9052 14.4609 20.7364C14.6314 20.5676 14.7271 20.3387 14.7271 20.1C14.7271 19.8613 14.6314 19.6324 14.4609 19.4636C14.2904 19.2948 14.0592 19.2 13.8181 19.2H6.24238C5.59944 19.2 4.98283 18.9471 4.5282 18.4971C4.07357 18.047 3.81816 17.4365 3.81816 16.8V7.2C3.81816 6.56348 4.07357 5.95303 4.5282 5.50294C4.98283 5.05286 5.59944 4.8 6.24238 4.8H13.8181C14.0592 4.8 14.2904 4.70518 14.4609 4.5364C14.6314 4.36761 14.7271 4.13869 14.7271 3.9C14.7271 3.66131 14.6314 3.43239 14.4609 3.2636C14.2904 3.09482 14.0592 3 13.8181 3H6.24238C5.11723 3 4.03816 3.4425 3.24256 4.23015C2.44696 5.0178 2 6.08609 2 7.2V16.8C2 17.9139 2.44696 18.9822 3.24256 19.7699C4.03816 20.5575 5.11723 21 6.24238 21H13.8181Z" fill="#F8F8F8"/>
<path d="M16.8374 7.43526C16.9251 7.35503 17.0279 7.29269 17.14 7.2518C17.252 7.21091 17.3711 7.19228 17.4904 7.19696C17.6097 7.20164 17.7269 7.22954 17.8353 7.27908C17.9438 7.32861 18.0413 7.39881 18.1223 7.48566L21.7586 11.3857C21.9138 11.5519 22 11.77 22 11.9965C22 12.2229 21.9138 12.441 21.7586 12.6073L18.1223 16.5073C18.0412 16.594 17.9436 16.6641 17.8351 16.7135C17.7267 16.7629 17.6094 16.7907 17.4901 16.7953C17.3708 16.7999 17.2518 16.7811 17.1398 16.7401C17.0278 16.6992 16.9251 16.6367 16.8374 16.5565C16.7498 16.4762 16.679 16.3796 16.6291 16.2722C16.5792 16.1648 16.5511 16.0488 16.5465 15.9306C16.5372 15.6921 16.6239 15.4597 16.7877 15.2845L19.0156 12.8953H9.57568C9.33458 12.8953 9.10335 12.8004 8.93286 12.6317C8.76238 12.4629 8.6666 12.234 8.6666 11.9953C8.6666 11.7566 8.76238 11.5276 8.93286 11.3589C9.10335 11.1901 9.33458 11.0953 9.57568 11.0953H19.0144L16.7865 8.70726C16.7055 8.62043 16.6425 8.51866 16.6012 8.40774C16.5599 8.29682 16.5411 8.17894 16.5458 8.06082C16.5505 7.94269 16.5787 7.82665 16.6288 7.71932C16.6788 7.61198 16.7497 7.51546 16.8374 7.43526Z" fill="#F8F8F8"/>
</svg>
